<?xml version="1.0" standalone="no"?>
<!DOCTYPE svg PUBLIC "-//W3C//DTD SVG 1.1//EN" "http://www.w3.org/Graphics/SVG/1.1/DTD/svg11.dtd" >
<svg xmlns="http://www.w3.org/2000/svg" xmlns:xlink="http://www.w3.org/1999/xlink" version="1.1">
<metadata></metadata>
<defs>
<font id="barrett_primeregular" horiz-adv-x="868" >
<font-face units-per-em="2048" ascent="1536" descent="-512" />
<missing-glyph horiz-adv-x="604" />
<glyph horiz-adv-x="0" />
<glyph unicode="&#xd;" horiz-adv-x="1024" />
<glyph unicode=" "  horiz-adv-x="604" />
<glyph unicode="&#x09;" horiz-adv-x="604" />
<glyph unicode="&#xa0;" horiz-adv-x="604" />
<glyph unicode="!" horiz-adv-x="221" d="M-2 182q0 -57 19.5 -92t41.5 -55q27 -23 62 -33v256h-123v-76zM-2 360v1070h123v-1070h-123z" />
<glyph unicode="&#x22;" horiz-adv-x="374" d="M0 1368v64h115v-238q-33 12 -58 35q-23 20 -40 53t-17 86zM172 1368v64h115v-238q-33 12 -58 35q-23 20 -40 53t-17 86z" />
<glyph unicode="#" horiz-adv-x="942" d="M4 784h266v140h-110q-49 0 -80 15t-47 36q-20 23 -29 51h266v111q0 47 15.5 78.5t36.5 48.5q23 20 53 30v-268h137v268q29 -10 51 -30q18 -16 34.5 -48t16.5 -79v-111h111q49 0 80 -16.5t47 -34.5q20 -23 31 -51h-269v-140h111q49 0 80 -16t47 -35q20 -23 31 -51h-269 v-268q-29 8 -51 28q-20 16 -35.5 48t-15.5 81v111h-137v-111q0 -49 -16.5 -80.5t-36.5 -48.5q-23 -20 -52 -28v268h-110q-49 0 -80 15.5t-47 35.5q-20 23 -29 51zM375 784h137v140h-137v-140z" />
<glyph unicode="$" horiz-adv-x="1093" d="M-4 973v106q0 27 12 84.5t55 116.5t127 104.5t228 45.5h18v178q33 -12 60 -35q23 -20 41 -54t18 -89h37q96 0 163.5 -23t112.5 -57.5t71 -76.5t39 -81t17 -69.5t4 -43.5v-55h-129v55q0 68 -30.5 111t-74.5 69.5t-92 38t-85 15.5h-33v-576h27h10q131 0 210 -39t122 -91 t57 -108.5t18 -88.5v-72q-4 -35 -18 -90t-55 -107.5t-117 -91.5t-201 -41v-6h-53v-182q-35 12 -59 35q-23 20 -41.5 54t-18.5 91v2h-33q-143 0 -224 47t-121 108.5t-49 120t-9 78.5v230q35 -4 61 -19q23 -12 43.5 -37.5t20.5 -68.5v-51v-54q0 -68 28.5 -110.5t69.5 -67 t87 -36t81 -15.5h45v494h-22h-17q-143 0 -224 47t-120 107.5t-48 117.5t-9 80zM121 969q0 -66 28.5 -110t69.5 -70.5t87 -38t81 -13.5h27h8h14v576h-18q-35 -4 -86 -15.5t-98.5 -38t-80 -69.5t-32.5 -111v-110zM555 127h49q35 2 82 13.5t89 38t70.5 69.5t28.5 108v31 q0 68 -28.5 112t-69.5 69.5t-87 37.5t-81 15h-26h-9h-18v-494z" />
<glyph unicode="%" horiz-adv-x="0" d="M10 1214q12 61 45 111.5t80 83.5t106.5 46t120.5 1q61 -10 111.5 -43t83.5 -81t47 -106.5t2 -119.5t-45 -111.5t-81 -83t-107.5 -46t-120.5 -1.5q-61 10 -110.5 43t-82 81t-47 106.5t-2.5 119.5zM96 1200q-8 -45 1 -87t33 -75.5t59.5 -58.5t78.5 -33t85 1t76 34 t58.5 60.5t32.5 78.5q8 45 -1 87t-32.5 76t-59.5 58.5t-81 32.5t-87 -1t-75.5 -33.5t-57.5 -60.5t-30 -79zM170 118q0 36 25 83l708 1335q23 -23 35 -53q10 -27 10 -64t-24 -84l-709 -1335q-25 25 -35 55q-10 27 -10 63zM551 475q12 61 45 111.5t80 83t106.5 46t120.5 1.5 t111.5 -45t83 -80t47 -105.5t2.5 -119.5t-45 -111.5t-81 -83.5t-107.5 -47t-120.5 -4q-61 12 -110.5 45t-82.5 81t-47 107.5t-2 120.5zM637 459q-8 -43 1 -85t32.5 -76t59.5 -58.5t79 -32.5q45 -8 87 1t77 33.5t58.5 60.5t29.5 79q8 45 -1 87t-32.5 76t-59.5 58.5t-81 32.5 q-45 6 -87 -3t-76 -33t-56.5 -59.5t-30.5 -80.5z" />
<glyph unicode="&#x26;" horiz-adv-x="1372" d="M2 0v217v96q0 53 18.5 106.5t52 101.5t81 89t102.5 70q-113 66 -183.5 184.5t-70.5 259.5v88v226h209h387q129 0 207 -40t120 -93.5t56 -109.5t14 -87h11v-115h-134v103q-4 63 -31.5 106t-67.5 67.5t-85 35t-82 10.5h-387l653 -776v10v67v9q4 53 25 88t45 55q29 23 64 37 v-180v-238l254 -311l-84 -76h-11l-188 217q-14 -35 -41 -73t-71 -70.5t-109.5 -53t-157.5 -20.5h-387h-209zM115 113h96h407q31 4 72 15t79 32.5t66.5 58.5t36.5 94v37l-227 275h-151q-74 -4 -142.5 -24.5t-121 -59.5t-84 -96.5t-31.5 -131.5v-96v-104zM115 1124 q0 -78 31.5 -146.5t84 -120.5t121 -84t142.5 -36h47l-426 512v-37v-88z" />
<glyph unicode="'" horiz-adv-x="163" d="M0 1194v63q0 53 17.5 86t39.5 54q25 23 58 35v-238h-115z" />
<glyph unicode="(" horiz-adv-x="622" d="M-2 358v693q2 98 42 185t107.5 151.5t156.5 101.5t190 37h24t27 -4v-113q-12 2 -26.5 2h-24.5q-78 0 -148 -29.5t-121 -80t-80.5 -118t-29.5 -143.5h-4v-682h4q0 -76 29.5 -143.5t80.5 -118.5t121 -80.5t148 -29.5q10 0 24 2t27 2v-115h-51q-102 0 -192.5 38t-158 103.5 t-106.5 153.5t-39 188z" />
<glyph unicode=")" horiz-adv-x="638" d="M-2 -10q12 0 26.5 -2t24.5 -2q78 0 147.5 29.5t121 80.5t81 119t29.5 143h4v682h-4q0 76 -29.5 143.5t-81 118t-121 80t-147.5 29.5h-24.5t-26.5 -2v113q12 4 26.5 4h24.5q100 0 189.5 -37t157 -101.5t107.5 -151.5t42 -185v-693q0 -100 -39 -188t-106.5 -153.5 t-157.5 -103.5t-193 -38h-51v115z" />
<glyph unicode="*" horiz-adv-x="688" d="M0 1186h166q-35 39 -43 74.5t-6 64.5q2 33 16 61l123 -116q2 53 21.5 84.5t41.5 50.5q25 23 58 31v-166q37 33 72.5 42t64.5 7q33 -2 64 -16l-117 -117q51 -4 82.5 -23.5t50.5 -42.5q23 -25 33 -57h-166q35 -41 43 -77t4 -64q-4 -35 -19 -64l-116 121q-4 -53 -23.5 -85 t-42.5 -50q-27 -23 -57 -31v166q-39 -35 -74 -43t-63 -6q-33 2 -64 16l117 117q-53 4 -85 23.5t-50 41.5q-23 25 -31 58z" />
<glyph unicode="+" horiz-adv-x="1187" d="M-2 717h360h127v291q0 59 19.5 97t44.5 60q27 25 63 39v-487h29h262q59 0 97 -20.5t61 -43.5q25 -29 39 -63h-488v-29v-262q0 -59 -20.5 -97t-42.5 -61q-29 -25 -64 -39v488h-127h-163q-59 0 -97.5 19.5t-60.5 43.5q-25 27 -39 64z" />
<glyph unicode="," horiz-adv-x="165" d="M0 -98v237h115v-61q0 -55 -17.5 -89t-40.5 -55q-25 -23 -57 -32z" />
<glyph unicode="-" d="M4 713h340v-121h-156q-57 0 -93 18.5t-56 40.5q-23 27 -35 62zM344 592v121h266q57 0 93 -19.5t57 -42.5q23 -27 35 -59h-451z" />
<glyph unicode="." horiz-adv-x="182" d="M0 0v117h117v-117h-117z" />
<glyph unicode="/" horiz-adv-x="845" d="M1 130.5q1 35.5 24 82.5l706 1325q23 -23 33 -53q10 -27 9 -64t-28 -82l-704 -1325q-20 23 -31 54q-10 27 -9 62.5z" />
<glyph unicode="0" horiz-adv-x="1134" d="M0 414v602q14 88 58 163.5t111 132t150.5 88.5t180.5 32h10q92 0 175 -32t148.5 -88.5t111.5 -132t65 -163.5v-66v-10v-518q-18 -88 -64.5 -166t-112 -135.5t-148.5 -90t-175 -32.5h-10q-96 0 -180 31.5t-151 87t-111 131.5t-58 166zM113 498q0 -49 12 -93.5t35 -85.5 l604 885q-49 51 -117.5 78t-146.5 27t-147.5 -23.5t-123 -69t-85 -107.5t-31.5 -140v-471zM236 223q113 -98 264 -112q78 4 147.5 30.5t122.5 74.5t85 119t32 163v463q-8 35 -15.5 73.5t-23.5 67.5zM1010 940v10v-10z" />
<glyph unicode="1" horiz-adv-x="413" d="M2 1149q-4 31 7 69.5t52 81.5l111 134h125v-1434h-125v10v1245l-149 -172q-16 29 -21 66z" />
<glyph unicode="2" horiz-adv-x="1122" d="M0 0v152v88q0 104 40 195t108.5 159t159.5 107.5t194 39.5h10h20q76 4 143.5 36t117 83t78 119t28.5 145v84v111h-102h-400q-37 -4 -83 -16.5t-87 -38t-69.5 -69.5t-28.5 -110v-57h-129v55q0 20 9 78t49 119t122 108.5t228 47.5h389h221v-228v-84q0 -104 -40 -196 t-108.5 -161t-161 -109t-196.5 -40l-2 3q-2 0 -4 2v-5v5h-23q-78 -4 -144.5 -36t-115.5 -83t-77.5 -120t-28.5 -144v-88v-35h106h400q35 2 81 14t88 39t70.5 71t28.5 111v56v49q0 47 19.5 71.5t43.5 36.5q27 14 64 19v-232q0 -20 -9.5 -77.5t-49 -119t-122.5 -108.5 t-229 -47h-385h-223z" />
<glyph unicode="3" horiz-adv-x="1103" d="M0 352v51h125v-55q0 -68 28.5 -110.5t70.5 -68.5t88 -38t81 -14h400h96v104v88q0 76 -32 133.5t-84 97.5t-121.5 60.5t-143.5 24.5v116q74 4 143.5 37t121.5 84t84 119t32 143v86v111h-96h-400q-35 -2 -81 -14.5t-88 -39t-70.5 -70.5t-28.5 -112v-55h-125v55q0 14 3 45 t16.5 70t39 81t70.5 76t111.5 56.5t162.5 22.5h390h217v-226v-86q-4 -141 -75 -257.5t-192 -180.5q121 -59 194 -162.5t73 -214.5v-88v-221h-217h-390q-143 0 -224 47t-121 108.5t-49 119t-9 77.5z" />
<glyph unicode="4" horiz-adv-x="1130" d="M-2 1038v400h119v-410q2 -37 14 -85t39 -90t72 -71.5t112 -29.5h523v686h124v-1014v-248v-176q-33 10 -59 33q-23 18 -42 51t-23 84v457h-519q-14 0 -46.5 3t-72.5 16t-82 40t-78 73t-58.5 114.5t-22.5 166.5z" />
<glyph unicode="5" horiz-adv-x="1146" d="M-2 358v56h129v-56q0 -70 28.5 -114.5t70.5 -71.5t89 -39t84 -14h410h100v108l-4 133q0 78 -33.5 130.5t-89 83t-127 46t-147.5 19.5h-508v119v555v121h221h2h391q147 0 231.5 -48.5t125.5 -111t50 -120.5t9 -79v-233q-37 2 -65 16q-25 12 -44.5 38t-19.5 73v51v55 q0 70 -28.5 115t-70.5 71.5t-89 38t-84 15.5l-408 -2h-96v-555h383v2q104 0 199.5 -22.5t166 -71t112.5 -124t42 -182.5v-133v-227h-223h-391q-147 0 -230.5 48t-125.5 110.5t-51 121t-9 78.5z" />
<glyph unicode="6" horiz-adv-x="1155" d="M0 358v1002v74h223h395q98 0 167 -22.5t115 -58.5t71.5 -78t39 -82t16.5 -71.5t3 -46.5v-233q-37 4 -63 18q-25 12 -44.5 37t-19.5 72v51v57q0 68 -29.5 112t-71.5 70.5t-88 39t-81 14.5h-412h-94v-553h381h2q104 0 198.5 -22.5t165 -71t112.5 -124t42 -182.5l2 -131 v-229h-223h-391q-147 0 -231.5 48t-125.5 110.5t-50 121t-9 78.5zM127 358q0 -68 29.5 -112.5t71.5 -71.5t89.5 -39t83.5 -14h408h98v108v131q0 78 -33.5 129.5t-90 83t-128 46t-147.5 18.5h-381v-279z" />
<glyph unicode="7" horiz-adv-x="1134" d="M0 1028v51q0 14 3 46t16.5 71t39 81t70.5 77t112.5 57.5t164.5 22.5h393h217v-228v-84q0 -104 -16.5 -195t-57.5 -160t-110.5 -107.5t-174.5 -38.5q-76 -4 -145.5 -36t-121.5 -83t-84 -119t-32 -141v-90v-152h-118v152v90q0 102 41 193t109.5 159t161.5 107.5t198 39.5 q76 2 122 34t70.5 83t31.5 118.5t7 145.5v84v109h-98h-406q-35 -2 -81 -14.5t-88 -39t-70.5 -70.5t-28.5 -112v-51h-125z" />
<glyph unicode="8" horiz-adv-x="1126" d="M-2 346q0 86 19.5 149.5t50 107.5t68.5 71.5t77 44.5q-98 68 -155.5 173t-57.5 230v90v222h217h385q96 0 164 -22.5t113 -56.5t70.5 -76t38.5 -82t16.5 -70.5t3.5 -45.5v-51v-12q0 -84 -18.5 -146.5t-48.5 -106.5t-66.5 -71.5t-73.5 -44.5q92 -63 149.5 -153t57.5 -187 v-88v-221h-215h-387q-129 0 -208 38t-122 91t-58.5 108.5t-17.5 90.5zM119 1122q0 -76 32.5 -142.5t86 -118.5t124 -84t146.5 -36q18 -2 36.5 -2h41.5h55q70 0 116 29t73.5 70t40 87t14.5 81v24h-2v51q0 68 -29 112t-71 70.5t-88 38t-79 13.5h-399h-98v-103v-90zM125 350 q0 -68 28.5 -111.5t69.5 -70.5t87 -39t81 -14l402 2h98v104v88q0 76 -33 133.5t-86 96.5t-122.5 60.5t-145.5 25.5h-133q-70 0 -116 -27t-73.5 -66.5t-41 -84t-15.5 -80.5v-17z" />
<glyph unicode="9" horiz-adv-x="1132" d="M0 360v234q35 -4 63 -19q23 -12 43.5 -37.5t20.5 -70.5v-53v-56q0 -70 29.5 -114.5t71.5 -71.5t89.5 -38t83.5 -13h408h94v555h-381v-2q-104 0 -199.5 22.5t-166 71.5t-112.5 125t-42 180l-2 133v228h221h4h391q147 0 230.5 -48.5t124.5 -111t50 -120.5t9 -79v-1001v-74 h-221h-395q-98 0 -167 22.5t-115 57.5t-72.5 78t-40 83t-16.5 72.5t-3 46.5zM121 1073q2 -78 35.5 -129t90 -83t128 -46t147.5 -18h381v278q0 70 -28.5 115t-70.5 71.5t-89 39t-82 14.5h-412h-100v-109v-133z" />
<glyph unicode=":" horiz-adv-x="212" d="M0 2v244h119v-62q0 -57 -18.5 -92t-41.5 -55q-27 -23 -59 -35zM0 496v118h119v-118h-119z" />
<glyph unicode=";" horiz-adv-x="212" d="M0 131v117h117v-117h-117zM0 498v116h117v-116h-117z" />
<glyph unicode="&#x3c;" horiz-adv-x="581" d="M0 518l88 92l193 193q41 41 81.5 53t71.5 10q37 -2 70 -18l-348 -330l348 -325q-33 -18 -70 -21q-31 -2 -71.5 10.5t-81.5 55.5l-193 192z" />
<glyph unicode="=" horiz-adv-x="1122" d="M0 575h344v-122h-158q-59 0 -95 19.5t-56 41.5q-23 27 -35 61zM0 862h344v-123h-158q-59 0 -95 19.5t-56 42.5q-23 27 -35 61zM344 453v122h264h246q57 0 94 -19t58 -42q23 -27 34 -61h-696zM344 739v123h264h246q57 0 94 -19.5t58 -41.5q23 -27 34 -62h-696z" />
<glyph unicode="&#x3e;" horiz-adv-x="577" d="M0 193l348 325l-348 330q33 16 70 18q31 2 70.5 -10t82.5 -53l193 -193l88 -92l-88 -88l-193 -192q-43 -43 -83 -55.5t-70 -10.5q-37 2 -70 21z" />
<glyph unicode="?" horiz-adv-x="1107" d="M0 1028v55q0 14 3 45t16.5 70t39 81t70.5 76t112.5 56.5t164.5 22.5h387h217v-224v-88q0 -88 -29 -166.5t-80 -142t-119.5 -110t-150.5 -66.5v-275h-123v261v118q76 2 144.5 34t120.5 84t84 120t32 143v88v105h-96h-400q-35 -2 -80 -13.5t-87 -38t-70.5 -69.5t-28.5 -111 v-55h-127zM508 184v70h123v-254q-35 12 -62 35q-23 20 -42 56t-19 93z" />
<glyph unicode="@" horiz-adv-x="1705" d="M2 424v598q2 86 38 162t94.5 131t135 88t162.5 33h350h342q90 0 168 -33t136.5 -88t92 -131t33.5 -162v-416q0 -86 -33.5 -162.5t-92 -134t-136.5 -91.5t-168 -34q-6 0 -16 1t-23 8v96v231v199q0 68 -25.5 127t-69.5 103t-103.5 69.5t-128.5 25.5q-68 0 -127.5 -25.5 t-103.5 -69.5t-69.5 -103.5t-25.5 -126.5q0 -70 25.5 -129.5t69.5 -103.5t103.5 -69.5t127.5 -25.5h176v-102h-176q-90 0 -168 33.5t-136.5 92t-92 136.5t-33.5 168t33.5 168t92 136t136.5 92t168 34q98 0 183 -43t144 -109q0 47 15.5 77t36.5 46q23 20 51 29v-430v-240 v-182q57 8 106 35.5t86 68.5t57.5 93.5t20.5 111.5v408q0 66 -26.5 125t-71.5 103t-105.5 70.5t-130.5 26.5q-2 0 -26.5 -1t-61.5 -1t-80 -2t-79.5 -2t-63.5 -1t-31 -1q-6 0 -59 1t-115.5 3t-116 3t-59.5 1q-66 0 -125 -26.5t-104 -70.5t-71 -103.5t-26 -124.5v-590 q0 -66 26 -123t71 -100t104.5 -69t124.5 -26h477v-104h-477q-86 0 -165 34t-137 91t-93 134t-35 163z" />
<glyph unicode="A" horiz-adv-x="1142" d="M0 -10v702v31q0 137 47 259t138 216t222.5 153.5t297.5 75.5v-149q-139 0 -249 -45t-186.5 -121t-117.5 -177t-41 -212h772v704q31 -14 53 -38q20 -23 37.5 -59t17.5 -91v-260v-979h-108v614h-772v-368q0 -84 -17.5 -133.5t-38.5 -77.5q-25 -33 -55 -45z" />
<glyph unicode="B" horiz-adv-x="1136" d="M2 178v238v1016h115h284q96 0 165 -23t114 -58.5t70.5 -77.5t39 -81t16.5 -69.5t3 -43.5v-151q106 -72 165.5 -181.5t59.5 -244.5q0 -102 -41 -194.5t-111.5 -161t-165.5 -108.5t-202 -40q-113 0 -215 47t-174 133v-180q-35 10 -62 33q-23 20 -42 55t-19 92zM125 483 q4 -80 36 -146.5t85 -114.5t121.5 -74.5t146.5 -26.5q82 0 154.5 29.5t127 82t86 122t31.5 147.5q0 82 -31.5 153.5t-86 126t-127 86t-154.5 31.5h-207v125h207q43 0 85 -8t85 -23v86q0 72 -33 118t-78 72.5t-93 37t-79 10.5h-237h-39v-834z" />
<glyph unicode="C" horiz-adv-x="1134" d="M-2 500v444h10q0 102 40 191.5t107.5 156t159 104.5t193.5 38q94 0 179 -32t152.5 -87t112.5 -132t64 -165h-121q-18 63 -54 117.5t-87.5 93.5t-113.5 60.5t-132 21.5q-78 0 -148.5 -30t-124 -81t-84 -119.5t-30.5 -146.5v-434q0 -82 30.5 -153t84 -123t124 -81.5 t148.5 -29.5q70 0 132 23.5t113.5 64.5t87.5 96t54 119h121q-18 -88 -63.5 -164t-113 -132.5t-152.5 -88t-179 -31.5q-102 0 -195.5 38t-163 105.5t-110.5 158.5t-41 198z" />
<glyph unicode="D" horiz-adv-x="1167" d="M0 180v309v275v670h518q92 0 175 -32t149.5 -87t111.5 -132t64 -165v-602q-18 -88 -63.5 -164t-113 -132.5t-152.5 -88t-179 -31.5q-115 0 -215 46t-172 124v-170q-35 10 -62 33q-23 20 -42 55t-19 92zM123 489q0 -78 30.5 -146.5t84 -119.5t124 -80.5t148.5 -29.5 q70 0 132.5 23.5t111.5 64.5t83.5 96t49.5 119v602q-14 63 -48 117.5t-83 93.5t-109.5 60.5t-128.5 21.5h-395v-547v-275z" />
<glyph unicode="E" horiz-adv-x="1060" d="M0 -2v1247v10v11v170q20 -10 43 -25q16 -12 35.5 -31.5t34.5 -48.5q66 43 150.5 74t170.5 31q96 0 181 -32t152 -88t111 -132t58 -164h-123q-14 63 -50 118.5t-86 95.5t-112.5 63.5t-130.5 23.5q-92 0 -173 -43t-138 -109v-198v-8v-218h586q-10 -35 -33 -61 q-20 -23 -55 -42t-91 -19h-247h-160v-502h407q35 0 82 10t89 37t72 72t30 116v58h133v-58q0 -14 -3 -45.5t-16.5 -71.5t-40 -82t-72.5 -78t-116 -58.5t-168 -22.5h-397h-123z" />
<glyph unicode="F" horiz-adv-x="1032" d="M0 -2v170v10v244v1010h123h395q96 0 164 -23t114 -57.5t71.5 -77.5t39 -83t16.5 -72t3 -46v-55h-123v55q0 72 -30 118t-73 72.5t-90 37t-82 10.5h-405v-578h586q-10 -33 -33 -57q-20 -23 -55 -39t-93 -16h-405v-160v-275v-8q-4 -57 -23.5 -92t-42.5 -55q-25 -23 -57 -33z " />
<glyph unicode="G" horiz-adv-x="1200" d="M0 496v450q4 102 45 191.5t110.5 155t160 103.5t192.5 38q94 0 178 -32t150.5 -87t110.5 -130t59 -163h-123q-14 63 -48 116.5t-83.5 92.5t-111.5 60.5t-132 21.5q-82 0 -151.5 -30t-122 -82t-82 -122.5t-29.5 -150.5v-432q0 -78 29.5 -147.5t82 -123t122 -84 t151.5 -30.5q68 0 129 23.5t111.5 63.5t85 95t49.5 119v206h-301h-187v113h611v-319v-244v-170q-33 8 -58 31q-23 16 -42 48t-23 81q-72 -72 -167 -116t-208 -44q-106 0 -198.5 40t-161 107.5t-108.5 157.5t-40 193z" />
<glyph unicode="H" horiz-adv-x="1089" d="M0 178v1254q31 -12 55 -35q23 -20 41 -57t17 -97v-500h669v500q0 59 19.5 96t42.5 58q27 23 61 35v-1432h-123v623h-669v-623q-33 10 -58 33q-23 20 -39 54t-16 91z" />
<glyph unicode="I" horiz-adv-x="839" d="M-2 2q12 31 37 55q23 23 58.5 40.5t92.5 17.5h84v1194h-272q12 35 37 61q23 23 58.5 42.5t92.5 19.5h480q-10 -35 -33 -62q-20 -23 -55 -42t-91 -19h-94v-1194h273q-10 -33 -33 -58q-20 -23 -55 -39t-91 -16h-489z" />
<glyph unicode="J" horiz-adv-x="989" d="M-2 -2q12 35 37 61q23 23 58.5 42.5t92.5 19.5h84h9h38q78 2 144.5 33.5t116 84t77 120t27.5 145.5v930h123v-930q0 -104 -40 -196.5t-108.5 -161t-161 -108.5t-196.5 -40h-10h-29h-262z" />
<glyph unicode="K" horiz-adv-x="1021" d="M2 -2v1089v160q0 55 16.5 90t38.5 56q25 23 57 32v-667l375 413l160 189q39 41 78 55.5t70 14.5q37 0 69 -15l-602 -676l395 -366l189 -160q41 -39 55.5 -77t14.5 -68q0 -37 -15 -70l-723 647l-66 -74v-395q0 -57 -17 -91t-40 -54q-25 -23 -55 -33z" />
<glyph unicode="L" horiz-adv-x="894" d="M0 504v84v411v242q0 57 16.5 93t38.5 59q23 25 55 37v-842v-84q4 -78 34 -145.5t79 -120t113.5 -84t138.5 -33.5h37h10h94q55 0 90 -19.5t54 -42.5q23 -27 33 -59h-263h-26q-104 0 -196.5 40t-160 107.5t-107.5 159.5t-40 197z" />
<glyph unicode="M" horiz-adv-x="2070" d="M0 0v1434q33 -10 57 -33q23 -18 41.5 -51t22.5 -86q66 78 164 124t211 46q70 0 136 -20.5t122.5 -56.5t103.5 -86t78 -110q72 121 187.5 197t262.5 76q113 0 208 -46t167 -124q41 -55 81 -124t40 -147v-993q-4 0 -23.5 8t-41 27.5t-39 54.5t-17.5 88v205v618 q-14 68 -49 124.5t-84 97.5t-110.5 64.5t-131.5 23.5q-78 0 -146.5 -28t-119.5 -77t-82.5 -113.5t-36.5 -138.5v-645v-131q0 -57 -19 -91t-42 -54q-27 -23 -59 -33v954q-6 74 -39 138.5t-83 113.5t-118 77t-145 28q-70 0 -133.5 -23.5t-113.5 -64.5t-84 -97.5t-44 -124.5 v-618v-205q0 -57 -19.5 -91t-42.5 -54q-27 -23 -59 -33z" />
<glyph unicode="N" horiz-adv-x="1167" d="M0 -2v1432q31 -8 55 -31q23 -18 40.5 -50t17.5 -85q70 78 169 122t212 44q100 0 188 -37t155.5 -101.5t109.5 -150.5t48 -185v-772q0 -59 -19.5 -95t-41.5 -56q-27 -23 -60 -35v958q-6 74 -37.5 137.5t-83 111.5t-118 76t-141.5 28q-70 0 -133.5 -22.5t-112.5 -63.5 t-83 -97.5t-44 -121.5v-607v-213q0 -59 -19.5 -95t-42.5 -56q-27 -23 -59 -35z" />
<glyph unicode="O" horiz-adv-x="1155" d="M0 412v604q14 88 58 163.5t111 131t150.5 87.5t180.5 32h8q92 0 175 -32t149.5 -87.5t111.5 -131t64 -163.5v-76l-9 -518q0 -8 3.5 0t-3.5 0q-14 -88 -58 -166t-109.5 -135.5t-148.5 -90t-175 -32.5h-8q-96 0 -180 31.5t-151 87t-111 131.5t-58 164zM113 498 q0 -78 31.5 -146.5t85 -121t123 -84t147.5 -35.5q78 4 147.5 30.5t122.5 74.5t85 119t32 163v460q-8 74 -40 138.5t-83 111.5t-118.5 74t-145.5 27t-147.5 -23.5t-123 -69t-85 -107.5t-31.5 -140v-471z" />
<glyph unicode="P" horiz-adv-x="1161" d="M0 -2v178v838v233q0 59 19.5 95t41.5 57q27 23 62 35v-179q70 86 169 132.5t210 46.5q109 0 203 -39t162.5 -107.5t108.5 -161t40 -196.5q0 -109 -40 -204t-108.5 -166t-163 -111.5t-202.5 -40.5h-205v122h205q82 0 152.5 33t123.5 87.5t84 127t31 152.5q0 78 -31 146.5 t-84 120.5t-123.5 83t-152.5 31q-72 0 -137.5 -28t-116.5 -76t-85 -114.5t-40 -144.5v-745q0 -57 -19.5 -95t-42.5 -63q-27 -29 -61 -47z" />
<glyph unicode="Q" horiz-adv-x="1048" d="M0 1042q16 82 58 151t102.5 120t136.5 79.5t160 28.5h8q88 0 165 -28.5t137 -79.5t101 -120t54 -151v-59v-8v-475q-12 -68 -44 -129.5t-78 -111.5t-104.5 -86t-126.5 -52h60h43h88q51 0 84 -17.5t49 -37.5q20 -25 29 -56h-242h-25q-92 0 -178 34t-158 85 q-123 41 -206.5 137t-104.5 226zM113 571q0 -72 26.5 -135t74.5 -110t112.5 -77t138.5 -34q68 4 130 27.5t109.5 68.5t76 109.5t28.5 150.5v420q-2 68 -30.5 126.5t-76 100.5t-109 66.5t-128.5 24.5q-74 0 -138.5 -21.5t-112.5 -61.5t-74.5 -97.5t-26.5 -129.5v-428z M922 975v8v-8z" />
<glyph unicode="R" horiz-adv-x="1153" d="M-2 -2v176v832v231q0 59 18.5 95t40.5 57q25 23 60 34v-176q72 84 171 130t210 46q106 0 199.5 -38.5t162 -106.5t107.5 -159t39 -195q0 -74 -19.5 -141.5t-55.5 -127t-85.5 -107.5t-106.5 -79q111 -61 184.5 -167.5t82.5 -248.5v-55h-119v55q-8 74 -40 137.5t-82 111.5 t-116.5 76t-142.5 28h-8h-205v118h205q80 0 150.5 33t123.5 87t84 127t31 153q0 76 -31 144.5t-84 120.5t-123.5 83t-150.5 31q-74 0 -139.5 -28t-117 -76t-84 -114.5t-40.5 -142.5v-739q0 -57 -18.5 -95t-41.5 -63q-27 -29 -59 -47z" />
<glyph unicode="S" horiz-adv-x="1157" d="M2 354v232q39 -4 70 -19q27 -12 49 -38.5t22 -71.5v-58v-45q0 -72 28 -115.5t68 -69.5t86 -36t81 -14h223q35 4 82 14t89 36t71.5 70t29.5 115v27q0 70 -29.5 115t-71.5 71.5t-89 36.5t-82 10h-27h-10h-111h-47h-18q-96 0 -164 22.5t-114 57.5t-72.5 77t-40 81 t-17.5 70.5t-4 46.5v55h131v-55q0 -66 29 -110t70.5 -70.5t89 -39t82.5 -14.5h28h8h113h47h19q129 0 207.5 -39t121.5 -92t57.5 -108.5t14.5 -85.5v-86q0 -31 -14.5 -85.5t-56.5 -106.5t-119.5 -92t-202.5 -42h-205q-98 0 -168 22.5t-117 57.5t-73.5 77t-41 81.5t-18.5 71.5 t-4 46zM4 1024v57q0 18 5 52t21.5 73t45 80t78 74t120 54.5t168.5 21.5h168q147 0 230.5 -47.5t123.5 -108.5t49 -119.5t9 -79.5v-57h-121v57q0 66 -31.5 111t-78 72.5t-96.5 39t-85 11.5h-84h-92q-35 0 -86 -11.5t-98 -39t-81 -72.5t-34 -111v-57h-131z" />
<glyph unicode="T" horiz-adv-x="1099" d="M-2 1309q10 35 33 61q20 23 54 43.5t91 20.5h848q-12 -37 -37 -64q-23 -23 -58.5 -42t-90.5 -19h-256v-1307q-35 10 -62 33q-23 20 -42 54t-19 91v1129h-461z" />
<glyph unicode="U" horiz-adv-x="1146" d="M-2 475v782q0 55 18.5 89t40.5 55q27 23 62 33v-959q6 -74 37.5 -137.5t83 -111.5t117 -75.5t143.5 -27.5q70 0 133 23.5t112.5 64.5t83 97.5t43.5 121.5v612v215q0 55 18.5 89t41.5 55q27 23 61 33v-1432q-33 8 -57 31q-23 18 -41 51t-23 86q-63 -78 -161.5 -123 t-210.5 -45q-102 0 -190.5 37t-155 101.5t-108.5 150.5t-48 184z" />
<glyph unicode="V" horiz-adv-x="1099" d="M2 182v1250h121v-1268q25 39 75 113.5t114.5 171t139 207t148.5 218.5q172 257 379 558q23 -27 31 -62q5 -17 5 -36q0 -16 -3 -32q-6 -38 -41 -85l-821 -1219h-9h-10h-8q-35 10 -62 33q-23 20 -41 56t-18 95z" />
<glyph unicode="W" horiz-adv-x="1980" d="M0 182v1248h125v-1264q23 39 71 113.5t111.5 170t136 206t144.5 218.5q170 256 370 556q10 -14 19 -33q6 -16 9 -38t-3 -46v-1147q25 39 75 113.5t114.5 170t140.5 206t149 218.5q174 257 381 556q18 -27 27 -62q3 -16 3 -34q0 -16 -2 -34q-5 -38 -36 -86l-827 -1214h-25 q-33 10 -57 33q-23 20 -40.5 55t-17.5 94v910l-727 -1092h-16q-37 10 -64 33q-23 20 -42 55t-19 94z" />
<glyph unicode="X" horiz-adv-x="1001" d="M6 66q-1 10 -1 20q0 24 6 56q9 44 48 100l326 475l-326 473q-39 55 -48 100q-6 31 -6 56q0 11 1 20q6 37 25 66l428 -613l418 613q18 -29 24 -66q2 -12 2 -27q0 -22 -4 -49q-6 -45 -41 -100l-336 -473l336 -475q35 -54 41 -100q4 -27 4 -50q0 -14 -2 -26q-6 -37 -24 -64 l-418 612l-428 -612q-18 27 -25 64z" />
<glyph unicode="Y" horiz-adv-x="1126" d="M2 895v354q0 57 19.5 92t41.5 58q27 23 64 37v-541q6 -74 36 -135.5t78 -107.5t111.5 -73.5t136.5 -29.5h216v-125h-216q-96 2 -181 40t-151.5 101.5t-107.5 148.5t-47 181zM207 -2q10 35 33 61q20 23 57 43.5t96 20.5h80h8h45q76 2 141.5 32.5t112.5 80t74 116t27 144.5 v938h125v-938q0 -104 -39 -194.5t-107.5 -158t-161 -106.5t-198.5 -39h-11h-26h-256z" />
<glyph unicode="Z" horiz-adv-x="1255" d="M2 1311q12 33 37 59q23 23 57.5 42.5t91.5 19.5h807h140l-902 -1309h19h891q-14 -35 -37 -62q-23 -23 -57.5 -41t-90.5 -18h-806h-140v10l899 1299h-909z" />
<glyph unicode="[" horiz-adv-x="679" d="M0 -90v797v796h205h403q-12 -33 -35 -57q-20 -23 -54 -39t-87 -16h-319v-1368h319q53 0 87 -17.5t54 -40.5q23 -25 35 -55h-403h-205z" />
<glyph unicode="\" horiz-adv-x="835" d="M5 1421q-1 37 9 64q10 30 33 53l707 -1325q23 -47 23.5 -83t-9.5 -62q-10 -31 -31 -54l-704 1325q-27 45 -28 82z" />
<glyph unicode="]" horiz-adv-x="692" d="M0 -90q12 31 35 55q20 23 54 40.5t87 17.5h320v1368h-320q-53 0 -87 16t-54 39q-23 25 -35 57h403h205v-796v-797h-205h-403z" />
<glyph unicode="^" horiz-adv-x="829" d="M4 969q-2 35 10.5 78t59.5 90l209 209l94 94l98 -94l209 -209q45 -47 59.5 -90t12.5 -78q-2 -39 -21 -76l-358 375l-352 -375q-18 37 -21 76z" />
<glyph unicode="_" horiz-adv-x="1587" d="M4 0h340v-121h-156q-57 0 -93 18.5t-56 41.5q-23 27 -35 61zM344 0h1010q57 0 93 -19.5t56 -41.5q23 -27 35 -60h-1194v121z" />
<glyph unicode="`" horiz-adv-x="253" d="M4 1470q-2 35 8 66l187 -147l-70 -91l-51 39q-41 33 -56.5 69t-17.5 64z" />
<glyph unicode="a" horiz-adv-x="1155" d="M0 510q0 104 40 197.5t108.5 162t160.5 108.5t199 40q113 0 213 -47t172 -133q0 57 19.5 93t41.5 58q27 25 62 37v-508v-328q0 -57 -19.5 -93t-42.5 -58q-27 -25 -61 -37v516q0 78 -31 147.5t-84 123t-122.5 85t-147.5 31.5q-82 0 -153.5 -31.5t-126 -85t-85 -126 t-30.5 -152.5q0 -78 30.5 -147.5t85 -123t126 -84t153.5 -30.5h207v-123h-207q-106 0 -198.5 41t-161 110.5t-108.5 162t-40 194.5z" />
<glyph unicode="b" horiz-adv-x="1157" d="M0 2v510v731q0 59 18.5 96t40.5 58q27 23 62 35v-920q0 -80 30.5 -151.5t85 -124t126 -83t151.5 -30.5q78 0 146.5 30.5t121 83t83 124t30.5 151.5t-30.5 150.5t-83 123t-121 82t-146.5 29.5h-215v121h215q104 0 195.5 -39t160 -107.5t107.5 -161t39 -198.5 q0 -104 -39 -197.5t-107.5 -162t-160 -109.5t-195.5 -41q-119 0 -220 50t-173 134q0 -57 -19.5 -92t-42.5 -55q-27 -23 -59 -37z" />
<glyph unicode="c" horiz-adv-x="1148" d="M2 512q0 102 40 195.5t109.5 164t163 111.5t199.5 41q92 0 176 -33t150.5 -91t112.5 -136t65 -166h-123q-18 63 -54 118.5t-86 96.5t-111.5 64.5t-129.5 23.5q-82 0 -153.5 -31.5t-124 -85t-82 -124t-29.5 -148.5q0 -82 29.5 -154.5t82 -127t124 -86t153.5 -31.5 q68 0 130.5 23.5t113.5 64.5t87 96t50 119h123q-14 -90 -60.5 -166t-114 -131.5t-152.5 -87t-177 -31.5q-106 0 -199.5 40t-163 109.5t-109.5 163t-40 199.5z" />
<glyph unicode="d" horiz-adv-x="1212" d="M0 504q0 106 40 198.5t108.5 161t160.5 108.5t197 40h217v-123h-217q-78 0 -146.5 -31t-122 -84t-84 -122.5t-30.5 -147.5q0 -80 29.5 -150.5t82 -123t122 -82t149.5 -29.5q82 0 151.5 29.5t121.5 82t82 120t30 145.5v938q35 -12 61 -35q23 -20 42.5 -56t19.5 -96v-751 v-498q-35 10 -62 33q-23 18 -42 53t-19 90q-70 -84 -167 -130t-218 -46q-104 0 -196.5 40t-161 108.5t-108.5 160.5t-40 197z" />
<glyph unicode="e" horiz-adv-x="1175" d="M0 510q0 102 40 195.5t109.5 164t163 111.5t199.5 41q92 0 175 -34t149.5 -91t112.5 -135t65 -166l4 -37q2 -14 4 -28.5t2 -20.5h-723v113h580q-18 61 -54 111t-84.5 86t-108 56.5t-122.5 20.5q-82 0 -153.5 -31.5t-124 -85t-82 -123t-29.5 -147.5q0 -82 29.5 -154.5 t82 -127t124 -86t153.5 -31.5q68 0 130.5 23.5t112.5 65.5t84.5 97t49.5 119h125q-14 -90 -58.5 -166t-111 -132.5t-152.5 -88t-180 -31.5q-106 0 -199.5 40t-163 109.5t-109.5 162.5t-40 200z" />
<glyph unicode="f" horiz-adv-x="708" d="M-2 889q10 29 31 51q16 20 46.5 37.5t80.5 21.5q0 72 29.5 137.5t93.5 137.5l36 37q72 63 148 92t188 29h11v-121h-11q-70 0 -131 -23.5t-110.5 -63.5t-83 -95.5t-47.5 -116.5h372q-10 -35 -33 -62q-20 -23 -55 -42t-90 -19h-8h-186v-711q-4 -55 -23.5 -90t-42.5 -53 q-25 -23 -57 -33v887h-158z" />
<glyph unicode="g" horiz-adv-x="1222" d="M0 508q0 102 40 195.5t109.5 164t163 111.5t197.5 41q123 0 220 -51t169 -138q0 57 19.5 93.5t42.5 58.5q27 25 61 37v-512v-66v-18v-426q0 -139 -51 -236.5t-132 -161t-180.5 -97t-193.5 -44.5h8h-199q12 33 37 60q23 23 59 42t95 19q70 8 146.5 31.5t141 72t105.5 124 t41 190.5v510q0 78 -30.5 148.5t-83 124t-123 85t-152.5 31.5q-80 0 -150.5 -31.5t-123 -85t-83 -124t-30.5 -148.5q0 -80 30.5 -152.5t83 -126t123 -85t150.5 -31.5h217v-115h-217q-104 0 -197.5 40t-163 109.5t-109.5 162.5t-40 198z" />
<glyph unicode="h" horiz-adv-x="1142" d="M0 193v1241q35 -10 61 -33q23 -20 42.5 -55t19.5 -91v-424q63 86 163.5 137.5t223.5 51.5q104 0 196.5 -41t161 -109.5t108.5 -161t40 -194.5q0 -98 -33 -185t-91 -155t-138 -112t-172 -58v123q68 14 125 50t98 87t64.5 114.5t23.5 135.5q0 76 -31 145.5t-84 123 t-122.5 84t-145.5 30.5q-78 0 -146.5 -27.5t-121 -77t-84 -114t-35.5 -137.5v-537q-35 12 -62 37q-23 23 -42 58.5t-19 93.5z" />
<glyph unicode="i" horiz-adv-x="270" d="M0 0v1024h123v-602v-234q0 -57 -19.5 -93t-42.5 -58q-27 -25 -61 -37zM0 1182v65q0 57 19.5 93t41.5 59q27 25 62 37v-254h-123z" />
<glyph unicode="j" horiz-adv-x="397" d="M-276 -410q68 12 137 39t125.5 74t93.5 120t37 177v506v29v483v10h123v-522v-506q0 -129 -46.5 -223t-120 -158.5t-165.5 -100.5t-184 -50v122zM117 1180v252q35 -12 61 -37q23 -23 42.5 -59t19.5 -91v-65h-123z" />
<glyph unicode="k" horiz-adv-x="1118" d="M2 2v1251q0 57 18.5 92t40.5 56q27 23 62 35v-734q29 29 67.5 68t81.5 82t88.5 87t88.5 87l206 207q14 -33 17 -68v-9q0 -26 -10 -58q-12 -36 -52 -78l-254 -258l381 -379l166 -172q41 -41 55 -80q12 -34 11 -60v-8q-2 -37 -21 -65l-678 678l-147 -146v-340 q0 -57 -19.5 -93t-42.5 -58q-27 -25 -59 -37z" />
<glyph unicode="l" horiz-adv-x="292" d="M0 190v1246q33 -10 59 -33q23 -20 42.5 -55t19.5 -91v-1257q-35 12 -62 37q-23 23 -41 58.5t-18 94.5z" />
<glyph unicode="m" horiz-adv-x="2004" d="M0 0v1026q31 -10 57 -33q23 -20 42.5 -55t23.5 -92q72 86 169 133t212 47q150 0 266.5 -77t187.5 -199q33 61 80 111t104.5 87t124 57.5t138.5 20.5q106 0 199.5 -41t163 -111.5t109.5 -164t40 -197.5q0 -98 -34 -185t-92 -155t-138 -113t-172 -59v123q68 14 125 50 t99 88t65.5 115.5t23.5 135.5q0 78 -29.5 148.5t-82 124t-124 85t-153.5 31.5q-78 0 -146.5 -27.5t-120 -76.5t-84 -115t-38.5 -141v-351q0 -57 -19.5 -93t-42.5 -58q-27 -25 -61 -39v541q-4 76 -36 141.5t-84 114.5t-121.5 76.5t-147.5 27.5q-72 0 -134.5 -23.5 t-112.5 -65.5t-85 -99.5t-49 -124.5v-160v-238q0 -57 -19.5 -93t-42.5 -58q-27 -25 -61 -39z" />
<glyph unicode="n" horiz-adv-x="1110" d="M2 -2v1026q31 -10 57 -33q23 -20 42.5 -55t23.5 -92q72 86 169 133t212 47q102 0 194.5 -39t161 -104.5t110.5 -153.5t46 -188v-351q0 -57 -19.5 -93t-42.5 -58q-27 -25 -61 -39v541q-4 76 -36 141t-84 114.5t-121.5 77t-147.5 27.5q-72 0 -134.5 -23.5t-112.5 -65.5 t-85 -99.5t-49 -124.5v-160v-238q0 -57 -19.5 -93t-42.5 -58q-27 -25 -61 -39z" />
<glyph unicode="o" horiz-adv-x="1142" d="M0 512q0 102 40 195.5t108.5 163t162 110.5t199.5 41t198.5 -41t162 -110.5t109.5 -163t40 -195.5q0 -106 -40 -199.5t-109.5 -162t-162 -108.5t-198.5 -40t-199.5 40t-162 108.5t-108.5 162t-40 199.5zM123 512q0 -82 31.5 -153.5t85 -126t123 -86t147.5 -31.5 q82 0 152.5 31.5t123 86t82 126t29.5 153.5q0 78 -29.5 147.5t-82 123t-123 85t-152.5 31.5q-78 0 -147.5 -31.5t-123 -85t-85 -123t-31.5 -147.5z" />
<glyph unicode="p" horiz-adv-x="1155" d="M0 -362v872v514q35 -12 61 -35q23 -20 43.5 -55t20.5 -90q70 86 168 133t221 47q106 0 199.5 -40t163 -109.5t109.5 -164t40 -200.5t-40 -199.5t-109.5 -163t-162.5 -109.5t-200 -40h-209v123h209q82 0 152.5 29.5t123 82t83 124t30.5 153.5t-30.5 152.5t-83 123t-123 83 t-152.5 30.5q-84 0 -154.5 -30.5t-123 -83t-82 -123t-29.5 -152.5v-1055q-37 10 -64 33q-23 20 -42 55t-19 95z" />
<glyph unicode="q" horiz-adv-x="1198" d="M0 514q0 100 40 192.5t108.5 163t161.5 111.5t198 41q115 0 216 -52t173 -139q0 57 18.5 93.5t40.5 58.5q27 25 62 39v-508v-692q0 -47 11 -91t28 -79v-187q-63 63 -108.5 149.5t-51.5 199.5v36v322v342q0 78 -31.5 147.5t-85 123t-124 84t-148.5 30.5 q-80 0 -152.5 -30.5t-126 -84t-85 -123t-31.5 -147.5q0 -82 31.5 -153.5t85 -125t126 -85t152.5 -33.5h207v-115h-207q-104 0 -197.5 40t-162 108.5t-108.5 162t-40 201.5z" />
<glyph unicode="r" horiz-adv-x="569" d="M-2 -4v1032q31 -10 57 -33q23 -20 42.5 -56t23.5 -93q74 80 171 128t212 54v-123q-72 -4 -135.5 -29.5t-113.5 -67.5t-85 -98.5t-49 -119.5v-164v-238q0 -59 -19.5 -95t-42.5 -58q-27 -25 -61 -39z" />
<glyph unicode="s" horiz-adv-x="798" d="M0 123h332q86 0 118.5 22.5t32.5 71.5q0 25 -36.5 82t-88 122.5t-103.5 129t-85 102.5l-8 9q-25 33 -36 65.5t-13 61t2 53t8 39.5v8q8 8 9 10t1 8q20 37 53 59.5t70 35t71.5 16.5t59.5 4h21h75q66 0 105 -19.5t57 -41.5q23 -27 27 -62h-275q-86 0 -118.5 -14.5 t-32.5 -71.5q0 -18 7 -33.5t22.5 -36t39 -48t54.5 -70.5q25 -35 58.5 -77t68 -86t66.5 -89t52 -88q0 -8 5.5 -15.5t5.5 -13.5q8 -36 8 -65t-8 -50q-25 -53 -68 -81.5t-87 -42t-79 -15.5t-41 -2h-10h-29h-112q-86 0 -126 28.5t-55 57.5q-4 6 -6 13t-6 12q-4 6 -6 12z" />
<glyph unicode="t" horiz-adv-x="724" d="M0 905v115h238v78q0 57 17 93t40 58q25 25 57 39v-268h277q-12 -33 -35 -57q-20 -23 -58 -40.5t-98 -17.5h-86v-725q0 -57 -17.5 -92t-39.5 -55q-25 -23 -57 -33v905h-238z" />
<glyph unicode="u" horiz-adv-x="1202" d="M0 494v354q0 55 18.5 89t40.5 54q25 23 60 33v-530h10q4 -78 36 -144.5t84 -116t121.5 -77t151.5 -27.5q70 0 133.5 23.5t113.5 64.5t86 99.5t50 127.5v146v258q0 55 19.5 89t44.5 54q29 23 65 33v-1024q-35 8 -61 31q-23 18 -43.5 51t-24.5 86q-72 -76 -168 -122 t-215 -46q-104 0 -197.5 37t-164 102.5t-113.5 155.5t-47 199z" />
<glyph unicode="v" horiz-adv-x="890" d="M0 180v842h115v-862q29 37 72.5 92t96 122.5t111 142.5t113.5 147q131 170 278 360q18 -29 27 -63q3 -16 3 -35q0 -16 -2 -34q-5 -40 -38 -87l-635 -805h-10h-6h-10q-33 10 -58 33q-23 20 -40 55t-17 92z" />
<glyph unicode="w" horiz-adv-x="1630" d="M0 182v842h123v-862q27 35 70 91t94 123.5t108.5 142.5t112.5 147q129 170 278 360q12 -14 21 -31q8 -14 14 -32.5t6 -40.5v-760q27 35 70 91t95 123.5t109.5 142.5t112.5 147q129 170 279 360q23 -29 31 -63q5 -17 5 -37q0 -15 -3 -32q-6 -40 -41 -85l-641 -809h-17 q-35 12 -61 35q-23 20 -41 55t-18 92v520l-564 -702h-28q-33 12 -58 35q-23 20 -40 55t-17 92z" />
<glyph unicode="x" horiz-adv-x="942" d="M-2 2q23 29 59.5 74t81.5 101t97.5 122t105.5 133l-266 342q-52 68 -66 116q-9 33 -10 57q0 11 2 20q8 35 35 55q53 -72 115 -152q53 -68 121.5 -155.5t146.5 -179.5q74 92 142.5 180t121.5 155q61 80 117 152q25 -20 33 -55q2 -9 2 -21q0 -24 -8 -56q-12 -48 -66 -116 l-268 -342q55 -68 107 -133.5t97 -121.5t81 -101t59 -74h-154l-264 334l-268 -334h-154z" />
<glyph unicode="y" horiz-adv-x="1183" d="M0 512q0 92 34 181t99 159h191q-86 -57 -143.5 -144t-57.5 -196q0 -82 31.5 -153.5t85 -126t124 -86t148.5 -31.5h219v-115h-219q-106 0 -199.5 40t-163 109.5t-109.5 163t-40 199.5zM276 -541q12 35 37 62q23 23 58 43t94 20q72 6 148.5 30t141 72t105.5 123.5t41 190.5 v836q0 59 19.5 96t42.5 57q27 23 61 35v-1032q0 -135 -51 -231.5t-132 -160t-180.5 -97t-195.5 -44.5h-21h-168z" />
<glyph unicode="z" horiz-adv-x="1234" d="M-4 123q20 18 70.5 65.5t118 113t148.5 143t165 158.5t164.5 158t150.5 142h-807q12 35 35 62q20 23 57 42t97 19h741h172l-115 -123l-817 -780h799q57 -4 92 -23.5t55 -42.5q23 -27 33 -57h-969q-61 0 -98 19.5t-57 41.5q-23 27 -35 62z" />
<glyph unicode="{" horiz-adv-x="702" d="M0 -123v336v86q0 53 4 106.5t20.5 101.5t49 89t90.5 72q-57 31 -90 75.5t-49.5 100t-20.5 120t-4 136.5v88v344h211h420q-10 -35 -33 -59q-20 -23 -56 -41.5t-93 -18.5h-332v-225v-88q0 -68 10 -128.5t34.5 -109.5t66.5 -83t108 -48v-127q-129 -20 -174 -95t-45 -210v-86 v-215h332q57 0 93 -19.5t56 -41.5q23 -27 33 -60h-420h-211z" />
<glyph unicode="|" horiz-adv-x="188" d="M0 -170v1516q0 57 18.5 94t40.5 59q27 25 62 37v-1528q0 -57 -19.5 -91t-42.5 -54q-26 -23 -59 -33z" />
<glyph unicode="}" horiz-adv-x="712" d="M0 -123q10 33 33 60q20 23 55 42t94 19h332v215v86q0 135 -45 210t-174 95v127q63 14 106 48t68 83t35 109.5t10 128.5v88v225h-332q-59 0 -94 18.5t-55 41.5q-23 25 -33 59h420h211v-344v-88q0 -72 -4 -136.5t-20.5 -120t-49.5 -100.5t-90 -75q57 -31 90 -72t49.5 -89 t20.5 -101.5t4 -106.5v-86v-336h-211h-420z" />
<glyph unicode="~" horiz-adv-x="970" d="M0 745q8 14 25 33q14 16 38.5 37t65.5 43q82 45 173 56.5t167 -5.5q37 -10 76 -23.5t79 -16.5t77.5 10.5t72.5 58.5h137q-23 -53 -59 -94q-31 -35 -80 -63.5t-121 -28.5q-49 0 -82.5 8t-63.5 18l-58.5 19.5t-64.5 8.5t-85 -14.5t-119 -46.5h-178z" />
<glyph unicode="&#xad;" d="M4 713h340v-121h-156q-57 0 -93 18.5t-56 40.5q-23 27 -35 62zM344 592v121h266q57 0 93 -19.5t57 -42.5q23 -27 35 -59h-451z" />
<glyph unicode="&#xd9;" horiz-adv-x="1705" />
<glyph unicode="&#x2000;" horiz-adv-x="804" />
<glyph unicode="&#x2001;" horiz-adv-x="1608" />
<glyph unicode="&#x2002;" horiz-adv-x="804" />
<glyph unicode="&#x2003;" horiz-adv-x="1608" />
<glyph unicode="&#x2004;" horiz-adv-x="536" />
<glyph unicode="&#x2005;" horiz-adv-x="402" />
<glyph unicode="&#x2006;" horiz-adv-x="268" />
<glyph unicode="&#x2007;" horiz-adv-x="268" />
<glyph unicode="&#x2008;" horiz-adv-x="201" />
<glyph unicode="&#x2009;" horiz-adv-x="321" />
<glyph unicode="&#x200a;" horiz-adv-x="89" />
<glyph unicode="&#x2010;" d="M4 713h340v-121h-156q-57 0 -93 18.5t-56 40.5q-23 27 -35 62zM344 592v121h266q57 0 93 -19.5t57 -42.5q23 -27 35 -59h-451z" />
<glyph unicode="&#x2011;" d="M4 713h340v-121h-156q-57 0 -93 18.5t-56 40.5q-23 27 -35 62zM344 592v121h266q57 0 93 -19.5t57 -42.5q23 -27 35 -59h-451z" />
<glyph unicode="&#x2012;" d="M4 713h340v-121h-156q-57 0 -93 18.5t-56 40.5q-23 27 -35 62zM344 592v121h266q57 0 93 -19.5t57 -42.5q23 -27 35 -59h-451z" />
<glyph unicode="&#x2013;" horiz-adv-x="1101" d="M4 713h440v-121h-202q-74 0 -120.5 18.5t-72.5 40.5q-29 27 -45 62zM444 592v121h345q73 0 120 -19.5t74 -42.5q29 -27 45 -59h-584z" />
<glyph unicode="&#x2014;" horiz-adv-x="2125" d="M4 713h880v-121h-404q-147 0 -240.5 18.5t-144.5 40.5q-60 27 -91 62zM884 592v121h689q148 0 241 -19.5t147 -42.5q60 -27 91 -59h-1168z" />
<glyph unicode="&#x2018;" horiz-adv-x="159" d="M0 1368v64h115v-238q-33 12 -58 35q-23 20 -40 53t-17 86z" />
<glyph unicode="&#x2019;" horiz-adv-x="163" d="M0 1194v238h115v-64q0 -53 -17.5 -86t-40.5 -53q-25 -23 -57 -35z" />
<glyph unicode="&#x201c;" horiz-adv-x="344" d="M0 1368v64h115v-238q-33 12 -58 35q-23 20 -40 53t-17 86zM172 1368v64h115v-238q-33 12 -58 35q-23 20 -40 53t-17 86z" />
<glyph unicode="&#x201d;" horiz-adv-x="346" d="M0 1194v238h115v-64q0 -53 -17.5 -86t-40.5 -53q-25 -23 -57 -35zM172 1194v238h115v-64q0 -53 -17.5 -86t-40.5 -53q-25 -23 -57 -35z" />
<glyph unicode="&#x2022;" horiz-adv-x="491" d="M2 815q0 43 16.5 81t45 66.5t66.5 45t79 16.5q43 0 81 -16.5t66.5 -45t45 -66.5t16.5 -81t-16.5 -81t-45 -65.5t-66.5 -44t-81 -16.5q-41 0 -79 16.5t-66.5 44t-45 65.5t-16.5 81zM88 815q0 -49 36 -85t85 -36q53 0 88 36t35 85q0 51 -35 87t-88 36q-49 0 -85 -36 t-36 -87zM137 815q0 31 21.5 51.5t50.5 20.5q31 0 51.5 -20.5t20.5 -51.5q0 -29 -20.5 -50.5t-51.5 -21.5q-29 0 -50.5 21.5t-21.5 50.5z" />
<glyph unicode="&#x202f;" horiz-adv-x="321" />
<glyph unicode="&#x205f;" horiz-adv-x="402" />
<glyph unicode="&#x25fc;" horiz-adv-x="1024" d="M0 0v1024h1024v-1024h-1024z" />
</font>
</defs>
</svg>
