<?xml version="1.0" standalone="no"?>
<!DOCTYPE svg PUBLIC "-//W3C//DTD SVG 1.1//EN" "http://www.w3.org/Graphics/SVG/1.1/DTD/svg11.dtd" >
<svg xmlns="http://www.w3.org/2000/svg" xmlns:xlink="http://www.w3.org/1999/xlink" version="1.1">
<metadata></metadata>
<defs>
<font id="celestregular" horiz-adv-x="868" >
<font-face units-per-em="2048" ascent="1536" descent="-512" />
<missing-glyph horiz-adv-x="1024" />
<glyph horiz-adv-x="0" />
<glyph unicode="&#xd;" horiz-adv-x="1024" />
<glyph unicode=" "  horiz-adv-x="1024" />
<glyph unicode="&#x09;" horiz-adv-x="1024" />
<glyph unicode="&#xa0;" horiz-adv-x="1024" />
<glyph unicode="!" horiz-adv-x="471" d="M0 1520q0 23 14.5 37t36.5 14q23 0 37 -14.5t14 -36.5q0 -37 -30 -47l334 -1041q4 0 6 1t6 1q23 0 37 -15.5t14 -37.5q0 -20 -14.5 -35.5t-36.5 -15.5q-23 0 -37 15t-14 36q0 35 30 49l-336 1038h-10q-23 0 -37 14.5t-14 37.5zM195 51q0 23 14 37t37 14t37 -14t14 -37 t-14.5 -37t-36.5 -14q-23 0 -37 14.5t-14 36.5z" />
<glyph unicode="&#x22;" horiz-adv-x="468" d="M0 1485q0 23 14.5 37t36.5 14q23 0 37 -14.5t14 -36.5q0 -18 -11 -31.5t-28 -17.5l31 -199h4q23 0 37.5 -15.5t14.5 -35.5q0 -23 -14.5 -38t-37.5 -15t-38 15t-15 38q0 16 12.5 30.5t28.5 18.5l-31 199h-4q-23 0 -37 14t-14 37zM170 1442q0 23 15.5 37t37.5 14 q20 0 35.5 -14.5t15.5 -36.5q0 -16 -14 -35l127 -133q13 12 31 12q23 0 37 -15.5t14 -37.5q0 -20 -14.5 -35.5t-36.5 -15.5q-23 0 -37 15t-14 36q0 23 12 35l-125 133q-14 -10 -31 -10q-23 0 -38 14t-15 37z" />
<glyph unicode="#" horiz-adv-x="880" d="M0 877q0 23 15.5 38t37.5 15q33 0 47 -33l99 29l-64 444h-4q-20 0 -35.5 14.5t-15.5 36.5q0 23 15.5 37.5t35.5 14.5q23 0 38 -14.5t15 -37.5q0 -18 -12 -31.5t-29 -17.5l64 -442l397 121l-51 233h-6q-20 0 -35.5 14.5t-15.5 36.5q0 23 15 37t36 14q23 0 38 -14t15 -37 q0 -16 -10 -30.5t-27 -18.5l49 -233l93 28v11q0 23 14 37t37 14t37 -14.5t14 -36.5q0 -23 -14.5 -37.5t-36.5 -14.5q-37 0 -47 31l-95 -27l103 -483l61 2q0 20 14.5 33.5t36.5 13.5q23 0 37.5 -14t14.5 -37t-14.5 -37t-37.5 -14q-20 0 -34.5 13.5t-16.5 31.5l-59 -2l92 -436 h6q23 0 37 -14.5t14 -37.5t-14 -37t-37 -14t-37 14.5t-14 36.5q0 39 35 50l-92 438l-447 -14l64 -435h2q23 0 37 -14t14 -37t-14.5 -37t-36.5 -14q-23 0 -37.5 14.5t-14.5 36.5q0 41 39 51l-61 435l-137 -5q-2 -20 -16.5 -34.5t-34.5 -14.5q-23 0 -38.5 14.5t-15.5 37.5 t15.5 37t38.5 14q18 0 32.5 -12.5t18.5 -32.5l135 4l-53 373l-97 -29q2 -4 2 -12q0 -20 -15 -36t-36 -16q-23 0 -38 15.5t-15 36.5zM209 920l53 -373l445 12l-101 481z" />
<glyph unicode="$" horiz-adv-x="823" d="M0 1305q0 23 14.5 37t36.5 14q33 0 47 -29l228 80l-13 92h-2q-23 0 -37 14.5t-14 36.5q0 23 14.5 37.5t36.5 14.5q23 0 37 -14.5t14 -37.5q0 -41 -40 -51l12 -88l289 102q-2 4 -2 13q0 23 14 37t37 14t37 -14.5t14 -36.5q0 -23 -14.5 -37t-36.5 -14q-33 0 -47 28 l-289 -102l100 -758l287 -100q14 30 47 30q23 0 37 -14t14 -37t-14 -37t-37 -14h-8l-68 -266q35 -14 35 -49q0 -23 -14.5 -37.5t-36.5 -14.5q-23 0 -37 14.5t-14 37.5q0 8 2 12l-137 49l16 -115h2q23 0 37 -14t14 -37t-14.5 -37t-36.5 -14q-23 0 -37 14.5t-14 36.5 q0 41 39 51l-15 119l-168 60q-14 -29 -47 -29q-23 0 -37 14.5t-14 36.5q0 23 14.5 37t36.5 14q23 0 37 -14t14 -37q0 -10 -2 -14l164 -58l-53 404l-303 104q-6 -12 -18.5 -21t-28.5 -9q-23 0 -37 15t-14 38q0 18 13 32.5t32 16.5l-23 442q-20 2 -34.5 16.5t-14.5 35.5z M57 1253l23 -440q23 -2 36 -16.5t13 -34.5v-12l297 -105l-100 754l-226 -80q2 -4 2 -14q0 -18 -12 -33t-33 -19zM436 633l56 -406l139 -49q14 29 47 29h8l66 266q-33 14 -33 49v13z" />
<glyph unicode="%" horiz-adv-x="0" d="M-9007 1683q0 23 14.5 37.5t36.5 14.5q16 0 30.5 -10.5t18.5 -26.5l242 47v6q0 23 14.5 37t36.5 14q23 0 37 -14t14 -37t-14 -37t-37 -14q-12 0 -16 2l-203 -445q27 -14 27 -45q0 -23 -14.5 -37t-37.5 -14t-37 14.5t-14 36.5q0 39 35 50l-76 370h-6q-23 0 -37 14.5 t-14 36.5zM-8942 1634l78 -370h6q10 0 17 -2l203 444q-18 8 -25 31l-242 -47v-7q0 -39 -37 -49zM-8813 535q0 20 15.5 35.5t38.5 15.5q4 0 6 -1t6 -1l487 1317q-29 14 -28 45q0 23 14 37t37 14t37 -14.5t14 -36.5q0 -23 -14.5 -37.5t-36.5 -14.5q-10 0 -14 2l-488 -1316 q31 -14 31 -45q0 -23 -15.5 -38.5t-35.5 -15.5q-23 0 -38.5 15.5t-15.5 38.5zM-8536 741q0 23 14.5 37.5t36.5 14.5q14 0 19 -5l161 308q-25 18 -24 43q0 23 15.5 37t35.5 14q23 0 38 -14.5t15 -36.5q0 -18 -12 -31.5t-29 -17.5l68 -426q2 2 4 2q23 0 37 -15.5t14 -38.5 q0 -20 -14.5 -35.5t-36.5 -15.5q-23 0 -37 15.5t-14 35.5q0 12 2 17l-197 88q-14 -27 -45 -27q-23 0 -37 14.5t-14 36.5zM-8458 784q25 -14 24 -43q0 -10 -2 -16l197 -86q8 18 33 25l-68 423h-4q-6 0 -18 5zM-864 1202q0 23 14 37t37 14q16 0 30.5 -10t18.5 -26l242 47v6 q0 23 14 37t37 14t37 -14.5t14 -36.5q0 -23 -14.5 -37t-36.5 -14q-12 0 -16 2l-203 -445q27 -14 26 -45q0 -23 -14 -37t-37 -14t-37 14.5t-14 36.5q0 39 35 49l-76 371h-6q-23 0 -37 14.5t-14 36.5zM-799 1153l78 -371h6q10 0 17 -2l202 445q-18 8 -24 30l-242 -47v-6 q0 -39 -37 -49zM-670 53q0 20 15.5 35.5t38.5 15.5q4 0 6 -1t6 -1l487 1317q-29 14 -28 45q0 23 14 37.5t37 14.5t37 -14.5t14 -37.5t-14.5 -37t-36.5 -14q-10 0 -15 2l-487 -1317q31 -14 31 -45q0 -23 -15.5 -38t-35.5 -15q-23 0 -38.5 15.5t-15.5 37.5zM-393 260 q0 23 14 37t37 14q14 0 18 -4l162 307q-25 18 -24 43q0 23 15 37.5t36 14.5q23 0 38 -14.5t15 -37.5q0 -18 -12 -31.5t-29 -17.5l68 -426q2 2 4 2q23 0 37 -15t14 -38q0 -20 -14.5 -35.5t-36.5 -15.5q-23 0 -37 15.5t-14 35.5q0 12 2 16l-197 89q-14 -27 -45 -27 q-23 0 -37 14.5t-14 36.5zM-315 303q25 -14 24 -43q0 -10 -2 -16l197 -86q8 18 33 24l-68 424h-4q-6 0 -19 4z" />
<glyph unicode="&#x26;" horiz-adv-x="901" d="M-2 1065q0 23 13.5 36t33.5 15l6 320q-18 4 -31.5 17t-13.5 34q0 23 14.5 37t36.5 14q20 0 34.5 -12.5t17.5 -32.5l690 10q2 20 16 33.5t35 13.5q23 0 37 -14t14 -37t-14 -37t-37 -14q-12 0 -29 8l-340 -426q16 -16 17 -39q0 -20 -14.5 -35.5t-37.5 -15.5q-4 0 -7 1t-7 1 l-70 -182l367 -367l70 228q-31 14 -31 47q0 23 14.5 37t36.5 14q23 0 37 -14.5t14 -36.5q0 -23 -14 -37.5t-37 -14.5q-8 0 -10 2l-74 -233l64 -63q12 12 32 12q23 0 37.5 -14.5t14.5 -36.5q0 -23 -14.5 -37.5t-37.5 -14.5t-37 14.5t-14 37.5q0 20 13 32l-60 60l-78 -246 q31 -14 31 -47q0 -23 -14.5 -38t-36.5 -15q-18 0 -32.5 13t-18.5 32l-447 -25q-2 -23 -16.5 -36t-34.5 -13q-23 0 -37 14.5t-14 36.5q0 23 14 37t37 14q4 0 6 -1t6 -1l252 656l-268 270q-16 -12 -33 -12q-23 0 -37 14t-14 37zM55 1116q18 -2 31.5 -16.5t13.5 -34.5t-12 -33 l266 -266l70 180q-29 12 -29 45q0 23 14.5 38t36.5 15q14 0 29 -10l340 428q-16 12 -16 33l-690 -12q-2 -18 -15.5 -31.5t-32.5 -15.5zM109 96q23 -10 26 -39l449 25q2 23 16 37t35 14q4 0 6 -1t6 -1l78 252l-367 367z" />
<glyph unicode="(" horiz-adv-x="587" d="M-2 987q0 23 15.5 38t35.5 15q12 0 29 -8l340 438q-16 12 -17 37q0 23 15.5 37.5t36.5 14.5q23 0 38 -14.5t15 -37.5t-15.5 -37t-37.5 -14q-10 0 -27 8l-340 -438q6 -8 11 -17.5t5 -21.5q0 -25 -24 -43l442 -844q13 4 19 4q23 0 37 -14t14 -37t-14.5 -37t-36.5 -14 q-23 0 -37.5 14.5t-14.5 36.5q0 25 25 43l-442 844q-12 -4 -21 -4q-20 0 -35.5 15.5t-15.5 35.5z" />
<glyph unicode=")" horiz-adv-x="598" d="M0 1503q0 23 14.5 37t36.5 14q23 0 37 -14t14 -37q0 -25 -24 -43l442 -844q13 5 21 5q23 0 37 -15.5t14 -38.5q0 -20 -14.5 -35.5t-36.5 -15.5q-12 0 -29 8l-340 -438q16 -16 16 -37q0 -23 -14 -37t-37 -14t-37 14.5t-14 36.5q0 23 14.5 37t36.5 14q10 0 27 -8l342 438 q-16 16 -17 37q0 29 23 45l-442 844q-8 -4 -19 -4q-23 0 -37 14.5t-14 36.5z" />
<glyph unicode="*" horiz-adv-x="884" d="M0 229q0 23 15.5 37.5t37.5 14.5q16 0 25 -9l252 346q-16 16 -17 39q0 29 25 43l-199 326q-12 -4 -22 -4q-23 0 -37 14.5t-14 36.5q0 23 14 37t37 14t37 -14t14 -37q0 -27 -21 -41l199 -327q12 4 19 4q8 0 12 -2l49 491q-18 4 -30.5 17.5t-12.5 31.5q0 23 14.5 37 t36.5 14q23 0 37 -14t14 -37t-14 -37t-37 -14l-49 -491q2 -2 6 -3l410 564q-16 16 -17 39q0 23 14.5 37t37.5 14t37 -14.5t14 -36.5q0 -23 -14.5 -37.5t-36.5 -14.5q-10 0 -27 9l-412 -566q18 -16 19 -39q0 -23 -17 -39l303 -495q12 4 23 4q23 0 37 -14.5t14 -36.5 q0 -23 -14 -37t-37 -14t-37 14t-14 37q0 27 20 41l-303 497q-6 -6 -14 -6l-49 -506q18 -2 31.5 -16t13.5 -35q0 -23 -14.5 -37t-36.5 -14q-23 0 -37.5 14.5t-14.5 36.5q0 23 13.5 37t33.5 14l50 504h-2q-14 0 -27 6l-252 -344q18 -18 18 -39q0 -23 -15 -37t-36 -14 q-23 0 -38 14.5t-15 36.5z" />
<glyph unicode="+" horiz-adv-x="702" d="M0 713q0 20 14.5 35.5t36.5 15.5q23 0 37 -15.5t14 -35.5q0 -12 -2 -17l148 -61q12 27 45 27h10l131 411q-31 14 -31 49q0 20 14.5 36t37.5 16t37 -15.5t14 -36.5q0 -23 -14.5 -38t-36.5 -15q-4 0 -6.5 1t-4.5 1l-131 -414q25 -10 31 -36l254 28v2q0 23 15 37t38 14 q20 0 35.5 -14t15.5 -37t-15 -37t-36 -14q-45 0 -51 41l-256 -29v-2q0 -39 -39 -49l29 -166q2 2 4 2q23 0 37 -15t14 -38q0 -20 -14.5 -35.5t-36.5 -15.5q-23 0 -37 15.5t-14 35.5q0 41 39 51l-29 164h-4q-23 0 -37 14.5t-14 36.5q0 12 2 17l-148 61q-14 -29 -45 -29 q-23 0 -37 15.5t-14 38.5z" />
<glyph unicode="," horiz-adv-x="124" d="M0 49q0 23 15.5 37t35.5 14q23 0 38 -14t15 -37q0 -18 -12 -32.5t-31 -18.5l9 -98q23 0 38 -15.5t15 -38.5q0 -20 -15.5 -35.5t-37.5 -15.5q-20 0 -36 15.5t-16 35.5t12.5 34t30.5 18l-10 100q-20 0 -35.5 14.5t-15.5 36.5z" />
<glyph unicode="-" horiz-adv-x="704" d="M0 680q0 23 14.5 37t36.5 14q23 0 37 -14.5t14 -36.5v-2l502 -55q4 18 17.5 29.5t31.5 11.5q23 0 37.5 -14.5t14.5 -37.5t-14.5 -37t-37.5 -14t-37 14.5t-14 36.5v2l-500 56q-10 -41 -51 -41q-23 0 -37 14t-14 37z" />
<glyph unicode="." horiz-adv-x="100" d="M0 51q0 23 14 37t37 14t37 -14t14 -37t-14 -37t-37 -14t-37 14.5t-14 36.5z" />
<glyph unicode="/" horiz-adv-x="532" d="M0 53q0 20 14.5 35.5t36.5 15.5q4 0 6 -1t6 -1l396 1198q-31 14 -31 50q0 20 14 35.5t37 15.5t37 -15.5t14 -35.5q0 -23 -14 -38.5t-37 -15.5q-4 0 -6 1t-6 1l-395 -1198q31 -14 30 -47q0 -23 -14 -38t-37 -15t-37 15.5t-14 37.5z" />
<glyph unicode="0" d="M0 1575q0 23 15.5 37t35.5 14q23 0 38 -14.5t15 -36.5q0 -4 -1 -6t-1 -6l541 -402q14 18 39 19q23 0 37 -14.5t14 -37.5q0 -41 -39 -51l121 -973h2q23 0 37 -15t14 -36q0 -23 -14 -38t-37 -15t-36 14.5t-15 34.5l-608 10q-2 -20 -16.5 -33.5t-35.5 -13.5q-23 0 -37 15.5 t-14 38.5q0 18 13.5 32.5t31.5 16.5l-51 1409q-20 0 -34.5 14t-14.5 37zM59 1524l52 -1407q18 -2 31.5 -15.5t15.5 -33.5l608 -11q4 39 39 45l-121 975h-2q-23 0 -37 14.5t-14 36.5q0 16 8 27l-541 397q-10 -25 -39 -28z" />
<glyph unicode="1" horiz-adv-x="598" d="M0 53q0 20 14.5 35.5t36.5 15.5q31 0 45 -28l156 67q0 4 -1 8.5t-1 8.5q0 23 14.5 37t36.5 14h2l148 1288q-41 10 -41 51q0 23 14 37.5t37 14.5t37 -14.5t14 -37.5t-14.5 -37t-36.5 -14h-2l-148 -1290q18 -4 29.5 -17.5t11.5 -31.5v-10l146 -41q14 32 49 32q23 0 37 -15 t14 -36q0 -23 -14.5 -38t-36.5 -15q-23 0 -37 15.5t-14 37.5v8l-146 43q-12 -33 -49 -32q-33 0 -45 26l-156 -67q2 -4 2 -15q0 -23 -14 -38t-37 -15t-37 15.5t-14 37.5z" />
<glyph unicode="2" horiz-adv-x="708" d="M2 1235q0 23 15.5 37t37.5 14q25 0 39 -20l279 178q-6 8 -6 22q0 23 14 37.5t37 14.5t37 -14.5t14 -37.5q0 -33 -29 -45l203 -534q4 0 7 1t7 1q23 0 37.5 -14.5t14.5 -36.5q0 -23 -14.5 -37.5t-37.5 -14.5q-16 0 -24 7l-463 -699q12 -10 16 -28l379 47v2q0 23 14.5 38 t36.5 15q23 0 37.5 -15.5t14.5 -37.5q0 -20 -14.5 -36t-37.5 -16q-18 0 -31.5 12.5t-17.5 28.5l-379 -49q0 -23 -14 -38t-37 -15t-37 15.5t-14 37.5q0 20 14.5 35.5t36.5 15.5q12 0 25 -6l463 697q-18 14 -19 41q0 33 29 45l-203 534q-4 -2 -14 -2q-25 0 -41 21l-277 -179 q6 -10 6 -22q0 -23 -15 -37t-36 -14q-23 0 -38 14t-15 37z" />
<glyph unicode="3" horiz-adv-x="774" d="M2 1374q0 23 14.5 37t36.5 14q23 0 37 -14t14 -37v-4l455 -86q10 39 49 39q23 0 38.5 -15.5t15.5 -37.5q0 -20 -15.5 -35.5t-38.5 -15.5q-14 0 -28 10l-228 -264q14 -14 15 -37q0 -20 -13 -35l338 -373q15 10 31 10q23 0 37 -14t14 -37t-14.5 -37t-36.5 -14q-23 0 -41 18 l-559 -368q6 -10 6 -25q0 -23 -14.5 -37t-36.5 -14q-23 0 -37 14.5t-14 36.5q0 23 14 37t37 14q27 0 39 -18l561 369q-6 12 -6 24q0 23 12 35l-338 373q-14 -10 -31 -10q-23 0 -37 14t-14 37t14.5 37t36.5 14q20 0 31 -8l225 264q-14 14 -14 35v6l-455 84q-4 -16 -18 -26.5 t-31 -10.5q-23 0 -37 14.5t-14 36.5z" />
<glyph unicode="4" horiz-adv-x="749" d="M0 1477q0 23 15.5 37t37.5 14q20 0 35.5 -14.5t15.5 -36.5q0 -18 -13 -32.5t-32 -19.5l37 -591q23 0 37 -14.5t14 -37.5q0 -4 -2 -6l373 -90q10 35 47 35h4l119 688q-39 10 -39 49q0 23 14.5 37t36.5 14q23 0 37.5 -14t14.5 -37t-14.5 -37t-37.5 -14h-4l-116 -688 q16 -4 27 -17.5t11 -31.5t-12 -31.5t-28 -17.5l71 -517h2q23 0 37 -15t14 -36q0 -23 -14 -38t-37 -15t-37 15.5t-14 37.5q0 39 41 49l-72 516h-4q-20 0 -35.5 14.5t-15.5 37.5q0 6 2 8l-373 88q-10 -35 -47 -35q-23 0 -38 14.5t-15 36.5q0 20 13.5 33.5t31.5 18.5l-37 591 q-23 0 -37 15.5t-14 36.5z" />
<glyph unicode="5" horiz-adv-x="890" d="M0 1030q0 20 13.5 34.5t31.5 16.5v222q-18 2 -31.5 16t-13.5 35q0 23 14.5 37t36.5 14q18 0 31.5 -11.5t17.5 -27.5l670 90v2q0 23 14.5 37t36.5 14q23 0 37 -14t14 -37t-14 -37t-37 -14q-41 0 -51 41l-668 -92v-2q0 -20 -13 -34.5t-34 -16.5v-222q20 -2 33.5 -16 t13.5 -35q0 -10 -8 -26l707 -533q19 18 39 18q23 0 37 -15t14 -36q0 -23 -14.5 -38t-36.5 -15q-29 0 -43 25l-643 -338q4 -12 4 -21q0 -20 -15.5 -35.5t-36.5 -15.5q-23 0 -38 15.5t-15 35.5q0 23 15.5 38t37.5 15q25 0 44 -24l643 338q-4 6 -5 20q0 16 9 27l-709 530 q-12 -16 -37 -16q-23 0 -37 14.5t-14 36.5z" />
<glyph unicode="6" horiz-adv-x="821" d="M0 53q0 20 15.5 35.5t37.5 15.5q4 0 6 -2l62 263q-35 10 -35 49q0 18 13.5 32.5t31.5 18.5l-35 971q-23 0 -36 14t-13 37t14.5 37t36.5 14q23 0 37.5 -14.5t14.5 -36.5v-2l372 -39q4 18 17.5 30.5t31.5 12.5q23 0 37.5 -15.5t14.5 -35.5q0 -23 -14.5 -38.5t-37.5 -15.5 t-37 15.5t-14 38.5l-370 39q-6 -37 -46 -41l37 -971q35 -4 45 -35l531 131v8q0 23 14 37.5t37 14.5t37 -14.5t14 -37.5t-14 -37t-37 -14h-8l-109 -412q14 -4 23.5 -17t9.5 -30q0 -23 -14.5 -38t-36.5 -15q-20 0 -34.5 13.5t-16.5 33.5l-478 -4q-2 -20 -16 -34.5t-35 -14.5 q-23 0 -38 15.5t-15 37.5zM68 100q33 -10 36 -43l478 6q2 18 16 33t35 15q6 0 8 -2l109 411q-20 8 -31 33l-531 -131v-8q0 -23 -14 -37.5t-37 -14.5h-6z" />
<glyph unicode="7" horiz-adv-x="929" d="M0 1489q0 23 15.5 37t35.5 14q23 0 38 -14.5t15 -36.5q0 -4 -1 -5t-1 -5l727 -209q15 33 50 33q20 0 35.5 -15.5t15.5 -38.5q0 -20 -15.5 -35.5t-35.5 -15.5q-6 0 -9 2l-237 -1100q16 -4 26.5 -17t10.5 -32q0 -23 -14.5 -37t-37.5 -14t-37 14.5t-14 36.5q0 23 14.5 37 t36.5 14h7l237 1098q-16 6 -26.5 19.5t-10.5 29.5q0 4 1 6t1 5l-727 210q-12 -33 -49 -32q-20 0 -35.5 14t-15.5 37z" />
<glyph unicode="8" horiz-adv-x="915" d="M0 827q0 23 14.5 37.5t36.5 16.5l49 581q-18 4 -30.5 17.5t-12.5 33.5q0 23 14.5 37.5t37.5 14.5t37 -14.5t14 -37.5v-6l358 -65q4 16 18.5 26.5t30.5 10.5q23 0 37 -14.5t14 -37.5q0 -33 -26 -45l256 -602q4 0 8 1t8 1q23 0 37 -14t14 -37t-13 -37t-36 -14l-20 -535 q20 -2 32.5 -16t12.5 -35q0 -23 -14.5 -37t-36.5 -14q-18 0 -32.5 12.5t-19.5 30.5l-493 -35q0 -23 -14.5 -37t-36.5 -14q-23 0 -37 14.5t-14 36.5q0 39 34 49l-168 678q-4 -2 -8 -2q-23 0 -37 15.5t-14 35.5zM59 879q18 -4 30.5 -17.5t12.5 -34.5l711 -86q6 20 27 35 l-256 602q-6 -2 -17 -2q-23 0 -37 14.5t-14 36.5v5l-358 67q-10 -37 -49 -37zM68 780l168 -678h8q18 0 32.5 -12t18.5 -31l493 37q0 20 14.5 34.5t35.5 14.5l20 535q-20 2 -32.5 16.5t-12.5 34.5l-713 86q-4 -27 -32 -37z" />
<glyph unicode="9" horiz-adv-x="827" d="M0 1487q0 23 14.5 37t36.5 14q18 0 32.5 -11t18.5 -30l619 55q0 23 14.5 37.5t36.5 14.5q23 0 37 -14.5t14 -37.5t-14 -37t-37 -14h-4l-133 -680q16 -4 26.5 -17t10.5 -32q0 -16 -10.5 -30.5t-26.5 -18.5l137 -621h6q23 0 37 -14t14 -37t-14 -37t-37 -14t-37 14.5 t-14 36.5q0 16 10.5 30.5t26.5 18.5l-137 621h-6q-23 0 -37.5 14.5t-14.5 36.5v10l-403 127q-12 -33 -47 -32q-23 0 -37 14t-14 37q0 41 41 51l-56 457h-2q-23 0 -37 14t-14 37zM61 1438l56 -459h2q23 0 37 -14.5t14 -36.5q0 -6 -2 -10l403 -125q14 31 50 30h4l133 680 q-31 6 -35 39l-621 -55q0 -18 -11 -31.5t-30 -17.5z" />
<glyph unicode=":" horiz-adv-x="178" d="M0 631q0 23 14.5 37t36.5 14q23 0 37 -14.5t14 -36.5q0 -23 -14 -37t-37 -14t-37 14t-14 37zM74 53q0 20 14 35.5t37 15.5t37 -15t14 -36q0 -23 -14.5 -38t-36.5 -15q-23 0 -37 15.5t-14 37.5z" />
<glyph unicode=";" horiz-adv-x="219" d="M0 575q0 23 14.5 37.5t36.5 14.5q23 0 37 -14.5t14 -37.5t-14 -37t-37 -14t-37 14.5t-14 36.5zM2 51q0 23 14.5 38t36.5 15q23 0 37 -15t14 -38q0 -27 -18 -41l61 -96q9 6 23 6q23 0 37 -14.5t14 -36.5q0 -23 -14 -37t-37 -14t-37 14t-14 37q0 25 20 41l-61 96 q-12 -6 -25 -6q-23 0 -37 15.5t-14 35.5z" />
<glyph unicode="&#x3c;" horiz-adv-x="1705" d="M0 614q0 23 15.5 37.5t35.5 14.5q18 0 35 -13l262 246q-4 8 -8 15.5t-4 17.5q0 23 15.5 37t37.5 14q20 0 35.5 -14.5t15.5 -36.5q0 -23 -15 -37t-36 -14q-23 0 -35 12l-262 -248q12 -16 12 -31q0 -14 -10 -28l453 -359q17 17 37 17q23 0 37 -14.5t14 -36.5 q0 -23 -14.5 -37.5t-36.5 -14.5q-23 0 -37.5 14.5t-14.5 37.5q0 14 9 26l-451 359q-18 -14 -39 -15q-20 0 -35.5 14.5t-15.5 36.5z" />
<glyph unicode="=" horiz-adv-x="755" d="M0 434q0 23 14.5 37t36.5 14q18 0 31.5 -11t17.5 -28l455 60v2q0 23 15.5 37t35.5 14q23 0 38 -14.5t15 -36.5q0 -23 -15 -37t-38 -14q-18 0 -31.5 11t-17.5 30l-455 -62v-2q0 -23 -14 -37t-37 -14t-37 14.5t-14 36.5zM20 817q0 23 14.5 37t37.5 14t37 -14t14 -37v-2 l532 -63q4 16 18 28.5t32 12.5q23 0 37 -15.5t14 -38.5q0 -20 -14.5 -35.5t-36.5 -15.5q-23 0 -37.5 15.5t-14.5 35.5v2l-530 66q-10 -41 -51 -41q-23 0 -37.5 14.5t-14.5 36.5z" />
<glyph unicode="&#x3e;" horiz-adv-x="585" d="M-2 10q0 23 14.5 38t36.5 15q14 0 29 -10l418 527q-14 14 -15 36q0 12 2 19l-194 90q-14 -27 -45 -27q-20 0 -35.5 15.5t-15.5 38.5t15 37t36 14q23 0 38 -14.5t15 -36.5q0 -6 -4 -19l194 -90q14 25 45 25q23 0 37.5 -14.5t14.5 -37.5t-14.5 -37t-37.5 -14q-18 0 -28 8 l-420 -524q16 -16 16 -39q0 -20 -14 -35.5t-37 -15.5t-37 15.5t-14 35.5z" />
<glyph unicode="?" horiz-adv-x="843" d="M0 1495q0 23 14.5 37t36.5 14q18 0 32.5 -12t18.5 -29l641 -176q15 33 50 33q20 0 35.5 -14.5t15.5 -36.5q0 -23 -15.5 -37t-35.5 -14h-9l-57 -267q16 -4 26.5 -18t10.5 -31q0 -23 -14.5 -37t-36.5 -14q-23 0 -37 14.5t-14 36.5v8l-355 97q-6 -25 -33 -31l121 -574h4 q23 0 38.5 -14t15.5 -37t-15.5 -37t-38.5 -14q-20 0 -35.5 14.5t-15.5 36.5q0 18 10.5 31.5t26.5 17.5l-119 574h-6q-23 0 -37 14t-14 37t14.5 37t36.5 14q23 0 37 -14t14 -37v-10l353 -94q14 33 49 32h6l57 267q-16 4 -26.5 18t-10.5 31q0 4 1 5t1 5l-639 174 q0 -23 -14 -37t-37 -14t-37 14.5t-14 36.5zM209 51q0 23 14 37t37 14t37 -14t14 -37t-14 -37t-37 -14t-37 14.5t-14 36.5z" />
<glyph unicode="@" horiz-adv-x="876" d="M0 1415q0 23 14.5 37t36.5 14q39 0 49 -39l670 107v4q0 23 14.5 37t36.5 14q23 0 37 -14t14 -37q0 -20 -13 -34.5t-34 -16.5l6 -864q20 -2 34 -16.5t14 -35.5q0 -23 -14.5 -37t-37.5 -14t-37 14.5t-14 36.5v9l-145 36q-10 -35 -47 -34q-31 0 -45 24l-170 -78q2 -6 2 -18 q0 -23 -14.5 -37t-37.5 -14t-37 14t-14 37q0 20 12.5 33.5t30.5 17.5l-18 301q-20 2 -34.5 16.5t-14.5 34.5q0 23 14 37.5t37 14.5t37 -15l243 193q-8 16 -8 28q0 23 15.5 37.5t35.5 14.5q23 0 38.5 -14.5t15.5 -37.5t-14.5 -37t-36.5 -14l-31 -436q18 -4 31.5 -18.5 t13.5 -32.5q0 -6 -2 -8l145 -37q10 31 45 35l-6 864q-39 4 -45 39l-670 -107v-4q0 -20 -13 -33.5t-32 -17.5l52 -1262q33 0 47 -34l419 94q-2 2 -2 6q0 23 15.5 37t36.5 14q23 0 38 -14.5t15 -36.5q0 -23 -15.5 -37t-37.5 -14q-35 0 -50 35l-417 -93v-8q0 -23 -14.5 -37 t-37.5 -14t-37 14.5t-14 36.5q0 20 12.5 34.5t30.5 16.5l-49 1262q-23 2 -36 16.5t-13 34.5zM303 862l19 -301q29 0 43 -24l170 77q-4 12 -5 19q0 23 14.5 37t37.5 14l30 436q-20 4 -30 15l-244 -193q8 -10 8 -29q0 -18 -12 -32.5t-31 -18.5z" />
<glyph unicode="A" horiz-adv-x="903" d="M0 586q0 23 15.5 37t37.5 14h8l211 713q-27 16 -26 45q0 23 14 37t37 14t37 -14.5t14 -36.5q0 -31 -26 -43l237 -523q6 2 19 2q23 0 37 -14t14 -37q0 -16 -9.5 -29.5t-23.5 -17.5l248 -825h10q23 0 37 -14.5t14 -36.5q0 -23 -14 -37.5t-37 -14.5t-37 14.5t-14 37.5 q0 37 33 49l-248 823h-10q-33 0 -48 29l-428 -158q0 -4 1 -7t1 -7q0 -18 -12 -31.5t-29 -17.5l64 -433h4q20 0 35.5 -14t15.5 -37t-15 -37t-36 -14q-23 0 -38 14.5t-15 36.5q0 18 12 32.5t29 18.5l-64 431h-2q-23 0 -38 14t-15 37zM72 635q18 -8 26 -27l428 160q0 4 -1 6 t-1 6q0 31 27 45l-238 523q-12 -4 -16 -5q-8 0 -16 5z" />
<glyph unicode="B" horiz-adv-x="913" d="M-4 1561q0 20 15.5 35.5t35.5 15.5q23 0 38 -15.5t15 -35.5q0 -2 -1 -3.5t-1 -3.5l697 -131q4 16 17 28.5t32 12.5q23 0 37 -14t14 -37q0 -20 -13.5 -34.5t-31.5 -16.5l-135 -338q29 -14 28 -45q0 -23 -15 -37t-38 -14q-16 0 -29.5 8t-17.5 25l-512 -140v-8q0 -10 -2 -14 l520 -209q12 27 45 26q23 0 37 -14t14 -37q0 -33 -30 -47l135 -420q4 2 12 2q23 0 37 -14t14 -37t-14 -37t-37 -14q-20 0 -34.5 13.5t-16.5 33.5l-631 2q-2 -20 -16 -33.5t-35 -13.5q-23 0 -37 15.5t-14 35.5t12 33.5t31 17.5l-43 660q-20 0 -34.5 14.5t-14.5 36.5 q0 45 45 51l-29 645q-20 0 -34.5 14.5t-14.5 37.5zM55 1509l27 -645q35 0 45 -33l514 138q-2 4 -2 10q0 23 15.5 37t35.5 14q4 0 8 -1t9 -1l133 334q-20 2 -33.5 16.5t-13.5 34.5v2l-695 131q-10 -33 -43 -37zM88 762l41 -660q20 0 34.5 -13t16.5 -32l631 -4q2 29 31 43 l-135 420q-4 -2 -13 -2q-23 0 -37 14.5t-14 36.5q0 10 2 15l-520 211q-10 -23 -37 -29z" />
<glyph unicode="C" d="M2 1473q0 20 15.5 35.5t37.5 15.5q23 0 37 -15.5t14 -35.5q0 -4 -1 -7.5t-1 -5.5l668 -231q14 31 47 31q23 0 37 -14.5t14 -37.5t-14 -37t-37 -14t-37 14.5t-14 36.5v13l-666 229q-14 -27 -39 -29l113 -1163q23 0 37 -15.5t14 -35.5v-14l320 -117q14 29 45 28 q23 0 37 -14t14 -37t-14.5 -37t-36.5 -14q-23 0 -37 14.5t-14 36.5q0 4 1 6t1 7l-320 118q-14 -31 -47 -30q-23 0 -37 15t-14 38q0 18 12.5 31.5t30.5 17.5l-113 1163q-23 0 -38 15.5t-15 38.5z" />
<glyph unicode="D" horiz-adv-x="880" d="M0 1249q0 23 15.5 37t37.5 14q33 0 47 -30l465 145q-2 4 -2 10q0 23 14.5 38.5t36.5 15.5q23 0 37.5 -15.5t14.5 -38.5q0 -31 -29 -45l178 -491q4 2 14 2q23 0 37.5 -14.5t14.5 -36.5q0 -23 -14.5 -37.5t-37.5 -14.5h-2l-67 -546q18 -4 29.5 -18.5t11.5 -33.5 q0 -20 -14.5 -35.5t-36.5 -15.5q-35 0 -50 35l-438 -115v-8q0 -23 -14.5 -37t-36.5 -14q-23 0 -37 14.5t-14 36.5q0 18 12 31.5t29 17.5l-146 1098h-2q-23 0 -38 14.5t-15 36.5zM63 1198l146 -1096h2q35 0 49 -34l438 114v8q0 23 14.5 38.5t37.5 15.5h2l67 544 q-41 10 -41 52q0 33 29 47l-178 489q-4 0 -7.5 -1t-7.5 -1q-33 0 -47 33l-465 -147q2 -2 2 -11q0 -18 -12 -32.5t-29 -18.5z" />
<glyph unicode="E" horiz-adv-x="903" d="M0 1501q0 20 14.5 35.5t36.5 15.5q23 0 37 -15t14 -36v-4l701 -106q4 16 17.5 27.5t31.5 11.5q23 0 37 -14.5t14 -37.5t-14 -37t-37 -14t-37 14.5t-14 36.5v2l-701 109q-6 -35 -41 -39l33 -590q20 0 34.5 -14.5t16.5 -34.5l375 -18q14 31 47 30q23 0 37 -14t14 -37 t-14 -37t-37 -14t-37 14.5t-14 36.5v12l-373 19q-4 -35 -37 -43l97 -621h4q20 0 34.5 -14t16.5 -35l530 -31q4 18 17.5 30.5t34.5 12.5q23 0 37 -14t14 -37t-14.5 -37t-36.5 -14q-23 0 -37.5 14.5t-14.5 34.5l-532 31q-2 -18 -16.5 -30.5t-32.5 -12.5q-23 0 -37 14.5 t-14 36.5q0 39 39 49l-99 621h-4q-20 0 -35.5 14t-15.5 37q0 20 13.5 33.5t31.5 17.5l-35 588q-20 2 -34.5 16.5t-14.5 36.5z" />
<glyph unicode="F" d="M0 1343q0 20 14.5 36t36.5 16q20 0 33.5 -13.5t17.5 -31.5l662 43q2 23 16.5 37t34.5 14q23 0 38 -15.5t15 -37.5q0 -20 -15 -36t-38 -16q-18 0 -32.5 13.5t-16.5 31.5l-664 -43q0 -18 -12 -31.5t-31 -17.5l23 -288q35 -4 47 -31l252 94q-2 4 -2 12q0 23 14.5 37t36.5 14 q23 0 37 -14t14 -37t-14 -37t-37 -14q-31 0 -45 29l-254 -92q2 -4 2 -15q0 -18 -12 -31.5t-29 -17.5l76 -797q23 0 37 -15t14 -36q0 -23 -14.5 -38t-36.5 -15q-23 0 -37 15.5t-14 37.5q0 18 12 31.5t29 17.5l-76 797q-23 0 -37 15.5t-14 35.5t12 33.5t31 17.5l-23 289 q-23 2 -37 16.5t-14 36.5z" />
<glyph unicode="G" horiz-adv-x="858" d="M-2 53q0 20 13.5 34.5t33.5 16.5v1352q-20 4 -33.5 17.5t-13.5 33.5q0 23 14.5 38.5t36.5 15.5q23 0 37 -15.5t14 -38.5l658 -73q4 16 17.5 28.5t31.5 12.5q23 0 37 -14.5t14 -37.5t-14.5 -37t-36.5 -14q-23 0 -37 14.5t-14 36.5l-656 74q-4 -16 -17 -27.5t-30 -13.5 v-1352q29 -4 43 -28l545 196q0 4 -1 6.5t-1 6.5q0 29 29 47l-146 350q-4 0 -7 -1t-7 -1q-20 0 -33 12l-153 -147q12 -16 12 -33q0 -23 -15.5 -37t-35.5 -14q-23 0 -38.5 14t-15.5 37t15.5 37t38.5 14q20 0 32 -12l154 147q-12 14 -12 33q0 23 14 37t37 14t37 -14t14 -37 q0 -33 -27 -45l144 -352q4 2 16 2q20 0 35.5 -14.5t15.5 -36.5q0 -23 -15 -37.5t-36 -14.5q-33 0 -47 31l-547 -198q2 -4 2 -13q0 -23 -14 -37t-37 -14t-37 14.5t-14 36.5z" />
<glyph unicode="H" horiz-adv-x="866" d="M2 1448q0 20 14.5 35.5t36.5 15.5q23 0 37 -15.5t14 -35.5t-12 -33.5t-31 -17.5l35 -498q18 0 31.5 -10t17.5 -27l463 96q0 2 -1 3.5t-1 3.5q0 23 15.5 37t37.5 14q4 0 6.5 -1t6.5 -1l125 338q-31 14 -31 47q0 23 14.5 37t36.5 14q23 0 37 -14.5t14 -36.5q0 -23 -14 -37 t-37 -14h-12l-125 -338q31 -14 31 -45q0 -18 -12.5 -32.5t-28.5 -19.5l96 -710h2q23 0 37 -15.5t14 -35.5q0 -23 -14 -38.5t-37 -15.5t-37 15.5t-14 38.5q0 18 12 31.5t29 17.5l-96 712h-3q-39 0 -49 35l-463 -94v-6q0 -18 -12 -32.5t-29 -18.5l74 -693h2q23 0 37 -14 t14 -37t-14 -37t-37 -14t-37 14.5t-14 36.5q0 18 11.5 31.5t29.5 17.5l-76 695q-23 0 -37 14t-14 37q0 18 12.5 32.5t30.5 18.5l-35 496q-23 2 -37 16t-14 37z" />
<glyph unicode="I" horiz-adv-x="944" d="M0 1372q0 23 14.5 38t36.5 15q23 0 37 -15t14 -38q0 -8 -2 -12l217 -76q14 31 45 31q18 0 32 -10.5t18 -26.5l206 41v6q0 20 14.5 35.5t37.5 15.5t37 -15t14 -36q0 -23 -14.5 -38t-36.5 -15q-18 0 -31.5 10t-17.5 27l-207 -41l2 -4q0 -20 -12.5 -33.5t-30.5 -18.5 l96 -897h2q20 0 34.5 -14t16.5 -37l320 -18q4 18 17.5 31.5t33.5 13.5t35.5 -14.5t15.5 -36.5q0 -23 -15.5 -37.5t-35.5 -14.5q-23 0 -37 13.5t-14 36.5l-322 18q-2 -18 -16.5 -31.5t-32.5 -13.5q-27 0 -41 20l-248 -155q6 -10 6 -23q0 -23 -14 -38t-37 -15t-37 15.5 t-14 37.5q0 20 14.5 35.5t36.5 15.5q25 0 41 -20l246 156q-2 6 -4 11t-2 13q0 18 12 31.5t31 17.5l-96 899h-3q-23 0 -37 14.5t-14 37.5q0 4 1 6t1 6l-215 76q-14 -31 -47 -31q-23 0 -37 15.5t-14 35.5z" />
<glyph unicode="J" horiz-adv-x="796" d="M0 385q0 23 14.5 37t36.5 14q18 0 27 -8l244 305q-16 12 -17 37q0 23 14.5 37t36.5 14q23 0 37.5 -14t14.5 -37t-14.5 -37t-37.5 -14q-18 0 -28 8l-242 -305q16 -12 16 -37q0 -16 -8 -27l389 -272q12 16 39 16h2l211 1395q-16 4 -27.5 17.5t-11.5 31.5q0 23 14.5 37 t37.5 14t37 -14t14 -37t-14.5 -37t-36.5 -14h-3l-210 -1393q38 -10 38 -49q0 -25 -14 -39t-37 -14t-37 14.5t-14 36.5q0 14 6 27l-387 274q-16 -18 -39 -18t-37 14t-14 37z" />
<glyph unicode="K" horiz-adv-x="837" d="M2 1473q0 23 14.5 37t36.5 14q23 0 37 -14.5t14 -36.5q0 -20 -12 -34t-31 -18l54 -710q16 0 30 -11l570 656q-16 16 -17 37q0 23 15.5 37t38.5 14q20 0 35.5 -14.5t15.5 -36.5q0 -23 -15.5 -37.5t-35.5 -14.5q-16 0 -31 11l-569 -658q14 -12 14 -35q0 -8 -2 -12l577 -198 q14 28 47 28q20 0 36 -14t16 -37t-15.5 -37t-36.5 -14q-23 0 -38 14t-15 37q0 4 1 6t1 6l-575 199q-6 -12 -25 -25l197 -510q4 2 14 2q20 0 35.5 -14t15.5 -37t-15 -37t-36 -14q-23 0 -38 14.5t-15 36.5q0 33 29 47l-195 510q-4 -2 -14 -2q-23 0 -37.5 14.5t-14.5 36.5 q0 18 12.5 32t30.5 18l-53 712q-23 0 -37 14.5t-14 37.5z" />
<glyph unicode="L" horiz-adv-x="626" d="M0 1446q0 23 14.5 37t36.5 14q23 0 37 -14.5t14 -36.5q0 -20 -13 -34.5t-32 -16.5l19 -1293q35 -4 45 -34l405 88v6q0 23 14.5 37t37.5 14t37 -14.5t14 -36.5q0 -23 -14.5 -37t-36.5 -14q-39 0 -50 34l-405 -88q0 -2 1 -3t1 -3q0 -23 -15.5 -37t-37.5 -14q-20 0 -36 14.5 t-16 36.5q0 20 13.5 34.5t34.5 16.5l-21 1293q-20 2 -33.5 15t-13.5 36z" />
<glyph unicode="M" horiz-adv-x="808" d="M-2 1550q0 20 14.5 36t36.5 16q23 0 37 -15.5t14 -36.5q0 -27 -22 -43l317 -546q12 4 21 4q14 0 18 -4l184 362q-25 14 -24 43q0 23 14.5 37t36.5 14q23 0 37 -14t14 -37q0 -41 -41 -51l103 -871q23 0 37 -14t14 -37t-14.5 -37t-36.5 -14q-23 0 -37 14.5t-14 36.5 q0 18 12 32.5t29 18.5l-101 871h-2q-6 0 -18 4l-185 -363q25 -12 25 -43q0 -23 -14.5 -37t-36.5 -14q-23 0 -37 14.5t-14 36.5q0 27 22 43l-315 547q-12 -4 -17 -4l39 -1397q23 -2 36 -15t13 -36t-14 -37t-37 -14t-37 14.5t-14 36.5q0 20 12.5 34.5t32.5 16.5l-41 1397 q-20 0 -33.5 14.5t-13.5 36.5z" />
<glyph unicode="N" horiz-adv-x="745" d="M0 76q0 23 14.5 37t34.5 14l80 1274q-18 4 -30.5 17.5t-12.5 33.5q0 23 14.5 37t36.5 14q23 0 37 -14t14 -37q0 -29 -28 -47l518 -1305q2 2 8 2l-49 969q-23 0 -37 14.5t-14 36.5q0 23 15 37.5t36 14.5q23 0 38 -14.5t15 -37.5q0 -20 -13 -33.5t-32 -17.5l49 -969 q23 0 36 -14t13 -37t-14 -37t-37 -14t-37 14.5t-14 36.5q0 29 29 47l-518 1305q-4 -2 -15 -2l-78 -1274q18 -4 30.5 -17.5t12.5 -33.5q0 -23 -14 -37t-37 -14t-37 14t-14 37z" />
<glyph unicode="O" horiz-adv-x="858" d="M0 1274q0 23 14.5 37t36.5 14q18 0 35 -12l582 233q-2 6 -2 17q0 20 14 35.5t37 15.5t37 -15.5t14 -35.5t-12.5 -33.5t-30.5 -18.5l86 -1409q20 0 34.5 -14t14.5 -37t-14.5 -37t-36.5 -14q-20 0 -34.5 13.5t-16.5 33.5l-606 12q-4 -20 -17.5 -33.5t-34.5 -13.5 q-23 0 -38 14.5t-15 36.5q0 20 13.5 34t31.5 18l-43 1108q-23 2 -36 16t-13 35zM57 1223l45 -1108q18 0 33 -13.5t17 -33.5l606 -11q4 37 43 45l-86 1409q-31 0 -43 27l-580 -233q10 -14 10 -31q0 -18 -13 -32.5t-32 -18.5z" />
<glyph unicode="P" d="M0 51q0 23 15.5 37t37.5 14h6l144 652q-37 14 -37 49q0 18 10 31.5t27 17.5l-133 635h-4q-23 0 -38.5 14.5t-15.5 36.5q0 23 15.5 37t38.5 14q20 0 34.5 -14t16.5 -35l649 -14q2 18 16.5 31.5t34.5 13.5q23 0 37 -14.5t14 -36.5q0 -23 -14 -37.5t-37 -14.5h-6l-104 -530 q16 -4 26 -17.5t10 -31.5q0 -23 -15 -37t-36 -14q-41 0 -51 39l-373 -68v-6q0 -20 -14 -35.5t-37 -15.5q-4 0 -6 2l-143 -654q16 -4 26 -18t10 -31q0 -23 -15 -37t-36 -14q-23 0 -38 14.5t-15 36.5zM80 1489l131 -635q2 0 3 1t3 1q39 0 49 -39l375 68q0 2 -1 2t-1 2 q0 23 15.5 37t37.5 14h4l107 530q-16 4 -26.5 16.5t-10.5 29.5l-649 16q-4 -16 -13.5 -27.5t-23.5 -15.5z" />
<glyph unicode="Q" horiz-adv-x="843" d="M0 1462q0 23 15.5 38.5t35.5 15.5t34.5 -13.5t16.5 -34.5l621 7q2 18 16.5 32.5t34.5 14.5q23 0 37 -15.5t14 -38.5q0 -20 -14 -35.5t-37 -15.5h-2l-129 -1075l125 -152q15 11 31 11q23 0 37 -15.5t14 -35.5q0 -23 -14.5 -38.5t-36.5 -15.5q-23 0 -37 15.5t-14 38.5 t14 34l-121 146l-25 -217q16 -4 28.5 -17.5t12.5 -32.5q0 -23 -14 -37t-37 -14q-20 0 -34.5 12.5t-16.5 32.5l-393 -10q-2 -20 -16.5 -33.5t-34.5 -13.5q-23 0 -37.5 14.5t-14.5 36.5q0 45 45 51l-55 1309q-20 2 -34.5 16.5t-14.5 34.5zM59 1413l54 -1311q18 -2 31.5 -14 t17.5 -31l393 9q0 23 14.5 36t36.5 13l27 223l-141 172q-10 -8 -31 -8q-20 0 -35.5 14t-15.5 37t15 37t36 14q23 0 38 -14.5t15 -36.5q0 -25 -16 -37l137 -166l129 1069q-37 6 -41 45l-621 -6q-2 -16 -14 -29.5t-29 -15.5z" />
<glyph unicode="R" horiz-adv-x="884" d="M2 53q0 23 15.5 37t35.5 14h6l111 633q-39 10 -39 49q0 20 12.5 34t30.5 18l-53 618q-23 0 -37 15.5t-14 35.5q0 23 14 38.5t37 15.5t37 -15.5t14 -38.5l590 -57q4 18 17.5 30.5t33.5 12.5q23 0 37 -14.5t14 -36.5q0 -23 -14 -37t-37 -14h-6l-139 -676q37 -14 37 -51 q0 -20 -14.5 -36t-37.5 -16t-37 15.5t-14 36.5v10l-371 96q-2 -8 -12 -18l582 -646q14 11 30 11q20 0 36 -14.5t16 -36.5q0 -23 -15.5 -37.5t-36.5 -14.5q-23 0 -38 14.5t-15 37.5q0 16 15 34l-580 645q-14 -10 -31 -10h-4l-110 -633q38 -10 38 -47q0 -25 -15 -39t-38 -14 q-20 0 -35.5 14.5t-15.5 36.5zM131 1458l51 -620q23 0 37 -14.5t14 -37.5v-8l371 -96q14 35 49 35q4 0 6 -2l138 678q-35 10 -35 49l-590 57q-6 -35 -41 -41z" />
<glyph unicode="S" horiz-adv-x="854" d="M-2 1294q0 23 14.5 37.5t36.5 14.5q35 0 49 -35l654 170q-2 4 -2 8q0 23 15 38t36 15q23 0 38 -15.5t15 -37.5q0 -20 -15 -35.5t-38 -15.5q-16 0 -29.5 9t-17.5 26l-654 -170v-9q0 -41 -39 -51l35 -246h2q23 0 37.5 -14t14.5 -37q0 -12 -3 -16l584 -248q18 29 47 29 q20 0 35.5 -15.5t15.5 -38.5q0 -20 -15 -35.5t-36 -15.5h-6l-92 -504q39 -10 39 -49q0 -23 -14.5 -37t-36.5 -14q-23 0 -37.5 14.5t-14.5 36.5v6l-325 70q-10 -35 -49 -35q-23 0 -37.5 14.5t-14.5 36.5q0 23 14.5 37.5t37.5 14.5t37 -14.5t14 -37.5v-6l325 -71q10 36 48 36 h2h4l92 504q-39 10 -39 49q0 8 4 17l-586 248q-14 -27 -45 -27q-23 0 -37 14.5t-14 36.5q0 18 11.5 31.5t27.5 17.5l-35 248h-2q-23 0 -37 14.5t-14 36.5z" />
<glyph unicode="T" horiz-adv-x="901" d="M0 1438q0 20 14.5 35.5t36.5 15.5q23 0 37 -15.5t14 -35.5q0 -10 -2 -15l273 -104q14 29 45 29q20 0 33.5 -12.5t17.5 -30.5l332 18q2 20 16.5 34.5t34.5 14.5q23 0 37 -14.5t14 -36.5q0 -23 -14.5 -37t-36.5 -14q-18 0 -32.5 12t-18.5 31l-332 -19q0 -18 -12.5 -31.5 t-30.5 -17.5l90 -1145q23 0 37 -14t14 -37t-14 -37t-37 -14t-37 14.5t-14 36.5q0 18 12 32.5t31 18.5l-90 1145q-23 0 -37 14.5t-14 36.5q0 10 2 15l-271 104q-14 -31 -47 -31q-23 0 -37 15.5t-14 38.5z" />
<glyph unicode="U" horiz-adv-x="851" d="M-2 1477q0 20 14.5 35.5t36.5 15.5q23 0 37 -15.5t14 -35.5t-12 -35t-33 -17l58 -1138q20 -2 34.5 -16.5t14.5 -37.5v-8l592 -155q10 27 37 32l-105 1084h-2q-20 0 -35.5 14t-15.5 37t15.5 37t35.5 14q23 0 38 -14t15 -37q0 -18 -12 -32.5t-31 -18.5l107 -1084 q23 0 37 -14t14 -37t-14.5 -37t-36.5 -14q-23 0 -37 14.5t-14 36.5v8l-592 158q-10 -35 -47 -35q-23 0 -37.5 15.5t-14.5 35.5t12.5 35t30.5 17l-55 1138q-20 2 -34.5 16.5t-14.5 37.5z" />
<glyph unicode="V" horiz-adv-x="798" d="M0 1477q0 20 14.5 35.5t36.5 15.5q23 0 37 -15.5t14 -35.5q0 -33 -30 -47l467 -1330q4 2 14 2h2l180 1104q-39 10 -39 49q0 23 14.5 37.5t37.5 14.5t37 -14.5t14 -37.5t-14.5 -37t-36.5 -14h-5l-178 -1104q39 -10 39 -49q0 -23 -14.5 -37t-36.5 -14q-23 0 -38 14.5 t-15 36.5q0 16 9 28.5t21 18.5l-467 1327q-4 0 -6 -1t-6 -1q-23 0 -37 15.5t-14 38.5z" />
<glyph unicode="W" horiz-adv-x="804" d="M0 150q0 23 15.5 37t37.5 14h4l158 839q-16 4 -26.5 18.5t-10.5 31.5q0 23 14.5 38t36.5 15q23 0 37.5 -15.5t14.5 -37.5q0 -20 -14.5 -36t-37.5 -16h-4l-159 -839q20 -6 28 -21l369 201q-4 12 -4 20q0 23 15 37.5t38 14.5q20 0 35.5 -14.5t15.5 -37.5q0 -20 -18 -39 l184 -264q4 2 10 3t11 3l-39 1395q-23 2 -36 16.5t-13 34.5q0 23 14 37t37 14t37 -14t14 -37q0 -20 -13.5 -33.5t-31.5 -17.5l39 -1395q23 -2 36 -16t13 -35q0 -23 -14.5 -37t-36.5 -14q-23 0 -37 14.5t-14 36.5q0 23 18 39l-186 264q-12 -6 -25 -6q-31 0 -43 23l-369 -201 q4 -12 4 -20q0 -23 -15 -37.5t-36 -14.5q-23 0 -38 14.5t-15 37.5z" />
<glyph unicode="X" horiz-adv-x="825" d="M0 1507q0 23 14.5 37.5t36.5 14.5q23 0 37 -14.5t14 -37.5q0 -33 -26 -45l280 -649q4 2 17 2q12 0 24 -6l260 393q-18 14 -18 39q0 23 14.5 37t36.5 14q23 0 37 -14t14 -37t-14 -37t-37 -14q-12 0 -24 6l-260 -391q18 -18 18 -41q0 -25 -18 -39l344 -469q8 6 26 6 q20 0 35.5 -14.5t15.5 -36.5q0 -23 -15 -37t-36 -14q-23 0 -38 14t-15 37q0 20 18 39l-342 471q-10 -8 -26 -8q-10 0 -15 2l-229 -617q29 -14 29 -47q0 -23 -14.5 -37t-37.5 -14t-37 14.5t-14 36.5q0 23 14.5 37t36.5 14h15l229 617q-29 14 -28 45q0 31 26 45l-280 649 q-4 -2 -17 -2q-23 0 -37 14.5t-14 36.5z" />
<glyph unicode="Y" horiz-adv-x="794" d="M0 1520q0 23 14.5 37t36.5 14q23 0 37 -14.5t14 -36.5q0 -25 -20 -41l358 -561q8 6 23 6q12 0 22 -6l230 395q-20 16 -21 43q0 20 14 35.5t37 15.5t37.5 -15.5t14.5 -35.5q0 -23 -14.5 -38t-37.5 -15q-14 0 -22 6l-229 -396q23 -14 22 -41q0 -23 -15.5 -37t-37.5 -14h-8 l-199 -721q14 -4 23.5 -17t9.5 -30q0 -23 -14.5 -38t-36.5 -15q-23 0 -37.5 15.5t-14.5 37.5q0 20 14.5 35.5t37.5 15.5q6 0 8 -2l200 721q-34 14 -34 47q0 27 20 43l-358 562q-10 -6 -23 -7q-23 0 -37 14.5t-14 37.5z" />
<glyph unicode="Z" horiz-adv-x="876" d="M0 1276q0 23 14.5 37t36.5 14q35 0 49 -33l676 215q-2 2 -2 11q0 23 14 37t37 14t37.5 -14.5t14.5 -36.5q0 -23 -14.5 -37.5t-37.5 -14.5q-6 0 -18 5l-567 -1192q27 -16 26 -45q0 -4 -1 -7.5t-1 -7.5l363 -145q14 29 45 28q23 0 38 -15t15 -36q0 -23 -15.5 -38t-37.5 -15 q-20 0 -35.5 15.5t-15.5 37.5q0 4 1 7t1 8l-363 145q-14 -29 -45 -29q-23 0 -38 14.5t-15 37.5t15.5 37t37.5 14q12 0 16 -2l568 1190q-14 12 -21 24l-676 -213v-10q0 -23 -14 -37t-37 -14t-37 14t-14 37z" />
<glyph unicode="[" horiz-adv-x="768" d="M0 1341q0 23 14.5 37.5t36.5 14.5q39 0 49 -35l539 129v8q0 23 14.5 37t36.5 14q23 0 37 -14t14 -37t-14 -37t-37 -14q-35 0 -49 35l-539 -129v-9q0 -18 -12 -31.5t-29 -17.5l101 -1048q23 0 37 -14.5t14 -36.5v-9l457 -114q10 32 49 32q20 0 35.5 -14t15.5 -37 t-15.5 -37t-35.5 -14q-23 0 -38 14.5t-15 36.5q0 4 1 5t1 3l-457 117q-14 -35 -49 -35q-23 0 -37 14.5t-14 37.5q0 18 12 32.5t29 18.5l-101 1046q-23 0 -37 14.5t-14 36.5z" />
<glyph unicode="\" horiz-adv-x="694" d="M0 1477q0 20 15.5 35.5t37.5 15.5q20 0 35.5 -15.5t15.5 -35.5q0 -33 -28 -47l555 -1330q4 2 14 2q23 0 37 -14t14 -37t-14 -37t-37 -14t-37 14.5t-14 36.5q0 31 27 45l-553 1331q-8 -4 -15 -4q-23 0 -38 15.5t-15 38.5z" />
<glyph unicode="]" horiz-adv-x="765" d="M0 1497q0 23 14.5 37t36.5 14q23 0 37 -14t14 -37v-8l457 -115q10 33 49 33q20 0 35.5 -14.5t15.5 -36.5q0 -18 -12 -31.5t-31 -17.5l101 -1049q23 0 37 -14.5t14 -36.5q0 -23 -14.5 -37t-36.5 -14q-35 0 -49 34l-539 -129v-8q0 -20 -14.5 -35.5t-36.5 -15.5 q-23 0 -37 15.5t-14 35.5q0 23 14 38t37 15q16 0 30.5 -10t18.5 -26l539 129v8q0 18 12 32.5t31 18.5l-101 1047q-23 0 -38 14t-15 37q0 4 1 5t1 3l-457 117q-14 -35 -49 -35q-23 0 -37 14.5t-14 36.5z" />
<glyph unicode="^" horiz-adv-x="843" d="M2 950q0 23 14.5 38.5t36.5 15.5q14 0 29 -11l358 453q-16 16 -16 37q0 23 14.5 37t36.5 14q23 0 37 -14.5t14 -36.5q0 -20 -12 -33l248 -262q15 10 33 10q20 0 35.5 -14.5t15.5 -36.5q0 -23 -15.5 -37t-35.5 -14q-23 0 -38.5 14t-15.5 37q0 16 15 35l-248 260 q-14 -10 -33 -10q-14 0 -26 8l-359 -451q14 -18 14 -39q0 -20 -14 -35.5t-37 -15.5t-37 15.5t-14 35.5z" />
<glyph unicode="_" horiz-adv-x="897" d="M2 53q0 23 14.5 37t36.5 14q18 0 32.5 -12t18.5 -29l693 74q0 23 14 38t37 15t37 -15t14 -38q0 -20 -14.5 -35.5t-36.5 -15.5q-18 0 -31.5 12.5t-17.5 30.5l-695 -76q0 -23 -14 -37t-37 -14t-37 14.5t-14 36.5z" />
<glyph unicode="`" horiz-adv-x="1705" />
<glyph unicode="a" horiz-adv-x="796" d="M0 950q0 23 14.5 37t36.5 14q23 0 37 -14t14 -37l430 -41q4 18 17.5 30.5t32.5 12.5q23 0 38 -14t15 -37t-15.5 -37t-37.5 -14l-68 -582q16 -4 28.5 -17t12.5 -32q0 -16 -6 -24l160 -111q14 18 39 18q23 0 37 -14t14 -37t-14.5 -37t-36.5 -14q-23 0 -37.5 14.5 t-14.5 36.5q0 12 6 25l-159 110q-16 -18 -39 -18q-33 0 -47 29l-344 -131q0 -4 1 -7.5t1 -7.5q0 -23 -14.5 -37t-37.5 -14t-37 14.5t-14 36.5q0 45 45 51l-10 797q-20 2 -33.5 15.5t-13.5 35.5zM55 899l13 -797q29 -4 41 -28l344 131v14q0 23 14 37t37 14l67 580 q-16 4 -28.5 18.5t-12.5 32.5l-430 39q-6 -37 -45 -41z" />
<glyph unicode="b" horiz-adv-x="811" d="M0 57q0 23 14.5 37.5t36.5 14.5q16 0 27 -9l184 248q-18 14 -18 39q0 16 10 30.5t27 18.5l-213 1067h-5q-23 0 -37 14.5t-14 36.5q0 23 14.5 37.5t36.5 14.5q23 0 37.5 -14.5t14.5 -37.5q0 -16 -10.5 -30.5t-26.5 -18.5l213 -1067h4q31 0 45 -26l371 155q-2 4 -2 17 q0 20 14 35.5t37 15.5t37 -15.5t14 -35.5q0 -23 -14.5 -38.5t-36.5 -15.5l-43 -428q18 -4 30.5 -18t12.5 -33q0 -23 -15.5 -37t-35.5 -14q-23 0 -36.5 13.5t-17.5 33.5l-553 4q-2 -18 -16 -31.5t-35 -13.5q-23 0 -37 14.5t-14 36.5zM84 96q14 -14 18 -35l555 -4 q2 18 15.5 31.5t36.5 13.5l41 430q-25 4 -35 27l-371 -156q2 -6 2 -16q0 -23 -14.5 -37t-36.5 -14q-16 0 -27 8z" />
<glyph unicode="c" horiz-adv-x="747" d="M0 885q0 23 14.5 37t36.5 14q23 0 37 -14.5t14 -36.5v-4l545 -95q4 16 17.5 26.5t31.5 10.5q23 0 37.5 -14t14.5 -37t-14.5 -37t-37.5 -14t-37 14.5t-14 36.5v4l-545 96q-6 -27 -34 -36l104 -527h6q23 0 37 -14t14 -37q0 -12 -2 -16l353 -166q16 27 45 26q23 0 37 -14 t14 -37t-14.5 -37t-36.5 -14q-23 0 -37.5 14.5t-14.5 36.5q0 8 4 17l-354 165q-14 -27 -45 -26q-23 0 -37 14.5t-14 36.5q0 18 10 31.5t27 17.5l-105 527h-6q-23 0 -37 14t-14 37z" />
<glyph unicode="d" d="M0 94q0 23 15.5 37t37.5 14q4 0 6 -1t7 -1l141 394q-29 14 -29 45q0 23 14.5 38t36.5 15q31 0 45 -27l244 107q-6 8 -6 24q0 23 14.5 37.5t36.5 14.5q8 0 10 -3l224 701q-31 14 -31 47q0 23 14 37t37 14t37 -14t14 -37t-14 -37t-37 -14q-8 0 -12 2l-221 -701 q31 -14 30 -47q0 -35 -32 -49l163 -590q4 2 11 2q23 0 37 -14t14 -37t-14.5 -37t-36.5 -14q-23 0 -37 13.5t-14 35.5l-603 37q-2 -18 -16 -30.5t-33 -12.5q-23 0 -38 14.5t-15 36.5zM74 139q27 -12 30 -45l601 -35q4 29 32 39l-166 590h-8q-27 0 -41 19l-243 -107 q2 -6 2 -18q0 -20 -14.5 -36t-37.5 -16q-4 0 -6 1t-6 1z" />
<glyph unicode="e" horiz-adv-x="872" d="M2 74q0 20 15.5 35.5t35.5 15.5q8 0 21 -4l121 241q-25 14 -25 44q0 23 15.5 37t37.5 14l31 264q-16 4 -26.5 17.5t-10.5 31.5q0 23 14.5 37t36.5 14q27 0 39 -18l463 49q0 23 14 37t37 14t37 -14.5t14 -36.5q0 -23 -14 -37t-37 -14q-8 0 -20 4l-156 -285q23 -16 23 -43 q0 -23 -14.5 -38t-37.5 -15q-39 0 -49 39l-293 -53v-4q0 -23 -15 -37.5t-36 -14.5q-8 0 -20 4l-121 -241q23 -14 24 -41l594 -15q2 18 16.5 31.5t35.5 13.5q23 0 37 -15t14 -36q0 -23 -14.5 -38t-36.5 -15q-23 0 -36.5 14.5t-15.5 34.5l-596 17q-2 -20 -16 -34t-35 -14 q-20 0 -35.5 15.5t-15.5 38.5zM233 457q29 -6 39 -37l293 51v6q0 20 14.5 35.5t36.5 15.5q8 0 21 -4l156 285q-16 12 -23 33l-457 -47q6 -12 6 -25q0 -23 -14 -37t-37 -14h-4z" />
<glyph unicode="f" horiz-adv-x="761" d="M0 979q0 23 14.5 38t36.5 15q23 0 37 -15.5t14 -37.5q0 -12 -2 -18l136 -70q10 18 26 20l-129 506h-8q-23 0 -37 14.5t-14 36.5q0 23 14 37.5t37 14.5q45 0 51 -41l191 -68q14 31 45 31q23 0 38 -15.5t15 -37.5q0 -20 -15.5 -36t-37.5 -16q-20 0 -36 15.5t-16 36.5 q0 4 1 7t1 7l-186 65q0 -37 -35 -47l129 -508q2 2 9 2q18 0 31.5 -11t17.5 -27l331 49v2q0 23 14.5 37t37.5 14t37 -14.5t14 -36.5q0 -23 -14.5 -37t-36.5 -14q-18 0 -31.5 11t-17.5 27l-332 -49v-2q0 -23 -14.5 -37t-36.5 -14h-5l-118 -713q39 -10 39 -49q0 -23 -14.5 -37 t-37.5 -14t-37 14.5t-14 36.5q0 23 14.5 37t36.5 14h4l119 711q-39 10 -39 51q0 12 4 19l-135 69q-18 -25 -45 -24q-23 0 -37 15t-14 36z" />
<glyph unicode="g" horiz-adv-x="690" d="M0 567q0 23 14.5 38.5t36.5 15.5q27 0 41 -23l475 279q-6 8 -6 22q0 23 15.5 37t37.5 14q20 0 36 -14t16 -37q0 -20 -13.5 -34.5t-34.5 -16.5l11 -748q20 -2 33.5 -16t13.5 -35q0 -20 -13.5 -34.5t-31.5 -16.5l10 -504q20 -2 34.5 -16.5t14.5 -34.5q0 -23 -15.5 -37 t-37.5 -14q-20 0 -35.5 14t-15.5 37q0 10 4 18l-305 156q-16 -23 -45 -23q-20 0 -36 14.5t-16 37.5t15.5 37t36.5 14q23 0 38 -14.5t15 -36.5q0 -8 -4 -21l305 -155q12 20 39 24l-12 504q-18 2 -32 15.5t-16 31.5l-307 4q-2 -20 -16 -32.5t-35 -12.5q-20 0 -35.5 14.5 t-15.5 36.5q0 33 33 47l-136 416q-2 0 -4 -1t-6 -1q-23 0 -37 15.5t-14 35.5zM72 520l133 -416q4 2 10 2q23 0 37 -13t16 -34l305 -4q2 16 15.5 29.5t29.5 15.5l-8 748q-25 0 -39 20l-473 -278q4 -12 4 -23q0 -33 -30 -47z" />
<glyph unicode="h" horiz-adv-x="880" d="M0 895q0 23 14.5 37t36.5 14h6l123 522q-16 6 -26.5 19.5t-10.5 30.5q0 23 15.5 37t36.5 14q23 0 38 -14.5t15 -36.5q0 -23 -15.5 -37.5t-37.5 -14.5h-7l-120 -522q35 -14 34 -49v-12l355 -109q10 31 47 31q23 0 37 -14.5t14 -36.5q0 -29 -27 -45l283 -611q8 4 16 4 q23 0 37.5 -14t14.5 -37t-14.5 -37t-37.5 -14t-37 14.5t-14 36.5q0 29 27 43l-283 611q-4 -2 -16 -3q-23 0 -37 14.5t-14 37.5v10l-355 110q-8 -25 -37 -30l80 -729h2q23 0 37.5 -14.5t14.5 -37.5t-14.5 -37t-37.5 -14t-37 14.5t-14 36.5q0 18 11.5 32t29.5 18l-80 731h-2 q-23 0 -37 14t-14 37z" />
<glyph unicode="i" horiz-adv-x="350" d="M2 934q0 23 14.5 37t36.5 14q23 0 37 -14.5t14 -36.5q0 -18 -12 -32.5t-29 -18.5l93 -779h2q25 0 37 -16l59 43q-8 12 -8 27q0 23 14 37t37 14t37 -14.5t14 -36.5q0 -23 -14.5 -37.5t-36.5 -14.5q-25 0 -37 17l-59 -43q8 -16 8 -27q0 -23 -14.5 -37t-36.5 -14 q-23 0 -37.5 14.5t-14.5 36.5q0 41 41 51l-92 779h-2q-23 0 -37 14t-14 37zM63 1264q0 23 14.5 37t37.5 14t37 -14.5t14 -36.5q0 -23 -14 -37.5t-37 -14.5t-37.5 14.5t-14.5 37.5z" />
<glyph unicode="j" horiz-adv-x="585" d="M2 -590q0 23 15.5 37t37.5 14q10 0 27 -8l414 516q-16 12 -17 37q0 16 10.5 30.5t26.5 18.5l-145 746h-4q-23 0 -37.5 14t-14.5 37t14.5 37t37.5 14t37 -14.5t14 -36.5q0 -16 -10.5 -30.5t-26.5 -18.5l145 -746h4q23 0 38.5 -14t15.5 -37t-15.5 -37t-38.5 -14 q-18 0 -28 8l-412 -516q16 -16 16 -37q0 -23 -15 -37t-36 -14q-23 0 -38 14.5t-15 36.5zM150 1384q0 23 14 37.5t37 14.5t37 -14.5t14 -37.5t-14 -37t-37 -14t-37 14.5t-14 36.5z" />
<glyph unicode="k" horiz-adv-x="878" d="M0 1536q0 23 14.5 37t36.5 14q23 0 37 -14t14 -37q0 -20 -13 -34.5t-32 -16.5l117 -635h4q16 0 31 -10l197 223q-14 14 -15 35q0 23 14.5 38t36.5 15q23 0 37.5 -15.5t14.5 -37.5q0 -20 -14.5 -35.5t-37.5 -15.5q-16 0 -30 10l-195 -223q12 -12 12 -35t-12 -35l580 -653 q10 8 30 8q23 0 37.5 -14.5t14.5 -36.5q0 -23 -14.5 -37.5t-37.5 -14.5t-37 14.5t-14 37.5t15 36l-582 654q-14 -10 -31 -10h-2l-90 -646q16 -4 28.5 -17t12.5 -32q0 -23 -15.5 -37t-35.5 -14q-23 0 -38 14.5t-15 36.5q0 23 15 37t38 14h2l90 646q-16 4 -28.5 17t-12.5 32 q0 39 39 49l-119 637q-20 2 -33.5 16.5t-13.5 34.5z" />
<glyph unicode="l" horiz-adv-x="489" d="M0 1550q0 23 14.5 37.5t36.5 14.5q23 0 37 -14.5t14 -37.5q0 -20 -12 -34.5t-33 -16.5l41 -1397q37 0 47 -39l240 33v2q0 23 15.5 37.5t35.5 14.5q23 0 38 -14.5t15 -37.5t-15 -37t-38 -14q-18 0 -31.5 11.5t-17.5 27.5l-242 -33v-2q0 -20 -14 -35.5t-37 -15.5t-37 15.5 t-14 35.5t13.5 34.5t31.5 16.5l-39 1397q-20 2 -34.5 15.5t-14.5 35.5z" />
<glyph unicode="m" horiz-adv-x="845" d="M0 51q0 20 14.5 34.5t34.5 16.5l33 754q-41 10 -41 51q0 23 14.5 37t36.5 14q23 0 37 -14t14 -37q0 -16 -10 -30l244 -299q16 8 31 8h6l65 291q-35 10 -35 49q0 23 14.5 37t37.5 14t37 -14.5t14 -36.5q0 -33 -31 -47l266 -773q5 3 13 3q23 0 37 -14.5t14 -37.5t-14.5 -37 t-36.5 -14q-23 0 -37.5 14.5t-14.5 36.5q0 33 31 47l-266 770h-12h-9l-65 -290q16 -6 26.5 -19.5t10.5 -29.5q0 -23 -15.5 -37.5t-35.5 -14.5q-23 0 -38.5 14.5t-15.5 37.5q0 20 17 36l-244 299q-12 -14 -35 -14h-2l-31 -754q18 -4 30.5 -17t12.5 -34q0 -23 -14 -37t-37 -14 t-37 14.5t-14 36.5z" />
<glyph unicode="n" horiz-adv-x="763" d="M0 51q0 23 14.5 37t36.5 14l76 754q-16 4 -28.5 18.5t-12.5 32.5q0 23 14.5 37t36.5 14q23 0 37 -14t14 -37q0 -12 -2 -18l482 -232q12 27 45 27q23 0 37 -15.5t14 -37.5q0 -20 -14.5 -35.5t-36.5 -15.5h-4l-58 -381q39 -10 39 -49q0 -23 -14 -37.5t-37 -14.5t-37 14.5 t-14 37.5t14 37t37 14h2l59 381q-38 10 -38 47q0 16 2 20l-482 232q-18 -25 -45 -25l-76 -754q41 -10 41 -51q0 -23 -14 -37t-37 -14t-37 14.5t-14 36.5z" />
<glyph unicode="o" horiz-adv-x="757" d="M0 668q0 23 14.5 38t36.5 15q31 0 45 -29l559 219q0 4 -1 7.5t-1 7.5q0 23 16 37t36 14q23 0 38 -14.5t15 -36.5q0 -23 -15.5 -37.5t-37.5 -14.5h-5l-102 -505q16 -4 26.5 -17.5t10.5 -32.5q0 -23 -14.5 -37t-36.5 -14q-27 0 -41 21l-350 -215q4 -12 4 -23 q0 -23 -14.5 -37t-37.5 -14t-37 14.5t-14 36.5q0 18 11.5 31.5t27.5 17.5l-78 516h-4q-23 0 -37 15.5t-14 36.5zM63 618l80 -516h2q27 0 41 -20l351 215q-4 12 -5 22q0 23 14.5 37.5t37.5 14.5h4l102 506q-23 8 -31 26l-559 -221q2 -4 2 -14q0 -39 -39 -50z" />
<glyph unicode="p" horiz-adv-x="661" d="M0 913q0 23 15.5 37.5t35.5 14.5q23 0 38 -14.5t15 -37.5q0 -2 -1 -2t-1 -2l459 -80q4 16 18.5 26.5t32.5 10.5q20 0 36 -14t16 -37t-15.5 -37t-36.5 -14h-6l-80 -383q35 -10 35 -49q0 -23 -14.5 -37t-36.5 -14q-25 0 -37 16l-283 -219q8 -12 9 -27q0 -39 -39 -49 l84 -451h4q23 0 37 -14t14 -37t-14.5 -37t-36.5 -14q-23 0 -37 14.5t-14 36.5q0 18 10 31.5t26 17.5l-81 451h-5q-23 0 -37 14.5t-14 36.5q0 41 41 51l-84 760h-2q-20 0 -35.5 14.5t-15.5 36.5zM61 862l84 -760h2q20 0 37 -16l283 219q-8 16 -8 27q0 23 14 37t37 14h6 l80 383q-16 4 -26.5 18.5t-10.5 30.5q0 4 2 4l-459 80q-10 -31 -41 -37z" />
<glyph unicode="q" horiz-adv-x="870" d="M-2 504q0 23 14.5 37t36.5 14q23 0 39 -16l442 329q-8 16 -8 27q0 23 15.5 37t37.5 14q20 0 36 -14t16 -37q0 -20 -13.5 -33.5t-31.5 -17.5l49 -742q23 0 37 -14t14 -37t-15.5 -37t-37.5 -14q-8 0 -13 2l-196 -541q16 -6 22 -22l328 127q-2 4 -2 14q0 23 14 37t37 14 t37 -14t14 -37t-14 -37t-37 -14q-31 0 -45 29l-328 -127q2 -6 3 -17q0 -20 -14.5 -35.5t-37.5 -15.5t-37 15.5t-14 35.5q0 23 14.5 38.5t36.5 15.5q4 0 6.5 -1.5t6.5 -1.5l198 539q-31 14 -30 47q0 8 2 10l-293 93q-14 -31 -49 -31q-23 0 -37.5 14.5t-14.5 36.5q0 29 23 41 l-139 242q-12 -4 -21 -4q-23 0 -37 14t-14 37zM78 461l139 -242q8 6 21 6q23 0 37 -14t14 -37v-12l293 -90q12 25 41 30l-50 742q-25 0 -36 16l-445 -330q8 -10 8 -26q0 -27 -22 -43z" />
<glyph unicode="r" horiz-adv-x="514" d="M0 895q0 23 15.5 37t37.5 14q20 0 35.5 -14t15.5 -37q0 -4 -1 -5t-1 -5l312 -92q14 30 47 30q23 0 38 -14t15 -37t-15.5 -37t-37.5 -14q-20 0 -35.5 14.5t-15.5 36.5q0 4 1 6t1 4l-312 95q-10 -23 -30 -31l188 -744h8q23 0 37 -14t14 -37t-14 -37t-37 -14t-37 14.5 t-14 36.5q0 35 35 49l-191 744h-6q-23 0 -38 14t-15 37z" />
<glyph unicode="s" horiz-adv-x="727" d="M0 119q0 23 15.5 37t37.5 14q20 0 35.5 -14.5t15.5 -36.5v-2l521 -56q6 20 26 35l-116 260q-4 0 -9.5 -1t-9.5 -1q-20 0 -35.5 14.5t-15.5 37.5q0 12 6 24l-195 127q-16 -18 -40 -18q-23 0 -37.5 14t-14.5 37q0 31 29 45l-86 223q-4 -2 -14 -2q-20 0 -36 14.5t-16 36.5 q0 23 15.5 37t36.5 14q23 0 37 -14t14 -35l360 -18q4 18 17.5 30.5t33.5 12.5q23 0 37.5 -14.5t14.5 -36.5q0 -23 -14.5 -37.5t-37.5 -14.5q-20 0 -35.5 14.5t-15.5 35.5l-360 18q-4 -27 -29 -39l86 -221q4 0 7 1t8 1q23 0 37 -14.5t14 -36.5q0 -16 -6 -25l196 -127 q14 18 39 19q23 0 38 -14.5t15 -36.5q0 -14 -8 -25.5t-18 -20.5l116 -260q5 2 17 2q23 0 37 -14t14 -37t-14.5 -37t-36.5 -14q-23 0 -37 14.5t-14 36.5l-523 58q-4 -18 -17 -29.5t-32 -11.5q-23 0 -38 14t-15 37z" />
<glyph unicode="t" horiz-adv-x="706" d="M-2 909q0 23 14.5 37.5t36.5 14.5q23 0 37 -14.5t14 -37.5q0 -12 -2 -18l121 -60q14 23 37 25l-47 594q-23 2 -37 16.5t-14 36.5q0 20 14 35.5t37 15.5t37 -15t14 -36q0 -20 -12 -33.5t-31 -17.5l47 -596q25 0 41 -20l303 190q-4 16 -4 25q0 20 14 35.5t37 15.5 t37.5 -15.5t14.5 -35.5q0 -23 -14.5 -38.5t-37.5 -15.5q-27 0 -41 21l-305 -189q6 -12 6 -24q0 -20 -13 -33.5t-32 -17.5l15 -650q20 -2 34.5 -16t14.5 -35q0 -23 -14.5 -37t-36.5 -14q-23 0 -37.5 14.5t-14.5 36.5q0 20 12.5 34.5t32.5 16.5l-16 650q-20 2 -33.5 16 t-13.5 35q0 12 2 18l-121 60q-18 -25 -45 -25q-23 0 -37 14.5t-14 36.5z" />
<glyph unicode="u" horiz-adv-x="677" d="M0 670q0 20 14.5 35.5t36.5 15.5q23 0 37 -15.5t14 -35.5t-13 -34.5t-32 -17.5l15 -516q39 -4 49 -41l313 37v2q0 23 14.5 37.5t36.5 14.5h4l123 725q-37 10 -37 49q0 23 14.5 37t37.5 14t37 -14.5t14 -36.5q0 -23 -14.5 -37.5t-36.5 -14.5h-4l-125 -724q39 -10 39 -50 q0 -23 -14.5 -37t-37.5 -14q-41 0 -51 41l-313 -37v-2q0 -23 -14.5 -37t-36.5 -14q-23 0 -37.5 14.5t-14.5 36.5q0 45 45 51l-16 516q-20 0 -33.5 14.5t-13.5 37.5z" />
<glyph unicode="v" horiz-adv-x="647" d="M0 889q0 23 14.5 37t36.5 14q23 0 37 -14.5t14 -36.5q0 -18 -11 -31.5t-28 -17.5l125 -738h5q14 0 26 -6l342 473q-16 12 -16 39q0 23 14 37t37 14t37 -14t14 -37t-14.5 -37t-36.5 -14q-14 0 -27 6l-344 -473q18 -18 19 -39q0 -23 -14.5 -37t-36.5 -14q-23 0 -37.5 14.5 t-14.5 36.5q0 18 10.5 31.5t26.5 17.5l-123 738h-4q-23 0 -37 14t-14 37z" />
<glyph unicode="w" horiz-adv-x="870" d="M0 895q0 23 14.5 37t36.5 14q23 0 37 -14t14 -37q0 -39 -34 -49l161 -744h7q8 0 10 -2l71 215q-12 6 -21 18.5t-9 28.5q0 23 15 37.5t36 14.5q23 0 38 -14.5t15 -37.5q0 -14 -6 -22l383 -246q14 18 39 21l10 594q-20 4 -33.5 17t-13.5 34q0 23 14.5 37t36.5 14 q23 0 37 -14.5t14 -36.5q0 -20 -13 -34.5t-34 -16.5l-10 -594q20 -2 32.5 -16.5t12.5 -35.5q0 -23 -14.5 -37t-36.5 -14q-23 0 -37 14.5t-14 36.5q0 12 6 25l-385 244q-14 -20 -41 -21q-6 0 -10 2l-72 -215q31 -14 31 -47q0 -23 -14.5 -37t-36.5 -14q-23 0 -37.5 14.5 t-14.5 36.5q0 39 35 49l-162 744h-6q-23 0 -37 14t-14 37z" />
<glyph unicode="x" horiz-adv-x="763" d="M0 895q0 23 14.5 37t36.5 14q23 0 37 -14t14 -37q0 -25 -16 -37l352 -459l242 381q-20 16 -21 41q0 23 15.5 37t36.5 14q23 0 38 -14t15 -37t-15.5 -37t-37.5 -14q-14 0 -23 6l-246 -385l224 -291q10 8 26 9q23 0 38 -14.5t15 -37.5t-15 -37t-38 -14q-20 0 -35.5 14.5 t-15.5 36.5q0 25 16 37l-219 289l-184 -291q20 -16 20 -41q0 -23 -15 -37t-36 -14q-23 0 -38 14.5t-15 36.5q0 23 15.5 37t37.5 14q12 0 23 -6l186 295l-354 461q-8 -8 -27 -8q-23 0 -37 14t-14 37z" />
<glyph unicode="y" horiz-adv-x="798" d="M0 924q0 23 14.5 37t36.5 14q23 0 37 -14.5t14 -36.5q0 -18 -12 -32.5t-31 -19.5l66 -747q20 0 34.5 -14.5t16.5 -34.5l520 -21q4 31 31 41l-188 582q-4 0 -5.5 -1t-5.5 -1q-23 0 -38 15.5t-15 35.5q0 23 15.5 38t37.5 15q20 0 36 -15t16 -38q0 -33 -33 -47l188 -582 q5 2 13 2q23 0 37 -14t14 -37t-14.5 -37t-36.5 -14h-11l-135 -469q33 -14 33 -49q0 -23 -15.5 -37t-37.5 -14q-20 0 -36 14t-16 37t15.5 37t36.5 14h10l137 471q-33 10 -33 45l-522 21q-2 -20 -16.5 -32.5t-32.5 -12.5q-23 0 -38 14t-15 37q0 18 12 32.5t31 18.5l-64 747 q-23 0 -37 14.5t-14 37.5z" />
<glyph unicode="z" horiz-adv-x="831" d="M0 766q0 23 14.5 37t36.5 14q16 0 30.5 -10t18.5 -27l621 105v4q0 23 14.5 37t36.5 14q23 0 37 -14.5t14 -36.5q0 -23 -14 -37t-37 -14q-16 0 -31 10l-465 -529q14 -14 15 -36q0 -10 -2 -15l444 -192q12 26 45 26q23 0 37 -14t14 -37t-14 -37t-37 -14t-37 14.5t-14 36.5 q0 10 2 17l-444 190q-14 -27 -45 -27q-23 0 -37.5 15.5t-14.5 36.5q0 23 14.5 38t37.5 15q16 0 30 -10l465 528q-10 10 -12 23l-621 -107v-4q0 -23 -14 -37t-37 -14t-37 14t-14 37z" />
<glyph unicode="{" horiz-adv-x="933" d="M0 713q0 20 14.5 35.5t36.5 15.5q14 0 27 -8l143 184q-16 16 -16 37q0 33 28 47l-114 311q-4 -2 -13 -2q-23 0 -37 14.5t-14 36.5q0 23 14.5 37.5t36.5 14.5q35 0 50 -35l632 147v6q0 23 14.5 38.5t37.5 15.5t37 -15.5t14 -38.5q0 -20 -14.5 -35.5t-36.5 -15.5 q-16 0 -29.5 10.5t-19.5 26.5l-633 -149v-7q0 -33 -29 -47l113 -309q4 0 7 1t7 1q23 0 37 -15.5t14 -37.5q0 -23 -14 -37t-37 -14q-14 0 -27 8l-143 -184q16 -16 16 -37q0 -12 -2 -19l140 -61q12 27 43 26q23 0 38 -14t15 -37t-15.5 -37t-37.5 -14q-10 0 -17 2l-98 -207 q27 -14 27 -45q0 -8 -2 -12l643 -223q14 30 47 30q23 0 37 -14t14 -37t-14.5 -37t-36.5 -14q-23 0 -37.5 14.5t-14.5 36.5q0 8 3 12l-644 224q-14 -31 -47 -31q-23 0 -37 15.5t-14 35.5q0 23 14.5 38t36.5 15q8 0 17 -4l98 207q-27 12 -27 45q0 4 5 17l-140 61 q-14 -27 -45 -27q-23 0 -37 15.5t-14 38.5z" />
<glyph unicode="|" horiz-adv-x="202" d="M1.5 33.5q-7.5 19.5 2.5 40.5q18 29 45 28l92 1438q-4 0 -16 4q-18 10 -25.5 29.5t2.5 40.5q10 18 30 25.5t40 -3.5q18 -10 25.5 -29.5t-2.5 -37.5q-12 -29 -45 -29l-91 -1438q4 -2 7.5 -3t7.5 -3q18 -10 25 -29.5t-3 -37.5q-10 -20 -29.5 -27.5t-37.5 2.5 q-20 10 -27.5 29.5z" />
<glyph unicode="}" horiz-adv-x="935" d="M0 1554q0 23 14.5 38.5t36.5 15.5q20 0 34.5 -14.5t16.5 -34.5l711 -27q4 18 17.5 31.5t33.5 13.5q23 0 37 -15.5t14 -35.5q0 -23 -14 -38t-37 -15q-18 0 -30 12l-355 -389q14 -14 15 -35q0 -10 -2 -14l344 -129q14 28 47 28q23 0 37 -14t14 -37t-14.5 -37t-36.5 -14 q-23 0 -41 18l-236 -153q6 -12 6 -25q0 -27 -20 -43l213 -373q12 6 22 6q23 0 37.5 -14t14.5 -37t-14.5 -37t-37.5 -14q-39 0 -49 35l-633 -148v-8q0 -23 -14 -37t-37 -14t-37 14.5t-14 36.5q0 23 14.5 37t36.5 14q35 0 49 -34l633 147v8q0 29 23 41l-215 373 q-6 -2 -11.5 -3t-11.5 -1q-23 0 -37 14.5t-14 36.5q0 23 14.5 37t36.5 14q23 0 41 -18l236 153q-6 12 -7 25q0 10 3 14l-345 129q-12 -29 -47 -28q-23 0 -37 14t-14 37t14.5 37t36.5 14q16 0 31 -10l352 389q-12 16 -12 31l-711 26q-4 -18 -17 -31.5t-34 -13.5 q-23 0 -37 15.5t-14 35.5z" />
<glyph unicode="&#xad;" horiz-adv-x="704" d="M0 680q0 23 14.5 37t36.5 14q23 0 37 -14.5t14 -36.5v-2l502 -55q4 18 17.5 29.5t31.5 11.5q23 0 37.5 -14.5t14.5 -37.5t-14.5 -37t-37.5 -14t-37 14.5t-14 36.5v2l-500 56q-10 -41 -51 -41q-23 0 -37 14t-14 37z" />
<glyph unicode="&#x2000;" horiz-adv-x="998" />
<glyph unicode="&#x2001;" horiz-adv-x="1997" />
<glyph unicode="&#x2002;" horiz-adv-x="998" />
<glyph unicode="&#x2003;" horiz-adv-x="1997" />
<glyph unicode="&#x2004;" horiz-adv-x="665" />
<glyph unicode="&#x2005;" horiz-adv-x="499" />
<glyph unicode="&#x2006;" horiz-adv-x="332" />
<glyph unicode="&#x2007;" horiz-adv-x="332" />
<glyph unicode="&#x2008;" horiz-adv-x="249" />
<glyph unicode="&#x2009;" horiz-adv-x="399" />
<glyph unicode="&#x200a;" horiz-adv-x="110" />
<glyph unicode="&#x2010;" horiz-adv-x="704" d="M0 680q0 23 14.5 37t36.5 14q23 0 37 -14.5t14 -36.5v-2l502 -55q4 18 17.5 29.5t31.5 11.5q23 0 37.5 -14.5t14.5 -37.5t-14.5 -37t-37.5 -14t-37 14.5t-14 36.5v2l-500 56q-10 -41 -51 -41q-23 0 -37 14t-14 37z" />
<glyph unicode="&#x2011;" horiz-adv-x="704" d="M0 680q0 23 14.5 37t36.5 14q23 0 37 -14.5t14 -36.5v-2l502 -55q4 18 17.5 29.5t31.5 11.5q23 0 37.5 -14.5t14.5 -37.5t-14.5 -37t-37.5 -14t-37 14.5t-14 36.5v2l-500 56q-10 -41 -51 -41q-23 0 -37 14t-14 37z" />
<glyph unicode="&#x2012;" horiz-adv-x="704" d="M0 680q0 23 14.5 37t36.5 14q23 0 37 -14.5t14 -36.5v-2l502 -55q4 18 17.5 29.5t31.5 11.5q23 0 37.5 -14.5t14.5 -37.5t-14.5 -37t-37.5 -14t-37 14.5t-14 36.5v2l-500 56q-10 -41 -51 -41q-23 0 -37 14t-14 37z" />
<glyph unicode="&#x2013;" horiz-adv-x="706" d="M2 616q0 23 14.5 37.5t36.5 14.5q23 0 37 -14.5t14 -37.5v-2l502 -55q4 16 17.5 28.5t31.5 12.5q23 0 37.5 -14.5t14.5 -36.5q0 -23 -14.5 -37t-37.5 -14t-37 14t-14 37l-500 57q-10 -41 -51 -41q-23 0 -37 14.5t-14 36.5z" />
<glyph unicode="&#x2014;" horiz-adv-x="708" d="M2 625q0 23 14.5 37t36.5 14q23 0 37 -14.5t14 -36.5v-2l502 -56q4 16 17.5 28.5t31.5 12.5q23 0 37.5 -14t14.5 -37t-14.5 -37t-37.5 -14t-37 14.5t-14 36.5l-500 57q-10 -41 -51 -41q-23 0 -37 14.5t-14 37.5z" />
<glyph unicode="&#x2018;" horiz-adv-x="122" d="M0 1487q0 23 15.5 37t35.5 14q23 0 38 -14.5t15 -36.5q0 -18 -12 -32.5t-31 -18.5l9 -99q23 0 38 -15t15 -38q0 -20 -15.5 -35.5t-37.5 -15.5q-20 0 -36 15.5t-16 35.5t12.5 33.5t30.5 17.5l-10 101q-20 0 -35.5 14t-15.5 37z" />
<glyph unicode="&#x2019;" horiz-adv-x="120" d="M0 1284q0 23 14 37t37 14l8 99q-41 10 -41 51q0 23 14.5 37t37.5 14t37 -14.5t14 -36.5q0 -23 -14.5 -37t-36.5 -14l-11 -101q18 -4 30.5 -17t12.5 -32q0 -23 -14 -37t-37 -14t-37 14.5t-14 36.5z" />
<glyph unicode="&#x202f;" horiz-adv-x="399" />
<glyph unicode="&#x205f;" horiz-adv-x="499" />
<glyph unicode="&#x25fc;" horiz-adv-x="942" d="M0 0v942h942v-942h-942z" />
</font>
</defs>
</svg>
