<?xml version="1.0" standalone="no"?>
<!DOCTYPE svg PUBLIC "-//W3C//DTD SVG 1.1//EN" "http://www.w3.org/Graphics/SVG/1.1/DTD/svg11.dtd" >
<svg xmlns="http://www.w3.org/2000/svg" xmlns:xlink="http://www.w3.org/1999/xlink" version="1.1">
<metadata></metadata>
<defs>
<font id="diamondsblack" horiz-adv-x="1384" >
<font-face units-per-em="2048" ascent="1536" descent="-512" />
<missing-glyph horiz-adv-x="581" />
<glyph horiz-adv-x="0" />
<glyph horiz-adv-x="682" />
<glyph unicode="&#xd;" horiz-adv-x="573" />
<glyph unicode=" "  horiz-adv-x="581" />
<glyph unicode="&#x09;" horiz-adv-x="581" />
<glyph unicode="&#xa0;" horiz-adv-x="581" />
<glyph unicode="!" horiz-adv-x="585" d="M127 0v338h334v-338h-334zM131 1434h326l-160 -969h-10z" />
<glyph unicode="&#x22;" horiz-adv-x="720" d="M174 803v631h57v-631h-57zM489 803v631h58v-631h-58z" />
<glyph unicode="#" horiz-adv-x="1363" d="M115 498v57h276l47 324h-323v57h331l72 498h57l-71 -498h428l72 498h57l-72 -498h260v-57h-268l-47 -324h315v-57h-323l-70 -498h-57l69 498h-428l-69 -498h-58l70 498h-268zM449 555h428l47 324h-428z" />
<glyph unicode="$" horiz-adv-x="1120" d="M66 457h278q0 -80 52 -143t132 -72v395l-36 10q-185 52 -273 156.5t-88 265.5q0 172 110.5 280.5t286.5 114.5v154h58v-156q182 -9 277 -113t95 -298h-274q0 55 -25.5 93t-72.5 48v-283l37 -10q77 -22 133.5 -45t114.5 -61t95 -85.5t60 -118t23 -159.5 q0 -190 -130 -319.5t-333 -139.5v-155h-58v155q-206 9 -334 141t-128 345zM408 1069q0 -57 24.5 -89t95.5 -56v270q-58 -6 -89 -40t-31 -85zM586 240q82 9 131 63t49 127t-45 115t-135 73v-378z" />
<glyph unicode="%" horiz-adv-x="2029" d="M80 852v231q0 167 96.5 269t257.5 102t259 -102t98 -267v-233q0 -166 -98 -268.5t-259 -102.5t-257.5 102t-96.5 269zM297 852q0 -72 36 -117t101 -45t100 44.5t35 117.5v231q0 73 -35 117.5t-100 44.5t-101 -45t-36 -117v-231zM557 0l700 1434h242l-698 -1434h-244z M1239 350v232q0 166 96.5 268t257.5 102t259 -101.5t98 -266.5v-234q0 -166 -98 -268t-259 -102t-257.5 102t-96.5 268zM1456 350q0 -72 36 -117t101 -45q66 0 101 44.5t35 117.5v232q0 73 -35 117t-101 44q-65 0 -101 -44.5t-36 -116.5v-232z" />
<glyph unicode="&#x26;" horiz-adv-x="1470" d="M90 383q0 109 60.5 202.5t156.5 153.5l78 52l-45 53q-100 114 -100 258q0 156 114.5 259t288.5 103q164 0 266.5 -102t102.5 -260q0 -194 -228 -348l-8 -6l189 -207l215 215l196 -195l-227 -223l307 -338h-383l-125 143q-201 -174 -434 -174q-137 0 -234.5 55.5 t-143.5 147.5t-46 211zM389 385q0 -68 39.5 -108.5t118.5 -40.5q107 0 223 110l-219 254l-39 -25q-123 -84 -123 -190zM508 1104q0 -59 47 -113l47 -53l23 14q116 76 116 146q0 46 -30.5 77t-83.5 31q-50 0 -84.5 -26t-34.5 -76z" />
<glyph unicode="'" horiz-adv-x="405" d="M174 803v631h57v-631h-57z" />
<glyph unicode="(" horiz-adv-x="520" d="M125 717q0 148 18 275.5t54 238.5t76 197.5t98 189.5l49 -29q-117 -204 -177.5 -407t-60.5 -465t60.5 -465.5t177.5 -407.5l-49 -28q-58 103 -98 189.5t-76 197.5t-54 238.5t-18 275.5z" />
<glyph unicode=")" horiz-adv-x="520" d="M100 -156q117 204 177.5 407.5t60.5 465.5t-60.5 465t-177.5 407l50 29q58 -103 98 -190t76 -197.5t53.5 -238t17.5 -275.5t-17.5 -275.5t-53.5 -238t-76 -197.5t-98 -190z" />
<glyph unicode="*" horiz-adv-x="835" d="M131 985l229 133l-229 133l29 49l229 -133v267h57v-267l230 133l29 -49l-232 -133l232 -133l-29 -49l-230 133v-266h-57v266l-229 -133z" />
<glyph unicode="+" horiz-adv-x="1271" d="M123 688v57h485v486h58v-486h483v-57h-483v-483h-58v483h-485z" />
<glyph unicode="," horiz-adv-x="602" d="M141 336h346l-331 -868h-15v868z" />
<glyph unicode="-" horiz-adv-x="1193" d="M156 688v57h882v-57h-882z" />
<glyph unicode="." horiz-adv-x="628" d="M76 166l237 240l238 -240l-236 -240z" />
<glyph unicode="/" horiz-adv-x="845" d="M78 -184l624 1802h68l-625 -1802h-67z" />
<glyph unicode="0" horiz-adv-x="1292" d="M123 510v414q0 239 143.5 389.5t378.5 150.5t379.5 -150t144.5 -388v-416q0 -239 -144.5 -390t-379.5 -151t-378.5 151t-143.5 390zM410 510q0 -115 63.5 -188.5t171.5 -73.5q110 0 172 73t62 189v414q0 116 -62 189t-172 73q-108 0 -171.5 -73.5t-63.5 -188.5v-414z" />
<glyph unicode="1" horiz-adv-x="1019" d="M119 0v266h299v766l-299 -137v289l590 295v-1213h254v-266h-844z" />
<glyph unicode="2" horiz-adv-x="1048" d="M111 0v115q0 111 10.5 193t28.5 139.5t53.5 106.5t72.5 83t99 80l131 96q84 60 123 115.5t39 122.5q0 66 -38 105.5t-106 39.5q-65 0 -100 -38.5t-35 -106.5h-274q0 195 105.5 304t303.5 109q185 0 301.5 -112.5t116.5 -300.5q0 -64 -18.5 -123t-42 -100.5t-67.5 -88 t-73 -72t-79 -65.5l-134 -102q-80 -65 -103.5 -108t-23.5 -126h525v-266h-815z" />
<glyph unicode="3" horiz-adv-x="1110" d="M55 274l254 129q29 -71 81.5 -113t123.5 -42q43 0 83.5 16.5t70.5 57t30 98.5q0 91 -53.5 137.5t-138.5 46.5h-205v279h209q63 0 107.5 44.5t44.5 116.5q0 70 -40.5 111t-105.5 41q-109 0 -160 -94l-235 141q130 221 393 221q207 0 325.5 -113.5t118.5 -279.5 q0 -215 -186 -307q101 -38 167.5 -132.5t66.5 -232.5q0 -204 -138.5 -317t-357.5 -113q-165 0 -274 79t-181 226z" />
<glyph unicode="4" horiz-adv-x="1304" d="M27 360l637 1074h297v-807h280v-267h-280v-360h-291v360h-643zM487 627h183v327z" />
<glyph unicode="5" horiz-adv-x="1132" d="M31 274l262 136q31 -78 75 -120t115 -42q85 0 137 48t52 136q0 172 -199 172h-289l232 830h626v-267h-389l-82 -284h9q56 0 109.5 -14t107 -48t93 -84t64.5 -129t25 -176q0 -195 -142 -329t-354 -134q-163 0 -271.5 79t-180.5 226z" />
<glyph unicode="6" horiz-adv-x="1130" d="M94 440q0 185 105 385l311 609h317l-315 -564q64 35 145 35q77 0 149.5 -33t128.5 -91.5t90 -147.5t34 -193q0 -215 -132.5 -343t-348.5 -128q-218 0 -351 128t-133 343zM381 440q0 -90 53 -141t144 -51q90 0 142 51t52 141q0 89 -52.5 141t-141.5 52q-91 0 -144 -52 t-53 -141z" />
<glyph unicode="7" horiz-adv-x="1075" d="M80 1167v267h995l-643 -1434h-315l524 1167h-561z" />
<glyph unicode="8" horiz-adv-x="1196" d="M102 399q0 138 67 232.5t167 132.5q-186 92 -186 307q0 163 126.5 278t327.5 115q199 0 321 -114.5t122 -278.5q0 -214 -187 -307q100 -38 167 -132.5t67 -232.5q0 -204 -138.5 -317t-357.5 -113t-357.5 113t-138.5 317zM410 422q0 -82 55 -129t133 -47q83 0 135.5 46 t52.5 130q0 91 -51 137.5t-135 46.5q-83 0 -136.5 -46.5t-53.5 -137.5zM446 1049q0 -71 44.5 -111.5t107.5 -40.5q64 0 108 40t44 112q0 69 -42 108t-108 39q-67 0 -110.5 -39.5t-43.5 -107.5z" />
<glyph unicode="9" horiz-adv-x="1132" d="M74 993q0 215 132.5 343t348.5 128q218 0 350.5 -128t132.5 -343q0 -187 -104 -385l-311 -608h-318l316 563q-64 -35 -146 -35q-77 0 -149 33t-128 91.5t-90 147.5t-34 193zM360 993q0 -89 52.5 -140.5t142.5 -51.5q91 0 144 51.5t53 140.5q0 90 -53 141.5t-144 51.5 q-90 0 -142.5 -51.5t-52.5 -141.5z" />
<glyph unicode=":" horiz-adv-x="632" d="M150 135v338h333v-338h-333zM150 971v338h333v-338h-333z" />
<glyph unicode=";" horiz-adv-x="608" d="M147 336h347l-332 -868h-15v868zM152 836v338h335v-338h-335z" />
<glyph unicode="&#x3c;" horiz-adv-x="1271" d="M80 690v58l1026 391v-58l-952 -362l952 -363v-57z" />
<glyph unicode="=" horiz-adv-x="1271" d="M123 481v58h1026v-58h-1026zM123 895v57h1026v-57h-1026z" />
<glyph unicode="&#x3e;" horiz-adv-x="1271" d="M166 299v57l950 363l-950 362v58l1026 -391v-58z" />
<glyph unicode="?" horiz-adv-x="972" d="M68 1051q0 192 106 302.5t303 110.5q186 0 302 -113t116 -304q0 -30 -6 -60t-13.5 -53.5t-24 -52t-27.5 -45.5t-34.5 -45t-35 -40.5t-38.5 -41.5t-36 -39l-57 -60q-34 -35 -45 -48t-19 -33t-8 -48h-262q0 41 3.5 73t14 60t18 46t28.5 41.5t31.5 34.5t41 38.5t43.5 40.5 l51 51q54 54 77.5 93t23.5 88q0 68 -38 108.5t-106 40.5q-65 0 -100 -39.5t-35 -105.5h-274zM250 0v338h334v-338h-334z" />
<glyph unicode="@" horiz-adv-x="1662" d="M98 717q0 213 96.5 384t267.5 267t384 96q160 0 298.5 -52t237 -144t155 -223.5t56.5 -284.5q0 -185 -99 -299.5t-232 -114.5q-143 0 -205 100q-92 -116 -256 -116q-162 0 -263.5 111t-101.5 278q0 168 101.5 278.5t263.5 110.5q125 0 215 -74v53h186v-456 q0 -107 76 -107q48 0 82.5 65t34.5 171q0 228 -150 375t-399 147q-156 0 -282 -75t-196.5 -204t-70.5 -286t70.5 -286t196.5 -204t282 -75q104 0 200 36t168 99l111 -142q-201 -176 -479 -176q-213 0 -384 96.5t-267.5 267.5t-96.5 384zM635 719q0 -87 52 -148t136 -61 q88 0 139.5 60.5t51.5 148.5t-51.5 147.5t-139.5 59.5q-84 0 -136 -60t-52 -147z" />
<glyph unicode="A" d="M20 0l527 1434h303l502 -1434h-312l-155 469h-391l-162 -469h-312zM586 735h211l-103 312z" />
<glyph unicode="B" horiz-adv-x="1144" d="M162 0v1434h413q188 0 302 -109.5t114 -284.5q0 -184 -145 -274q95 -49 151 -134t56 -202q0 -193 -128.5 -311.5t-326.5 -118.5h-436zM453 279h139q72 0 111.5 39.5t39.5 111.5q0 74 -39.5 115t-111.5 41h-139v-307zM453 864h94q70 0 107.5 40t37.5 112q0 69 -38 109 t-107 40h-94v-301z" />
<glyph unicode="C" horiz-adv-x="1406" d="M92 717q0 213 96.5 384t267.5 267t384 96q298 0 506 -192l-195 -211q-133 123 -311 123q-193 0 -322 -135t-129 -332t129 -332t322 -135q187 0 319 129l205 -207q-209 -203 -524 -203q-213 0 -384 96.5t-267.5 267.5t-96.5 384z" />
<glyph unicode="D" horiz-adv-x="1298" d="M162 0v1434h293q215 0 384.5 -88.5t266 -252.5t96.5 -376q0 -155 -45 -277.5t-124.5 -204t-194 -135t-246.5 -77t-289 -23.5h-141zM455 281q201 0 325.5 115t124.5 321t-124.5 321t-325.5 115v-872z" />
<glyph unicode="E" horiz-adv-x="1058" d="M162 0v1434h762v-267h-471v-297h471v-266h-471v-338h471v-266h-762z" />
<glyph unicode="F" horiz-adv-x="1021" d="M162 0v1434h762v-267h-471v-297h471v-266h-471v-604h-291z" />
<glyph unicode="G" horiz-adv-x="1644" d="M92 717q0 213 96.5 384t267.5 267t384 96q311 0 520 -196l-209 -209q-128 125 -311 125q-193 0 -322 -135t-129 -332t129 -332t322 -135q162 0 280.5 94t157.5 246h-322v266h627v-88q0 -160 -39.5 -293t-108 -225.5t-163 -156.5t-203.5 -94t-229 -30q-213 0 -384 96.5 t-267.5 267.5t-96.5 384z" />
<glyph unicode="H" horiz-adv-x="1263" d="M162 0v1434h291v-570h358v570h291v-1434h-291v598h-358v-598h-291z" />
<glyph unicode="I" horiz-adv-x="614" d="M162 0v1434h291v-1434h-291z" />
<glyph unicode="J" horiz-adv-x="1163" d="M41 467h289q0 -108 55 -163.5t139 -55.5q87 0 142 55t55 164v967h291v-967q0 -155 -65 -269.5t-174.5 -171.5t-248.5 -57q-137 0 -245.5 57t-173 171.5t-64.5 269.5z" />
<glyph unicode="K" horiz-adv-x="1122" d="M162 0v1434h291v-668l264 668h327l-305 -717l305 -717h-327l-264 670v-670h-291z" />
<glyph unicode="L" horiz-adv-x="974" d="M162 0v1434h291v-1168h471v-266h-762z" />
<glyph unicode="M" horiz-adv-x="1656" d="M162 0v1434h291l387 -510l366 510h291v-1434h-291v936l-366 -485l-387 485v-936h-291z" />
<glyph unicode="N" horiz-adv-x="1458" d="M162 0v1434h291l555 -924v924h290v-1434h-290l-555 924v-924h-291z" />
<glyph unicode="O" horiz-adv-x="1679" d="M92 717q0 213 96.5 384t267.5 267t384 96q160 0 298.5 -56.5t237 -155t155 -237t56.5 -298.5q0 -213 -96 -384t-267 -267.5t-384 -96.5t-384 96.5t-267.5 267.5t-96.5 384zM389 717q0 -197 129 -332t322 -135t321.5 135t128.5 332t-128.5 332t-321.5 135t-322 -135 t-129 -332z" />
<glyph unicode="P" horiz-adv-x="1171" d="M162 0v1434h504q199 0 327.5 -119.5t128.5 -315.5q0 -195 -128.5 -314.5t-327.5 -119.5h-213v-565h-291zM453 844h200q73 0 116.5 41t43.5 114q0 74 -43.5 115t-116.5 41h-200v-311z" />
<glyph unicode="Q" horiz-adv-x="1679" d="M92 717q0 213 96.5 384t267.5 267t384 96q160 0 298.5 -56.5t237 -155t155 -237t56.5 -298.5q0 -237 -119 -420l125 -125l-188 -188l-121 120q-193 -135 -444 -135q-213 0 -384 96.5t-267.5 267.5t-96.5 384zM389 717q0 -197 129 -332t322 -135q129 0 233 63l-336 338 l189 189l323 -324q41 90 41 201q0 197 -128.5 332t-321.5 135t-322 -135t-129 -332z" />
<glyph unicode="R" horiz-adv-x="1218" d="M162 0v1434h485q199 0 328 -120t129 -315q0 -161 -90.5 -259.5t-245.5 -125.5l362 -614h-337l-340 633v-633h-291zM453 844h174q75 0 121.5 41.5t46.5 113.5q0 73 -46.5 114.5t-121.5 41.5h-174v-311z" />
<glyph unicode="S" horiz-adv-x="1138" d="M74 457h278q0 -87 60.5 -152t150.5 -65q95 0 153 55.5t58 134.5q0 83 -55 126.5t-168 76.5l-51 14q-185 52 -273 156.5t-88 265.5q0 178 116.5 286.5t301.5 108.5q201 0 305.5 -104.5t104.5 -308.5h-275q0 66 -35 105.5t-100 39.5q-67 0 -104 -35.5t-37 -91.5 q0 -61 31.5 -95t121.5 -59l62 -16q77 -22 133.5 -45t114.5 -61t95 -85.5t60 -118t23 -159.5q0 -197 -139.5 -328t-354.5 -131q-217 0 -353 133t-136 353z" />
<glyph unicode="T" horiz-adv-x="1179" d="M51 1167v267h1077v-267h-393v-1167h-291v1167h-393z" />
<glyph unicode="U" horiz-adv-x="1345" d="M150 506v928h288v-928q0 -115 63 -186.5t171 -71.5q110 0 171.5 71.5t61.5 186.5v928h291v-928q0 -239 -144.5 -388t-379.5 -149t-378.5 149t-143.5 388z" />
<glyph unicode="V" horiz-adv-x="1390" d="M31 1434h319l342 -1020l361 1020h319l-530 -1434h-305z" />
<glyph unicode="W" horiz-adv-x="1927" d="M31 1434h319l352 -1033l375 1033h295l-264 -715l109 -318l374 1033h318l-531 -1434h-303l-114 322l-119 -322h-305z" />
<glyph unicode="X" horiz-adv-x="1056" d="M72 0l293 731l-277 703h346l98 -347l105 347h346l-289 -705l277 -729h-326l-121 385l-123 -385h-329z" />
<glyph unicode="Y" horiz-adv-x="1067" d="M53 1434h330l152 -541l151 541h330l-338 -920v-514h-291v520z" />
<glyph unicode="Z" horiz-adv-x="1013" d="M37 0l516 1167h-434v267h868l-518 -1168h412v-266h-844z" />
<glyph unicode="[" horiz-adv-x="614" d="M207 -184v1802h325v-57h-268v-1688h268v-57h-325z" />
<glyph unicode="\" horiz-adv-x="845" d="M76 1618h67l625 -1802h-68z" />
<glyph unicode="]" horiz-adv-x="614" d="M82 -127h268v1688h-268v57h326v-1802h-326v57z" />
<glyph unicode="^" horiz-adv-x="1271" d="M143 717l457 717h72l454 -717h-69l-422 663l-422 -663h-70z" />
<glyph unicode="_" horiz-adv-x="1226" d="M172 -94h883v-58h-883v58z" />
<glyph unicode="`" horiz-adv-x="1228" d="M414 1868h241l160 -293h-242z" />
<glyph unicode="a" d="M20 0l527 1434h303l502 -1434h-305l-555 467l-160 -467h-312zM586 733l297 -250l-189 570z" />
<glyph unicode="b" horiz-adv-x="1253" d="M162 0v1434h424q187 0 300 -109.5t113 -284.5q0 -83 -31 -147t-81 -102q132 -33 212.5 -125t80.5 -236q0 -193 -128 -311.5t-327 -118.5h-563zM453 279h256q76 0 118.5 38.5t42.5 112.5q0 73 -43 114.5t-116 41.5h-258v-307zM453 864h108q70 0 105.5 39.5t35.5 112.5 q0 149 -141 149h-108v-301z" />
<glyph unicode="c" horiz-adv-x="1654" d="M92 717q0 213 96.5 384t267.5 267t384 96q200 0 363.5 -86t263 -238.5t116.5 -346.5h-299q-27 169 -149.5 280t-294.5 111q-193 0 -322 -135t-129 -332t129 -332t322 -135q167 0 289 105t153 266h301q-31 -289 -237 -470.5t-506 -181.5q-213 0 -384 96.5t-267.5 267.5 t-96.5 384z" />
<glyph unicode="d" horiz-adv-x="1298" d="M162 0v1434h293q215 0 384.5 -88.5t266 -252.5t96.5 -376q0 -155 -45 -277.5t-124.5 -204t-194 -135t-246.5 -77t-289 -23.5h-141zM455 281q201 0 325.5 115t124.5 321t-124.5 321t-325.5 115v-872z" />
<glyph unicode="e" horiz-adv-x="1056" d="M162 0v1434h762v-267h-471v-188h471v-266h-471v-447h471v-266h-762z" />
<glyph unicode="f" horiz-adv-x="1011" d="M162 0v1434h762v-267h-471v-188h471v-266h-471v-713h-291z" />
<glyph unicode="g" horiz-adv-x="1644" d="M92 717q0 213 96.5 384t267.5 267t384 96q311 0 520 -196l-209 -209q-128 125 -311 125q-193 0 -322 -135t-129 -332t129 -332t322 -135q162 0 280.5 94t157.5 246h-651v266h956v-88q0 -160 -39.5 -293t-108 -225.5t-163 -156.5t-203.5 -94t-229 -30q-213 0 -384 96.5 t-267.5 267.5t-96.5 384z" />
<glyph unicode="h" horiz-adv-x="1548" d="M162 0v1434h291v-570h643v570h290v-1434h-290v598h-643v-598h-291z" />
<glyph unicode="i" horiz-adv-x="1067" d="M104 0v266h285v901h-285v267h859v-267h-283v-901h283v-266h-859z" />
<glyph unicode="j" horiz-adv-x="966" d="M18 102l166 220q77 -74 170 -74q170 0 170 219v967h291v-967q0 -235 -126 -366.5t-335 -131.5q-98 0 -185 35t-151 98z" />
<glyph unicode="k" horiz-adv-x="1333" d="M162 0v1434h291v-906l516 906h327l-370 -629l321 -805h-327l-179 492l-288 -492h-291z" />
<glyph unicode="l" horiz-adv-x="974" d="M162 0v1434h291v-1168h471v-266h-762z" />
<glyph unicode="m" horiz-adv-x="1763" d="M162 0v1434h291l428 -1055l430 1055h291v-1434h-291v725l-283 -725h-293l-282 725v-725h-291z" />
<glyph unicode="n" d="M162 0v1434h291l479 -441v441h291v-1434h-291v610l-479 443v-1053h-291z" />
<glyph unicode="o" horiz-adv-x="1679" d="M92 717q0 213 96.5 384t267.5 267t384 96q160 0 298.5 -56.5t237 -155t155 -237t56.5 -298.5q0 -213 -96 -384t-267 -267.5t-384 -96.5t-384 96.5t-267.5 267.5t-96.5 384zM389 717q0 -197 129 -332t322 -135t321.5 135t128.5 332t-128.5 332t-321.5 135t-322 -135 t-129 -332zM641 717q0 -87 56.5 -145t142.5 -58t142 58t56 145q0 86 -56.5 144.5t-141.5 58.5q-86 0 -142.5 -58.5t-56.5 -144.5z" />
<glyph unicode="p" horiz-adv-x="1312" d="M162 0v1434h643q199 0 328 -120t129 -315t-129 -314.5t-328 -119.5h-352v-565h-291zM453 844h335q73 0 118.5 41.5t45.5 113.5q0 73 -45 114.5t-119 41.5h-335v-311z" />
<glyph unicode="q" horiz-adv-x="1665" d="M80 717h297q0 -197 128.5 -332t321.5 -135q132 0 236 63l-840 848q88 133 244.5 218t359.5 85q213 0 384 -96t267.5 -267t96.5 -384q0 -237 -119 -420l125 -125l-188 -188l-119 120q-193 -135 -447 -135q-213 0 -384 96.5t-267 267.5t-96 384zM610 1145l629 -631 q39 88 39 203q0 197 -129 332t-322 135q-132 0 -217 -39z" />
<glyph unicode="r" horiz-adv-x="1392" d="M162 0v1434h690q198 0 327.5 -120t129.5 -315q0 -183 -114 -300.5t-296 -131.5l307 -567h-327l-426 817v-817h-291zM580 1155l170 -311h84q74 0 120.5 41.5t46.5 113.5q0 73 -46.5 114.5t-120.5 41.5h-254z" />
<glyph unicode="s" horiz-adv-x="1138" d="M74 457h278q0 -87 60.5 -152t150.5 -65q95 0 153 55.5t58 134.5q0 83 -55 126.5t-168 76.5l-51 14q-185 52 -273 156.5t-88 265.5q0 178 116.5 286.5t301.5 108.5q201 0 305.5 -104.5t104.5 -308.5h-275q0 66 -35 105.5t-100 39.5q-67 0 -104 -35.5t-37 -91.5 q0 -61 31.5 -95t121.5 -59l62 -16q77 -22 133.5 -45t114.5 -61t95 -85.5t60 -118t23 -159.5q0 -197 -139.5 -328t-354.5 -131q-217 0 -353 133t-136 353z" />
<glyph unicode="t" horiz-adv-x="1179" d="M51 1167v267h1077v-267h-393v-1167h-291v1167h-393z" />
<glyph unicode="u" horiz-adv-x="1345" d="M150 506v928h288v-928q0 -115 63 -186.5t171 -71.5q110 0 171.5 71.5t61.5 186.5v928h291v-928q0 -239 -144.5 -388t-379.5 -149t-378.5 149t-143.5 388z" />
<glyph unicode="v" horiz-adv-x="1390" d="M31 1434h319l342 -1020l361 1020h319l-530 -1434h-305z" />
<glyph unicode="w" horiz-adv-x="1927" d="M31 1434h319l352 -1033l117 322l-250 711h293l105 -306l110 306h295l-264 -717l109 -316l374 1033h318l-531 -1434h-303l-114 322l-119 -322h-305z" />
<glyph unicode="x" horiz-adv-x="1056" d="M72 0l293 731l-277 703h346l98 -347l105 347h346l-289 -705l277 -729h-326l-121 385l-123 -385h-329z" />
<glyph unicode="y" horiz-adv-x="1032" d="M47 1434h330l139 -494l164 494h319l-491 -1434h-305l168 508z" />
<glyph unicode="z" horiz-adv-x="1046" d="M51 0l258 586h-123v266h242l139 315h-434v267h868l-258 -582h127v-266h-245l-142 -320h414v-266h-846z" />
<glyph unicode="{" horiz-adv-x="616" d="M84 688v57h39q66 0 96.5 30.5t30.5 96.5v562q0 184 184 184h101v-57h-101q-66 0 -96.5 -30.5t-30.5 -96.5v-562q0 -107 -78 -155q78 -48 78 -156v-561q0 -66 30.5 -96.5t96.5 -30.5h101v-57h-101q-184 0 -184 184v561q0 66 -30.5 96.5t-96.5 30.5h-39z" />
<glyph unicode="|" horiz-adv-x="471" d="M207 -184v1802h57v-1802h-57z" />
<glyph unicode="}" horiz-adv-x="616" d="M82 -127h100q66 0 96.5 30.5t30.5 96.5v561q0 108 78 156q-78 48 -78 155v562q0 66 -30.5 96.5t-96.5 30.5h-100v57h100q185 0 185 -184v-562q0 -66 30.5 -96.5t96.5 -30.5h38v-57h-38q-66 0 -96.5 -30.5t-30.5 -96.5v-561q0 -184 -185 -184h-100v57z" />
<glyph unicode="~" horiz-adv-x="1271" d="M348 631q0 74 43 121t123 47q43 0 77 -17t53 -37.5t49 -37.5t65 -17q106 0 106 111h58q0 -74 -42.5 -121t-121.5 -47q-43 0 -77 17t-53.5 37t-49.5 37t-64 17q-108 0 -108 -110h-58z" />
<glyph unicode="&#xa1;" horiz-adv-x="593" d="M129 727v338h336v-338h-336zM135 -369l160 969h10l156 -969h-326z" />
<glyph unicode="&#xa2;" horiz-adv-x="1421" d="M70 717q0 152 51 285t141 230t217 158t275 72v156h57v-154h6q152 0 284 -50t232 -142l-205 -211q-133 123 -311 123h-6v-934h6q188 0 320 129l215 -207q-101 -98 -237.5 -150.5t-297.5 -52.5h-6v-153h-57v155q-148 11 -275 71.5t-217 157.5t-141 231t-51 286zM367 717 q0 -180 108.5 -310t278.5 -153v926q-170 -23 -278.5 -153.5t-108.5 -309.5z" />
<glyph unicode="&#xa3;" horiz-adv-x="1153" d="M106 0v266h138v418h-138v57h138v226q0 235 126 366t337 131q209 0 340 -125l-173 -227q-77 74 -167 74q-172 0 -172 -219v-226h335v-57h-335v-418h524v-266h-953z" />
<glyph unicode="&#xa4;" horiz-adv-x="1093" d="M164 375l121 121q-74 93 -74 219q0 128 76 223l-123 123l41 41l121 -123q89 80 219 80q131 0 221 -84l125 125l39 -39l-125 -125q74 -93 74 -221t-70 -217l121 -121l-39 -41l-121 121q-96 -86 -225 -86t-221 82l-119 -119zM268 715q0 -121 79 -203t198 -82t197.5 82 t78.5 203t-78.5 201.5t-197.5 80.5q-120 0 -198.5 -80.5t-78.5 -201.5z" />
<glyph unicode="&#xa5;" horiz-adv-x="1191" d="M92 434v58h359v28l-43 119h-316v57h293l-270 738h329l152 -541l152 541h329l-270 -738h291v-57h-312l-45 -125v-22h357v-58h-357v-434h-290v434h-359z" />
<glyph unicode="&#xa6;" horiz-adv-x="479" d="M211 -184v725h57v-725h-57zM211 877v741h57v-741h-57z" />
<glyph unicode="&#xa7;" horiz-adv-x="933" d="M123 713q0 97 60 167.5t157 100.5q-168 64 -168 233q0 110 86 180t207 70q131 0 209 -69t78 -193h-72q0 94 -60 146.5t-155 52.5q-93 0 -156 -54.5t-63 -132.5t48 -125t148 -69l68 -14q143 -30 220.5 -95.5t80.5 -187.5q0 -98 -60 -169t-159 -101q170 -68 170 -234 q0 -110 -86 -180t-207 -70q-131 0 -209 69t-78 193h72q0 -94 60 -146t155 -52q93 0 156 54t63 132t-48 125.5t-148 69.5l-68 14q-146 32 -223.5 98t-77.5 187zM195 713q0 -69 41.5 -119.5t101 -73t127.5 -22.5q120 0 197 63t77 162q0 95 -80.5 154t-189.5 59 q-120 0 -197 -62.5t-77 -160.5z" />
<glyph unicode="&#xa8;" horiz-adv-x="1228" d="M229 1696l174 180l181 -180l-176 -176zM645 1696l176 180l178 -180l-176 -176z" />
<glyph unicode="&#xa9;" horiz-adv-x="1736" d="M121 717q0 160 56.5 298.5t155 237t237 155t298.5 56.5q213 0 384 -96t267.5 -267t96.5 -384t-96.5 -384t-267.5 -267.5t-384 -96.5t-384 96.5t-267 267.5t-96 384zM182 717q0 -194 89 -352t246 -248t351 -90t351 90t246 248t89 352t-89 352t-246 248t-351 90t-351 -90 t-246 -248t-89 -352zM535 719q0 147 94.5 245.5t238.5 98.5q131 0 221 -79t109 -206h-57q-17 100 -92 161.5t-181 61.5q-119 0 -197.5 -80.5t-78.5 -201.5t78.5 -203t197.5 -82q100 0 173.5 59.5t95.5 153.5h59q-24 -120 -113 -196t-215 -76q-144 0 -238.5 99t-94.5 245z " />
<glyph unicode="&#xaa;" horiz-adv-x="894" d="M84 717l264 717h209l250 -717h-213l-29 86h-239l-29 -86h-213zM178 440v183h551v-183h-551zM389 985h119l-57 176z" />
<glyph unicode="&#xab;" horiz-adv-x="987" d="M109 717l335 434l41 -37l-303 -397l303 -402l-41 -36zM444 717l336 434l41 -37l-303 -397l303 -402l-41 -36z" />
<glyph unicode="&#xac;" horiz-adv-x="1271" d="M131 688v57h1026v-542h-57v485h-969z" />
<glyph unicode="&#xad;" horiz-adv-x="1193" d="M156 688v57h882v-57h-882z" />
<glyph unicode="&#xae;" horiz-adv-x="1736" d="M121 717q0 160 56.5 298.5t155 237t237 155t298.5 56.5q213 0 384 -96t267.5 -267t96.5 -384t-96.5 -384t-267.5 -267.5t-384 -96.5t-384 96.5t-267 267.5t-96 384zM182 717q0 -194 89 -352t246 -248t351 -90t351 90t246 248t89 352t-89 352t-246 248t-351 90t-351 -90 t-246 -248t-89 -352zM680 383v672h213q91 0 150 -55t59 -146q0 -87 -58.5 -137.5t-150.5 -50.5h-45l260 -283h-72l-264 283h-35v-283h-57zM737 721h158q69 0 107 33.5t38 99.5q0 68 -39.5 106.5t-109.5 38.5h-154v-278z" />
<glyph unicode="&#xaf;" horiz-adv-x="1228" d="M369 1599v230h489v-230h-489z" />
<glyph unicode="&#xb0;" horiz-adv-x="917" d="M125 1120q0 147 95 245.5t239 98.5q145 0 239.5 -98.5t94.5 -245.5q0 -146 -94.5 -245t-239.5 -99q-144 0 -239 99t-95 245zM182 1120q0 -121 79 -202.5t198 -81.5t197.5 81.5t78.5 202.5t-78.5 202t-197.5 81t-198 -81t-79 -202z" />
<glyph unicode="&#xb1;" horiz-adv-x="1271" d="M123 195v57h1026v-57h-1026zM123 831v58h485v485h58v-485h483v-58h-483v-278h-58v278h-485z" />
<glyph unicode="&#xb2;" horiz-adv-x="757" d="M106 707v79q0 127 18.5 201t50 112t99.5 89l82 61q95 68 95 135q0 34 -18.5 54t-53.5 20q-70 0 -70 -74h-203q0 131 70 203t203 72q123 0 199.5 -75.5t76.5 -199.5q0 -40 -13 -79t-26.5 -63.5t-46 -58.5t-46 -46t-52.5 -45l-84 -68q-43 -38 -53 -57t-10 -62h325v-198 h-543z" />
<glyph unicode="&#xb3;" horiz-adv-x="786" d="M72 889l186 98q14 -42 43.5 -68t67.5 -26q34 0 64 22.5t30 67.5q0 52 -28.5 77t-72.5 25h-139v209h133q38 0 61 23t23 61q0 37 -19 58.5t-52 21.5q-60 0 -82 -49l-172 104q85 146 254 146q135 0 214 -75t79 -183q0 -131 -115 -199q63 -25 104 -86t41 -147 q0 -134 -90.5 -208.5t-234.5 -74.5q-109 0 -178 52t-117 151z" />
<glyph unicode="&#xb4;" horiz-adv-x="1228" d="M414 1575l159 293h242l-160 -293h-241z" />
<glyph unicode="&#xb6;" horiz-adv-x="1177" d="M84 1090q0 147 95 245.5t239 98.5h694v-62h-242v-1372h-57v1372h-336v-561q71 15 125 63l41 -43q-70 -63 -166 -81v-750h-57v745h-2q-144 0 -239 99.5t-95 245.5zM141 1090q0 -121 79 -203t198 -82h2v567h-2q-120 0 -198.5 -80.5t-78.5 -201.5z" />
<glyph unicode="&#xb7;" horiz-adv-x="632" d="M78 729l237 240l238 -240l-236 -240z" />
<glyph unicode="&#xb8;" horiz-adv-x="1228" d="M383 -289h180q0 -23 13.5 -38t35.5 -15q23 0 37.5 15t14.5 38q0 21 -14.5 36t-37.5 15v185q99 0 165.5 -68t66.5 -168t-66.5 -168.5t-165.5 -68.5q-98 0 -163.5 68.5t-65.5 168.5z" />
<glyph unicode="&#xb9;" horiz-adv-x="751" d="M111 707v198h190v432l-190 -82v218l407 196v-764h158v-198h-565z" />
<glyph unicode="&#xba;" horiz-adv-x="962" d="M106 1075q0 162 106.5 268.5t268.5 106.5q161 0 267 -107t106 -268t-106 -267t-267 -106q-163 0 -269 106t-106 267zM207 440v183h551v-183h-551zM311 1075q0 -75 49 -128.5t121 -53.5q71 0 119.5 53.5t48.5 128.5t-48.5 128.5t-119.5 53.5q-72 0 -121 -53.5t-49 -128.5z " />
<glyph unicode="&#xbb;" horiz-adv-x="989" d="M98 315l303 402l-303 397l41 37l336 -434l-336 -438zM571 315l303 402l-303 397l41 37l336 -434l-336 -438z" />
<glyph unicode="&#xbc;" horiz-adv-x="1888" d="M115 502v198h190v433l-190 -82v217l407 196v-764h158v-198h-565zM514 0l700 1434h242l-698 -1434h-244zM1016 227l411 705h220v-529h174v-176h-174v-227h-217v227h-414zM1323 403h107v197z" />
<glyph unicode="&#xbd;" horiz-adv-x="1851" d="M106 502v198h191v433l-191 -82v217l408 196v-764h158v-198h-566zM508 0l700 1434h242l-698 -1434h-244zM1212 0v80q0 96 8 158t31.5 106.5t50 71.5t78.5 65l82 62q94 67 94 135q0 34 -18 54t-53 20q-70 0 -70 -74h-203q0 131 70 202.5t203 71.5q124 0 200 -75t76 -199 q0 -34 -6.5 -64.5t-24 -59.5t-29.5 -48t-41 -46.5t-39.5 -37t-43.5 -37.5l-84 -68q-43 -39 -53 -57.5t-10 -60.5h325v-199h-543z" />
<glyph unicode="&#xbe;" horiz-adv-x="1835" d="M70 684l186 98q14 -42 43.5 -68t67.5 -26q34 0 64 22.5t30 67.5q0 52 -28.5 77.5t-72.5 25.5h-139v209h133q38 0 61 23t23 61q0 37 -18.5 58t-52.5 21q-60 0 -82 -49l-172 105q43 73 103.5 109t150.5 36q135 0 213.5 -75t78.5 -183q0 -132 -114 -199q63 -25 104 -86 t41 -147q0 -134 -90.5 -208.5t-234.5 -74.5q-109 0 -178 52t-117 151zM461 0l700 1434h242l-698 -1434h-244zM963 227l411 705h219v-529h174v-176h-174v-227h-217v227h-413zM1270 403h106v197z" />
<glyph unicode="&#xbf;" horiz-adv-x="962" d="M66 49q0 30 6 60.5t13 53t24.5 52t27 45.5t35.5 46t35 40t39.5 42t36.5 38l55 59q52 53 61 70q13 24 13 59h260q0 -41 -3.5 -73t-14 -60t-18.5 -45.5t-28.5 -41t-31.5 -35t-40.5 -38.5t-43.5 -40l-52 -52q-60 -60 -79 -94t-19 -86q0 -69 37.5 -109t105.5 -40 q64 0 100 39.5t36 105.5h272q0 -192 -106 -303t-302 -111q-187 0 -303 113.5t-116 304.5zM377 758v338h336v-338h-336z" />
<glyph unicode="&#xc0;" d="M20 0l527 1434h303l502 -1434h-312l-155 469h-391l-162 -469h-312zM406 1868h241l160 -293h-242zM586 735h211l-103 312z" />
<glyph unicode="&#xc1;" d="M20 0l527 1434h303l502 -1434h-312l-155 469h-391l-162 -469h-312zM586 735h211l-103 312zM588 1575l160 293h241l-160 -293h-241z" />
<glyph unicode="&#xc2;" d="M20 0l527 1434h303l502 -1434h-312l-155 469h-391l-162 -469h-312zM379 1575l199 293h245l197 -293h-242l-80 117l-77 -117h-242zM586 735h211l-103 312z" />
<glyph unicode="&#xc3;" d="M20 0l527 1434h303l502 -1434h-312l-155 469h-391l-162 -469h-312zM397 1794q76 70 158 70q54 0 108 -21t99 -42t78 -21q21 0 38 5.5t36.5 17.5t23.5 14l57 -181q-75 -69 -155 -69q-54 0 -108.5 21t-99.5 42t-77 21q-22 0 -39.5 -5.5t-37 -17.5t-23.5 -14zM586 735h211 l-103 312z" />
<glyph unicode="&#xc4;" d="M20 0l527 1434h303l502 -1434h-312l-155 469h-391l-162 -469h-312zM311 1696l174 180l181 -180l-177 -176zM586 735h211l-103 312zM727 1696l176 180l178 -180l-176 -176z" />
<glyph unicode="&#xc5;" d="M20 0l527 1434h303l502 -1434h-312l-155 469h-391l-162 -469h-312zM469 1745q0 100 65.5 167.5t163.5 67.5q99 0 165.5 -67.5t66.5 -167.5t-66.5 -169t-165.5 -69q-98 0 -163.5 69t-65.5 169zM586 735h211l-103 312zM639 1745q0 -28 16.5 -45t42.5 -17q28 0 45 17t17 45 q0 25 -17.5 42t-44.5 17q-26 0 -42.5 -17t-16.5 -42z" />
<glyph unicode="&#xc6;" horiz-adv-x="1718" d="M16 0l715 1434h852v-267h-471v-297h471v-266h-471v-338h471v-266h-762v469h-258l-227 -469h-320zM692 735h129v264z" />
<glyph unicode="&#xc7;" horiz-adv-x="1406" d="M92 717q0 213 96.5 384t267.5 267t384 96q298 0 506 -192l-195 -211q-133 123 -311 123q-193 0 -322 -135t-129 -332t129 -332t322 -135q187 0 319 129l205 -207q-209 -203 -524 -203q-213 0 -384 96.5t-267.5 267.5t-96.5 384zM604 -289h180q0 -23 14 -38t36 -15 q23 0 37 15t14 38q0 21 -14 36t-37 15v185q99 0 165 -68t66 -168t-66 -168.5t-165 -68.5q-98 0 -164 68.5t-66 168.5z" />
<glyph unicode="&#xc8;" horiz-adv-x="1058" d="M162 0v1434h762v-267h-471v-297h471v-266h-471v-338h471v-266h-762zM293 1868h242l159 -293h-241z" />
<glyph unicode="&#xc9;" horiz-adv-x="1058" d="M162 0v1434h762v-267h-471v-297h471v-266h-471v-338h471v-266h-762zM422 1575l160 293h241l-159 -293h-242z" />
<glyph unicode="&#xca;" horiz-adv-x="1058" d="M162 0v1434h762v-267h-471v-297h471v-266h-471v-338h471v-266h-762zM229 1575l199 293h246l196 -293h-241l-80 117l-78 -117h-242z" />
<glyph unicode="&#xcb;" horiz-adv-x="1058" d="M162 0v1434h762v-267h-471v-297h471v-266h-471v-338h471v-266h-762zM168 1696l174 180l180 -180l-176 -176zM584 1696l176 180l178 -180l-176 -176z" />
<glyph unicode="&#xcc;" horiz-adv-x="614" d="M20 1868h242l160 -293h-242zM162 0v1434h291v-1434h-291z" />
<glyph unicode="&#xcd;" horiz-adv-x="614" d="M162 0v1434h291v-1434h-291zM193 1575l159 293h242l-160 -293h-241z" />
<glyph unicode="&#xce;" horiz-adv-x="614" d="M-8 1575l198 293h246l197 -293h-242l-80 117l-78 -117h-241zM162 0v1434h291v-1434h-291z" />
<glyph unicode="&#xcf;" horiz-adv-x="614" d="M-80 1696l174 180l180 -180l-176 -176zM162 0v1434h291v-1434h-291zM336 1696l176 180l178 -180l-176 -176z" />
<glyph unicode="&#xd0;" horiz-adv-x="1302" d="M78 602v229h88v603h293q215 0 384.5 -88.5t266 -252.5t96.5 -376q0 -155 -45 -277.5t-124.5 -204t-194 -135t-246.5 -77t-289 -23.5h-141v602h-88zM459 281q196 0 323 121t127 315t-127 315t-323 121v-322h182v-229h-182v-321z" />
<glyph unicode="&#xd1;" horiz-adv-x="1458" d="M162 0v1434h291l555 -924v924h290v-1434h-290l-555 924v-924h-291zM422 1794q76 70 158 70q54 0 107.5 -21t98.5 -42t78 -21q21 0 38 5.5t37 17.5t24 14l57 -181q-75 -69 -156 -69q-54 0 -108 21t-99 42t-77 21q-22 0 -39.5 -5.5t-38 -18t-23.5 -13.5z" />
<glyph unicode="&#xd2;" horiz-adv-x="1679" d="M92 717q0 213 96.5 384t267.5 267t384 96q160 0 298.5 -56.5t237 -155t155 -237t56.5 -298.5q0 -213 -96 -384t-267 -267.5t-384 -96.5t-384 96.5t-267.5 267.5t-96.5 384zM389 717q0 -197 129 -332t322 -135t321.5 135t128.5 332t-128.5 332t-321.5 135t-322 -135 t-129 -332zM586 1868h241l160 -293h-242z" />
<glyph unicode="&#xd3;" horiz-adv-x="1679" d="M92 717q0 213 96.5 384t267.5 267t384 96q160 0 298.5 -56.5t237 -155t155 -237t56.5 -298.5q0 -213 -96 -384t-267 -267.5t-384 -96.5t-384 96.5t-267.5 267.5t-96.5 384zM389 717q0 -197 129 -332t322 -135t321.5 135t128.5 332t-128.5 332t-321.5 135t-322 -135 t-129 -332zM702 1575l160 293h242l-160 -293h-242z" />
<glyph unicode="&#xd4;" horiz-adv-x="1679" d="M92 717q0 213 96.5 384t267.5 267t384 96q160 0 298.5 -56.5t237 -155t155 -237t56.5 -298.5q0 -213 -96 -384t-267 -267.5t-384 -96.5t-384 96.5t-267.5 267.5t-96.5 384zM389 717q0 -197 129 -332t322 -135t321.5 135t128.5 332t-128.5 332t-321.5 135t-322 -135 t-129 -332zM528 1575l199 293h246l196 -293h-241l-80 117l-78 -117h-242z" />
<glyph unicode="&#xd5;" horiz-adv-x="1679" d="M92 717q0 213 96.5 384t267.5 267t384 96q160 0 298.5 -56.5t237 -155t155 -237t56.5 -298.5q0 -213 -96 -384t-267 -267.5t-384 -96.5t-384 96.5t-267.5 267.5t-96.5 384zM389 717q0 -197 129 -332t322 -135t321.5 135t128.5 332t-128.5 332t-321.5 135t-322 -135 t-129 -332zM549 1794q76 70 158 70q54 0 107.5 -21t98.5 -42t78 -21q21 0 38 5.5t37 17.5t24 14l57 -181q-75 -69 -156 -69q-54 0 -108 21t-99 42t-77 21q-22 0 -39.5 -5.5t-38 -18t-23.5 -13.5z" />
<glyph unicode="&#xd6;" horiz-adv-x="1679" d="M92 717q0 213 96.5 384t267.5 267t384 96q160 0 298.5 -56.5t237 -155t155 -237t56.5 -298.5q0 -213 -96 -384t-267 -267.5t-384 -96.5t-384 96.5t-267.5 267.5t-96.5 384zM389 717q0 -197 129 -332t322 -135t321.5 135t128.5 332t-128.5 332t-321.5 135t-322 -135 t-129 -332zM463 1696l174 180l180 -180l-176 -176zM879 1696l176 180l178 -180l-176 -176z" />
<glyph unicode="&#xd7;" horiz-adv-x="1271" d="M252 375l342 342l-342 344l41 41l342 -344l342 342l41 -41l-342 -342l342 -340l-41 -41l-342 340l-342 -342z" />
<glyph unicode="&#xd8;" horiz-adv-x="1679" d="M92 717q0 213 96.5 384t267.5 267t384 96q189 0 356 -82l39 52h291l-142 -191q203 -213 203 -526q0 -213 -96 -384t-267 -267.5t-384 -96.5q-189 0 -355 78l-34 -47h-291l139 186q-99 102 -153 238t-54 293zM389 717q0 -166 88 -293l545 725q-100 35 -182 35 q-193 0 -322 -135t-129 -332zM664 285q81 -35 176 -35q193 0 321.5 135t128.5 332q0 159 -86 284z" />
<glyph unicode="&#xd9;" horiz-adv-x="1345" d="M150 506v928h288v-928q0 -115 63 -186.5t171 -71.5q110 0 171.5 71.5t61.5 186.5v928h291v-928q0 -239 -144.5 -388t-379.5 -149t-378.5 149t-143.5 388zM412 1868h241l160 -293h-242z" />
<glyph unicode="&#xda;" horiz-adv-x="1345" d="M150 506v928h288v-928q0 -115 63 -186.5t171 -71.5q110 0 171.5 71.5t61.5 186.5v928h291v-928q0 -239 -144.5 -388t-379.5 -149t-378.5 149t-143.5 388zM543 1575l159 293h242l-160 -293h-241z" />
<glyph unicode="&#xdb;" horiz-adv-x="1345" d="M150 506v928h288v-928q0 -115 63 -186.5t171 -71.5q110 0 171.5 71.5t61.5 186.5v928h291v-928q0 -239 -144.5 -388t-379.5 -149t-378.5 149t-143.5 388zM356 1575l199 293h246l196 -293h-241l-80 117l-78 -117h-242z" />
<glyph unicode="&#xdc;" horiz-adv-x="1345" d="M150 506v928h288v-928q0 -115 63 -186.5t171 -71.5q110 0 171.5 71.5t61.5 186.5v928h291v-928q0 -239 -144.5 -388t-379.5 -149t-378.5 149t-143.5 388zM289 1696l174 180l180 -180l-176 -176zM705 1696l176 180l178 -180l-176 -176z" />
<glyph unicode="&#xdd;" horiz-adv-x="1067" d="M53 1434h330l152 -541l151 541h330l-338 -920v-514h-291v520zM401 1575l160 293h242l-160 -293h-242z" />
<glyph unicode="&#xde;" horiz-adv-x="1183" d="M162 0v1434h291v-283h213q200 0 328 -118.5t128 -315.5q0 -195 -128 -313.5t-328 -118.5h-213v-285h-291zM453 563h192q74 0 121 41t47 113q0 73 -47 114t-121 41h-192v-309z" />
<glyph unicode="&#xdf;" horiz-adv-x="1368" d="M162 0v1434h1057l-248 -555q141 -42 222 -157.5t81 -270.5q0 -198 -125 -324.5t-332 -126.5h-231v279h211q84 0 127 48t43 124q0 73 -41 121t-121 51h-262l243 544h-333v-1167h-291z" />
<glyph unicode="&#xe0;" d="M20 0l527 1434h303l502 -1434h-305l-555 467l-160 -467h-312zM416 1868h241l160 -293h-242zM586 733l297 -250l-189 570z" />
<glyph unicode="&#xe1;" d="M20 0l527 1434h303l502 -1434h-305l-555 467l-160 -467h-312zM573 1575l160 293h242l-160 -293h-242zM586 733l297 -250l-189 570z" />
<glyph unicode="&#xe2;" d="M20 0l527 1434h303l502 -1434h-305l-555 467l-160 -467h-312zM379 1575l199 293h245l197 -293h-242l-80 117l-77 -117h-242zM586 733l297 -250l-189 570z" />
<glyph unicode="&#xe3;" d="M20 0l527 1434h303l502 -1434h-305l-555 467l-160 -467h-312zM397 1794q76 70 158 70q54 0 108 -21t99 -42t78 -21q21 0 38 5.5t36.5 17.5t23.5 14l57 -181q-75 -69 -155 -69q-54 0 -108.5 21t-99.5 42t-77 21q-22 0 -39.5 -5.5t-37 -17.5t-23.5 -14zM586 733l297 -250 l-189 570z" />
<glyph unicode="&#xe4;" d="M20 0l527 1434h303l502 -1434h-305l-555 467l-160 -467h-312zM311 1696l174 180l181 -180l-177 -176zM586 733l297 -250l-189 570zM727 1696l176 180l178 -180l-176 -176z" />
<glyph unicode="&#xe5;" d="M20 0l527 1434h303l502 -1434h-305l-555 467l-160 -467h-312zM469 1745q0 100 65.5 167.5t163.5 67.5q99 0 165.5 -67.5t66.5 -167.5t-66.5 -169t-165.5 -69q-98 0 -163.5 69t-65.5 169zM586 733l297 -250l-189 570zM639 1745q0 -28 16.5 -45t42.5 -17q28 0 45 17t17 45 q0 25 -17.5 42t-44.5 17q-26 0 -42.5 -17t-16.5 -42z" />
<glyph unicode="&#xe6;" horiz-adv-x="1716" d="M16 0l715 1434h852v-267h-471v-188h471v-266h-471v-447h471v-266h-762l-305 371l-180 -371h-320zM635 616l186 -202v585z" />
<glyph unicode="&#xe7;" horiz-adv-x="1654" d="M92 717q0 213 96.5 384t267.5 267t384 96q200 0 363.5 -86t263 -238.5t116.5 -346.5h-299q-27 169 -149.5 280t-294.5 111q-193 0 -322 -135t-129 -332t129 -332t322 -135q167 0 289 105t153 266h301q-31 -289 -237 -470.5t-506 -181.5q-213 0 -384 96.5t-267.5 267.5 t-96.5 384zM608 -289h180q0 -23 14 -38t36 -15q23 0 37 15t14 38q0 21 -14 36t-37 15v185q99 0 165 -68t66 -168t-66 -168.5t-165 -68.5q-98 0 -164 68.5t-66 168.5z" />
<glyph unicode="&#xe8;" horiz-adv-x="1056" d="M162 0v1434h762v-267h-471v-188h471v-266h-471v-447h471v-266h-762zM283 1868h241l160 -293h-242z" />
<glyph unicode="&#xe9;" horiz-adv-x="1056" d="M162 0v1434h762v-267h-471v-188h471v-266h-471v-447h471v-266h-762zM422 1575l160 293h241l-159 -293h-242z" />
<glyph unicode="&#xea;" horiz-adv-x="1056" d="M162 0v1434h762v-267h-471v-188h471v-266h-471v-447h471v-266h-762zM229 1575l199 293h246l196 -293h-241l-80 117l-78 -117h-242z" />
<glyph unicode="&#xeb;" horiz-adv-x="1056" d="M162 0v1434h762v-267h-471v-188h471v-266h-471v-447h471v-266h-762zM166 1696l174 180l180 -180l-176 -176zM582 1696l176 180l178 -180l-176 -176z" />
<glyph unicode="&#xec;" horiz-adv-x="1067" d="M104 0v266h285v901h-285v267h859v-267h-283v-901h283v-266h-859zM268 1868h242l160 -293h-242z" />
<glyph unicode="&#xed;" horiz-adv-x="1067" d="M104 0v266h285v901h-285v267h859v-267h-283v-901h283v-266h-859zM408 1575l159 293h242l-160 -293h-241z" />
<glyph unicode="&#xee;" horiz-adv-x="1067" d="M104 0v266h285v901h-285v267h859v-267h-283v-901h283v-266h-859zM215 1575l199 293h245l197 -293h-242l-79 117l-78 -117h-242z" />
<glyph unicode="&#xef;" horiz-adv-x="1067" d="M104 0v266h285v901h-285v267h859v-267h-283v-901h283v-266h-859zM147 1696l175 180l180 -180l-176 -176zM563 1696l176 180l179 -180l-177 -176z" />
<glyph unicode="&#xf0;" horiz-adv-x="1302" d="M78 602v229h88v603h293q215 0 384.5 -88.5t266 -252.5t96.5 -376q0 -155 -45 -277.5t-124.5 -204t-194 -135t-246.5 -77t-289 -23.5h-141v602h-88zM459 281q196 0 323 121t127 315t-127 315t-323 121v-322h182v-229h-182v-321z" />
<glyph unicode="&#xf1;" d="M162 0v1434h291l479 -441v441h291v-1434h-291v610l-479 443v-1053h-291zM373 1794q76 70 157 70q54 0 108 -21t99 -42t78 -21q21 0 38 5.5t36.5 17.5t23.5 14l58 -181q-75 -69 -156 -69q-54 0 -108.5 21t-99.5 42t-77 21q-22 0 -39.5 -5.5t-37 -17.5t-23.5 -14z" />
<glyph unicode="&#xf2;" horiz-adv-x="1679" d="M92 717q0 213 96.5 384t267.5 267t384 96q160 0 298.5 -56.5t237 -155t155 -237t56.5 -298.5q0 -213 -96 -384t-267 -267.5t-384 -96.5t-384 96.5t-267.5 267.5t-96.5 384zM389 717q0 -197 129 -332t322 -135t321.5 135t128.5 332t-128.5 332t-321.5 135t-322 -135 t-129 -332zM586 1868h241l160 -293h-242z" />
<glyph unicode="&#xf3;" horiz-adv-x="1679" d="M92 717q0 213 96.5 384t267.5 267t384 96q160 0 298.5 -56.5t237 -155t155 -237t56.5 -298.5q0 -213 -96 -384t-267 -267.5t-384 -96.5t-384 96.5t-267.5 267.5t-96.5 384zM389 717q0 -197 129 -332t322 -135t321.5 135t128.5 332t-128.5 332t-321.5 135t-322 -135 t-129 -332zM702 1575l160 293h242l-160 -293h-242z" />
<glyph unicode="&#xf4;" horiz-adv-x="1679" d="M92 717q0 213 96.5 384t267.5 267t384 96q160 0 298.5 -56.5t237 -155t155 -237t56.5 -298.5q0 -213 -96 -384t-267 -267.5t-384 -96.5t-384 96.5t-267.5 267.5t-96.5 384zM389 717q0 -197 129 -332t322 -135t321.5 135t128.5 332t-128.5 332t-321.5 135t-322 -135 t-129 -332zM528 1575l199 293h246l196 -293h-241l-80 117l-78 -117h-242z" />
<glyph unicode="&#xf5;" horiz-adv-x="1679" d="M92 717q0 213 96.5 384t267.5 267t384 96q160 0 298.5 -56.5t237 -155t155 -237t56.5 -298.5q0 -213 -96 -384t-267 -267.5t-384 -96.5t-384 96.5t-267.5 267.5t-96.5 384zM389 717q0 -197 129 -332t322 -135t321.5 135t128.5 332t-128.5 332t-321.5 135t-322 -135 t-129 -332zM549 1794q76 70 158 70q54 0 107.5 -21t98.5 -42t78 -21q21 0 38 5.5t37 17.5t24 14l57 -181q-75 -69 -156 -69q-54 0 -108 21t-99 42t-77 21q-22 0 -39.5 -5.5t-38 -18t-23.5 -13.5z" />
<glyph unicode="&#xf6;" horiz-adv-x="1679" d="M92 717q0 213 96.5 384t267.5 267t384 96q160 0 298.5 -56.5t237 -155t155 -237t56.5 -298.5q0 -213 -96 -384t-267 -267.5t-384 -96.5t-384 96.5t-267.5 267.5t-96.5 384zM389 717q0 -197 129 -332t322 -135t321.5 135t128.5 332t-128.5 332t-321.5 135t-322 -135 t-129 -332zM463 1696l174 180l180 -180l-176 -176zM879 1696l176 180l178 -180l-176 -176z" />
<glyph unicode="&#xf7;" horiz-adv-x="1271" d="M123 688v57h1026v-57h-1026zM532 295l95 96l96 -96l-94 -94zM532 1104l95 96l96 -96l-94 -94z" />
<glyph unicode="&#xf8;" horiz-adv-x="1679" d="M92 717q0 213 96.5 384t267.5 267t384 96q189 0 356 -82l39 52h291l-142 -191q203 -213 203 -526q0 -213 -96 -384t-267 -267.5t-384 -96.5q-189 0 -355 78l-34 -47h-291l139 186q-99 102 -153 238t-54 293zM389 717q0 -166 88 -293l545 725q-100 35 -182 35 q-193 0 -322 -135t-129 -332zM664 285q81 -35 176 -35q193 0 321.5 135t128.5 332q0 159 -86 284z" />
<glyph unicode="&#xf9;" horiz-adv-x="1345" d="M150 506v928h288v-928q0 -115 63 -186.5t171 -71.5q110 0 171.5 71.5t61.5 186.5v928h291v-928q0 -239 -144.5 -388t-379.5 -149t-378.5 149t-143.5 388zM412 1868h241l160 -293h-242z" />
<glyph unicode="&#xfa;" horiz-adv-x="1345" d="M150 506v928h288v-928q0 -115 63 -186.5t171 -71.5q110 0 171.5 71.5t61.5 186.5v928h291v-928q0 -239 -144.5 -388t-379.5 -149t-378.5 149t-143.5 388zM543 1575l159 293h242l-160 -293h-241z" />
<glyph unicode="&#xfb;" horiz-adv-x="1345" d="M150 506v928h288v-928q0 -115 63 -186.5t171 -71.5q110 0 171.5 71.5t61.5 186.5v928h291v-928q0 -239 -144.5 -388t-379.5 -149t-378.5 149t-143.5 388zM356 1575l199 293h246l196 -293h-241l-80 117l-78 -117h-242z" />
<glyph unicode="&#xfc;" horiz-adv-x="1345" d="M150 506v928h288v-928q0 -115 63 -186.5t171 -71.5q110 0 171.5 71.5t61.5 186.5v928h291v-928q0 -239 -144.5 -388t-379.5 -149t-378.5 149t-143.5 388zM289 1696l174 180l180 -180l-176 -176zM705 1696l176 180l178 -180l-176 -176z" />
<glyph unicode="&#xfd;" horiz-adv-x="1032" d="M47 1434h330l139 -494l164 494h319l-491 -1434h-305l168 508zM379 1575l160 293h241l-159 -293h-242z" />
<glyph unicode="&#xfe;" horiz-adv-x="1316" d="M162 0v1434h291v-283h352q200 0 328.5 -119t128.5 -315q0 -195 -128.5 -313.5t-328.5 -118.5h-352v-285h-291zM453 563h331q74 0 121 41t47 113q0 73 -47 114t-121 41h-331v-309z" />
<glyph unicode="&#xff;" horiz-adv-x="1032" d="M47 1434h330l139 -494l164 494h319l-491 -1434h-305l168 508zM129 1696l174 180l180 -180l-176 -176zM545 1696l176 180l178 -180l-176 -176z" />
<glyph unicode="&#x152;" horiz-adv-x="2207" d="M92 717q0 213 96.5 384t267.5 267t384 96q257 0 471 -131v101h762v-267h-471v-297h471v-266h-471v-338h471v-266h-762v98q-210 -129 -471 -129q-213 0 -384 96.5t-267.5 267.5t-96.5 384zM389 717q0 -197 129 -332t322 -135t321.5 135t128.5 332t-128.5 332t-321.5 135 t-322 -135t-129 -332z" />
<glyph unicode="&#x153;" horiz-adv-x="2205" d="M92 717q0 213 96.5 384t267.5 267t384 96q257 0 471 -131v101h762v-267h-471v-188h471v-266h-471v-447h471v-266h-762v98q-210 -129 -471 -129q-213 0 -384 96.5t-267.5 267.5t-96.5 384zM389 717q0 -197 129 -332t322 -135t321.5 135t128.5 332t-128.5 332t-321.5 135 t-322 -135t-129 -332zM641 717q0 -87 56.5 -145t142.5 -58t142 58t56 145q0 86 -56.5 144.5t-141.5 58.5q-86 0 -142.5 -58.5t-56.5 -144.5z" />
<glyph unicode="&#x178;" horiz-adv-x="1067" d="M53 1434h330l152 -541l151 541h330l-338 -920v-514h-291v520zM150 1696l174 180l180 -180l-176 -176zM565 1696l176 180l179 -180l-177 -176z" />
<glyph unicode="&#x2c6;" horiz-adv-x="1228" d="M293 1575l199 293h245l197 -293h-242l-80 117l-77 -117h-242z" />
<glyph unicode="&#x2dc;" horiz-adv-x="1228" d="M315 1794q76 70 158 70q54 0 108 -21t99 -42t78 -21q21 0 38 5.5t36.5 17.5t23.5 14l57 -181q-75 -69 -155 -69q-54 0 -108.5 21t-99.5 42t-77 21q-22 0 -39.5 -5.5t-37 -17.5t-23.5 -14z" />
<glyph unicode="&#x2000;" horiz-adv-x="990" />
<glyph unicode="&#x2001;" horiz-adv-x="1980" />
<glyph unicode="&#x2002;" horiz-adv-x="990" />
<glyph unicode="&#x2003;" horiz-adv-x="1980" />
<glyph unicode="&#x2004;" horiz-adv-x="660" />
<glyph unicode="&#x2005;" horiz-adv-x="495" />
<glyph unicode="&#x2006;" horiz-adv-x="330" />
<glyph unicode="&#x2007;" horiz-adv-x="330" />
<glyph unicode="&#x2008;" horiz-adv-x="247" />
<glyph unicode="&#x2009;" horiz-adv-x="396" />
<glyph unicode="&#x200a;" horiz-adv-x="110" />
<glyph unicode="&#x2010;" horiz-adv-x="1193" d="M156 688v57h882v-57h-882z" />
<glyph unicode="&#x2011;" horiz-adv-x="1193" d="M156 688v57h882v-57h-882z" />
<glyph unicode="&#x2012;" horiz-adv-x="1193" d="M156 688v57h882v-57h-882z" />
<glyph unicode="&#x2013;" horiz-adv-x="1486" d="M156 688v57h1175v-57h-1175z" />
<glyph unicode="&#x2014;" horiz-adv-x="1863" d="M156 688v57h1552v-57h-1552z" />
<glyph unicode="&#x2018;" horiz-adv-x="573" d="M74 565l332 869h14v-869h-346z" />
<glyph unicode="&#x2019;" horiz-adv-x="536" d="M154 565v869h346l-332 -869h-14z" />
<glyph unicode="&#x201a;" horiz-adv-x="602" d="M141 336h346l-331 -868h-15v868z" />
<glyph unicode="&#x201c;" horiz-adv-x="1110" d="M74 565l332 869h14v-869h-346zM610 565l332 869h14v-869h-346z" />
<glyph unicode="&#x201d;" horiz-adv-x="1071" d="M154 565v869h346l-332 -869h-14zM690 565v869h346l-331 -869h-15z" />
<glyph unicode="&#x201e;" horiz-adv-x="1138" d="M141 336h346l-331 -868h-15v868zM678 336h346l-332 -868h-14v868z" />
<glyph unicode="&#x2022;" horiz-adv-x="905" d="M123 717l328 332l331 -332l-329 -330z" />
<glyph unicode="&#x2026;" horiz-adv-x="1722" d="M78 166l237 240l238 -240l-236 -240zM625 166l237 240l238 -240l-236 -240zM1171 166l238 240l238 -240l-236 -240z" />
<glyph unicode="&#x202f;" horiz-adv-x="396" />
<glyph unicode="&#x2039;" horiz-adv-x="651" d="M109 717l335 434l41 -37l-303 -397l303 -402l-41 -36z" />
<glyph unicode="&#x203a;" horiz-adv-x="651" d="M166 315l303 402l-303 397l41 37l336 -434l-336 -438z" />
<glyph unicode="&#x205f;" horiz-adv-x="495" />
<glyph unicode="&#x20ac;" horiz-adv-x="1550" d="M68 586v57h125q-3 37 -3 74t3 74h-125v57h133q43 273 246 444.5t491 171.5q152 0 284 -50t232 -142l-207 -211q-130 123 -309 123q-159 0 -277 -93.5t-157 -242.5h760v-57h-772q-5 -63 -5 -74t5 -74h772v-57h-760q39 -150 157 -243t277 -93q93 0 175 34.5t142 94.5 l218 -207q-101 -98 -238 -150.5t-297 -52.5q-289 0 -491.5 171t-245.5 446h-133z" />
<glyph unicode="&#x2122;" horiz-adv-x="1292" d="M139 1376v58h389v-58h-166v-452h-57v452h-166zM633 924v510h53l188 -199l191 199h53v-510h-57v424l-180 -197h-11l-180 197v-424h-57z" />
<glyph unicode="&#x25fc;" horiz-adv-x="1433" d="M0 0v1434h1434v-1434h-1434z" />
<glyph unicode="&#xfb01;" horiz-adv-x="2041" d="M162 0v1434h762v-267h-471v-188h471v-266h-471v-713h-291zM1079 0v266h285v901h-285v267h858v-267h-282v-901h282v-266h-858z" />
<glyph unicode="&#xfb02;" horiz-adv-x="1953" d="M162 0v1434h762v-267h-471v-188h471v-266h-471v-713h-291zM1141 0v1434h291v-1168h471v-266h-762z" />
</font>
</defs>
</svg>
