<?xml version="1.0" standalone="no"?>
<!DOCTYPE svg PUBLIC "-//W3C//DTD SVG 1.1//EN" "http://www.w3.org/Graphics/SVG/1.1/DTD/svg11.dtd" >
<svg xmlns="http://www.w3.org/2000/svg">
<metadata></metadata>
<defs>
<font id="enlivenregular" horiz-adv-x="1224" >
<font-face units-per-em="2048" ascent="1638" descent="-410" />
<missing-glyph horiz-adv-x="466" />
<glyph horiz-adv-x="0" />
<glyph unicode="&#xd;" horiz-adv-x="466" />
<glyph unicode=" "  horiz-adv-x="466" />
<glyph unicode="&#x09;" horiz-adv-x="466" />
<glyph unicode="&#xa0;" horiz-adv-x="466" />
<glyph unicode="!" horiz-adv-x="751" d="M45 1339q0 115 96.5 196t223.5 81q188 0 264 -64q61 -51 61 -159q0 -20 -3 -49.5t-5 -45.5l-121 -954q-25 31 -43 45q-57 45 -131 45q-55 0 -110.5 -30.5t-55.5 -59.5l-172 954q-4 29 -4 41zM197 178q0 78 55 133.5t135 55.5q78 0 133 -55.5t55 -133.5q0 -80 -55 -135 t-133 -55q-80 0 -135 55t-55 135z" />
<glyph unicode="&#x22;" horiz-adv-x="811" d="M59 1495q0 63 45.5 108.5t108.5 45.5t108.5 -45.5t45.5 -108.5q0 -80 -45 -188q-51 -125 -109 -125q-57 0 -105.5 116.5t-48.5 196.5zM453 1499q0 63 45 108.5t108 45.5t108.5 -45.5t45.5 -108.5q0 -80 -45 -188q-51 -125 -109 -125q-57 0 -105 116.5t-48 196.5z" />
<glyph unicode="#" horiz-adv-x="1617" d="M-2 489v109q0 31 15.5 59.5t43.5 28.5h293l113 223h-160q-39 0 -49 22.5t-10 65.5v109q0 31 15 59.5t44 28.5h303l234 459h211l-234 -459h336l231 459h211l-231 -459h170q29 0 42 -26.5t13 -61.5v-109q0 -41 -6 -57q-12 -31 -49 -31h-315l-113 -223h154q29 0 42 -26.5 t13 -61.5v-109q0 -41 -6 -57q-12 -31 -49 -31h-299l-205 -405h-211l205 405h-334l-205 -405h-211l205 405h-148q-39 0 -49 22.5t-10 65.5zM561 686h334l113 223h-334z" />
<glyph unicode="$" horiz-adv-x="1138" d="M41 252q0 -39 43 -39h401v-240h172v238q209 0 322 143q92 117 92 273q0 35 -6 63q-33 172 -254 291q-145 70 -291 139q-20 18 -20 49q0 41 29.5 77t68.5 36q51 0 79 -27.5t28 -66.5q0 -37 -27 -64q14 -10 29 -20q37 -6 124 -6q66 0 109 45t43 110q0 51 -30.5 101.5 t-94.5 85.5q-78 45 -145 59q-23 4 -51 6v170h-175l-2 -170q-63 -2 -112 -17t-117 -67q-84 -61 -125 -137t-41 -158q0 -180 180 -321q12 -10 86 -45q53 -27 54 -45q0 -45 -54 -45h-270q-45 0 -45 -41v-377z" />
<glyph unicode="%" horiz-adv-x="1480" d="M33 0l985 1509h-535q-78 0 -121 -47q-35 -39 -34 -88q0 -47 26 -80q35 -43 101 -43q53 0 86.5 38t33.5 89q0 33 -18 58l217 2q18 -43 27.5 -76t9.5 -74q0 -66 -27 -125q-33 -74 -108 -153q-41 -43 -96.5 -64.5t-116.5 -21.5q-139 0 -232 82q-61 53 -102 130.5t-41 166.5 q0 51 15.5 103t50.5 103q66 100 137 130t192 30h822q53 0 74.5 -10t21.5 -29q0 -14 -15.5 -37t-27.5 -41l-631 -964q57 59 115 92q76 43 155 43q70 0 137.5 -30.5t141.5 -104.5q41 -41 62.5 -104.5t21.5 -129.5q0 -152 -78 -239q-61 -72 -133 -106t-143 -34q-80 0 -151 36 t-124 102q-45 55 -64.5 110.5t-19.5 112.5q0 76 33 151q10 25 33 62l-365 -549h-315zM879 428q0 -49 36.5 -86t88.5 -37q51 0 87.5 35t36.5 88q0 51 -36.5 88t-87.5 37t-88 -37t-37 -88z" />
<glyph unicode="&#x26;" horiz-adv-x="1417" d="M43 492q0 205 150 352q23 23 43 39q43 35 100 57q-76 94 -76 236q0 80 32 162.5t97 150.5q80 82 176.5 122t206.5 40q106 0 209.5 -41t183.5 -121q51 -51 77 -106.5t26 -110.5q0 -94 -64.5 -158.5t-161.5 -64.5q-86 0 -155 63q43 31 43 92q0 47 -32 85t-89 38 q-53 0 -86 -35t-33 -82q0 -29 11.5 -54.5t39.5 -47.5l402 -336q25 -23 24 -37q0 -12 -13 -19t-28 -7h-344q-35 0 -73.5 4t-57 20.5t-47.5 16.5q-37 0 -64.5 -21.5t-27.5 -54.5t31 -62q8 -8 22.5 -14t36.5 -6h635q33 0 59.5 -20.5t26.5 -53.5v-356q0 -90 -31.5 -126 t-130.5 -36h-594h-48h-30q-92 0 -139 18q-66 27 -157 117q-70 70 -110 165t-40 192z" />
<glyph unicode="'" horiz-adv-x="428" d="M59 1495q0 63 45.5 108.5t108.5 45.5t108.5 -45.5t45.5 -108.5q0 -80 -45 -188q-51 -125 -109 -125q-57 0 -105.5 116.5t-48.5 196.5z" />
<glyph unicode="(" horiz-adv-x="761" d="M80 297v1040q0 113 74 230q98 154 262 153q174 0 194.5 -5t100.5 -54q-63 -57 -88 -82q-43 -45 -43 -160v-1200q0 -117 67 -174q48 -39 64 -72q-80 -49 -100.5 -54t-194.5 -5q-147 0 -248 133q-88 117 -88 250z" />
<glyph unicode=")" horiz-adv-x="720" d="M4 -27q6 10 84 88q47 47 47 158v1200q0 113 -43 158q-45 41 -88 84q80 49 100.5 54t194.5 5t266 -141q70 -109 70 -242v-1040q0 -150 -104.5 -266.5t-243.5 -116.5h-48.5h-29.5q-104 0 -127 8q-35 25 -78 51z" />
<glyph unicode="*" horiz-adv-x="548" d="M29 1251q0 39 73 86q25 14 74 39q-49 25 -74 39q-74 47 -73 88q0 14 11 27.5t34 13.5q41 0 108 -51q10 -8 31 -27q-4 14 -6 35t-2 47q0 45 12 74t43 29q33 0 45 -34t12 -85q0 -33 -2 -53q0 -4 -2 -13q29 27 45 39q53 41 88 41q27 0 41 -20q6 -12 7 -23q0 -39 -74 -86 q-25 -14 -76 -41q49 -25 72 -39q74 -49 73 -88q0 -10 -6 -22q-12 -20 -37 -21q-33 0 -86 37q-16 12 -47 39q2 -14 3 -31.5t1 -25.5q0 -49 -12 -83t-45 -34q-31 0 -43 28.5t-12 71.5q0 25 2 42.5t6 31.5q-31 -25 -47 -35q-55 -37 -90 -37q-23 0 -39 19q-4 4 -6 12q-2 6 -2 10 z" />
<glyph unicode="+" horiz-adv-x="1007" d="M84 723v108q0 31 15.5 60t43.5 29h222v223q0 29 26.5 42t61.5 13h108q41 0 64.5 -9t23.5 -46v-223h225q29 0 42.5 -27t13.5 -62v-108q0 -41 -6 -57q-12 -31 -50 -31h-225v-223q0 -39 -22.5 -49.5t-65.5 -10.5h-108q-31 0 -59.5 15.5t-28.5 44.5v223h-222q-39 0 -49 22.5 t-10 65.5z" />
<glyph unicode="," horiz-adv-x="389" d="M39 -92q41 16 45 18q45 23 45 58q0 10 -6 26q-39 14 -61.5 52t-22.5 79q0 59 43 102.5t102 43.5q61 0 104.5 -43.5t43.5 -102.5q0 -119 -60.5 -189.5t-156.5 -70.5q-31 0 -53.5 8.5t-22.5 18.5z" />
<glyph unicode="-" horiz-adv-x="1294" d="M82 811v143q0 47 20.5 83t59.5 36h975q37 0 54 -36t17 -83v-143q0 -59 -8 -80q-14 -39 -63 -39h-975q-51 0 -70 39q-10 23 -10 80z" />
<glyph unicode="." horiz-adv-x="346" d="M29 145q0 59 43 102.5t102 43.5q61 0 104.5 -41.5t43.5 -104.5q0 -59 -43 -102t-105 -43q-59 0 -102 43t-43 102z" />
<glyph unicode="/" horiz-adv-x="1273" d="M0 -10l1049 1650h211l-1049 -1650h-211z" />
<glyph unicode="0" horiz-adv-x="1697" d="M57 815q0 268 205 541q240 319 578 319q233 0 426 -155q164 -133 266 -349q92 -192 92 -356q0 -387 -192 -608q-207 -238 -592 -238q-389 0 -592 236q-190 221 -191 610zM578 924q0 -147 72.5 -249t189.5 -102q123 0 192.5 99.5t69.5 251.5q0 125 -64 227 q-76 123 -198 123q-119 0 -195 -121q-68 -106 -67 -229z" />
<glyph unicode="1" horiz-adv-x="811" d="M84 106v1119q0 70 52 118t122 48q0 90 45 139t119 49h201q39 0 58 -39t19 -88v-1346q0 -47 -42 -76.5t-97 -29.5h-362q-47 0 -81 29.5t-34 76.5z" />
<glyph unicode="2" horiz-adv-x="1378" d="M49 45q0 29 12 47l574 952q16 27 16 66q0 53 -34.5 92t-92.5 39q-51 0 -80.5 -35t-29.5 -71q0 -16 6 -27q29 -41 29 -94q0 -68 -44.5 -118t-113.5 -50q-70 0 -146 55q-47 33 -65.5 79t-18.5 105q0 57 11 105q18 117 149 242q182 174 459 174q270 0 418 -150 q92 -94 127 -231q23 -84 22 -168q0 -125 -67 -246q-10 -18 -146 -217q-10 -16 -10 -27q0 -29 45 -28h180q23 0 37 -22.5t14 -47.5l-2 -422q0 -23 -20.5 -35t-46.5 -12h-1151q-31 0 -31 45z" />
<glyph unicode="3" horiz-adv-x="1435" d="M43 453q0 133 109 245q63 59 176 60q55 0 95 -20.5t54 -61.5q23 -72 67 -106.5t97 -34.5q66 0 116 46t50 107q0 86 -51 129q-43 35 -115 35h-115q-31 0 -39 6q-10 8 -10 35v131q0 29 6 35q8 8 43 8h25q55 0 82 8q43 14 63 55q14 29 15 62q0 53 -44 89t-96 36 q-39 0 -60.5 -23.5t-27.5 -71.5t-33.5 -68.5t-57.5 -34t-64 -13.5q-55 0 -93 44t-38 105q0 76 54 160t148 137q66 37 141.5 56.5t149.5 19.5q201 0 352.5 -110.5t151.5 -264.5q0 -70 -35 -138t-110 -134q117 -70 155 -102q78 -66 115 -158q47 -119 47 -223q0 -215 -186 -361 q-164 -129 -416 -164q-41 -6 -82 -6q-184 0 -354 90q-184 98 -254 256q-31 68 -31 140z" />
<glyph unicode="4" horiz-adv-x="1714" d="M29 502q0 16 10 43q2 6 20 45l281 651q35 78 104.5 119t147.5 41q102 0 179 -57.5t77 -145.5q0 -43 -17 -82q-68 0 -109.5 -52t-41.5 -122q0 -68 42 -114t122 -46q70 0 113.5 48.5t43.5 119.5v568q0 27 6.5 43t43.5 16h483q55 0 67.5 -12.5t12.5 -59.5v-1444 q0 -41 -10.5 -51t-63.5 -10h-461q-55 0 -66.5 11.5t-11.5 56.5v325q0 39 -17 48.5t-79 9.5h-788q-49 0 -68.5 13t-19.5 38z" />
<glyph unicode="5" horiz-adv-x="1527" d="M59 500q0 63 28 120.5t87 106.5q31 27 69 38t87 11q70 0 127 -17.5t73 -37.5q16 -80 57.5 -119t92.5 -39q68 0 124 52.5t56 119.5q0 49 -37 92q-23 27 -53 45q-41 25 -78 25h-430q-31 0 -46 6t-15 53l49 560q0 49 22.5 58t73.5 9h893q47 0 59.5 -10t12.5 -51v-238 q0 -39 -13.5 -52t-58.5 -13h-473q-29 0 -29 -50q0 -25 11 -24q37 6 75 6q98 0 208 -38t212 -112q213 -154 213 -393q0 -106 -48 -209.5t-148 -193.5q-115 -104 -261.5 -158.5t-293.5 -54.5q-272 0 -449 153q-92 80 -144.5 172.5t-52.5 182.5z" />
<glyph unicode="6" horiz-adv-x="1540" d="M57 735q0 178 68 338q76 178 231 320q129 117 279 157q119 33 328 33q53 0 182 -2t135 -2q27 0 34 -14.5t7 -38.5v-287q0 -49 -49 -49h-289q-178 0 -285 -115q-98 -104 -98 -250q0 -72 23.5 -128t74 -100t105.5 -44q61 0 102 48t41 116q0 49 -28 90q-20 27 -64 43 q-12 4 -37 10q-8 0 -12 14q-4 12 -4 35q0 47 18.5 78t77.5 60q74 37 152 36q68 0 135 -28.5t129 -96.5q70 -76 111.5 -175t41.5 -203q0 -121 -55 -230q-61 -121 -186 -215q-90 -68 -213 -104.5t-252 -36.5q-160 0 -299 54t-230 165q-78 96 -126 233.5t-48 288.5z" />
<glyph unicode="7" horiz-adv-x="1505" d="M47 1237q0 82 41 155.5t125 120.5q115 63 254 64q193 0 340 -119q35 47 119 82t184 35q84 0 163 -30.5t140 -100.5q33 -39 33 -70q0 -33 -176 -221q-119 -127 -215 -281h245v-176h-348q-55 -72 -114.5 -283.5t-59.5 -303.5q0 -76 -22 -97q-14 -12 -66 -12h-450h-23 q-35 0 -47 10q-18 16 -18 70q0 131 79 328q72 174 158 288h-260v176h377q55 70 76 97q35 45 49 67q31 49 31 92q0 59 -48.5 99.5t-111.5 40.5q-84 0 -133 -70q-29 -43 -29 -80q0 -20 4 -34.5t16 -43.5q-29 -51 -110 -51q-49 0 -89 19.5t-69 68.5q-45 72 -45 160z" />
<glyph unicode="8" horiz-adv-x="1400" d="M78 532q0 119 57.5 227.5t157.5 182.5q111 -31 226.5 -80t209.5 -127q-35 27 -63 27q-23 0 -46.5 -21.5t-32.5 -41t-9 -44.5q0 -49 36.5 -83.5t85.5 -34.5q25 0 43.5 7t36 24.5t26.5 43t9 47.5q0 23 -10 46.5t-37 44.5q-104 82 -227 139q-102 47 -217 76 q-63 57 -95 124.5t-32 137.5q0 137 108 233q74 63 179.5 96t215.5 33q119 0 218.5 -31.5t171.5 -97.5q47 -43 79.5 -109.5t32.5 -142.5q0 -61 -23.5 -117.5t-78.5 -111.5q-61 53 -158 94q-106 47 -213 47q41 27 60.5 59.5t19.5 65.5q0 43 -35 76t-84 33q-39 0 -82 -25 q-33 -18 -33 -102q0 -72 39 -97q129 -25 251 -65.5t218 -120.5q111 -88 167.5 -198.5t56.5 -227.5q0 -119 -55.5 -227.5t-164.5 -190.5q-80 -61 -181 -93t-212 -32q-227 0 -389 127q-113 90 -170 203t-57 227z" />
<glyph unicode="9" horiz-adv-x="1497" d="M51 47v428q0 23 14.5 37t36.5 14h390q176 0 284 138q96 123 96 280q0 72 -19 126t-62 91q-51 43 -111 43q-43 0 -78 -18.5t-53.5 -45t-18.5 -67.5q0 -59 39 -102t105 -43q16 0 16 -39q0 -29 -6 -57.5t-20 -43.5q-45 -51 -104.5 -76.5t-123.5 -25.5q-145 0 -256 107 q-117 113 -117 272q0 92 46.5 188.5t146.5 190.5q72 68 174 99.5t223 31.5q180 0 347.5 -66.5t259.5 -181.5q152 -188 151 -493q0 -184 -63 -347q-72 -182 -215 -313q-125 -115 -243 -147.5t-370 -32.5h-43h-41h-37h-32h-31h-27h-24q-41 0 -82 1t-84 1h-27q-27 0 -34 14.5 t-7 36.5z" />
<glyph unicode=":" horiz-adv-x="378" d="M39 143q0 59 43 102.5t102 43.5q61 0 104.5 -43.5t43.5 -102.5q0 -61 -43 -104t-105 -43q-59 0 -102 43t-43 104zM39 698q0 59 43 102.5t102 43.5q61 0 104.5 -41.5t43.5 -104.5q0 -59 -43 -102t-105 -43q-59 0 -102 43t-43 102z" />
<glyph unicode=";" horiz-adv-x="389" d="M43 -92q0 6 23.5 9t38 19.5t22.5 37t0 36.5q-39 14 -61.5 52t-22.5 79q0 59 43 102.5t102 43.5q61 0 104.5 -43.5t43.5 -102.5q0 -119 -60.5 -189.5t-156.5 -70.5q-31 0 -53.5 8.5t-22.5 18.5zM43 698q0 59 43 102.5t102 43.5q61 0 104.5 -41.5t43.5 -104.5 q0 -59 -43 -102t-105 -43q-59 0 -102 43t-43 102z" />
<glyph unicode="&#x3c;" horiz-adv-x="782" d="M72 840q0 16 9 30.5t23 28.5l381 381q12 12 31 12q16 0 35.5 -10t36.5 -25l76 -77q23 -23 26 -29q12 -16 12 -35q0 -20 -16 -37l-237 -239l237 -244q16 -16 16 -37q0 -16 -11 -31.5t-27 -31.5l-76 -78q-20 -18 -36.5 -26.5t-35.5 -8.5q-18 0 -31 12l-381 385 q-18 18 -22 25q-10 16 -10 35z" />
<glyph unicode="=" horiz-adv-x="1024" d="M84 297v109q0 31 15.5 59.5t43.5 28.5h731q29 0 42.5 -27t13.5 -61v-109q0 -41 -6 -57q-12 -31 -50 -31h-731q-39 0 -49 22.5t-10 65.5zM84 723v108q0 31 15.5 60t43.5 29h731q29 0 42.5 -27t13.5 -62v-108q0 -41 -6 -57q-12 -31 -50 -31h-731q-39 0 -49 22.5t-10 65.5z " />
<glyph unicode="&#x3e;" horiz-adv-x="782" d="M80 567q0 20 16 37l238 244l-238 239q-16 16 -16 37q0 16 11 31.5t28 32.5l76 78q20 18 36.5 26t34.5 8t31 -12l381 -381q18 -18 22 -24q11 -17 11 -35q0 -16 -9.5 -30.5t-23.5 -29.5l-381 -385q-12 -12 -31 -12q-16 0 -35.5 10.5t-35.5 24.5l-76 78q-23 23 -27 28 q-12 16 -12 35z" />
<glyph unicode="?" horiz-adv-x="1247" d="M25 1233q0 90 45 169t136 130t203.5 84t229.5 33q111 0 214.5 -32t195.5 -106q162 -129 161 -290q0 -233 -309 -455q-135 -96 -164 -180q-20 -57 -20 -269q-100 123 -238 123q-61 0 -114.5 -25.5t-102.5 -80.5q0 242 53 371q41 98 148 198q188 176 219 211q39 45 39 103 q0 66 -47 114.5t-107 40.5q-90 -12 -125.5 -50t-35.5 -93q0 -41 14 -75t35 -54q18 -16 -15 -39q-70 -47 -202 -47q-102 0 -157.5 63.5t-55.5 155.5zM270 166q0 86 61.5 147.5t149.5 61.5q86 0 149.5 -61.5t63.5 -147.5q0 -88 -61.5 -149.5t-151.5 -61.5q-86 0 -148.5 62.5 t-62.5 148.5z" />
<glyph unicode="@" horiz-adv-x="1748" d="M61 811q0 336 238 573.5t573 237.5q336 0 573.5 -237.5t237.5 -573.5q0 -129 -158.5 -229.5t-375.5 -100.5h-197q-33 0 -32 33v246q0 45 -56 45q-20 0 -33.5 -11.5t-13.5 -35.5q0 -39 36 -49.5t36 -77.5q0 -86 -52.5 -133t-125.5 -47q-76 0 -133.5 49t-57.5 137 q0 72 19.5 118t78.5 89q6 4 185 67q66 25 98 62q20 27 21 47q0 20 -17.5 32.5t-40.5 12.5q-47 0 -47 -43q-20 -41 -49 -60.5t-57 -19.5q-47 0 -85 36t-38 64q0 70 84 116t198 46q131 0 213 -59q98 -72 99 -209v-332q145 0 190 78q20 37 21 129q0 268 -154 458.5t-367 190.5 t-366.5 -190.5t-153.5 -458.5t153.5 -458.5t366.5 -190.5q100 0 194.5 48t166.5 134q16 -10 33 -18q41 -72 41 -154q0 -45 -21 -57q-188 -115 -414 -115q-336 0 -573.5 237.5t-237.5 573.5z" />
<glyph unicode="A" horiz-adv-x="1585" d="M4 322q0 135 66 260q35 121 141 319q164 307 364 500q274 262 576 262q82 0 178 -19.5t113 -27.5q59 -27 59 -94v-1456q0 -27 -15.5 -46.5t-37.5 -19.5h-512q-39 0 -51 27q-2 8 -4 26v588q0 63 -36 97t-85 34q-45 0 -80 -32.5t-35 -88.5q0 -61 59.5 -90t59.5 -47v-219 q0 -139 -129 -248q-119 -100 -250 -100q-193 0 -293 114q-88 100 -88 261zM637 1047q0 -47 30.5 -81t88.5 -34q35 0 50 5t40 28q35 33 35 86t-36 89t-89 36q-51 0 -85 -35t-34 -94z" />
<glyph unicode="B" horiz-adv-x="1652" d="M78 74v1444q0 72 74 104q33 14 135 33q35 8 84 8q100 0 189 -39t120 -100q43 45 76 65q100 66 225 66q176 0 307 -105q141 -113 142 -278q0 -100 -32 -172t-91 -127q164 -80 241 -211q66 -109 66 -248q0 -115 -41 -214t-92 -138q-154 -123 -223.5 -142.5t-368.5 -19.5 q-45 0 -59.5 7t-14.5 42v533q0 20 59.5 51t59.5 100q0 59 -32 93t-81 34q-55 0 -89 -32.5t-34 -102.5v-666q0 -23 -16 -41t-39 -18h-510q-29 0 -47 49q-2 8 -8 25zM688 1182q0 -55 37 -94t92 -39t94 37t39 92t-36.5 94t-92.5 39q-55 0 -94 -37t-39 -92z" />
<glyph unicode="C" horiz-adv-x="1597" d="M76 850q0 330 241.5 567.5t577.5 237.5q248 0 426 -146q186 -154 186 -379q0 -180 -145 -280q-123 -86 -295 -86q-92 0 -162 29q0 37 79 89t79 152q0 25 -2 37q-8 76 -58.5 116t-123.5 40q-113 0 -203 -80q-98 -88 -98 -227q0 -123 98 -223.5t229 -100.5h525 q43 0 69.5 -33t26.5 -78v-485h-234.5t-212.5 -2q-356 0 -484 35t-286 184q-92 86 -159 258q-74 188 -74 375z" />
<glyph unicode="D" horiz-adv-x="1708" d="M82 0v1446q0 100 88 154.5t211 54.5q94 0 172 -31t113 -86q68 66 138 91.5t177 25.5q199 0 416 -246q239 -270 239 -594q0 -422 -94 -606q-106 -209 -373 -209h-323q-41 0 -52.5 41t-11.5 113l-2 299q0 98 168 194t168 254q0 172 -62.5 264t-162.5 92q-109 0 -141 -49 q-43 -66 -43 -299l-2 -909h-623z" />
<glyph unicode="E" horiz-adv-x="1449" d="M82 0v1546q0 57 88 89t209 32q125 0 217 -30.5t98 -86.5q47 59 130 90t182 31q162 0 272 -80q125 -90 125 -252q0 -176 -90 -249q-70 -57 -193 -58h-125q-74 0 -95 9.5t-21 45.5q0 43 20 52q47 20 47 112q0 57 -37 92t-84 35t-79.5 -37.5t-32.5 -113.5v-207 q0 -70 36.5 -86t151.5 -16h387v-140q0 -47 -21.5 -68.5t-74.5 -21.5h-487q0 -66 41.5 -91.5t138.5 -25.5h514v-571h-1317z" />
<glyph unicode="F" horiz-adv-x="1355" d="M82 0v1556q0 53 96 87t219 34q119 0 201 -28.5t96 -87.5q43 57 107 81q82 33 235 33q164 0 265.5 -91t101.5 -234q0 -176 -90 -250q-70 -57 -193 -58h-106q-74 0 -104.5 9.5t-30.5 46.5q0 39 21.5 64.5t21.5 99.5q0 57 -38 88.5t-91 31.5q-55 0 -94.5 -37.5t-39.5 -113.5 v-215q0 -70 14.5 -84t78.5 -14h485v-343h-485q-66 0 -78 -18t-12 -96v-461h-580z" />
<glyph unicode="G" horiz-adv-x="1671" d="M63 774q0 170 54.5 329t173.5 286t278.5 196.5t333.5 69.5q162 0 307.5 -65.5t253.5 -200.5q45 -57 66.5 -112.5t21.5 -102.5q0 -109 -88 -183q-77 -65 -165 -65h-3q-51 0 -107 28.5t-91 71.5q14 29 14 78q0 78 -39 129q-50 67 -157 67h-3q-119 0 -203.5 -105t-84.5 -237 q0 -135 84 -239q92 -115 225 -115q43 0 55 23.5t12 81.5q0 78 37 104q27 18 92 18h424q39 0 50.5 -15t11.5 -64v-631q0 -49 -38 -85t-89 -36q-197 0 -250 4q-141 10 -188 90q-57 -41 -137 -66.5t-181 -25.5q-109 0 -222.5 39t-221.5 127q-96 78 -161 245t-65 361z" />
<glyph unicode="H" horiz-adv-x="1622" d="M78 66v1476q0 72 17.5 92.5t64.5 20.5h456q39 0 62.5 -34t23.5 -79v-426h117v486q0 33 19.5 43t54.5 10h532q104 0 105 -62v-1527q0 -66 -105 -66h-532q-45 0 -59.5 12.5t-14.5 42.5v545q0 37 62.5 75t62.5 95q0 51 -32.5 82t-82.5 31q-53 0 -90 -31t-37 -92v-707 q0 -20 -16 -36.5t-39 -16.5h-516q-25 0 -41 33q-4 10 -12 33z" />
<glyph unicode="I" horiz-adv-x="827" d="M82 78v1253q0 145 47 225q57 96 176 97h332q61 0 80.5 -17.5t19.5 -66.5v-1485q0 -37 -21.5 -60.5t-62.5 -23.5h-487q-41 0 -57 10q-27 16 -27 68z" />
<glyph unicode="J" horiz-adv-x="1267" d="M0 496q0 182 111.5 291.5t289.5 109.5h31q23 -4 33 -4q0 -68 -41 -121t-41 -82q0 -43 30.5 -71.5t67.5 -28.5q41 0 67.5 34.5t26.5 108.5v826q0 47 31 69.5t78 22.5h416q43 0 69.5 -18.5t26.5 -63.5v-844q0 -309 -143 -514q-164 -233 -463 -234q-225 0 -402 144 q-188 154 -188 375z" />
<glyph unicode="K" horiz-adv-x="1701" d="M82 111v1421q0 84 20.5 102.5t90.5 18.5h475q115 0 114 -105v-327q0 -49 17.5 -77t68.5 -28q41 0 67 38t26 101q0 51 -18.5 77t-65.5 48q-25 12 -25 43q0 74 102 164q115 100 242 101q141 0 264 -129q131 -137 131 -308q0 -176 -78 -293q-4 -6 -102 -110l266 -660 q20 -47 21 -92q0 -45 -28 -70.5t-97 -25.5h-651q-35 0 -58.5 25.5t-23.5 80.5v723q-10 12 -17 19q-18 18 -28 18q-12 0 -13 -26v-731q0 -43 -26.5 -76t-69.5 -33h-532q-72 0 -72 111z" />
<glyph unicode="L" horiz-adv-x="1347" d="M82 55v33v940q0 326 223 494q172 129 395 129q221 0 353 -76q184 -106 184 -354q0 -106 -101.5 -197.5t-230.5 -91.5q-45 0 -83 11t-79 38q57 0 99 25q53 33 53 98q0 47 -34 76.5t-70 29.5q-41 0 -71 -31.5t-30 -76.5v-436q0 -53 15.5 -63.5t95.5 -10.5h397 q72 0 86 -13.5t14 -89.5v-426q0 -29 -30.5 -46t-59.5 -17h-1018q-74 0 -91 10t-17 45z" />
<glyph unicode="M" horiz-adv-x="2304" d="M47 57l96 965q2 31 -2 63.5t-8 61.5q0 207 144.5 357.5t365.5 150.5q231 0 379 -166q131 -148 131 -336q0 188 129 336q145 166 379 166q219 0 369 -154q143 -147 143 -354q-8 -47 -11 -76t-1 -49l96 -965q-2 -20 -6 -28q-12 -29 -43 -29h-625q-70 0 -70 66v737 q0 25 25 47q53 49 53 82q0 45 -29.5 70.5t-70.5 25.5q-39 0 -65.5 -24.5t-26.5 -71.5v-881q0 -27 -10.5 -39t-51.5 -12h-370q-35 0 -47.5 12.5t-12.5 38.5v881q0 43 -29.5 68.5t-66.5 25.5q-41 0 -69.5 -24.5t-28.5 -69.5q0 -35 51 -82q27 -25 27 -47v-737q0 -66 -70 -66 h-623q-23 0 -37 16.5t-14 40.5z" />
<glyph unicode="N" horiz-adv-x="1564" d="M82 66v1523q0 61 86 84q53 14 147 15h41q100 0 191 -41q68 -31 123 -80q63 45 123 73q96 47 170 48q336 0 450 -191q74 -123 74 -407v-1031q-6 -29 -17 -39q-20 -20 -53 -20h-598q-29 0 -45 22.5t-16 53.5v928q0 37 83 86t83 137q0 57 -34 91t-79 34q-47 0 -81 -33 t-34 -92v-1151q0 -39 -12 -53q-18 -23 -72 -23h-454q-76 0 -76 66z" />
<glyph unicode="O" horiz-adv-x="1837" d="M57 813q0 162 101 354q113 217 293 351q210 157 464 157h3q254 0 466 -157q182 -135 295 -349q103 -194 103 -356q0 -385 -213 -608q-227 -238 -651 -238q-428 0 -652 238q-209 221 -209 608zM629 922q0 -147 79.5 -248t209.5 -101q137 0 212.5 97.5t75.5 251.5 q0 127 -69 229q-82 121 -219 121q-131 0 -216 -121q-74 -104 -73 -229z" />
<glyph unicode="P" horiz-adv-x="1640" d="M82 96v1411q0 102 86 150.5t213 48.5q106 0 205.5 -30.5t126.5 -73.5q43 37 78 53q106 53 247 53q219 0 394 -162q192 -178 192 -444q0 -260 -211 -443q-170 -147 -313 -147h-48.5h-29.5q-125 0 -159 11.5t-34 64.5v325q0 100 89.5 139.5t89.5 135.5q0 55 -34 91t-91 36 q-70 0 -96.5 -39t-26.5 -172v-1008q0 -47 -14.5 -71.5t-57.5 -24.5h-543q-33 0 -48 24.5t-15 71.5z" />
<glyph unicode="Q" horiz-adv-x="1505" d="M47 106v390q0 68 16.5 82t81.5 14h205q264 0 391 235q88 162 88 359q0 74 -40.5 112.5t-98.5 38.5q-53 0 -88 -30.5t-35 -87.5q0 -35 19 -78q8 -20 29.5 -35.5t41.5 -28.5q6 -29 7 -53q0 -113 -106.5 -199t-231.5 -86q-121 0 -193 78q-86 92 -86 277q0 72 55 186 q76 160 211 258q180 131 437 131q328 0 530 -248q168 -205 168 -424q0 -160 -92 -317q-68 -117 -170 -215q-82 -80 -94 -80q74 -49 108 -92q45 -66 92 -131q70 -94 174.5 -197.5t120.5 -103.5q-12 -127 -104 -197q-84 -63 -215 -63q-127 0 -254 63.5t-210 176t-152.5 136 t-311.5 23.5h-182q-80 0 -95.5 17.5t-15.5 88.5z" />
<glyph unicode="R" horiz-adv-x="1628" d="M82 66v1509q0 49 85 82t202 33q109 0 205 -30t153 -93q66 45 123 73q98 47 172 48q199 0 336 -115q164 -137 164 -387q0 -131 -31 -230q-39 -123 -119 -172l258 -725q-2 -20 -6 -28q-16 -31 -63 -31h-684q-31 0 -46.5 21.5t-15.5 54.5v928q0 37 84 86t84 137q0 63 -34 97 t-81 34t-81.5 -35t-34.5 -96v-1151q0 -37 -15.5 -56.5t-66.5 -19.5h-502q-51 0 -68.5 15.5t-17.5 50.5z" />
<glyph unicode="S" horiz-adv-x="1400" d="M49 51v504q0 23 18.5 39t43.5 16h346q29 0 49 15.5t20 44.5q0 23 -67 55q-92 45 -111 59q-231 184 -231 422q0 109 52 206t159 179q92 72 188 103.5t189 31.5q78 0 167 -23.5t215 -88.5q92 -49 135.5 -111.5t43.5 -132.5q0 -82 -57.5 -141.5t-143.5 -59.5q-97 0 -155 27 q-46 21 -45 41q0 5 3 10q6 6 13 19q18 29 20 57q0 51 -33 88q-39 43 -100 43q-53 0 -92 -39t-39 -90q0 -43 33 -82q41 -49 219 -141q199 -104 289 -178q153 -127 186 -287q10 -55 10 -96q0 -223 -198.5 -382t-491.5 -159h-575q-23 0 -41.5 14.5t-18.5 36.5z" />
<glyph unicode="T" horiz-adv-x="1394" d="M82 723v846q0 41 20.5 61.5t73.5 20.5h1045q47 0 58 -22.5t11 -80.5v-202q0 -47 -2 -54q-10 -27 -53 -26h-440q-100 0 -101 -84v-430q0 -74 35 -113t84 -39q43 0 75 29.5t32 79.5q0 66 -78 96.5t-78 91.5q0 35 78 72t166 37q147 0 237 -93q115 -116 115 -364 q0 -233 -213 -399q-199 -154 -434 -154q-295 0 -463 199.5t-168 527.5z" />
<glyph unicode="U" horiz-adv-x="1597" d="M82 500v1069q0 41 20.5 61.5t77.5 20.5h420q66 0 89.5 -22.5t23.5 -69.5v-785q0 -74 49 -117q42 -36 89 -36h3q49 0 92 34q51 43 51 109q0 82 -83 150.5t-83 127.5v533q0 49 13.5 62.5t48.5 13.5h539q41 0 57 -14.5t16 -45.5v-1046q0 -240 -221 -402q-203 -147 -457 -147 q-328 0 -524 119q-221 133 -221 385z" />
<glyph unicode="V" horiz-adv-x="1634" d="M35 1569q-1 6 -1 11q0 36 24 52q26 18 75 19h518q72 0 91.5 -16.5t19.5 -75.5v-785q0 -72 43 -110.5t104 -38.5q57 0 98.5 36.5t41.5 102.5q0 78 -84 141.5t-84 136.5v533q0 41 15 58.5t46 17.5h600q23 0 39 -18.5t16 -41.5l-84 -1046q0 -264 -210 -418 q-188 -137 -467 -137q-268 0 -465 129q-215 141 -238 381z" />
<glyph unicode="W" horiz-adv-x="2281" d="M33 1579l96 -971q2 -6 -4 -53t-6 -57q0 -207 144.5 -357.5t365.5 -150.5q231 0 379 166q131 148 131 336q0 -188 129 -336q145 -166 379 -166q221 0 366.5 149.5t145.5 358.5q0 14 -7.5 53t-5.5 57l97 971q-2 20 -7 29q-12 28 -41 28h-2h-624q-29 0 -49.5 -13t-20.5 -52 v-735q0 -27 39 -64t39 -74q0 -47 -28.5 -72.5t-71.5 -25.5q-37 0 -65 25.5t-28 72.5v887q0 31 -10 41t-51 10h-371q-39 0 -49 -12t-10 -39v-887q0 -43 -28.5 -69.5t-67.5 -26.5t-69 25.5t-30 70.5q0 33 25 60q53 59 53 82v731q0 39 -21.5 52t-47.5 13h-623q-23 0 -37 -16 t-14 -41z" />
<glyph unicode="X" horiz-adv-x="1781" d="M37 63v441q0 80 11 92t85 12h205q221 0 305 140q53 88 53 243q0 20 -1 35.5t-1 26.5q0 74 -49 121t-104 47q-45 0 -80 -40t-35 -83q0 -66 43 -109q14 -14 45 -31q-101 -69 -200 -69h-3q-113 0 -188.5 84t-75.5 217q0 248 156 369q121 94 299 94q160 0 246 -58 q70 -47 139 -174q70 127 139 174q84 57 246 58q176 0 297 -94q157 -122 157 -366q0 -134 -75.5 -219t-190.5 -85q-98 0 -200 69q29 14 43 29q45 45 45 111q0 41 -35 82t-80 41q-53 0 -103.5 -48.5t-50.5 -119.5q-2 -37 -2 -64q0 -158 51 -241q84 -139 306 -140h206 q72 0 84.5 -13t12.5 -91v-441q-4 -20 -11 -30q-23 -33 -79 -33h-115q-283 0 -479 170q-166 143 -166 276q0 -131 -166 -274q-199 -172 -479 -172h-115q-55 0 -78 31q-6 10 -12 32z" />
<glyph unicode="Y" horiz-adv-x="1609" d="M29 1597q0 53 82 54h575q45 0 61.5 -5.5t16.5 -68.5v-418q0 -61 46 -101t103 -40q55 0 95 35q47 43 47 123q0 63 -41 95t-107 32q-14 -2 -22 -3q-6 49 -6 91q0 145 84 223q75 69 202 69h4q66 0 138 -18q102 -27 178 -131q84 -114 84 -268q0 -268 -115 -543 q-131 -315 -364 -502q-276 -221 -652 -221h-105t-89 -2q-78 0 -92.5 14.5t-14.5 77.5v438q0 47 13.5 65.5t78.5 18.5h443q68 0 96 9q49 14 49 59q0 31 -31.5 47t-113.5 16l-180 2q-137 0 -233.5 88.5t-125.5 229.5l-100 510q-4 16 -4 24z" />
<glyph unicode="Z" horiz-adv-x="1511" d="M8 131q0 59 29 107l573 915q23 37 23 74q0 51 -41 83.5t-94 32.5q-70 0 -109 -59q-22 -37 -22 -67q0 -16 4 -34t8 -28q-14 -25 -56 -46.5t-83 -21.5q-35 0 -66 15.5t-53 52.5q-47 72 -47 162q0 82 43 156.5t131 119.5q121 63 264 64q102 0 192.5 -29t165.5 -90 q41 51 122 86t179 35q72 0 142.5 -23.5t136.5 -76.5q51 -43 51 -99q0 -45 -33 -104q-8 -12 -38 -64l-377 -600q-12 -18 -13 -35q0 -49 58 -49h280q41 0 51.5 -14t10.5 -64v-426v-34q0 -43 -13.5 -56.5t-74.5 -13.5h-1235q-53 0 -81 38t-28 93z" />
<glyph unicode="[" horiz-adv-x="655" d="M0 297v1040q0 123 74 236q96 147 262 147q150 0 185.5 -7t109.5 -52q-63 -57 -88 -84q-43 -45 -43 -158v-1200q0 -121 47 -164q78 -70 84 -82q-80 -49 -100.5 -54t-194.5 -5q-135 0 -235.5 116.5t-100.5 266.5z" />
<glyph unicode="\" horiz-adv-x="1273" d="M-2 1640h211l1048 -1650h-210z" />
<glyph unicode="]" horiz-adv-x="720" d="M18 -23q16 33 62 64q70 49 70 182v1200q0 113 -44 158q-45 41 -88 84q51 37 113 48t182 11q147 0 250 -145q86 -121 86 -238v-1040q0 -152 -99 -267.5t-237 -115.5h-47q-92 0 -137 9.5t-111 49.5z" />
<glyph unicode="^" horiz-adv-x="1486" d="M362 1067l70 336q51 0 73.5 24.5t29.5 69.5h374q0 -45 23.5 -69.5t79.5 -24.5l69 -336q-164 0 -268 115q-92 102 -92 233q0 -133 -90 -233q-102 -115 -269 -115z" />
<glyph unicode="_" horiz-adv-x="1681" d="M-70 -453q0 80 16.5 99.5t63.5 19.5h1676q53 0 62 -14t9 -105v-213q0 -82 -12 -99t-66 -17h-1669q-49 0 -61 14q-18 23 -19 104v211z" />
<glyph unicode="`" horiz-adv-x="1486" d="M287 2146q0 45 26.5 97.5t92 80t145.5 27.5q82 0 141.5 -29.5t59.5 -80.5q0 -29 -19.5 -56.5t-19.5 -62.5q0 -78 114 -158q98 -68 217 -96v-144q-342 31 -549.5 153t-207.5 269z" />
<glyph unicode="a" horiz-adv-x="1214" d="M37 258q0 123 32.5 197.5t129.5 146.5q12 10 309 115q111 39 162 102q16 18 24 40t8 38q0 35 -26.5 54.5t-65.5 19.5q-78 0 -78 -72q-39 -70 -84 -100.5t-96 -30.5q-76 0 -140.5 59.5t-64.5 108.5q0 115 142.5 192.5t328.5 77.5q215 0 357 -102q164 -119 164 -346v-705 q0 -31 -9.5 -42t-44.5 -11h-327q-35 0 -45.5 10t-10.5 45v410q0 35 -26.5 55.5t-63.5 20.5q-35 0 -57.5 -19.5t-22.5 -60.5q0 -66 59.5 -84.5t59.5 -128.5q0 -143 -92 -225q-82 -74 -205 -74q-127 0 -217 78q-100 86 -100 231z" />
<glyph unicode="b" horiz-adv-x="1288" d="M82 141v1409q0 37 19.5 64.5t52.5 27.5h311q31 0 52.5 -25.5t21.5 -60.5v-878q0 -96 51 -155.5t119 -59.5t113.5 62.5t45.5 187.5q0 94 -58 164.5t-136 70.5q-43 0 -58.5 4t-15.5 41v150q0 45 15.5 51t119.5 6q199 0 351.5 -189t152.5 -427q0 -317 -147 -469 q-119 -123 -308 -123q-78 0 -141 19.5t-106 54.5q-33 -31 -110 -54.5t-151 -23.5q-86 0 -135 32q-59 39 -59 121z" />
<glyph unicode="c" horiz-adv-x="1118" d="M41 612q0 221 156 398q84 94 206.5 148t245.5 54q121 0 216.5 -49t146.5 -151q18 -35 29.5 -79t11.5 -75q0 -80 -49.5 -129t-116.5 -49q-68 0 -117 53q-23 25 -32 54.5t-9 80.5q-29 70 -94 70q-74 0 -142.5 -77t-68.5 -165q0 -25 6 -47q31 -100 80 -149q63 -63 172 -64 h324q51 0 62 -16.5t11 -69.5v-293q0 -39 -15 -48t-58 -9h-338q-131 0 -226 33q-145 51 -256 186q-145 176 -145 393z" />
<glyph unicode="d" horiz-adv-x="1259" d="M47 580q0 238 145.5 427t344.5 189q102 0 119.5 -7t17.5 -50v-150q0 -29 -13.5 -37t-62.5 -8q-76 0 -134 -74.5t-58 -160.5q0 -127 43 -187.5t108 -60.5q70 0 124 60.5t54 152.5v891q0 63 14.5 74.5t57.5 11.5h313q35 0 52.5 -17.5t17.5 -74.5v-1422q0 -74 -57.5 -114.5 t-145.5 -40.5q-135 0 -252 79q-20 -12 -37 -20q-100 -49 -209 -49q-215 0 -335 184q-106 162 -107 404z" />
<glyph unicode="e" horiz-adv-x="1081" d="M43 629q0 242 129 401q147 182 406 182q94 0 165 -20q20 -6 121 -47q68 -29 115 -96.5t47 -130.5q0 -61 -46 -101.5t-144 -40.5q-27 0 -51.5 5t-63.5 24q0 25 -6 50.5t-23 41.5q-39 37 -86 37q-45 0 -81 -42t-36 -91q0 -45 31 -74t101 -29h297q35 0 44 -11t9 -44v-29 q0 -57 -4 -65q-10 -20 -49 -21h-355q-20 0 -33.5 -13t-13.5 -32q0 -18 13.5 -33.5t33.5 -15.5h402h39q25 0 34 -12t9 -53v-291q0 -49 -10.5 -63.5t-61.5 -14.5h-397q-246 0 -398 199q-137 180 -137 430z" />
<glyph unicode="f" horiz-adv-x="1032" d="M80 43v1098q0 242 190 383q170 127 406 127q180 0 305 -78q138 -87 152 -234q2 -10 2 -32q0 -113 -82 -177q-74 -57 -176 -57q-66 0 -116 23.5t-69 70.5q33 12 60 29q53 33 53 94q0 55 -31 86t-74 31q-41 0 -75.5 -30.5t-42 -77t-7.5 -62.5q0 -102 54 -193 q61 -104 164 -120q27 -4 36 -17.5t9 -38.5l-2 -157q0 -55 -58 -56h-149q-74 0 -74 -67v-545q0 -20 -21.5 -31.5t-50.5 -11.5h-329q-31 0 -52.5 9t-21.5 34z" />
<glyph unicode="g" horiz-adv-x="1298" d="M49 580q0 254 125 432q140 200 375 200h2q84 0 149 -41q20 -12 50 -41q41 31 123.5 54.5t160.5 23.5q80 0 131.5 -31.5t51.5 -101.5v-1167q0 -160 -111 -274.5t-270 -114.5h-527q-39 0 -44 14t-5 39v217q0 33 2 37q8 16 47 16h340q59 0 82 29t23 88v893q0 55 -39 77.5 t-99 22.5q-94 0 -146 -73.5t-52 -176.5q0 -92 45 -160.5t125 -68.5q63 0 80.5 -14.5t17.5 -63.5v-338q0 -51 -37 -54t-143 -3q-217 0 -342 178q-115 162 -115 402z" />
<glyph unicode="h" horiz-adv-x="1234" d="M82 39v24v1506q0 59 9 70.5t54 11.5h29h246q61 0 65 -16.5t4 -63.5v-359h148q289 0 407 -129q100 -109 101 -331v-695v-26q0 -31 -47 -31h-416q-31 0 -37 10t-6 45v496q57 23 86 43q88 61 88 151q0 74 -51 119t-111 45q-57 0 -109.5 -44t-52.5 -115v-687q0 -47 -4 -53 q-8 -10 -55 -10h-295q-35 0 -45 8q-8 6 -8 31z" />
<glyph unicode="i" horiz-adv-x="583" d="M84 61v1213q27 -41 47 -62q68 -63 164 -63q94 0 162 61q23 20 49 64v-1213q0 -61 -49 -61h-318q-23 0 -39 18.5t-16 42.5zM84 1407q0 88 61.5 149.5t149.5 61.5t149.5 -61.5t61.5 -149.5q0 -86 -61.5 -147.5t-149.5 -61.5t-149.5 59.5t-61.5 149.5z" />
<glyph unicode="j" horiz-adv-x="774" d="M-45 -90q0 106 97 184q73 58 101 58q10 0 15 -7q10 -12 0 -27.5t-10 -56.5q0 -43 26.5 -69.5t67.5 -26.5t69.5 26.5t28.5 65.5q0 55 -45 127t-45 129v977q25 -41 47 -61q70 -63 164 -64q96 0 164 62q23 20 49 63v-1380q0 -139 -99.5 -222t-267.5 -83q-164 0 -263 89 t-99 216zM260 1423q0 88 61.5 149.5t149.5 61.5q86 0 149.5 -61.5t63.5 -149.5t-61.5 -149.5t-151.5 -61.5q-88 0 -149.5 61.5t-61.5 149.5z" />
<glyph unicode="k" horiz-adv-x="1216" d="M90 51v1540q0 47 10 56q8 6 52 6h292q51 0 63.5 -10.5t12.5 -61.5v-565q0 -55 29 -83t72 -28q39 0 69.5 26.5t30.5 74.5q0 43 -33 75q-10 10 -53 39q-41 23 -41 41q0 20 50 38t89 24t84 6q154 0 248 -99q86 -90 86 -221q0 -82 -36 -150.5t-111 -115.5l165 -487 q20 -66 21 -93q0 -63 -88 -63h-422q-23 0 -37 14.5t-14 36.5v578q-37 18 -65.5 33.5t-35.5 15.5q-8 0 -8 -29v-51v-547q0 -35 -6 -41q-10 -10 -63 -10h-299q-41 0 -50 6q-12 8 -12 45z" />
<glyph unicode="l" horiz-adv-x="593" d="M80 49v1526q0 61 16.5 72.5t83.5 11.5h228q72 0 86 -12.5t14 -71.5v-1526q0 -49 -35 -49h-309q-39 0 -61.5 8t-22.5 41z" />
<glyph unicode="m" horiz-adv-x="1685" d="M23 41l100 829q0 145 100.5 248t253.5 103q164 0 268 -115q92 -102 93 -234q0 133 90 234q102 115 268 115q150 0 248 -103q90 -96 108 -248l101 -829q0 -14 -2 -21q-8 -20 -35 -20h-459q-16 0 -34.5 14.5t-18.5 34.5v625q0 25 56.5 41t56.5 73q0 41 -26 69t-65 28 q-51 0 -76.5 -25.5t-25.5 -68.5v-756q0 -35 -39 -35h-295q-41 0 -41 35v756q0 45 -23.5 69.5t-78.5 24.5q-37 0 -63.5 -27t-26.5 -70q0 -57 56 -73.5t56 -40.5v-625q0 -20 -18.5 -34.5t-34.5 -14.5h-459q-35 0 -35 32q0 4 1 9z" />
<glyph unicode="n" d="M80 63v1065q0 43 43 62.5t115 19.5q78 0 150.5 -23.5t98.5 -60.5q68 43 143 65.5t146 22.5q160 0 258 -100q109 -111 109 -305v-746v-26q0 -37 -47 -37h-416q-29 0 -36 14.5t-7 46.5v523q59 18 88 34q90 53 90 144q0 76 -51 119t-121 43q-63 0 -109.5 -40t-46.5 -114 v-707q0 -43 -6 -51q-10 -12 -53 -12h-295q-37 0 -45 10t-8 53z" />
<glyph unicode="o" horiz-adv-x="1312" d="M41 565q0 250 193.5 448.5t422.5 198.5q213 0 410 -196q205 -205 205 -451q0 -279 -180 -436q-166 -145 -435 -145q-268 0 -436 145q-180 156 -180 436zM403 639q0 -100 78 -161.5t176 -61.5t172 57q82 66 82 166q0 88 -73 180q-84 104 -181 105q-98 0 -180 -103 q-74 -92 -74 -182z" />
<glyph unicode="p" horiz-adv-x="1282" d="M80 -365v1440q0 70 50 102.5t132 32.5q78 0 160 -23.5t125 -56.5q29 27 49 39q68 41 149 41q207 0 354.5 -191t147.5 -431t-112 -404q-127 -184 -342 -184h-56q-86 0 -106.5 9t-20.5 48v338q0 49 16.5 62.5t82.5 13.5q80 0 122.5 73.5t42.5 172.5q0 92 -57 163.5 t-137 71.5q-59 0 -97 -21.5t-38 -78.5v-1223q0 -14 -2 -20q-12 -23 -51 -23h-367q-25 0 -37 25q-4 8 -8 24z" />
<glyph unicode="q" horiz-adv-x="1288" d="M41 573q0 244 146.5 434.5t355.5 190.5q84 0 149 -39q20 -12 49 -41q45 33 125 56.5t162 23.5t131 -31.5t49 -103.5v-1440q0 -20 -13 -35.5t-32 -15.5h-366q-20 0 -36 13.5t-16 31.5v1223q0 45 -35.5 72.5t-88.5 27.5q-82 0 -140 -55q-67 -62 -67 -177q0 -99 44 -174 t122 -75q66 0 82 -12.5t16 -65.5v-336q0 -51 -37 -54t-143 -3q-215 0 -342 184q-115 166 -115 401z" />
<glyph unicode="r" horiz-adv-x="983" d="M82 63v1067q0 43 46 65t118 22q80 0 153.5 -20.5t100.5 -51.5q92 74 223 74q119 0 195 -64q86 -72 86 -203q0 -150 -89 -225q-72 -61 -174 -61q-47 0 -80.5 15t-39.5 38q35 10 51 20q51 33 51 88q0 57 -32 87t-75 30q-47 0 -83.5 -30.5t-36.5 -82.5v-768q0 -31 -12.5 -47 t-53.5 -16h-295q-31 0 -42 16.5t-11 46.5z" />
<glyph unicode="s" horiz-adv-x="997" d="M20 37v364q0 39 46 39h247q49 0 49 43q0 18 -53 49q-35 20 -51 35q-152 129 -152 303q0 164 138 277q55 45 121.5 65.5t140.5 20.5q82 0 157.5 -22.5t110.5 -49.5q47 -37 70.5 -81t23.5 -87q0 -66 -41 -114t-96 -48q-51 0 -91 24q-29 17 -29 36q0 8 5 16q2 6 8.5 21.5 t6.5 25.5q0 47 -22.5 70t-57.5 23q-41 0 -74 -27t-33 -66q0 -29 21 -57q213 -123 344 -216t158 -220q2 -18 5 -33.5t3 -36.5q0 -162 -143.5 -276.5t-354.5 -114.5h-414q-43 0 -43 37z" />
<glyph unicode="t" horiz-adv-x="935" d="M80 387v791q0 31 39 53l311 182q7 4 13 4q7 0 13 -5q12 -9 13 -34v-170h293q43 0 51 -6q12 -8 12 -41v-184q0 -37 -6 -43q-10 -10 -57 -10h-246q-33 0 -41 -11q-6 -8 -6 -41v-18v-330q0 -49 36 -78.5t83 -29.5q45 0 73.5 24.5t28.5 75.5q0 47 -30.5 84t-75.5 37 q-35 0 -37 -2q-2 -4 -4 -4q0 29 42 52.5t99 23.5q68 0 123 -35q67 -43 104 -131q10 -20 17.5 -59.5t7.5 -80.5q0 -82 -33 -155q-41 -92 -127 -160q-59 -45 -128.5 -68.5t-139.5 -23.5q-172 0 -300 115.5t-128 277.5z" />
<glyph unicode="u" d="M82 397v748q0 45 4 51q8 12 43 12h414q31 0 37 -8q8 -10 8 -55v-522q-76 -14 -109 -35q-69 -42 -69 -141q0 -77 49 -121.5t114 -44.5q68 0 116 46t48 136v682q0 45 6 53q8 10 54 10h295q39 0 47 -10q6 -8 6 -53v-1065q0 -41 -44 -64.5t-110 -23.5q-68 0 -138.5 23.5 t-115.5 64.5q-74 -43 -151.5 -65.5t-145.5 -22.5q-158 0 -258 106.5t-100 298.5z" />
<glyph unicode="v" horiz-adv-x="1212" d="M14 1147q-1 6 -1 11q0 50 55 50h376q43 0 52 -8q8 -8 8 -53v-572q0 -61 45 -97t106 -36q57 0 99.5 34t42.5 99q0 104 -78 144q-25 12 -80 16v412q0 41 6 51t37 10h479q45 0 45 -61l-61 -778q0 -188 -170 -289q-147 -86 -381 -86q-262 0 -388 88t-126 287z" />
<glyph unicode="w" horiz-adv-x="1603" d="M14 1178q-1 4 -1 7q0 23 36 23h428q29 0 41 -10t12 -29v-489q-37 -10 -53 -21q-53 -35 -53 -102q0 -47 31.5 -72.5t72.5 -25.5t72 25.5t31 72.5v617q0 35 39 34h276q25 0 33 -6t8 -28v-617q0 -45 33 -70.5t78 -25.5q39 0 67.5 24.5t28.5 71.5q0 66 -55 100q-18 10 -56 23 v491q0 39 56 39h428h2q33 0 33 -26v-6l-80 -648q8 -16 14 -61t6 -84q0 -129 -92 -250q-109 -141 -268 -141q-182 0 -297 90q-37 29 -78 90q-39 -61 -76 -90q-113 -90 -297 -90q-162 0 -268 139q-92 121 -92 252q-2 14 -2 27q0 16 4 44.5t18 73.5z" />
<glyph unicode="x" horiz-adv-x="1286" d="M27 45v324q0 55 8 63q10 10 63 10h150q160 0 221 103q39 66 39 178v45q0 51 -37 86t-76 35q-33 0 -58.5 -27.5t-25.5 -58.5q0 -49 31 -80q10 -10 33 -23q-76 -51 -148 -51q-84 0 -139 61.5t-55 157.5q0 180 114 269q89 69 216 69h4q119 0 180 -41q49 -33 100 -127 q51 92 101 125q63 43 180 43q129 0 217 -67q117 -90 117 -271q0 -96 -55.5 -157.5t-139.5 -61.5q-72 0 -147 51q12 6 18 11q45 33 45 92q0 27 -25.5 56.5t-56.5 29.5q-43 0 -79 -34t-36 -87v-45q0 -117 37 -178q61 -102 226 -103h149q53 0 62 -8q8 -8 8 -65v-324 q-4 -23 -17.5 -34t-48.5 -11h-84q-205 0 -348 125q-121 104 -121 201q0 -96 -121 -201q-145 -125 -350 -125h-84q-49 0 -63 31q-2 4 -4 14z" />
<glyph unicode="y" horiz-adv-x="1298" d="M80 420v770q0 22 24 22h2h515q25 0 24 -22v-442q-59 0 -106 -29q-61 -37 -62 -105q0 -70 40 -117.5t116 -47.5q55 0 98 47t43 116v578q0 16 8 20q2 0 11 2h387q20 0 24 -4q2 -2 2 -18v-1278q0 -145 -78 -229q-88 -94 -264 -95h-573q-43 0 -47 13q-4 12 -4 41v170 q0 41 6 47t45 6h340q63 0 92 8q49 14 49 57q0 45 -36 57.5t-132 12.5h-69q-279 0 -390 174q-66 102 -65 246z" />
<glyph unicode="z" horiz-adv-x="1120" d="M14 96q0 45 23 80l422 674q12 23 12 43q0 37 -29.5 66.5t-66.5 29.5q-16 0 -34.5 -6t-40 -33.5t-21.5 -52.5q0 -18 10 -45q-10 -20 -40 -35.5t-61 -15.5q-55 0 -90 52t-35 120q0 59 32 113.5t98 89.5q39 20 93 32.5t101 12.5q156 0 264 -91q27 37 88.5 65t134.5 28 q53 0 104.5 -17.5t98.5 -56.5q37 -31 37 -72q0 -29 -13.5 -57.5t-39.5 -69.5l-277 -440q-10 -14 -10 -33q0 -31 41 -31h193q37 0 41 -2q20 -10 20 -55v-315q0 -47 -8 -60.5t-53 -13.5h-914q-39 0 -59.5 28.5t-20.5 67.5z" />
<glyph unicode="{" horiz-adv-x="761" d="M10 799q16 31 27 49q35 63 46 96t15 74t4 90q0 78 -10 158q-2 29 -12 71q0 113 74 230q98 154 262 153q174 0 194.5 -5t100.5 -54q-63 -57 -88 -82q-43 -45 -43 -160q10 -51 14 -84q16 -113 16 -192q0 -84 -5 -115t-19.5 -70.5t-44.5 -97.5q-10 -18 -29 -51 q16 -29 27 -45q33 -57 46 -90t19 -83t6 -102q0 -90 -14 -186q-4 -33 -16 -84q0 -117 67 -174q48 -39 64 -72q-80 -49 -100.5 -54t-194.5 -5q-147 0 -248 133q-88 117 -88 250q8 41 12 68q14 92 14 155q0 96 -24 156q-12 31 -43 80q-10 16 -29 43z" />
<glyph unicode="|" horiz-adv-x="450" d="M78 51v1559q0 29 26.5 42t61.5 13h108q41 0 64.5 -9t23.5 -46v-1559q0 -39 -22.5 -49t-65.5 -10h-108q-31 0 -59.5 15.5t-28.5 43.5z" />
<glyph unicode="}" horiz-adv-x="829" d="M63 -27q6 10 84 90q47 47 48 156q-10 51 -15 84q-16 111 -16 186q0 49 4 92.5t22 94.5q12 35 43 86q10 16 29 47q-16 31 -26 49q-35 63 -47.5 97t-18.5 85.5t-6 104.5q0 90 14 188q4 33 17 86q0 113 -43 158q-45 41 -89 84q80 49 100.5 54t194.5 5q166 0 263 -151 q74 -115 73 -232q-8 -41 -10 -69q-12 -96 -12 -162q0 -49 4 -90t16.5 -75t42.5 -91q11 -18 29 -51q-16 -27 -27 -41q-33 -53 -45 -83t-18 -74t-6 -85q0 -92 16 -180q2 -16 10 -39q0 -133 -88 -250q-100 -133 -248 -133h-48h-29q-111 0 -136 8q-39 25 -82 51z" />
<glyph unicode="~" horiz-adv-x="1486" d="M291 1026v311q84 106 115 136q88 84 174 83q55 0 178 -116.5t145 -116.5q45 0 92 33q74 53 168 192v-311q-68 -92 -114 -135q-90 -84 -175 -84q-59 0 -174.5 113.5t-146.5 113.5q-59 0 -100 -24q-80 -49 -162 -195z" />
<glyph unicode="&#xa1;" horiz-adv-x="751" d="M59 213q0 20 3.5 49t5.5 45l120 955q25 -31 43 -45q57 -45 131 -46q55 0 110.5 31t55.5 60l172 -955q4 -29 5 -41q0 -115 -96.5 -195.5t-223.5 -80.5q-188 0 -264 63q-61 51 -62 160zM174 1427q0 80 55.5 135.5t132.5 55.5q80 0 135.5 -55.5t55.5 -135.5 q0 -78 -55.5 -133t-135.5 -55q-78 0 -133 55.5t-55 132.5z" />
<glyph unicode="&#xa2;" horiz-adv-x="952" d="M29 602q0 203 141 350q72 76 178 121q35 14 92 31v139q0 23 11 29q10 6 34 6h111q25 0 29 -4q6 -6 6 -31v-139q33 -4 53 -10q125 -39 186 -142q39 -68 39 -133q0 -59 -37.5 -102t-101.5 -43q-59 0 -100 47q-18 20 -27.5 41.5t-9.5 73.5q-18 27 -44 39t-48 12 q-35 0 -68 -19q-18 -10 -33 -24q-37 -29 -60.5 -71t-23.5 -93q0 -23 2 -35q12 -82 71.5 -133t156.5 -51h278q45 0 54.5 -11.5t9.5 -64.5v-250q0 -35 -10 -41q-8 -6 -54 -6h-233v-127q0 -35 -35 -35h-111q-45 0 -45 31v141q-27 4 -45 8q-109 31 -205 121q-78 74 -119.5 172.5 t-41.5 202.5z" />
<glyph unicode="&#xa3;" horiz-adv-x="1173" d="M29 47v408q0 35 6 41t45 6h125q66 0 65 55q0 59 -67 51h-88q-29 0 -37 15.5t-8 81.5q0 68 7 83t38 15h100q-20 37 -29 61q-29 78 -28 158q0 74 25.5 142.5t86.5 135.5q76 80 171.5 120t199.5 40q227 0 387 -160q45 -47 68.5 -102t23.5 -106q0 -98 -64.5 -169t-154.5 -71 q-76 0 -111.5 22.5t-35.5 57.5q0 14 4 22t14 21q31 31 31 76q0 43 -31 78.5t-82 35.5q-20 0 -40.5 -8t-38 -25.5t-25.5 -39t-8 -39.5q0 -20 2 -29q6 -16 8 -23q20 -59 69 -118q66 -80 129 -80h256q37 0 43 -12t7 -86v-33q0 -47 -7 -56q-6 -8 -38 -8h-166q-76 0 -76 -51 q0 -55 76 -55h200q53 0 60 -6q6 -6 6 -50v-393q0 -43 -6 -47q-8 -6 -70 -6h-993q-37 0 -41 4q-8 6 -8 43z" />
<glyph unicode="&#xa4;" horiz-adv-x="1355" d="M37 199q0 18 26 45l89 88q-49 72 -73 154.5t-24 187.5q0 113 43 219t121 197l-82 88q-12 12 -16 22t-4 21q0 16 10 26l39 39q16 16 29 17q16 0 41 -25l86 -92q78 63 169 99t181 36q170 0 336 -133l77 90q25 25 41 25q12 0 29 -17l39 -39q10 -10 10 -28q0 -23 -20 -41 l-72 -84q80 -92 127 -199.5t47 -220.5q0 -209 -102 -350l80 -80q27 -27 26 -45q0 -12 -14 -27l-39 -39q-10 -10 -27 -10q-25 0 -45 20l-78 78q-166 -129 -415 -129q-260 0 -424 137l-86 -86q-20 -20 -45 -20q-16 0 -27 10l-39 39q-14 14 -14 27zM276 680q0 -178 115 -279 q109 -94 281 -94q170 0 276 92q117 101 117 281q0 158 -128 286t-265 128q-147 0 -271.5 -126t-124.5 -288z" />
<glyph unicode="&#xa5;" horiz-adv-x="1736" d="M29 1190q0 248 155 369q121 94 299 94q170 0 287 -262q70 -176 98 -248q111 285 136 327q102 182 249 183q176 0 297 -94q158 -123 158 -369q0 -154 -89 -279t-214 -125q-39 0 -73 10.5t-75 39.5q29 14 43 28q45 45 46 111q0 41 -35 82t-80 41q-98 0 -141 -123 q-29 -82 -29 -201v-133h301q37 0 54.5 -13.5t17.5 -33.5v-51q0 -25 -11.5 -36t-60.5 -11h-301l-2 -68h303q37 0 54.5 -13.5t17.5 -33.5v-51q0 -25 -11.5 -36t-60.5 -11h-301v-220q0 -37 -15.5 -50t-78.5 -13h-203q-61 0 -75.5 12.5t-14.5 50.5v220h-262q-51 0 -64.5 11 t-13.5 36v51q0 18 19.5 32.5t58.5 14.5h262v68h-262q-51 0 -64.5 11t-13.5 36v51q0 18 19.5 32.5t58.5 14.5h262l2 133q0 135 -17 199q-33 125 -120 125q-45 0 -80 -40t-35 -83q0 -66 43 -109q14 -14 45 -30q-37 -25 -77 -37.5t-75 -12.5q-133 0 -232 125t-99 279z" />
<glyph unicode="&#xa6;" horiz-adv-x="442" d="M80 55v535q0 29 26.5 42t61.5 13h108q41 0 65 -9t24 -46v-535q0 -39 -23 -49t-66 -10h-108q-31 0 -59.5 15.5t-28.5 43.5zM80 1065v534q0 29 26.5 42.5t61.5 13.5h108q41 0 65 -9.5t24 -46.5v-534q0 -39 -23 -49t-66 -10h-108q-31 0 -59.5 15t-28.5 44z" />
<glyph unicode="&#xa7;" horiz-adv-x="1034" d="M102 756q0 86 47.5 160.5t131.5 123.5q-98 104 -99 236q0 74 30 135.5t93 114.5q49 39 111.5 58.5t124.5 19.5q74 0 142.5 -20.5t98.5 -45.5q45 -33 64.5 -72t19.5 -82q0 -59 -34.5 -101t-86.5 -42q-47 0 -82.5 21.5t-21.5 46.5q2 8 4 12q8 23 8 31q0 43 -20.5 63.5 t-50.5 20.5q-37 0 -67 -23.5t-30 -60.5q0 -25 21 -52q193 -111 309 -195.5t141 -197.5q6 -31 7 -61q0 -86 -46.5 -159t-128.5 -122q94 -106 95 -237q0 -147 -123 -252q-49 -39 -111.5 -58.5t-124.5 -19.5q-74 0 -142.5 20.5t-98.5 44.5q-45 33 -64.5 72t-19.5 80 q0 59 36.5 102t86.5 43q45 0 80.5 -21.5t21.5 -45.5q-2 -8 -4 -12q-8 -23 -8 -31q0 -45 19.5 -64.5t51.5 -19.5q37 0 67 23.5t30 58.5q0 29 -19 53q-193 109 -310.5 193t-141.5 200q-6 31 -7 62zM375 893q0 -23 22 -39l265 -186q14 -8 26 -9q35 0 35 35q0 19 -18 31 l-271 195q-16 10 -26 10q-33 0 -33 -37z" />
<glyph unicode="&#xa8;" horiz-adv-x="811" d="M37 1800q0 59 43 102.5t102 43.5q61 0 104.5 -41.5t43.5 -104.5q0 -59 -43 -102t-105 -43q-59 0 -102 43t-43 102zM467 1800q0 59 43 102.5t102 43.5q61 0 104.5 -41.5t43.5 -104.5q0 -59 -43 -102t-105 -43q-59 0 -102 43t-43 102z" />
<glyph unicode="&#xa9;" horiz-adv-x="1880" d="M74 813q0 162 100 354q113 217 293 351q211 158 467 157q254 0 467 -157q182 -135 295 -349q102 -194 102 -356q0 -385 -213 -608q-227 -238 -651 -238q-428 0 -651 238q-209 221 -209 608zM313 813q0 -279 150 -438q162 -172 471 -172q305 0 469 170q156 161 156 440 q0 197 -162 391q-193 231 -463 232q-266 0 -457 -230q-164 -199 -164 -393zM524 815q0 166 121 282.5t289 116.5q127 0 217 -72.5t90 -189.5q0 -88 -72 -137q-61 -43 -147 -43q-51 0 -82 14q0 14 39 43t39 91q0 41 -25.5 62.5t-64.5 21.5q-57 0 -104.5 -41t-47.5 -113 q0 -61 48 -111.5t116 -50.5h262q47 0 47 -55v-246h-231q-174 0 -235.5 17.5t-141.5 91.5q-47 47 -82 135t-35 184z" />
<glyph unicode="&#xab;" horiz-adv-x="1597" d="M117 715q0 16 9 30.5t24 28.5l516 516q12 12 30 13q16 0 36 -10.5t36 -24.5l76 -78q23 -23 26 -29q12 -16 13 -35q0 -20 -17 -36l-372 -375l372 -375q16 -16 17 -37q0 -16 -11.5 -31.5t-27.5 -31.5l-76 -78q-20 -18 -36.5 -26.5t-35.5 -8.5q-18 0 -30 12l-516 516 q-18 18 -23 25q-10 16 -10 35zM731 715q0 16 9.5 30.5t23.5 28.5l516 516q12 12 31 13q16 0 35.5 -10.5t35.5 -24.5l76 -78q23 -23 27 -29q12 -16 12 -35q0 -20 -16 -36l-373 -375l373 -375q16 -16 16 -37q0 -16 -11 -31.5t-28 -31.5l-76 -78q-20 -18 -36.5 -26.5 t-34.5 -8.5t-31 12l-516 516q-18 18 -23 25q-10 16 -10 35z" />
<glyph unicode="&#xad;" horiz-adv-x="1007" d="M84 723v108q0 31 15.5 60t43.5 29h731q29 0 42.5 -27t13.5 -62v-108q0 -41 -6 -57q-12 -31 -50 -31h-731q-39 0 -49 22.5t-10 65.5z" />
<glyph unicode="&#xae;" horiz-adv-x="1880" d="M74 813q0 162 100 354q113 217 293 351q211 158 467 157q254 0 467 -157q182 -135 295 -349q102 -194 102 -356q0 -385 -213 -608q-227 -238 -651 -238q-428 0 -651 238q-209 221 -209 608zM313 813q0 -279 150 -438q162 -172 471 -172q305 0 469 170q156 161 156 440 q0 197 -162 391q-193 231 -463 232q-266 0 -457 -230q-164 -199 -164 -393zM580 477v707q0 23 44 39t103 16q57 0 101 -13.5t75 -45.5q41 25 62 34q47 23 86 23q100 0 168 -55q82 -68 81 -193q0 -63 -17 -119.5t-58 -81.5l129 -311q-2 -14 -6 -20q-10 -12 -29 -13h-342 q-31 0 -31 41v410q0 20 42 45t42 70q0 31 -16.5 48t-40.5 17q-57 0 -58 -65v-525q0 -20 -6 -28q-10 -12 -35 -13h-251q-43 0 -43 33z" />
<glyph unicode="&#xaf;" horiz-adv-x="1007" d="M84 1829v108q0 31 15.5 59.5t43.5 28.5h731q29 0 42.5 -26.5t13.5 -61.5v-108q0 -41 -6 -57q-12 -31 -50 -31h-731q-39 0 -49 22.5t-10 65.5z" />
<glyph unicode="&#xb0;" horiz-adv-x="442" d="M70 1366q0 59 43 102t102 43q61 0 104 -41t43 -104q0 -59 -43 -102t-104 -43q-59 0 -102 43t-43 102zM143 1368q0 -31 20.5 -53.5t51.5 -22.5t52.5 21.5t21.5 54.5q0 31 -21.5 50.5t-52.5 19.5t-51.5 -18.5t-20.5 -51.5z" />
<glyph unicode="&#xb1;" horiz-adv-x="1007" d="M84 88v109q0 31 15.5 59.5t43.5 28.5h731q29 0 42.5 -27t13.5 -61v-109q0 -41 -6 -57q-12 -31 -50 -31h-731q-39 0 -49 22.5t-10 65.5zM84 727v109q0 31 15.5 59.5t43.5 28.5h222v223q0 29 26.5 42t61.5 13h108q41 0 64.5 -9t23.5 -46v-223h225q29 0 42.5 -27t13.5 -61 v-109q0 -41 -6 -57q-12 -31 -50 -31h-225v-223q0 -39 -22.5 -49.5t-65.5 -10.5h-108q-31 0 -59.5 15.5t-28.5 44.5v223h-222q-39 0 -49 22.5t-10 65.5z" />
<glyph unicode="&#xb4;" horiz-adv-x="1667" d="M422 1745v143q115 29 215 97q117 80 117 159q0 33 -19 60q-6 10 -13 25.5t-7 31.5q0 49 59.5 79t143.5 30q80 0 143 -27t94 -84q25 -47 25 -92q0 -150 -201 -266q-211 -125 -557 -156z" />
<glyph unicode="&#xb5;" d="M-199 -121q0 106 97.5 184t115.5 52q10 -12 0 -27.5t-10 -56.5q0 -43 26.5 -70t67.5 -27t70 27t29 66t-17 75q-45 51 -71.5 127t-26.5 168v748q0 45 4 51q8 12 43 12h414q31 0 37 -8q8 -10 8 -55v-522q-76 -14 -109 -35q-70 -43 -69 -144q0 -74 49 -118.5t114 -44.5 q68 0 116 46t48 136v682q0 45 6 53q8 10 54 10h295q39 0 47 -10q6 -8 6 -53v-1065q0 -41 -44 -64.5t-110 -23.5q-68 0 -138.5 23.5t-115.5 64.5q-70 -41 -136 -63.5t-128 -22.5q0 -31 -2 -39q-4 -16 -22 -35q0 -152 -76 -242q-88 -104 -250 -104q-160 0 -246 92 q-76 82 -76 213z" />
<glyph unicode="&#xb6;" horiz-adv-x="1568" d="M80 1217q0 264 125 380q109 102 325 103q139 0 222 -51q27 -16 55 -52q29 43 126 74t208 31q129 0 205 -43q92 -51 92 -156v-1423q0 -80 -64 -80h-96q-41 0 -53 10q-20 16 -21 76v1208h-209v-1208q0 -72 -30 -82q-14 -4 -43 -4h-91q-41 0 -56 19.5t-15 60.5v1020 q0 135 -24.5 173t-98.5 38q-57 0 -91 -36t-34 -91q0 -94 89 -133t89 -142v-235q0 -61 -25.5 -81t-93.5 -20q-248 0 -369.5 170t-121.5 474z" />
<glyph unicode="&#xb7;" horiz-adv-x="346" d="M25 793q0 59 43 102t102 43q61 0 104 -41t43 -104q0 -59 -43 -102.5t-104 -43.5q-59 0 -102 43t-43 103z" />
<glyph unicode="&#xb8;" horiz-adv-x="1597" d="M698 106q39 -8 62 -10q78 -12 106 -12q35 0 37 10v-196q61 -12 131 -35t111 -72q72 -88 72 -197q0 -115 -78 -200q-41 -45 -103.5 -73t-124.5 -28q-59 0 -106 24t-74 75q-14 29 -14 57q0 43 31.5 72.5t70.5 29.5q18 0 39 -11t32 -31.5t11 -40.5q0 -25 -8 -33 q45 -4 89 26.5t44 81.5q0 23 -4 33q-14 49 -39 74q-33 33 -86 33h-162q-23 0 -26 2q-10 6 -11 41v380z" />
<glyph unicode="&#xbb;" horiz-adv-x="1566" d="M109 303q0 20 16 37l373 375l-373 375q-16 16 -16 36q0 16 11 32t27 32l76 78q20 18 36.5 26.5t35.5 8.5q18 0 31 -13l516 -516q18 -18 22 -24q10 -17 10 -35q0 -16 -9 -30.5t-23 -29.5l-516 -516q-12 -12 -31 -12q-16 0 -35.5 10t-36.5 25l-76 78q-23 23 -26 28 q-12 16 -12 35zM723 303q0 20 16 37l373 375l-373 375q-16 16 -16 36q0 16 11 32t28 32l76 78q20 18 36.5 26.5t34.5 8.5t31 -13l516 -516q18 -18 23 -24q10 -17 10 -35q0 -16 -9.5 -30.5t-23.5 -29.5l-516 -516q-12 -12 -31 -12q-16 0 -35.5 10t-35.5 25l-76 78 q-23 23 -27 28q-12 16 -12 35z" />
<glyph unicode="&#xbf;" horiz-adv-x="1247" d="M23 406q0 233 309 454q135 96 164 180q20 57 20 269q100 -123 238 -123q61 0 114.5 25.5t102.5 80.5q0 -242 -53 -370q-41 -98 -148 -199q-188 -176 -219 -211q-39 -45 -39 -102q0 -66 47 -115t107 -41q90 12 125.5 50t35.5 93q0 41 -14 75t-35 54q-18 16 15 39 q70 47 202 47q102 0 157.5 -63.5t55.5 -155.5q0 -90 -45 -169t-135 -130q-92 -51 -204.5 -84t-229.5 -33q-111 0 -214.5 32t-195.5 106q-162 129 -161 291zM539 1460q0 88 61.5 149.5t151.5 61.5q86 0 148.5 -62.5t62.5 -148.5t-61.5 -147.5t-149.5 -61.5q-86 0 -149.5 61.5 t-63.5 147.5z" />
<glyph unicode="&#xc0;" horiz-adv-x="1585" d="M-4 326q0 135 65 260q35 121 142 319q164 307 364 500q274 262 576 262q82 0 178 -19.5t113 -27.5q59 -27 59 -94v-1460q0 -27 -15.5 -46.5t-37.5 -19.5h-512q-39 0 -51 27q-2 8 -5 26v592q0 63 -35.5 97t-84.5 34q-45 0 -80 -32.5t-35 -88.5q0 -61 59.5 -89.5 t59.5 -47.5v-223q0 -139 -129 -248q-119 -100 -250 -100q-190 0 -293 116q-88 100 -88 263zM629 1051q0 -47 30.5 -81t88.5 -34q35 0 50 5t40 28q35 33 34 86q0 53 -35.5 89t-88.5 36q-51 0 -85 -35t-34 -94zM676 2167q0 45 26.5 97t92 80t145.5 28q82 0 141.5 -30t59.5 -81 q0 -29 -19.5 -56.5t-19.5 -62.5q0 -78 115 -157q98 -68 217 -97v-143q-342 31 -550 152.5t-208 269.5z" />
<glyph unicode="&#xc1;" horiz-adv-x="1576" d="M-4 326q0 135 65 260q35 121 142 319q164 307 364 500q274 262 576 262q82 0 178 -19.5t113 -27.5q59 -27 59 -94v-1460q0 -27 -15.5 -46.5t-37.5 -19.5h-512q-39 0 -51 27q-2 8 -5 26v592q0 63 -35.5 97t-84.5 34q-45 0 -80 -32.5t-35 -88.5q0 -61 59.5 -89.5 t59.5 -47.5v-223q0 -139 -129 -248q-119 -100 -250 -100q-190 0 -293 116q-88 100 -88 263zM629 1051q0 -47 30.5 -81t88.5 -34q35 0 50 5t40 28q35 33 34 86q0 53 -35.5 89t-88.5 36q-51 0 -85 -35t-34 -94zM737 1729v143q115 29 215 96q117 80 117 160q0 33 -18 59 q-6 10 -13.5 25.5t-7.5 32.5q0 49 59.5 78.5t143.5 29.5q80 0 143 -26.5t94 -83.5q25 -47 25 -93q0 -150 -201 -266q-211 -125 -557 -155z" />
<glyph unicode="&#xc2;" horiz-adv-x="1593" d="M4 326q0 135 66 260q35 121 141 319q164 307 364 500q274 262 576 262q82 0 178 -19.5t113 -27.5q59 -27 59 -94v-1460q0 -27 -15.5 -46.5t-37.5 -19.5h-512q-39 0 -51 27q-2 8 -4 26v592q0 63 -36 97t-85 34q-45 0 -80 -32.5t-35 -88.5q0 -61 59.5 -89.5t59.5 -47.5 v-223q0 -139 -129 -248q-119 -100 -250 -100q-190 0 -293 116q-88 100 -88 263zM637 1051q0 -47 30.5 -81t88.5 -34q35 0 50 5t40 28q35 33 35 86t-36 89t-89 36q-51 0 -85 -35t-34 -94zM748 1747l69 336q51 0 73.5 24.5t29.5 69.5h374q0 -45 23.5 -69.5t79.5 -24.5l69 -336 q-164 0 -268 115q-92 102 -92 233q0 -133 -90 -233q-102 -115 -268 -115z" />
<glyph unicode="&#xc3;" horiz-adv-x="1581" d="M-4 326q0 135 65 260q35 121 142 319q164 307 364 500q274 262 576 262q82 0 178 -19.5t113 -27.5q59 -27 59 -94v-1460q0 -27 -15.5 -46.5t-37.5 -19.5h-512q-39 0 -51 27q-2 8 -5 26v592q0 63 -35.5 97t-84.5 34q-45 0 -80 -32.5t-35 -88.5q0 -61 59.5 -89.5 t59.5 -47.5v-223q0 -139 -129 -248q-119 -100 -250 -100q-190 0 -293 116q-88 100 -88 263zM596 1749v311q84 106 115 135q88 84 174 84q55 0 178 -116.5t145 -116.5q45 0 92 33q74 53 168 192v-311q-68 -92 -114 -135q-90 -84 -174 -84q-59 0 -175 113.5t-147 113.5 q-59 0 -100 -24q-80 -49 -162 -195zM629 1051q0 -47 30.5 -81t88.5 -34q35 0 50 5t40 28q35 33 34 86q0 53 -35.5 89t-88.5 36q-51 0 -85 -35t-34 -94z" />
<glyph unicode="&#xc4;" horiz-adv-x="1587" d="M0 322q0 135 66 260q35 121 141 319q164 307 364 500q274 262 576 262q82 0 178 -19.5t113 -27.5q59 -27 59 -94v-1456q0 -27 -15.5 -46.5t-37.5 -19.5h-512q-39 0 -51 27q-2 8 -4 26v588q0 63 -36 97t-85 34q-45 0 -80 -32.5t-35 -88.5q0 -61 59.5 -90t59.5 -47v-219 q0 -139 -129 -248q-119 -100 -250 -100q-193 0 -293 114q-88 100 -88 261zM633 1047q0 -47 30.5 -81t88.5 -34q35 0 50 5t40 28q35 33 35 86t-36 89t-89 36q-51 0 -85 -35t-34 -94zM741 1894q0 59 43 102.5t103 43.5q61 0 104 -41.5t43 -104.5q0 -59 -43 -102t-104 -43 q-59 0 -102.5 43t-43.5 102zM1171 1894q0 59 43 102.5t103 43.5q61 0 104 -41.5t43 -104.5q0 -59 -43 -102t-104 -43q-59 0 -102.5 43t-43.5 102z" />
<glyph unicode="&#xc5;" horiz-adv-x="1589" d="M4 326q0 135 66 260q35 121 141 319q164 307 364 500q274 262 576 262q82 0 178 -19.5t113 -27.5q59 -27 59 -94v-1460q0 -27 -15.5 -46.5t-37.5 -19.5h-512q-39 0 -51 27q-2 8 -4 26v592q0 63 -36 97t-85 34q-45 0 -80 -32.5t-35 -88.5q0 -61 59.5 -89.5t59.5 -47.5 v-223q0 -139 -129 -248q-119 -100 -250 -100q-190 0 -293 116q-88 100 -88 263zM637 1051q0 -47 30.5 -81t88.5 -34q35 0 50 5t40 28q35 33 35 86t-36 89t-89 36q-51 0 -85 -35t-34 -94zM979 1944q0 78 55.5 133t132.5 55q80 0 136.5 -54t56.5 -134t-56.5 -134.5 t-136.5 -54.5q-78 0 -133 55.5t-55 133.5zM1075 1946q0 -41 26.5 -70t65.5 -29t68 29t29 70t-27 65.5t-70 24.5q-39 0 -65.5 -24.5t-26.5 -65.5z" />
<glyph unicode="&#xc6;" horiz-adv-x="2246" d="M6 328q0 127 66 252q20 72 137 270q154 264 317 450q221 252 432 330q104 37 240 37q123 0 208 -30.5t91 -86.5q47 59 130 90t181 31q162 0 273 -80q125 -90 125 -252q0 -176 -90 -249q-70 -57 -193 -58h-125q-74 0 -95.5 9.5t-21.5 45.5q0 43 21 52q47 20 47 112 q0 57 -37 92t-84 35t-79.5 -37.5t-32.5 -113.5v-207q0 -70 36.5 -86t151.5 -16h387v-140q0 -47 -21.5 -68.5t-74.5 -21.5h-488q0 -66 42 -91.5t139 -25.5h514v-571h-1319v639q0 63 -36 97t-85 34q-45 0 -80 -32.5t-35 -88.5q0 -61 59.5 -90t59.5 -47v-190q0 -139 -129 -248 q-119 -100 -250 -101q-195 0 -293 107q-88 94 -88 248zM639 1044q0 -47 30.5 -80.5t88.5 -33.5q35 0 50 5t40 28q35 33 35 86t-36 89t-89 36q-51 0 -85 -35t-34 -95z" />
<glyph unicode="&#xc7;" horiz-adv-x="1546" d="M49 846q0 330 241.5 567.5t577.5 237.5q248 0 426 -146q186 -154 187 -379q0 -180 -146 -280q-123 -86 -295 -86q-92 0 -161 28q0 37 78.5 89.5t78.5 152.5q0 25 -2 37q-8 76 -58 116t-124 40q-113 0 -203 -80q-98 -88 -98 -228q0 -123 98.5 -223t229.5 -100h524 q43 0 69.5 -33t26.5 -78v-481h-622v-102q61 -12 130.5 -35t110.5 -72q72 -88 72 -197q0 -115 -78 -200q-41 -45 -103.5 -73t-123.5 -28q-59 0 -106.5 24t-73.5 75q-14 29 -15 57q0 43 32 72.5t71 29.5q18 0 38.5 -11t31.5 -31.5t11 -40.5q0 -25 -8 -33q45 -4 89 26.5 t44 81.5q0 23 -4 33q-14 49 -39 74q-33 33 -86 33h-161q-23 0 -27 2q-10 6 -10 41v282q-203 27 -389 205q-92 86 -160 258q-74 188 -74 375z" />
<glyph unicode="&#xc8;" horiz-adv-x="1447" d="M82 0v1546q0 57 88 89t209 32q125 0 217 -30.5t98 -86.5q47 59 130 90t182 31q162 0 272 -80q125 -90 125 -252q0 -176 -90 -249q-70 -57 -193 -58h-125q-74 0 -95 9.5t-21 45.5q0 43 20 52q47 20 47 112q0 57 -37 92t-84 35t-79.5 -37.5t-32.5 -113.5v-207 q0 -70 36.5 -86t151.5 -16h387v-140q0 -47 -21.5 -68.5t-74.5 -21.5h-487q0 -66 41.5 -91.5t138.5 -25.5h514v-571h-1317zM258 2167q0 45 26.5 97t92 80t145.5 28q82 0 141.5 -30t59.5 -81q0 -29 -19.5 -56.5t-19.5 -62.5q0 -78 115 -157q98 -68 217 -97v-143 q-342 31 -550 152.5t-208 269.5z" />
<glyph unicode="&#xc9;" horiz-adv-x="1456" d="M82 0v1546q0 57 88 89t209 32q125 0 217 -30.5t98 -86.5q47 59 130 90t182 31q162 0 272 -80q125 -90 125 -252q0 -176 -90 -249q-70 -57 -193 -58h-125q-74 0 -95 9.5t-21 45.5q0 43 20 52q47 20 47 112q0 57 -37 92t-84 35t-79.5 -37.5t-32.5 -113.5v-207 q0 -70 36.5 -86t151.5 -16h387v-140q0 -47 -21.5 -68.5t-74.5 -21.5h-487q0 -66 41.5 -91.5t138.5 -25.5h514v-571h-1317zM422 1745v143q115 29 215 97q117 80 117 159q0 33 -19 60q-6 10 -13 25.5t-7 31.5q0 49 59.5 79t143.5 30q80 0 143 -27t94 -84q25 -47 25 -92 q0 -150 -201 -266q-211 -125 -557 -156z" />
<glyph unicode="&#xca;" horiz-adv-x="1452" d="M82 0v1546q0 57 88 89t209 32q125 0 217 -30.5t98 -86.5q47 59 130 90t182 31q162 0 272 -80q125 -90 125 -252q0 -176 -90 -249q-70 -57 -193 -58h-125q-74 0 -95 9.5t-21 45.5q0 43 20 52q47 20 47 112q0 57 -37 92t-84 35t-79.5 -37.5t-32.5 -113.5v-207 q0 -70 36.5 -86t151.5 -16h387v-140q0 -47 -21.5 -68.5t-74.5 -21.5h-487q0 -66 41.5 -91.5t138.5 -25.5h514v-571h-1317zM334 1739l69 336q51 0 74 24.5t29 69.5h375q0 -45 23.5 -69.5t78.5 -24.5l70 -336q-164 0 -269 114q-92 102 -92 234q0 -133 -90 -234 q-102 -115 -268 -114z" />
<glyph unicode="&#xcb;" horiz-adv-x="1452" d="M82 0v1546q0 57 88 89t209 32q125 0 217 -30.5t98 -86.5q47 59 130 90t182 31q162 0 272 -80q125 -90 125 -252q0 -176 -90 -249q-70 -57 -193 -58h-125q-74 0 -95 9.5t-21 45.5q0 43 20 52q47 20 47 112q0 57 -37 92t-84 35t-79.5 -37.5t-32.5 -113.5v-207 q0 -70 36.5 -86t151.5 -16h387v-140q0 -47 -21.5 -68.5t-74.5 -21.5h-487q0 -66 41.5 -91.5t138.5 -25.5h514v-571h-1317zM340 1886q0 59 43 102.5t102 43.5q61 0 104.5 -41.5t43.5 -104.5q0 -59 -43 -102t-105 -43q-59 0 -102 43t-43 102zM770 1886q0 59 43 102.5t102 43.5 q61 0 104.5 -41.5t43.5 -104.5q0 -59 -43 -102t-105 -43q-59 0 -102 43t-43 102z" />
<glyph unicode="&#xcc;" horiz-adv-x="827" d="M25 2167q0 45 26.5 97t92 80t145.5 28q82 0 141 -30t59 -81q0 -29 -19 -56.5t-19 -62.5q0 -78 114 -157q98 -68 217 -97v-143q-342 31 -549.5 152.5t-207.5 269.5zM82 78v1253q0 145 47 225q57 96 176 97h332q61 0 80.5 -17.5t19.5 -66.5v-1485q0 -37 -21.5 -60.5 t-62.5 -23.5h-487q-41 0 -57 10q-27 16 -27 68z" />
<glyph unicode="&#xcd;" horiz-adv-x="827" d="M41 1745v143q115 29 215 97q117 80 117 159q0 33 -19 60q-6 10 -13 25.5t-7 31.5q0 49 59.5 79t143.5 30q80 0 143 -27t94 -84q25 -47 25 -92q0 -150 -201 -266q-211 -125 -557 -156zM82 78v1253q0 145 47 225q57 96 176 97h332q61 0 80.5 -17.5t19.5 -66.5v-1485 q0 -37 -21.5 -60.5t-62.5 -23.5h-487q-41 0 -57 10q-27 16 -27 68z" />
<glyph unicode="&#xce;" horiz-adv-x="827" d="M43 1743l70 336q51 0 73.5 24.5t28.5 69.5h375q0 -45 23.5 -69.5t78.5 -24.5l70 -336q-164 0 -268 115q-92 102 -93 233q0 -133 -90 -233q-102 -115 -268 -115zM82 78v1253q0 145 47 225q57 96 176 97h332q61 0 80.5 -17.5t19.5 -66.5v-1485q0 -37 -21.5 -60.5 t-62.5 -23.5h-487q-41 0 -57 10q-27 16 -27 68z" />
<glyph unicode="&#xcf;" horiz-adv-x="827" d="M53 1894q0 59 43 102.5t103 43.5q61 0 104 -41.5t43 -104.5q0 -59 -43 -102t-104 -43q-59 0 -102.5 43t-43.5 102zM82 78v1253q0 145 47 225q57 96 176 97h332q61 0 80.5 -17.5t19.5 -66.5v-1485q0 -37 -21.5 -60.5t-62.5 -23.5h-487q-41 0 -57 10q-27 16 -27 68z M483 1894q0 59 43 102.5t103 43.5q61 0 104 -41.5t43 -104.5q0 -59 -43 -102t-104 -43q-59 0 -102.5 43t-43.5 102z" />
<glyph unicode="&#xd0;" horiz-adv-x="1708" d="M-37 788v109q0 31 15.5 59.5t44.5 28.5h59v457q0 100 88 154.5t211 54.5q94 0 172 -31t113 -86q68 66 138 91.5t177 25.5q199 0 416 -246q239 -270 239 -594q0 -422 -94 -606q-106 -209 -373 -209h-323q-41 0 -52.5 41t-11.5 113l-2 299q0 98 168 194t168 254 q0 172 -62.5 264t-162.5 92t-135 -39q-47 -53 -47 -229h67q29 0 42 -26.5t13 -61.5v-109q0 -41 -6 -57q-12 -31 -49 -31h-69l-2 -704h-623v704h-59q-39 0 -49.5 22.5t-10.5 65.5z" />
<glyph unicode="&#xd1;" horiz-adv-x="1566" d="M82 66v1523q0 61 86 84q53 14 147 15h41q100 0 191 -41q68 -31 123 -80q63 45 123 73q96 47 170 48q336 0 450 -191q74 -123 74 -407v-1031q-6 -29 -17 -39q-20 -20 -53 -20h-598q-29 0 -45 22.5t-16 53.5v928q0 37 83 86t83 137q0 57 -34 91t-79 34q-47 0 -81 -33 t-34 -92v-1151q0 -39 -12 -53q-18 -23 -72 -23h-454q-76 0 -76 66zM342 1745v311q84 106 115 135q88 84 174 84q55 0 178 -116.5t145 -116.5q45 0 93 33q74 53 167 192v-311q-68 -92 -114 -135q-90 -84 -174 -84q-59 0 -175 113.5t-147 113.5q-59 0 -100 -25 q-80 -49 -162 -194z" />
<glyph unicode="&#xd2;" horiz-adv-x="1810" d="M43 813q0 162 100 354q113 217 293 351q211 158 467 157q254 0 467 -157q182 -135 295 -349q102 -194 102 -356q0 -385 -213 -608q-227 -238 -651 -238q-428 0 -651 238q-209 221 -209 608zM473 2171q0 45 26.5 97t92 80t145.5 28q82 0 141.5 -30t59.5 -81 q0 -29 -19.5 -56.5t-19.5 -62.5q0 -78 115 -157q98 -68 217 -97v-143q-342 31 -550 152.5t-208 269.5zM614 922q0 -147 80 -248t209 -101q137 0 213 97.5t76 251.5q0 127 -70 229q-82 121 -219 121q-131 0 -215 -121q-74 -104 -74 -229z" />
<glyph unicode="&#xd3;" horiz-adv-x="1837" d="M57 813q0 162 101 354q113 217 293 351q211 158 467 157q254 0 466 -157q182 -135 295 -349q103 -194 103 -356q0 -385 -213 -608q-227 -238 -651 -238q-428 0 -652 238q-209 221 -209 608zM553 1749v143q115 29 215 97q117 80 117 159q0 33 -19 60q-6 10 -13 25.5 t-7 31.5q0 49 59.5 79t143.5 30q80 0 143 -27t94 -84q25 -47 25 -92q0 -150 -201 -266q-211 -125 -557 -156zM629 922q0 -147 79.5 -248t209.5 -101q137 0 212.5 97.5t75.5 251.5q0 127 -69 229q-82 121 -219 121q-131 0 -216 -121q-74 -104 -73 -229z" />
<glyph unicode="&#xd4;" horiz-adv-x="1818" d="M47 813q0 162 100 354q113 217 293 351q211 158 467 157q254 0 467 -157q182 -135 295 -349q103 -194 103 -356q0 -385 -213 -608q-227 -238 -652 -238q-428 0 -651 238q-209 221 -209 608zM537 1743l69 336q51 0 73.5 24.5t29.5 69.5h374q0 -45 23.5 -69.5t79.5 -24.5 l69 -336q-164 0 -268 115q-92 102 -92 233q0 -133 -90 -233q-102 -115 -268 -115zM618 922q0 -147 80 -248t209 -101q137 0 213 97.5t76 251.5q0 127 -70 229q-82 121 -219 121q-131 0 -215 -121q-74 -104 -74 -229z" />
<glyph unicode="&#xd5;" horiz-adv-x="1818" d="M47 813q0 162 100 354q113 217 293 351q211 158 467 157q254 0 467 -157q182 -135 295 -349q103 -194 103 -356q0 -385 -213 -608q-227 -238 -652 -238q-428 0 -651 238q-209 221 -209 608zM508 1753v311q84 106 115 136q88 84 174 84q55 0 178 -117t145 -117q45 0 92 33 q74 53 168 192v-311q-68 -92 -114 -135q-90 -84 -174 -84q-59 0 -175 113.5t-147 113.5q-59 0 -100 -24q-80 -49 -162 -195zM618 922q0 -147 80 -248t209 -101q137 0 213 97.5t76 251.5q0 127 -70 229q-82 121 -219 121q-131 0 -215 -121q-74 -104 -74 -229z" />
<glyph unicode="&#xd6;" horiz-adv-x="1822" d="M53 813q0 162 101 354q113 217 292 351q211 158 467 157q254 0 467 -157q182 -135 295 -349q103 -194 103 -356q0 -385 -213 -608q-227 -238 -652 -238q-428 0 -651 238q-209 221 -209 608zM549 1886q0 59 43 102.5t102 43.5q61 0 104.5 -41.5t43.5 -104.5 q0 -59 -43 -102t-105 -43q-59 0 -102 43t-43 102zM625 922q0 -147 79.5 -248t208.5 -101q137 0 213 97.5t76 251.5q0 127 -69 229q-82 121 -220 121q-131 0 -215 -121q-74 -104 -73 -229zM979 1886q0 59 43 102.5t102 43.5q61 0 104.5 -41.5t43.5 -104.5q0 -59 -43 -102 t-105 -43q-59 0 -102 43t-43 102z" />
<glyph unicode="&#xd7;" horiz-adv-x="1007" d="M133 588q0 18 14 33l158 157l-158 158q-14 14 -14 33q0 16 9.5 32.5t27.5 34.5l76 78q25 23 30 27q16 12 35 12q20 0 37 -16l158 -158l160 160q12 12 30 12q16 0 35 -9t35 -28l78 -76l20 -20q18 -23 19 -45q-1 -21 -17 -37l-159 -158l157 -157q20 -20 21 -41 q0 -20 -17.5 -39t-23.5 -25l-76 -78q-35 -35 -72 -35q-18 0 -32 15l-158 157l-156 -155q-20 -20 -41 -21q-20 0 -38.5 17.5t-24.5 23.5l-78 76q-35 35 -35 72z" />
<glyph unicode="&#xd8;" horiz-adv-x="1880" d="M74 813q0 162 100 354q113 217 293 351q211 158 467 157q133 0 249.5 -42t219.5 -117l125 143h211l-217 -248q129 -133 202.5 -300t73.5 -298q0 -385 -213 -608q-227 -238 -651 -238q-172 0 -304 37t-239 109l-102 -117h-211l192 221q-98 109 -147 262.5t-49 333.5z M645 922q0 -147 80 -248t209 -101q137 0 213 97.5t76 251.5q0 127 -70 229q-82 121 -219 121q-131 0 -215 -121q-74 -104 -74 -229z" />
<glyph unicode="&#xd9;" horiz-adv-x="1597" d="M82 500v1069q0 41 20.5 61.5t77.5 20.5h420q66 0 89.5 -22.5t23.5 -69.5v-785q0 -74 49 -117q43 -37 92 -36q49 0 92 34q51 43 51 109q0 82 -83 150.5t-83 127.5v533q0 49 13.5 62.5t48.5 13.5h539q41 0 57 -14.5t16 -45.5v-1046q0 -240 -221 -402q-203 -147 -457 -147 q-328 0 -524 119q-221 133 -221 385zM373 2179q0 45 26.5 97.5t92 80t145.5 27.5q82 0 141.5 -30t59.5 -81q0 -29 -19.5 -56.5t-19.5 -62.5q0 -78 114 -157q98 -68 217 -96v-144q-342 31 -549.5 153t-207.5 269z" />
<glyph unicode="&#xda;" horiz-adv-x="1597" d="M82 500v1069q0 41 20.5 61.5t77.5 20.5h420q66 0 89.5 -22.5t23.5 -69.5v-785q0 -74 49 -117q43 -37 92 -36q49 0 92 34q51 43 51 109q0 82 -83 150.5t-83 127.5v533q0 49 13.5 62.5t48.5 13.5h539q41 0 57 -14.5t16 -45.5v-1046q0 -240 -221 -402q-203 -147 -457 -147 q-328 0 -524 119q-221 133 -221 385zM422 1745v143q115 29 215 97q117 80 117 159q0 33 -19 60q-6 10 -13 25.5t-7 31.5q0 49 59.5 79t143.5 30q80 0 143 -27t94 -84q25 -47 25 -92q0 -150 -201 -266q-211 -125 -557 -156z" />
<glyph unicode="&#xdb;" horiz-adv-x="1597" d="M82 500v1069q0 41 20.5 61.5t77.5 20.5h420q66 0 89.5 -22.5t23.5 -69.5v-785q0 -74 49 -117q43 -37 92 -36q49 0 92 34q51 43 51 109q0 82 -83 150.5t-83 127.5v533q0 49 13.5 62.5t48.5 13.5h539q41 0 57 -14.5t16 -45.5v-1046q0 -240 -221 -402q-203 -147 -457 -147 q-328 0 -524 119q-221 133 -221 385zM420 1743l69 336q51 0 74 24.5t29 69.5h375q0 -45 23.5 -69.5t78.5 -24.5l70 -336q-164 0 -269 115q-92 102 -92 233q0 -133 -90 -233q-102 -115 -268 -115z" />
<glyph unicode="&#xdc;" horiz-adv-x="1597" d="M82 500v1069q0 41 20.5 61.5t77.5 20.5h420q66 0 89.5 -22.5t23.5 -69.5v-785q0 -74 49 -117q43 -37 92 -36q49 0 92 34q51 43 51 109q0 82 -83 150.5t-83 127.5v533q0 49 13.5 62.5t48.5 13.5h539q41 0 57 -14.5t16 -45.5v-1046q0 -240 -221 -402q-203 -147 -457 -147 q-328 0 -524 119q-221 133 -221 385zM418 1882q0 59 43 102.5t102 43.5q61 0 104.5 -41.5t43.5 -104.5q0 -59 -43 -102t-105 -43q-59 0 -102 43t-43 102zM848 1882q0 59 43 102.5t102 43.5q61 0 104.5 -41.5t43.5 -104.5q0 -59 -43 -102t-105 -43q-59 0 -102 43t-43 102z " />
<glyph unicode="&#xdd;" horiz-adv-x="1591" d="M23 1597q0 53 81 54h576q45 0 61.5 -5.5t16.5 -68.5v-418q0 -61 46 -101t103 -40q55 0 94 35q47 43 48 123q0 63 -41 95t-107 32q-14 -2 -22 -3q-6 49 -7 91q0 145 84 223q76 70 207 69q66 0 137 -18q102 -27 179 -131q84 -114 84 -268q0 -268 -115 -543 q-131 -315 -365 -502q-276 -221 -651 -221h-105t-89 -2q-78 0 -92.5 14.5t-14.5 77.5v438q0 47 13.5 65.5t78.5 18.5h443q68 0 96 9q49 14 49 59q0 31 -31.5 47t-113.5 16l-181 2q-137 0 -233 88.5t-125 229.5l-100 510q-4 16 -4 24zM403 1745v143q115 29 215 97 q117 80 117 159q0 33 -18 60q-6 10 -13.5 25.5t-7.5 31.5q0 49 59.5 79t143.5 30q80 0 143.5 -27t94.5 -84q25 -47 24 -92q0 -150 -200 -266q-211 -125 -558 -156z" />
<glyph unicode="&#xde;" horiz-adv-x="1671" d="M82 96v1411q0 98 96 148.5t234 50.5q141 0 249.5 -49t108.5 -129l-2 -156q47 27 104 43q78 23 166 23q219 0 394 -162q192 -179 192 -445q0 -260 -211 -442q-170 -147 -313 -147h-48.5h-29.5q-125 0 -159 11t-34 64v326q0 100 89.5 139t89.5 136q0 55 -34 90.5t-91 35.5 q-70 0 -96.5 -38.5t-26.5 -171.5v-738q0 -47 -14.5 -71.5t-57.5 -24.5h-543q-33 0 -48 24.5t-15 71.5z" />
<glyph unicode="&#xdf;" horiz-adv-x="1671" d="M78 -209l4 1442q0 207 189.5 312.5t512.5 105.5q315 0 498 -123q147 -100 148 -260q0 -129 -35 -197q-18 -39 -88 -102q164 -80 241 -211q66 -109 66 -248q0 -115 -41 -214t-92 -138q-152 -121 -220.5 -139.5t-371.5 -18.5q-45 0 -59.5 7t-14.5 42v529q0 20 59.5 50.5 t59.5 100.5q0 59 -34 93t-83 34v188q55 0 94 37t39 93q0 55 -36.5 94t-92.5 39q-55 0 -92 -37t-37 -92v-1401q0 -23 -16.5 -41.5t-38.5 -18.5h-504q-29 0 -47 50q-2 8 -8 24z" />
<glyph unicode="&#xe0;" horiz-adv-x="1222" d="M41 258q0 123 32.5 197.5t129.5 146.5q12 10 309 115q111 39 162 102q16 18 24.5 40t8.5 38q0 35 -27 54.5t-66 19.5q-78 0 -77 -72q-39 -70 -84 -100.5t-97 -30.5q-76 0 -140 59.5t-64 108.5q0 115 142 192.5t329 77.5q215 0 356 -102q164 -119 164 -346v-705 q0 -31 -9.5 -42t-43.5 -11h-328q-35 0 -45 10t-10 45v410q0 35 -27 55.5t-64 20.5q-35 0 -57 -19.5t-22 -60.5q0 -66 59 -84.5t59 -128.5q0 -143 -92 -225q-82 -74 -205 -74q-127 0 -217 78q-100 86 -100 231zM215 1745q0 45 26.5 97t92 80t145.5 28q82 0 141.5 -30 t59.5 -81q0 -29 -19.5 -56.5t-19.5 -62.5q0 -78 115 -157q98 -68 217 -97v-143q-342 31 -550 152.5t-208 269.5z" />
<glyph unicode="&#xe1;" horiz-adv-x="1226" d="M45 258q0 123 33 197.5t129 146.5q12 10 309 115q111 39 162 102q16 18 24.5 40t8.5 38q0 35 -27 54.5t-66 19.5q-78 0 -77 -72q-39 -70 -84 -100.5t-97 -30.5q-76 0 -140 59.5t-64 108.5q0 115 142 192.5t329 77.5q215 0 356 -102q164 -119 164 -346v-705 q0 -31 -9.5 -42t-43.5 -11h-328q-35 0 -45 10t-10 45v410q0 35 -27 55.5t-63 20.5q-35 0 -57.5 -19.5t-22.5 -60.5q0 -66 59 -84.5t59 -128.5q0 -143 -92 -225q-82 -74 -205 -74q-127 0 -217 78q-100 86 -100 231zM285 1311v143q115 29 215 96q117 80 116 160q0 33 -18 59 q-6 10 -13 25.5t-7 32.5q0 49 59 78.5t143 29.5q80 0 143.5 -26.5t94.5 -83.5q25 -47 24 -92q0 -150 -200 -267q-211 -125 -557 -155z" />
<glyph unicode="&#xe2;" horiz-adv-x="1226" d="M37 258q0 123 32.5 197.5t129.5 146.5q12 10 309 115q111 39 162 102q16 18 24 40t8 38q0 35 -26.5 54.5t-65.5 19.5q-78 0 -78 -72q-39 -70 -84 -100.5t-96 -30.5q-76 0 -140.5 59.5t-64.5 108.5q0 115 142.5 192.5t328.5 77.5q215 0 357 -102q164 -119 164 -346v-705 q0 -31 -9.5 -42t-44.5 -11h-327q-35 0 -45.5 10t-10.5 45v410q0 35 -26.5 55.5t-63.5 20.5q-35 0 -57.5 -19.5t-22.5 -60.5q0 -66 59.5 -84.5t59.5 -128.5q0 -143 -92 -225q-82 -74 -205 -74q-127 0 -217 78q-100 86 -100 231zM254 1296l70 336q51 0 73.5 24.5t28.5 69.5 h375q0 -45 23.5 -69.5t78.5 -24.5l70 -336q-164 0 -268 115q-92 102 -93 234q0 -133 -90 -234q-102 -115 -268 -115z" />
<glyph unicode="&#xe3;" horiz-adv-x="1220" d="M41 258q0 123 32.5 197.5t129.5 146.5q12 10 309 115q111 39 162 102q16 18 24.5 40t8.5 38q0 35 -27 54.5t-66 19.5q-78 0 -77 -72q-39 -70 -84 -100.5t-97 -30.5q-76 0 -140 59.5t-64 108.5q0 115 142 192.5t329 77.5q215 0 356 -102q164 -119 164 -346v-705 q0 -31 -9.5 -42t-43.5 -11h-328q-35 0 -45 10t-10 45v410q0 35 -27 55.5t-64 20.5q-35 0 -57 -19.5t-22 -60.5q0 -66 59 -84.5t59 -128.5q0 -143 -92 -225q-82 -74 -205 -74q-127 0 -217 78q-100 86 -100 231zM209 1290v312q84 106 115 135q88 84 174 84q55 0 178 -117 t145 -117q45 0 92 33q74 53 168 192v-311q-68 -92 -114 -135q-90 -84 -174 -84q-59 0 -175 113.5t-147 113.5q-59 0 -100 -24q-80 -49 -162 -195z" />
<glyph unicode="&#xe4;" horiz-adv-x="1214" d="M33 258q0 123 32.5 197.5t129.5 146.5q12 10 309 115q111 39 162 102q16 18 24 40t8 38q0 35 -26.5 54.5t-65.5 19.5q-78 0 -78 -72q-39 -70 -84 -100.5t-96 -30.5q-76 0 -140.5 59.5t-64.5 108.5q0 115 142.5 192.5t328.5 77.5q215 0 357 -102q164 -119 164 -346v-705 q0 -31 -9.5 -42t-44.5 -11h-327q-35 0 -45.5 10t-10.5 45v410q0 35 -26.5 55.5t-63.5 20.5q-35 0 -57.5 -19.5t-22.5 -60.5q0 -66 59.5 -84.5t59.5 -128.5q0 -143 -92 -225q-82 -74 -205 -74q-127 0 -217 78q-100 86 -100 231zM256 1444q0 59 43 102t102 43q61 0 104.5 -41 t43.5 -104q0 -59 -43 -102.5t-105 -43.5q-59 0 -102 43t-43 103zM686 1444q0 59 43 102t102 43q61 0 104.5 -41t43.5 -104q0 -59 -43 -102.5t-105 -43.5q-59 0 -102 43t-43 103z" />
<glyph unicode="&#xe5;" horiz-adv-x="1208" d="M33 258q0 123 32.5 197.5t129.5 146.5q12 10 309 115q111 39 162 102q16 18 24 40t8 38q0 35 -26.5 54.5t-65.5 19.5q-78 0 -78 -72q-39 -70 -84 -100.5t-96 -30.5q-76 0 -140.5 59.5t-64.5 108.5q0 115 142.5 192.5t328.5 77.5q215 0 357 -102q164 -119 164 -346v-705 q0 -31 -9.5 -42t-44.5 -11h-327q-35 0 -45.5 10t-10.5 45v410q0 35 -26.5 55.5t-63.5 20.5q-35 0 -57.5 -19.5t-22.5 -60.5q0 -66 59.5 -84.5t59.5 -128.5q0 -143 -92 -225q-82 -74 -205 -74q-127 0 -217 78q-100 86 -100 231zM412 1452q0 78 55 133t133 55q80 0 136.5 -54 t56.5 -134t-56.5 -134t-136.5 -54q-78 0 -133 55t-55 133zM508 1454q0 -41 26.5 -69.5t65.5 -28.5t67.5 28.5t28.5 69.5t-26.5 65.5t-69.5 24.5q-39 0 -65.5 -24.5t-26.5 -65.5z" />
<glyph unicode="&#xe6;" horiz-adv-x="1744" d="M41 258q0 123 32.5 197.5t129.5 146.5q12 10 309 115q111 39 162 102q16 18 24.5 40t8.5 38q0 35 -27 54.5t-66 19.5q-78 0 -77 -72q-39 -70 -84 -100.5t-97 -30.5q-76 0 -140 59.5t-64 108.5q0 117 142 193.5t333 76.5q94 0 178 -21.5t153 -66.5q59 41 130 65.5 t151 24.5q94 0 166 -20q20 -6 121 -47q68 -29 115 -96.5t47 -131.5q0 -61 -46.5 -101t-144.5 -40q-27 0 -51.5 5t-63.5 24q0 25 -6 50.5t-22 41.5q-39 37 -86 37q-45 0 -81 -42t-36 -91q0 -45 30.5 -74t100.5 -29h297q35 0 44 -11t9 -44v-29q0 -57 -4 -65q-10 -20 -49 -21 h-354q-20 0 -33.5 -13t-13.5 -32q0 -18 13 -33.5t34 -15.5h401h39q25 0 34 -12t9 -53v-287q0 -49 -10 -63.5t-62 -14.5h-397h-27q-27 0 -36 8q-8 6 -17 25q-10 -25 -26.5 -29t-42.5 -4h-328q-35 0 -45 10t-10 45v410q0 35 -27 55.5t-64 20.5q-35 0 -57 -19.5t-22 -60.5 q0 -66 59 -84.5t59 -128.5q0 -143 -92 -225q-82 -74 -205 -74q-127 0 -217 78q-100 86 -100 231z" />
<glyph unicode="&#xe7;" horiz-adv-x="1118" d="M35 612q0 221 155 398q84 94 207 148t246 54q121 0 216 -49t147 -151q18 -35 29.5 -79t11.5 -75q0 -80 -49.5 -129t-116.5 -49q-68 0 -117 53q-23 25 -32 54.5t-9 80.5q-29 70 -94 70q-74 0 -142.5 -77t-68.5 -165q0 -25 6 -47q31 -100 80 -149q63 -63 172 -64h323 q51 0 62.5 -16.5t11.5 -69.5v-293q0 -39 -15.5 -48t-58.5 -9h-278v-86q61 -12 131 -34.5t111 -72.5q72 -88 71 -196q0 -115 -78 -201q-41 -45 -103 -72.5t-124 -27.5q-59 0 -106.5 23.5t-73.5 74.5q-14 29 -14 57q0 43 31.5 73t70.5 30q18 0 38.5 -11.5t32 -32t11.5 -40.5 q0 -25 -8 -33q45 -4 89 26.5t44 82.5q0 23 -4 32q-14 49 -39 74q-33 33 -86 33h-162q-23 0 -27 2q-10 6 -10 41v270q-90 16 -164 58q-92 51 -172 149q-145 176 -145 393z" />
<glyph unicode="&#xe8;" horiz-adv-x="1085" d="M51 629q0 242 129 401q147 182 406 182q94 0 166 -20q20 -6 120 -47q68 -29 115 -96.5t47 -130.5q0 -61 -46 -101.5t-144 -40.5q-27 0 -51.5 5t-63.5 24q0 25 -6 50.5t-23 41.5q-39 37 -86 37q-45 0 -80.5 -42t-35.5 -91q0 -45 30.5 -74t100.5 -29h297q35 0 44 -11t9 -44 v-29q0 -57 -4 -65q-10 -20 -49 -21h-355q-20 0 -33.5 -13t-13.5 -32q0 -18 13.5 -33.5t33.5 -15.5h402h39q25 0 34 -12t9 -53v-291q0 -49 -10.5 -63.5t-61.5 -14.5h-397q-246 0 -398 199q-137 180 -137 430zM156 1741q0 45 26.5 97t92 80t145.5 28q82 0 141.5 -30t59.5 -81 q0 -29 -19.5 -56.5t-19.5 -62.5q0 -78 114 -157q98 -68 217 -97v-143q-342 31 -549.5 152.5t-207.5 269.5z" />
<glyph unicode="&#xe9;" horiz-adv-x="1097" d="M47 629q0 242 129 401q147 182 406 182q94 0 166 -20q20 -6 120 -47q68 -29 115 -96.5t47 -130.5q0 -61 -46 -101.5t-144 -40.5q-27 0 -51.5 5t-63.5 24q0 25 -6 50.5t-23 41.5q-39 37 -86 37q-45 0 -80.5 -42t-35.5 -91q0 -45 30.5 -74t100.5 -29h297q35 0 44 -11t9 -44 v-29q0 -57 -4 -65q-10 -20 -49 -21h-355q-20 0 -33.5 -13t-13.5 -32q0 -18 13.5 -33.5t33.5 -15.5h402h39q25 0 34 -12t9 -53v-291q0 -49 -10.5 -63.5t-61.5 -14.5h-397q-246 0 -398 199q-137 180 -137 430zM270 1311v143q115 29 215 96q117 80 117 160q0 33 -18 59 q-6 10 -13.5 25.5t-7.5 32.5q0 49 59.5 78.5t143.5 29.5q80 0 143.5 -26.5t94.5 -83.5q25 -47 24 -92q0 -150 -201 -267q-211 -125 -557 -155z" />
<glyph unicode="&#xea;" horiz-adv-x="1089" d="M51 629q0 242 129 401q147 182 406 182q94 0 166 -20q20 -6 120 -47q68 -29 115 -96.5t47 -130.5q0 -61 -46 -101.5t-144 -40.5q-27 0 -51.5 5t-63.5 24q0 25 -6 50.5t-23 41.5q-39 37 -86 37q-45 0 -80.5 -42t-35.5 -91q0 -45 30.5 -74t100.5 -29h297q35 0 44 -11t9 -44 v-29q0 -57 -4 -65q-10 -20 -49 -21h-355q-20 0 -33.5 -13t-13.5 -32q0 -18 13.5 -33.5t33.5 -15.5h402h39q25 0 34 -12t9 -53v-291q0 -49 -10.5 -63.5t-61.5 -14.5h-397q-246 0 -398 199q-137 180 -137 430zM240 1305l69 335q51 0 74 25t29 70h374q0 -45 24 -70t79 -25 l69 -335q-164 0 -268 114q-92 102 -92 234q0 -133 -90 -234q-102 -115 -268 -114z" />
<glyph unicode="&#xeb;" horiz-adv-x="1085" d="M51 629q0 242 129 401q147 182 406 182q94 0 166 -20q20 -6 120 -47q68 -29 115 -96.5t47 -130.5q0 -61 -46 -101.5t-144 -40.5q-27 0 -51.5 5t-63.5 24q0 25 -6 50.5t-23 41.5q-39 37 -86 37q-45 0 -80.5 -42t-35.5 -91q0 -45 30.5 -74t100.5 -29h297q35 0 44 -11t9 -44 v-29q0 -57 -4 -65q-10 -20 -49 -21h-355q-20 0 -33.5 -13t-13.5 -32q0 -18 13.5 -33.5t33.5 -15.5h402h39q25 0 34 -12t9 -53v-291q0 -49 -10.5 -63.5t-61.5 -14.5h-397q-246 0 -398 199q-137 180 -137 430zM213 1444q0 59 43 102t102 43q61 0 104.5 -41t43.5 -104 q0 -59 -43 -102.5t-105 -43.5q-59 0 -102 43t-43 103zM643 1444q0 59 43 102t102 43q61 0 104.5 -41t43.5 -104q0 -59 -43 -102.5t-105 -43.5q-59 0 -102 43t-43 103z" />
<glyph unicode="&#xec;" horiz-adv-x="583" d="M-111 1794q0 45 27 97.5t92.5 80t145.5 27.5q82 0 141 -30t59 -81q0 -29 -19.5 -56.5t-19.5 -62.5q0 -78 115 -157q98 -68 217 -96v-144q-342 31 -550 153t-208 269zM80 61v1213q27 -41 47 -62q68 -63 164 -63q94 0 162 61q23 20 49 64v-1213q0 -61 -49 -61h-318 q-23 0 -39 18.5t-16 42.5z" />
<glyph unicode="&#xed;" horiz-adv-x="583" d="M-4 1360v143q115 29 215 96q117 80 117 160q0 33 -19 60q-6 10 -13 25.5t-7 31.5q0 49 59.5 79t143.5 30q80 0 143 -27t94 -84q25 -47 25 -92q0 -150 -201 -266q-211 -125 -557 -156zM80 61v1213q27 -41 47 -62q68 -63 164 -63q94 0 162 61q23 20 49 64v-1213 q0 -61 -49 -61h-318q-23 0 -39 18.5t-16 42.5z" />
<glyph unicode="&#xee;" horiz-adv-x="583" d="M-63 1337l69 336q51 0 73.5 24.5t29.5 69.5h374q0 -45 23.5 -69.5t79.5 -24.5l69 -336q-164 0 -268 115q-92 102 -92 234q0 -133 -90 -234q-102 -115 -268 -115zM80 61v1213q27 -41 47 -62q68 -63 164 -63q94 0 162 61q23 20 49 64v-1213q0 -61 -49 -61h-318 q-23 0 -39 18.5t-16 42.5z" />
<glyph unicode="&#xef;" horiz-adv-x="583" d="M-70 1497q0 59 43 102t103 43q61 0 104 -41t43 -104q0 -59 -43 -102t-104 -43q-59 0 -102.5 43t-43.5 102zM80 61v1213q27 -41 47 -62q68 -63 164 -63q94 0 162 61q23 20 49 64v-1213q0 -61 -49 -61h-318q-23 0 -39 18.5t-16 42.5zM360 1497q0 59 43 102t103 43 q61 0 104 -41t43 -104q0 -59 -43 -102t-104 -43q-59 0 -102.5 43t-43.5 102z" />
<glyph unicode="&#xf0;" horiz-adv-x="1540" d="M41 502q0 301 139 452q125 135 344 136q178 0 273 -125q72 -94 71 -203q0 -18 -4 -35q-10 -29 -48 -60.5t-48 -21.5q-18 16 -31 23q-39 23 -75 22q-63 -6 -100.5 -43t-37.5 -84q0 -45 35 -79.5t107 -47.5q33 -4 45 -4q129 0 226 105.5t97 244.5q0 66 -22.5 128.5 t-73.5 123.5l-150 178l-174 -63q-10 -4 -24 -4q-25 0 -36 15.5t-26 51.5l-36 103q-8 25 -9 43q0 47 35 59l74 27l-57 67q-12 16 -13 35q0 20 17 33l221 184q18 18 37 19q14 0 28 -17l158 -178l221 80q27 10 49.5 -10.5t32.5 -52.5l37 -103q14 -43 14 -55q0 -33 -34 -47 l-123 -45q137 -172 209 -320q81 -168 81 -313q0 -387 -288 -588q-229 -160 -535 -160q-272 0 -436 138q-170 143 -170 391z" />
<glyph unicode="&#xf1;" d="M80 63v1065q0 43 43 62.5t115 19.5q78 0 150.5 -23.5t98.5 -60.5q68 43 143 65.5t146 22.5q160 0 258 -100q109 -111 109 -305v-746v-26q0 -37 -47 -37h-416q-29 0 -36 14.5t-7 46.5v523q59 18 88 34q90 53 90 144q0 76 -51 119t-121 43q-63 0 -109.5 -40t-46.5 -114 v-707q0 -43 -6 -51q-10 -12 -53 -12h-295q-37 0 -45 10t-8 53zM186 1343v312q84 106 115 135q88 84 174 84q55 0 178 -117t146 -117q45 0 92 33q74 53 168 193v-312q-68 -92 -115 -135q-90 -84 -174 -84q-59 0 -175 114t-146 114q-59 0 -101 -25q-80 -49 -162 -195z" />
<glyph unicode="&#xf2;" horiz-adv-x="1304" d="M31 565q0 250 193.5 448.5t422.5 198.5q213 0 410 -196q205 -205 205 -451q0 -279 -181 -436q-166 -145 -434 -145t-436 145q-180 156 -180 436zM260 1753q0 45 26.5 97.5t92 80t145.5 27.5q82 0 141.5 -30t59.5 -81q0 -29 -19.5 -56.5t-19.5 -61.5q0 -78 115 -158 q98 -68 217 -96v-144q-342 31 -550 153t-208 269zM393 639q0 -100 78 -161.5t176 -61.5t172 57q82 66 82 166q0 88 -74 180q-84 104 -180 105q-98 0 -180 -103q-74 -92 -74 -182z" />
<glyph unicode="&#xf3;" horiz-adv-x="1306" d="M35 565q0 250 193.5 448.5t422.5 198.5q213 0 410 -196q205 -205 205 -451q0 -279 -181 -436q-166 -145 -434 -145t-436 145q-180 156 -180 436zM362 1319v143q115 29 216 97q117 80 116 159q0 33 -18 60q-6 10 -13.5 25.5t-7.5 31.5q0 49 59.5 79t143.5 30 q80 0 143.5 -27t94.5 -84q25 -47 24 -92q0 -150 -200 -266q-211 -125 -558 -156zM397 639q0 -100 78 -161.5t176 -61.5t172 57q82 66 82 166q0 88 -74 180q-84 104 -180 105q-98 0 -180 -103q-74 -92 -74 -182z" />
<glyph unicode="&#xf4;" horiz-adv-x="1306" d="M35 565q0 250 193.5 448.5t422.5 198.5q213 0 410 -196q205 -205 205 -451q0 -279 -181 -436q-166 -145 -434 -145t-436 145q-180 156 -180 436zM291 1337l69 336q51 0 74 24.5t29 69.5h375q0 -45 23.5 -69.5t78.5 -24.5l70 -336q-164 0 -269 115q-92 102 -92 234 q0 -133 -90 -234q-102 -115 -268 -115zM397 639q0 -100 78 -161.5t176 -61.5t172 57q82 66 82 166q0 88 -74 180q-84 104 -180 105q-98 0 -180 -103q-74 -92 -74 -182z" />
<glyph unicode="&#xf5;" horiz-adv-x="1312" d="M35 565q0 250 193.5 448.5t422.5 198.5q213 0 410 -196q205 -205 205 -451q0 -279 -181 -436q-166 -145 -434 -145t-436 145q-180 156 -180 436zM279 1339v312q84 106 114 135q88 84 174 84q55 0 178 -117t146 -117q45 0 92 33q74 53 168 193v-312q-68 -92 -115 -135 q-90 -84 -174 -84q-59 0 -175 114t-146 114q-59 0 -101 -25q-80 -49 -161 -195zM397 639q0 -100 78 -161.5t176 -61.5t172 57q82 66 82 166q0 88 -74 180q-84 104 -180 105q-98 0 -180 -103q-74 -92 -74 -182z" />
<glyph unicode="&#xf6;" horiz-adv-x="1306" d="M35 565q0 250 193.5 448.5t422.5 198.5q213 0 410 -196q205 -205 205 -451q0 -279 -181 -436q-166 -145 -434 -145t-436 145q-180 156 -180 436zM285 1477q0 59 43 102t102 43q61 0 104.5 -41t43.5 -104q0 -59 -43 -102.5t-105 -43.5q-59 0 -102 43t-43 103zM397 639 q0 -100 78 -161.5t176 -61.5t172 57q82 66 82 166q0 88 -74 180q-84 104 -180 105q-98 0 -180 -103q-74 -92 -74 -182zM715 1477q0 59 43 102t102 43q61 0 104.5 -41t43.5 -104q0 -59 -43 -102.5t-105 -43.5q-59 0 -102 43t-43 103z" />
<glyph unicode="&#xf7;" horiz-adv-x="1007" d="M84 772v59q0 31 15.5 60t43.5 29h731q29 0 42.5 -27t13.5 -62v-59q0 -41 -6 -57q-12 -31 -50 -31h-731q-39 0 -49 22.5t-10 65.5zM342 1178q0 59 43 102t102 43q61 0 104.5 -41t43.5 -104q0 -59 -43 -102.5t-105 -43.5q-59 0 -102 43t-43 103zM350 430q0 59 43 102 t103 43q61 0 104 -43t43 -102q0 -61 -43 -104t-104 -43q-59 0 -102.5 43t-43.5 104z" />
<glyph unicode="&#xf8;" horiz-adv-x="1316" d="M37 -2l141 174q-66 74 -101.5 173t-35.5 220q0 250 193.5 448.5t422.5 198.5q66 0 137.5 -23.5t143.5 -68.5l66 82h210l-147 -186q94 -94 149.5 -210t55.5 -241q0 -279 -180 -436q-166 -145 -435 -145q-201 0 -352 86l-57 -72h-211zM403 639q0 -100 78 -161.5t176 -61.5 t172 57q82 66 82 166q0 88 -73 180q-84 104 -181 105q-98 0 -180 -103q-74 -92 -74 -182z" />
<glyph unicode="&#xf9;" d="M82 397v748q0 45 4 51q8 12 43 12h414q31 0 37 -8q8 -10 8 -55v-522q-76 -14 -109 -35q-70 -43 -69 -144q0 -74 49 -118.5t114 -44.5q68 0 116 46t48 136v682q0 45 6 53q8 10 54 10h295q39 0 47 -10q6 -8 6 -53v-1065q0 -41 -44 -64.5t-110 -23.5q-68 0 -138.5 23.5 t-115.5 64.5q-74 -43 -151.5 -65.5t-145.5 -22.5q-158 0 -258 106.5t-100 298.5zM238 1757q0 45 26.5 97.5t92 80t145.5 27.5q82 0 141 -29.5t59 -81.5q0 -29 -19 -56.5t-19 -61.5q0 -78 114 -158q98 -68 217 -96v-144q-342 31 -549.5 153t-207.5 269z" />
<glyph unicode="&#xfa;" d="M82 397v748q0 45 4 51q8 12 43 12h414q31 0 37 -8q8 -10 8 -55v-522q-76 -14 -109 -35q-70 -43 -69 -144q0 -74 49 -118.5t114 -44.5q68 0 116 46t48 136v682q0 45 6 53q8 10 54 10h295q39 0 47 -10q6 -8 6 -53v-1065q0 -41 -44 -64.5t-110 -23.5q-68 0 -138.5 23.5 t-115.5 64.5q-74 -43 -151.5 -65.5t-145.5 -22.5q-158 0 -258 106.5t-100 298.5zM287 1348v143q115 29 215 96q117 80 116 160q0 33 -18 59q-6 10 -13 25.5t-7 32.5q0 49 59 78.5t143 29.5q80 0 143.5 -26.5t94.5 -83.5q25 -47 24 -93q0 -150 -200 -266q-211 -125 -557 -155 z" />
<glyph unicode="&#xfb;" d="M82 397v748q0 45 4 51q8 12 43 12h414q31 0 37 -8q8 -10 8 -55v-522q-76 -14 -109 -35q-70 -43 -69 -144q0 -74 49 -118.5t114 -44.5q68 0 116 46t48 136v682q0 45 6 53q8 10 54 10h295q39 0 47 -10q6 -8 6 -53v-1065q0 -41 -44 -64.5t-110 -23.5q-68 0 -138.5 23.5 t-115.5 64.5q-74 -43 -151.5 -65.5t-145.5 -22.5q-158 0 -258 106.5t-100 298.5zM268 1341l70 336q51 0 73.5 24.5t28.5 70.5h375q0 -45 23.5 -70t79.5 -25l69 -336q-164 0 -268 115q-92 102 -92 234q0 -133 -90 -234q-102 -115 -269 -115z" />
<glyph unicode="&#xfc;" d="M82 397v748q0 45 4 51q8 12 43 12h414q31 0 37 -8q8 -10 8 -55v-522q-76 -14 -109 -35q-70 -43 -69 -144q0 -74 49 -118.5t114 -44.5q68 0 116 46t48 136v682q0 45 6 53q8 10 54 10h295q39 0 47 -10q6 -8 6 -53v-1065q0 -41 -44 -64.5t-110 -23.5q-68 0 -138.5 23.5 t-115.5 64.5q-74 -43 -151.5 -65.5t-145.5 -22.5q-158 0 -258 106.5t-100 298.5zM291 1473q0 59 43 102t102 43q61 0 104.5 -41t43.5 -104q0 -59 -43 -102.5t-105 -43.5q-59 0 -102 43t-43 103zM721 1473q0 59 43 102t102 43q61 0 104.5 -41t43.5 -104q0 -59 -43 -102.5 t-105 -43.5q-59 0 -102 43t-43 103z" />
<glyph unicode="&#xfd;" horiz-adv-x="1298" d="M80 420v770q0 23 26 22h515q25 0 24 -22v-442q-59 0 -106 -29q-61 -37 -62 -105q0 -70 40 -117.5t116 -47.5q55 0 98 47t43 116v578q0 16 8 20q2 0 11 2h387q20 0 24 -4q2 -2 2 -18v-1278q0 -145 -78 -229q-88 -94 -264 -95h-573q-43 0 -47 13q-4 12 -4 41v170q0 41 6 47 t45 6h340q63 0 92 8q49 14 49 57q0 45 -36 57.5t-132 12.5h-69q-279 0 -390 174q-66 102 -65 246zM324 1311v143q115 29 215 96q117 80 116 160q0 33 -18 59q-6 10 -13.5 25.5t-7.5 32.5q0 49 59.5 78.5t143.5 29.5q80 0 143.5 -26.5t94.5 -83.5q25 -47 24 -92 q0 -150 -200 -267q-211 -125 -557 -155z" />
<glyph unicode="&#xfe;" horiz-adv-x="1302" d="M80 -365v1907q0 61 61.5 93t149.5 32q100 0 178 -35t78 -92v-397q27 20 82 41q70 27 116 26q207 0 354.5 -191t147.5 -431t-112 -404q-127 -184 -342 -184h-56q-86 0 -106.5 9t-20.5 48v338q0 49 16.5 62.5t82.5 13.5q80 0 122.5 73.5t42.5 172.5q0 92 -57 163.5 t-137 71.5q-59 0 -97 -21.5t-38 -78.5v-1223q0 -14 -2 -20q-12 -23 -51 -23h-367q-25 0 -37 25q-4 8 -8 24z" />
<glyph unicode="&#xff;" horiz-adv-x="1298" d="M80 420v770q0 23 26 22h515q25 0 24 -22v-442q-59 0 -106 -29q-61 -37 -62 -105q0 -70 40 -117.5t116 -47.5q55 0 98 47t43 116v578q0 16 8 20q2 0 11 2h387q20 0 24 -4q2 -2 2 -18v-1278q0 -145 -78 -229q-88 -94 -264 -95h-573q-43 0 -47 13q-4 12 -4 41v170q0 41 6 47 t45 6h340q63 0 92 8q49 14 49 57q0 45 -36 57.5t-132 12.5h-69q-279 0 -390 174q-66 102 -65 246zM348 1485q0 59 43 102t103 43q61 0 104 -41t43 -104q0 -59 -43 -102.5t-104 -43.5q-59 0 -102.5 43t-43.5 103zM778 1485q0 59 43 102t103 43q61 0 104 -41t43 -104 q0 -59 -43 -102.5t-104 -43.5q-59 0 -102.5 43t-43.5 103z" />
<glyph unicode="&#x152;" horiz-adv-x="2672" d="M53 817q0 162 101 354q113 217 292 351q211 158 467 157q111 0 208.5 -27.5t185.5 -80.5q18 45 102 70.5t190 25.5q125 0 217.5 -30.5t98.5 -86.5q47 59 130 90t181 31q162 0 273 -80q124 -90 124 -252q0 -176 -90 -249q-70 -57 -192 -58h-125q-74 0 -95.5 9.5 t-21.5 45.5q0 43 21 52q47 20 47 112q0 57 -37 92t-84 35t-80 -37.5t-33 -113.5v-207q0 -70 37 -86t152 -16h387v-140q0 -47 -21.5 -68.5t-74.5 -21.5h-488q0 -66 42 -91.5t138 -25.5h514v-571h-1316v37q-168 -66 -390 -66q-428 0 -651 238q-209 221 -209 608zM625 926 q0 -147 79.5 -247.5t208.5 -100.5q137 0 213 97t76 251q0 127 -69 229q-82 121 -220 121q-131 0 -215 -121q-74 -104 -73 -229z" />
<glyph unicode="&#x153;" horiz-adv-x="1845" d="M45 565q0 250 193.5 448.5t423.5 198.5q80 0 168 -34.5t165 -94.5q72 61 148 93q88 37 188 36q94 0 166 -20q20 -6 121 -47q68 -29 115 -96.5t47 -130.5q0 -61 -46 -101.5t-145 -40.5q-27 0 -51.5 5t-62.5 24q0 25 -6.5 50.5t-22.5 41.5q-39 37 -86 37q-45 0 -81 -42 t-36 -91q0 -45 31 -74t100 -29h297q35 0 44 -11t9 -44v-29q0 -57 -4 -65q-10 -20 -49 -21h-354q-35 0 -43 -28l-2 -21q0 -45 45 -45h401h39q25 0 34 -12t9 -53v-291q0 -49 -10 -63.5t-61 -14.5h-398q-86 0 -156.5 22.5t-132.5 65.5q-158 -104 -380 -104q-268 0 -437 145 q-180 156 -180 436zM408 639q0 -100 77.5 -161.5t176.5 -61.5q98 0 172 57q81 66 81 166q0 88 -73 180q-84 104 -180 105q-98 0 -181 -103q-74 -92 -73 -182z" />
<glyph unicode="&#x178;" horiz-adv-x="1595" d="M20 1597q0 53 82 54h576q45 0 61.5 -5.5t16.5 -68.5v-418q0 -61 46 -101t103 -40q55 0 94 35q47 43 48 123q0 63 -41 95t-107 32q-14 -2 -22 -3q-6 49 -7 91q0 145 84 223q76 70 207 69q66 0 137 -18q102 -27 179 -131q84 -114 84 -268q0 -268 -115 -543 q-131 -315 -365 -502q-276 -221 -651 -221h-105.5t-88.5 -2q-78 0 -92.5 14.5t-14.5 77.5v438q0 47 13.5 65.5t78.5 18.5h443q68 0 96 9q49 14 49 59q0 31 -32 47t-113 16l-181 2q-137 0 -233 88.5t-125 229.5l-100 510q-4 16 -5 24zM463 1894q0 59 43 102.5t102 43.5 q61 0 104.5 -41.5t43.5 -104.5q0 -59 -43 -102t-105 -43q-59 0 -102 43t-43 102zM893 1894q0 59 43 102.5t102 43.5q61 0 104.5 -41.5t43.5 -104.5q0 -59 -43 -102t-105 -43q-59 0 -102 43t-43 102z" />
<glyph unicode="&#x2c6;" horiz-adv-x="1486" d="M362 1743l70 336q51 0 73.5 24.5t29.5 69.5h374q0 -45 23.5 -69.5t79.5 -24.5l69 -336q-164 0 -268 115q-92 102 -92 233q0 -133 -90 -233q-102 -115 -269 -115z" />
<glyph unicode="&#x2dc;" horiz-adv-x="1486" d="M301 1753v311q84 106 115 136q88 84 174 84q55 0 178 -117t145 -117q45 0 93 33q74 53 168 192v-311q-68 -92 -115 -135q-90 -84 -174 -84q-59 0 -175 113.5t-147 113.5q-59 0 -100 -24q-80 -49 -162 -195z" />
<glyph unicode="&#x2000;" horiz-adv-x="1192" />
<glyph unicode="&#x2001;" horiz-adv-x="2384" />
<glyph unicode="&#x2002;" horiz-adv-x="1192" />
<glyph unicode="&#x2003;" horiz-adv-x="2384" />
<glyph unicode="&#x2004;" horiz-adv-x="794" />
<glyph unicode="&#x2005;" horiz-adv-x="596" />
<glyph unicode="&#x2006;" horiz-adv-x="397" />
<glyph unicode="&#x2007;" horiz-adv-x="397" />
<glyph unicode="&#x2008;" horiz-adv-x="298" />
<glyph unicode="&#x2009;" horiz-adv-x="476" />
<glyph unicode="&#x200a;" horiz-adv-x="132" />
<glyph unicode="&#x2010;" horiz-adv-x="1294" d="M82 811v143q0 47 20.5 83t59.5 36h975q37 0 54 -36t17 -83v-143q0 -59 -8 -80q-14 -39 -63 -39h-975q-51 0 -70 39q-10 23 -10 80z" />
<glyph unicode="&#x2011;" horiz-adv-x="1294" d="M82 811v143q0 47 20.5 83t59.5 36h975q37 0 54 -36t17 -83v-143q0 -59 -8 -80q-14 -39 -63 -39h-975q-51 0 -70 39q-10 23 -10 80z" />
<glyph unicode="&#x2012;" horiz-adv-x="1294" d="M82 811v143q0 47 20.5 83t59.5 36h975q37 0 54 -36t17 -83v-143q0 -59 -8 -80q-14 -39 -63 -39h-975q-51 0 -70 39q-10 23 -10 80z" />
<glyph unicode="&#x2013;" d="M82 811v143q0 47 20.5 83t59.5 36h917q37 0 54.5 -36t17.5 -83v-143q0 -59 -8 -80q-14 -39 -64 -39h-917q-51 0 -70 39q-10 23 -10 80z" />
<glyph unicode="&#x2014;" horiz-adv-x="1892" d="M90 631v143q0 47 20.5 83t59.5 36h1548q37 0 54.5 -36t17.5 -83v-143q0 -59 -8 -80q-14 -39 -64 -39h-1548q-51 0 -70 39q-10 23 -10 80z" />
<glyph unicode="&#x2018;" horiz-adv-x="450" d="M76 1026q0 115 68.5 187.5t154.5 72.5q29 0 48.5 -8t19.5 -18q0 -8 -22.5 -11.5t-36 -17.5t-23 -37t-2.5 -37q39 -14 61.5 -52t22.5 -79q0 -61 -42 -103t-104 -42q-59 0 -102 41t-43 104z" />
<glyph unicode="&#x2019;" horiz-adv-x="450" d="M80 893q0 6 22.5 8t38 19.5t23.5 38t0 36.5q-39 14 -61.5 52t-22.5 79q0 59 43 102.5t102 43.5t102.5 -43.5t43.5 -102.5q0 -113 -74 -190q-66 -70 -143 -70q-29 0 -51.5 8.5t-22.5 18.5z" />
<glyph unicode="&#x201a;" horiz-adv-x="352" d="M33 -98q0 6 22.5 8t38 19.5t23.5 38t0 36.5q-39 14 -61.5 52t-22.5 79q0 59 43 102.5t102 43.5t102.5 -43.5t43.5 -102.5q0 -119 -60.5 -189.5t-157.5 -70.5q-29 0 -51 8t-22 19z" />
<glyph unicode="&#x201c;" horiz-adv-x="776" d="M33 1026q0 119 60.5 189.5t156.5 70.5q31 0 52.5 -9t21.5 -17t-22.5 -11.5t-36 -17.5t-23 -37t-2.5 -37q39 -14 61.5 -52t22.5 -79q0 -61 -42 -103t-104 -42q-59 0 -102 41t-43 104zM455 1026q0 119 60 189.5t155 70.5q33 0 54 -8t21 -18q0 -8 -23.5 -11.5t-36.5 -19 t-22.5 -35.5t-0.5 -37q39 -14 61 -52t22 -79q0 -59 -43 -102t-102 -43q-61 0 -103 42t-42 103z" />
<glyph unicode="&#x201d;" horiz-adv-x="786" d="M43 893q0 6 22.5 8t38 19.5t23.5 38t0 36.5q-39 14 -61.5 52t-22.5 79q0 59 43 102.5t102 43.5t102.5 -43.5t43.5 -102.5q0 -119 -60.5 -189.5t-156.5 -70.5q-29 0 -51.5 8.5t-22.5 18.5zM463 893q0 6 23.5 9t38 19.5t22.5 37t0 36.5q-39 14 -61.5 52t-22.5 79 q0 59 43 102.5t102 43.5q61 0 104.5 -43.5t43.5 -102.5q0 -119 -60.5 -189.5t-156.5 -70.5q-31 0 -53.5 8.5t-22.5 18.5z" />
<glyph unicode="&#x201e;" horiz-adv-x="784" d="M39 -98q0 6 22.5 8t38 19.5t23.5 38t0 36.5q-39 14 -61.5 52t-22.5 79q0 59 43 102.5t102 43.5t102.5 -43.5t43.5 -102.5q0 -119 -60.5 -189.5t-156.5 -70.5q-29 0 -51.5 8t-22.5 19zM459 -98q0 6 23.5 9t38 19.5t22.5 37t0 36.5q-39 14 -61.5 52t-22.5 79q0 59 43 102.5 t102 43.5q61 0 104.5 -43.5t43.5 -102.5q0 -119 -60.5 -189.5t-156.5 -70.5q-31 0 -53.5 8t-22.5 19z" />
<glyph unicode="&#x2022;" horiz-adv-x="489" d="M66 758q0 74 53 127t127 53q76 0 130 -52t54 -128t-54 -130.5t-130 -54.5t-128 54.5t-52 130.5z" />
<glyph unicode="&#x2026;" horiz-adv-x="1269" d="M70 145q0 59 43 102.5t102 43.5q61 0 104 -41.5t43 -104.5q0 -59 -43 -102t-104 -43q-59 0 -102 43t-43 102zM479 145q0 59 43 102.5t103 43.5q61 0 104 -41.5t43 -104.5q0 -59 -43 -102t-104 -43q-59 0 -102.5 43t-43.5 102zM889 145q0 59 43 102.5t102 43.5 q61 0 104.5 -41.5t43.5 -104.5q0 -59 -43 -102t-105 -43q-59 0 -102 43t-43 102z" />
<glyph unicode="&#x202f;" horiz-adv-x="476" />
<glyph unicode="&#x2039;" horiz-adv-x="1007" d="M117 715q0 16 9 30.5t24 28.5l516 516q12 12 30 13q16 0 36 -10.5t36 -24.5l76 -78q23 -23 26 -29q12 -16 13 -35q0 -20 -17 -36l-372 -375l372 -375q16 -16 17 -37q0 -16 -11.5 -31.5t-27.5 -31.5l-76 -78q-20 -18 -36.5 -26.5t-35.5 -8.5q-18 0 -30 12l-516 516 q-18 18 -23 25q-10 16 -10 35z" />
<glyph unicode="&#x203a;" horiz-adv-x="913" d="M88 307q0 20 16 37l373 375l-373 375q-16 16 -16 36q0 16 11.5 32t27.5 32l76 78q20 18 36.5 26.5t34.5 8.5t31 -13l516 -516q18 -18 23 -24q10 -17 10 -35q0 -16 -9 -30.5t-24 -29.5l-516 -516q-12 -12 -31 -12q-16 0 -35.5 10.5t-35.5 24.5l-76 78q-23 23 -27 28 q-12 16 -12 35z" />
<glyph unicode="&#x205f;" horiz-adv-x="596" />
<glyph unicode="&#x2122;" horiz-adv-x="1955" d="M92 1090v421q0 41 47 41h523q35 0 34 -51v-100q0 -20 -2 -27q-6 -14 -26 -14h-219q-51 0 -52 -41v-215q0 -37 17.5 -56.5t42.5 -19.5q53 0 53 53q0 35 -39 49.5t-39 45.5q0 16 39 35.5t84 19.5q74 0 119 -47q57 -60 57 -183q0 -117 -103.5 -196.5t-219.5 -79.5 q-150 0 -233 99.5t-83 265.5zM772 756l49 483q2 12 -2 35.5t-4 25.5q0 106 71.5 180t184.5 74q117 0 189 -81q66 -74 65 -168q0 96 64 168q72 82 190 81q111 0 183.5 -74.5t72.5 -179.5q-4 -31 -6 -61l49 -483q0 -10 -2 -15q-6 -14 -23 -14h-313q-35 0 -35 33v368 q0 12 19.5 30t19.5 36q0 16 -8 29q-14 20 -43 20q-45 0 -45 -49v-440v-15q-4 -12 -31 -12h-184q-31 0 -31 27v440q0 47 -47 47q-18 0 -33.5 -13.5t-15.5 -33.5q0 -18 19.5 -35.5t19.5 -30.5v-368q0 -33 -35 -33h-311q-27 0 -27 29z" />
<glyph unicode="&#x25fc;" horiz-adv-x="1208" d="M0 0v1208h1208v-1208h-1208z" />
</font>
</defs>
</svg>
