<?xml version="1.0" standalone="no"?>
<!DOCTYPE svg PUBLIC "-//W3C//DTD SVG 1.1//EN" "http://www.w3.org/Graphics/SVG/1.1/DTD/svg11.dtd" >
<svg xmlns="http://www.w3.org/2000/svg" xmlns:xlink="http://www.w3.org/1999/xlink" version="1.1">
<metadata></metadata>
<defs>
<font id="firgoregular" horiz-adv-x="1441" >
<font-face units-per-em="2048" ascent="1638" descent="-410" />
<missing-glyph horiz-adv-x="1208" />
<glyph horiz-adv-x="0" />
<glyph horiz-adv-x="682" />
<glyph unicode=" "  horiz-adv-x="1208" />
<glyph unicode="&#x09;" horiz-adv-x="1208" />
<glyph unicode="&#xa0;" horiz-adv-x="1208" />
<glyph unicode="!" horiz-adv-x="874" d="M-2 344q4 68 57.5 115t126.5 47h318v-328q0 -37 -14.5 -68.5t-40 -56t-59.5 -38t-73 -13.5h-313zM0 1993q0 39 14.5 73.5t40 60t60.5 40t73 14.5h684q-68 0 -127 -21.5t-108 -60.5t-84 -91t-51 -114v-958q0 -78 -54.5 -132t-132.5 -54h-127q-37 -2 -71.5 -17.5t-60 -40 t-40 -58.5t-14.5 -71z" />
<glyph unicode="&#x22;" horiz-adv-x="1519" d="M-2 1759v344q6 68 57 115t125 47h318v-885q0 72 -26 136.5t-71 114.5t-104 84t-129 44h-170zM647 2103q6 68 59.5 115t124.5 47h318v-885q0 72 -25.5 136.5t-70.5 114.5t-104.5 84t-129.5 44h-170z" />
<glyph unicode="#" horiz-adv-x="1720" d="M2 416v358q0 61 45 104.5t123 43.5v499h-168v359q0 61 45 104t123 43v62q0 39 14.5 73.5t39 60t59 40t73.5 14.5h316v-250h166v103q0 61 44 104t103 43h735q-61 0 -117.5 -18.5t-103.5 -52t-82 -79t-55 -100.5h147l2 -356q0 -59 -45 -103.5t-123 -44.5l-2 -501h168 l2 -357q0 -59 -46 -102t-124 -45v-273q0 -61 -43 -104t-104 -43l-356 2v418h-166v-236q0 -39 -14.5 -72.5t-40 -58t-60.5 -39t-74 -14.5l-125 2q-39 0 -72.5 -16.5t-59 -42t-40 -60.5t-14.5 -71v606h-170zM672 922q82 4 118.5 32.5t47.5 71.5v397q-84 -8 -119 -35.5 t-45 -68.5h-2v-397z" />
<glyph unicode="$" horiz-adv-x="1705" d="M-4 918l2 1069q0 39 14.5 73.5t40 61t59 42t72.5 15.5h416q-47 20 -79 63.5t-32 102.5v317h328q37 0 70 -14t56.5 -38.5t37.5 -58.5t14 -73l-2 -299h701q-37 0 -71 -16.5t-59.5 -43t-41 -62.5t-15.5 -72v-125q0 -39 -14 -74t-40 -60.5t-59.5 -40t-72.5 -14.5h-694 q-47 -4 -80 -32.5t-43 -71.5v-146h999v-1274q0 -61 -43 -104t-104 -43h-363v-322q0 -74 -54 -125t-132 -51h-313l-2 346q4 53 36.5 93.5t83.5 58.5h-610l-2 350q0 61 43 104.5t104 43.5l725 2q47 4 80 33.5t43 72.5v686q0 -70 -23.5 -132t-64.5 -111.5t-96 -84t-121 -46.5 h-694z" />
<glyph unicode="&#x26;" horiz-adv-x="1705" d="M0 190v1801q0 39 14.5 73.5t40 60t60.5 40t73 14.5h1076q31 0 60.5 -11t56 -31.5t47 -46.5t30.5 -56l563 -1729q20 -66 63.5 -121t98.5 -96t119.5 -64.5t128.5 -23.5h-668q-31 0 -62.5 13.5t-63 49t-63.5 98t-65 161.5v-322h-1323q-39 0 -72.5 15.5t-59 41t-40 60.5 t-14.5 73zM332 1681l2 -88l143 -2q39 0 73 14.5t58.5 38t39 56.5t14.5 69v74h-146q-74 0 -126 -46t-58 -116zM500 606q2 -78 57 -131t133 -53h-2h320v229q0 39 -14.5 73t-40 59.5t-59.5 41t-73 15.5h-28q-61 16 -112.5 57t-90.5 96.5t-61.5 121t-26.5 130.5h-2v-639z M893 1257l311 3l-196 608v-436q0 -59 -32 -105.5t-83 -69.5z" />
<glyph unicode="'" horiz-adv-x="866" d="M-2 1675v342q6 70 58.5 116t125.5 46h316v-885q0 72 -26 136.5t-71 115.5t-104 85t-129 44h-170z" />
<glyph unicode="(" horiz-adv-x="880" d="M-2 2032q0 59 43 102t102 43l736 2q-72 0 -135.5 -24.5t-113.5 -67.5t-83 -102.5t-45 -126.5v-1541q12 -68 46 -125t84 -100t112.5 -67.5t134.5 -24.5l-732 -2q-61 0 -104 44t-43 103z" />
<glyph unicode=")" horiz-adv-x="880" d="M0 0q72 0 135.5 24.5t113.5 68.5t83 102.5t45 126.5v1540q-12 68 -46 126t-84 100t-113.5 66.5t-133.5 24.5h731q61 0 104.5 -43t43.5 -104l2 -1882q0 -61 -43 -104.5t-103 -43.5z" />
<glyph unicode="*" horiz-adv-x="794" d="M-68 1915h246l-78 78q-20 20 -20 47.5t20 48.5l33 33q20 20 20.5 48t-20.5 48l174 -172v108q0 29 20.5 48.5t49.5 19.5h45q29 0 48 19.5t19 48.5v-246l78 78q20 20 48 20t49 -20l32 -33q20 -18 48 -18t49 18l-175 -174h111q29 0 48.5 -19.5t19.5 -48.5v-45 q2 -29 20.5 -49t46.5 -20h-243l75 -78q20 -20 20.5 -48t-20.5 -48l-32 -31q-18 -23 -18.5 -50.5t20.5 -47.5l-174 174v-109q0 -29 -20.5 -49.5t-49.5 -20.5h-45q-29 0 -48.5 -19.5t-19.5 -47.5l-2 246l-76 -78q-20 -20 -47.5 -20.5t-50.5 20.5l-31 33q-20 20 -48.5 20 t-47.5 -20l172 174h-108q-29 0 -49.5 19.5t-20.5 47.5l2 47q-2 29 -21.5 48.5t-48.5 19.5z" />
<glyph unicode="+" horiz-adv-x="1509" d="M-2 1075l2 355h498l2 358q0 61 43 104t104 43h668q-63 0 -119.5 -24.5t-98.5 -66.5t-66.5 -99t-24.5 -121v-194h354q61 0 104 -43.5t43 -102.5v-358h-503l-5 -504l-313 2q-78 -4 -132 -57.5t-54 -130.5l-2 692h-353q-61 0 -104 43t-43 104z" />
<glyph unicode="," horiz-adv-x="503" d="M0 344q6 70 58.5 116t125.5 46h318v-885q0 72 -24.5 135.5t-68.5 113.5t-103.5 84t-127.5 46q-6 0 -6 2h-170z" />
<glyph unicode="-" d="M2 928v315q0 39 14.5 73t40 59.5t60.5 40t73 14.5h1252q-37 0 -71 -15.5t-58.5 -41t-40 -60.5t-17.5 -72l2 -127q0 -39 -14 -72.5t-39.5 -59.5t-60.5 -40t-74 -14h-1067z" />
<glyph unicode="." horiz-adv-x="501" d="M0 342q6 68 59.5 115t124.5 47h318l2 -328q0 -37 -14.5 -69.5t-40 -56t-59.5 -38t-73 -14.5l-315 2z" />
<glyph unicode="/" horiz-adv-x="2072" d="M2 2l1172 2032q18 31 44.5 56.5t58.5 46t65.5 31.5t64.5 11h668q-66 0 -135.5 -24.5t-136 -66.5t-124 -98.5t-94.5 -119.5l-997 -1725q-18 -31 -45 -56.5t-57.5 -45.5t-64.5 -31.5t-65 -11.5z" />
<glyph unicode="0" horiz-adv-x="1888" d="M-2 -188v2181q0 78 54 132t132 54l1702 2q-72 0 -135 -24.5t-113.5 -68.5t-84 -103.5t-46.5 -126.5v-5l-4 -1708q0 -61 -43 -104t-102 -43h-1172q-76 -2 -132 -55.5t-56 -130.5zM500 131q0 68 23.5 129.5t63.5 110.5t95 83.5t119 49.5h80q47 4 78.5 33.5t41.5 72.5v1444 q0 -72 -24.5 -135.5t-68.5 -113.5t-102 -83.5t-126 -44.5h-66q-88 -12 -114 -94v-985v-467z" />
<glyph unicode="1" horiz-adv-x="874" d="M0 -188v2181q0 39 14.5 73.5t40 60t59 40t72.5 14.5h691q-72 0 -134.5 -24.5t-112.5 -66.5t-84 -100.5t-46 -125.5v-1676q0 -39 -14.5 -73.5t-40 -60t-60.5 -40t-74 -14.5h-125q-76 -4 -131 -57.5t-55 -130.5z" />
<glyph unicode="2" horiz-adv-x="1822" d="M0 1065q0 39 14.5 74t40 60.5t60.5 39.5t73 14l822 -2v301q-6 47 -35 79t-72 42v2l-903 -2v361q0 59 44 102t103 43h1678q-66 0 -122 -24.5t-97 -65.5t-65.5 -98.5t-24.5 -120.5l-5 -887q0 -61 -43 -104t-102 -43h-678q-78 -2 -131 -56.5t-53 -132.5v-221l862 -2 q61 0 104 -43t43 -105v-274h-1341q-72 -10 -121 -61.5t-49 -122.5z" />
<glyph unicode="3" horiz-adv-x="1830" d="M0 276q0 61 44 104.5t103 43.5h865v219q0 78 -54.5 132t-132.5 56h-364q-61 16 -114.5 58.5t-91.5 100t-60.5 124t-24.5 133.5l840 2v299q-6 47 -35 80t-72 43l-903 -2l2 359q0 61 43 104t102 43h1678q-66 0 -122 -24.5t-97 -66.5t-65.5 -99.5t-24.5 -120.5l-3 -1717 q0 -61 -43 -104t-104 -43l-1214 -2q-63 -14 -107.5 -64.5t-42.5 -117.5z" />
<glyph unicode="4" horiz-adv-x="1820" d="M0 1415v617q0 61 44 104t103 43h353v-635q6 -47 34.5 -79.5t69.5 -43.5h400l2 611q0 59 43 103t102 44h670q-66 0 -122.5 -24.5t-98 -66.5t-66.5 -99.5t-25 -120.5l-2 -1723q0 -61 -43 -103t-104 -42h-170q-76 -2 -131 -57.5t-55 -132.5v1046q-14 63 -64.5 104t-116.5 44 h-532q-61 18 -113.5 59t-90.5 97.5t-61.5 122t-25.5 132.5z" />
<glyph unicode="5" horiz-adv-x="1892" d="M0 -184v456q0 61 43 104.5t104 43.5h861v424q-10 68 -61.5 112.5t-121.5 47.5h-534q-61 16 -113.5 58t-91.5 98.5t-61.5 123t-24.5 133.5v615q0 59 43 103t104 44h1745q-72 0 -140.5 -25.5t-121.5 -69.5t-85 -104.5t-32 -130.5v-24q0 -61 -43 -104.5t-104 -43.5l-754 -2 q-41 -8 -74.5 -35.5t-33.5 -78.5t26.5 -87t77.5 -53l715 2q39 0 74 -14t60.5 -40t39.5 -59.5t14 -72.5v-1090q0 -61 -43 -104t-102 -43h-1208q-66 -14 -112 -64.5t-46 -119.5z" />
<glyph unicode="6" horiz-adv-x="1505" d="M0 2032q0 61 45 104t105 43h669q-66 0 -122 -24.5t-98 -66.5t-66.5 -98.5t-24.5 -119.5v-436l809 2q39 0 73.5 -14.5t60.5 -40t40 -60.5t14 -74v-1245h-1325q-35 -4 -67.5 -19.5t-57 -40t-39 -57t-14.5 -69.5zM508 598q4 -74 58.5 -125t127.5 -51h310v407 q0 78 -56.5 132.5t-150.5 56.5q-57 16 -107.5 54t-88.5 90t-62.5 114.5t-30.5 126.5v-805z" />
<glyph unicode="7" horiz-adv-x="1648" d="M-4 2179l1548 2q59 0 87 -43t5 -104l-743 -2034h-315q-37 -2 -77 -16.5t-75 -40t-61.5 -58t-40.5 -71.5l680 1865h-635q-39 0 -73 14.5t-59.5 40t-40 60.5t-14.5 74v125q0 39 -15 72.5t-41 59t-59.5 40t-70.5 14.5z" />
<glyph unicode="8" horiz-adv-x="1875" d="M0 -190v1132q0 49 42 87t101 52h-143v953q0 31 15.5 56.5t41 46t60.5 31.5t73 11h1690q-72 0 -134.5 -24.5t-112.5 -67.5t-83.5 -100.5t-46.5 -124.5v-637q0 -49 -36.5 -87t-96.5 -53h139v-946q0 -59 -56 -99t-134 -40h-1141q-35 -4 -67.5 -19.5t-57 -42t-39 -59.5 t-14.5 -69zM498 606l2 -342l323 -2q39 0 73 14.5t59.5 38t40 56t14.5 69.5v328h-328q-72 0 -125 -47t-59 -115zM498 1696l2 -344h323q39 0 73 14t59.5 37.5t40 56.5t14.5 70v328h-328q-72 0 -125 -47.5t-59 -114.5z" />
<glyph unicode="9" horiz-adv-x="1822" d="M2 934v1245h1819q-66 0 -122.5 -24.5t-97 -65.5t-65.5 -98.5t-25 -120.5l-2 -1872h-321q-37 0 -71 -15.5t-59.5 -41t-41 -59.5t-15.5 -70l-2 936l-809 -3q-39 0 -73.5 14.5t-60 40t-40 60.5t-14.5 74zM504 1352q0 -78 57.5 -132.5t149.5 -56.5q59 -16 109 -55t89 -93 t62.5 -117.5t27.5 -127.5v827q-10 68 -62 115t-124 47h-309v-407z" />
<glyph unicode=":" horiz-adv-x="503" d="M0 348q6 68 59.5 115t124.5 47h318v-328q0 -37 -14.5 -69.5t-39 -56t-58.5 -38t-73 -14.5l-315 2zM0 1268q6 70 59.5 116t124.5 46h318v-328q0 -37 -14.5 -69t-39 -55.5t-58.5 -37.5t-73 -14h-315z" />
<glyph unicode=";" horiz-adv-x="497" d="M-2 346q6 68 59.5 115t124.5 47h318v-887q0 72 -24.5 135.5t-69 113.5t-103.5 84t-127 46q-2 0 -3 1t-3 1h-170zM-2 1268q6 68 59.5 115t124.5 47h318v-328q0 -37 -14.5 -70t-39 -56.5t-58.5 -37.5t-73 -14h-315z" />
<glyph unicode="&#x3c;" horiz-adv-x="995" d="M2 930l127 350q23 61 81 104t120 43h667q-63 0 -128.5 -24.5t-123 -66.5t-102.5 -98t-68 -120l-20 -49q-18 -51 -64.5 -91t-99.5 -50q53 -12 99.5 -51t64.5 -93l20 -47q23 -66 68 -122t102.5 -98t123 -66.5t128.5 -24.5h-667q-61 0 -119.5 43t-81.5 104z" />
<glyph unicode="=" d="M0 244q39 0 72.5 14t58.5 41t40 61.5t17 71.5l-2 127q0 39 14.5 73t40 59.5t60.5 39.5t74 14h1067v-313q0 -39 -14.5 -73.5t-40 -60.5t-60.5 -40t-74 -14h-1253zM0 928l2 313q0 39 14.5 74t40 60.5t59.5 40t72 14.5h1254q-37 0 -71 -15.5t-59.5 -41t-41 -60.5t-15.5 -72 v-127q0 -39 -14 -72.5t-39.5 -59.5t-59.5 -40t-73 -14h-1069z" />
<glyph unicode="&#x3e;" horiz-adv-x="997" d="M0 426q63 0 129 24.5t123 66.5t102 98.5t68 121.5l20 47q18 53 64.5 92t99.5 52q-53 10 -99 50t-65 91l-20 49q-23 63 -68 119.5t-102 98.5t-123 66.5t-129 24.5h668q61 0 119.5 -43t80.5 -104l129 -352l-129 -355q-23 -61 -81 -104t-119 -43h-668z" />
<glyph unicode="?" horiz-adv-x="1699" d="M2 2179l1509 2q39 0 74 -14.5t60.5 -40t40 -59t14.5 -72.5v-1071l-690 2q-66 12 -121 47t-96 84t-64.5 110.5t-23.5 130.5l-3 -618h-507v750l999 -3v148q-10 43 -43 71.5t-80 32.5h-694q-39 0 -74 14.5t-60.5 40t-40 60.5t-14.5 74l2 125q-4 76 -57 131t-131 55zM184 346 q6 68 59.5 115t125.5 47h317l2 -328q0 -37 -14.5 -69.5t-40 -56t-59 -38t-72.5 -14.5h-316z" />
<glyph unicode="@" horiz-adv-x="1888" d="M-2 -186v2179q0 39 14.5 73.5t40 60t60 40t73.5 14.5h1700q-72 0 -136 -25.5t-114.5 -69.5t-84 -104.5t-44.5 -128.5l-2 -1706q0 -59 -43 -102t-104 -43l-1172 -2q-37 -2 -71.5 -17.5t-60 -40t-41 -58.5t-15.5 -70zM502 131q0 68 23.5 130.5t66.5 111.5t104.5 82.5 t139.5 48.5v725q-2 27 -19.5 44t-44.5 17h-104v-135q0 -27 19.5 -45t49.5 -18q41 -12 69 -53.5t30 -88.5h-273q-47 0 -61 45v-864zM502 1432h448q35 0 54 -29v274h-5v377q0 -70 -23.5 -132t-65.5 -112.5t-99 -84t-125 -46.5h-65q-47 -8 -77 -36.5t-40 -69.5h-2v-141z" />
<glyph unicode="A" horiz-adv-x="2011" d="M-61 -186l706 2177q12 39 38 73.5t59.5 60t72.5 40t78 14.5h1118q-66 0 -122 -24.5t-97 -65.5t-65.5 -98.5t-24.5 -120.5v-1725q0 -59 -45 -102t-105 -43h-356v1079q-10 -66 -61.5 -110.5t-122.5 -44.5h-211l-242 -738q-12 -39 -37.5 -72.5t-59.5 -59t-73 -40t-78 -14.5 h-125q-39 0 -77.5 -15.5t-72.5 -41t-59.5 -59.5t-37.5 -70zM965 1430h231v585h-41z" />
<glyph unicode="B" horiz-adv-x="2131" d="M0 2l4 2034q16 59 67.5 100t116.5 41h1942q-72 0 -134.5 -24.5t-112.5 -67.5t-83 -101.5t-45 -125.5v-668q0 -72 -50 -125t-120 -61q72 -8 121 -61.5t49 -127.5v-625q0 -39 -15.5 -73.5t-41 -60t-60 -41t-73.5 -15.5h-1063q2 68 24.5 134.5t61.5 122.5t92 98t115 59h270 q39 0 72.5 15t59.5 41t40 59.5t14 72.5v399h-448q-63 14 -118.5 49t-95.5 84.5t-62.5 111t-22.5 128.5v-639v-8l-2 -727h-336q-70 -10 -118 -62.5t-48 -123.5v188zM500 1593l2 -166h563q78 0 131 51.5t53 125.5v151h-575q-70 -4 -119 -50t-55 -112z" />
<glyph unicode="C" horiz-adv-x="1705" d="M0 -186v2218q0 59 43 102t104 43h1549q-78 0 -131.5 -55.5t-55.5 -130.5v-127q0 -78 -54 -132.5t-132 -54.5h-696q-47 -6 -80 -34.5t-43 -71.5l-2 -946h2q4 -47 32.5 -80t71.5 -43h754q61 0 104 -43t43 -105v-354h-1345q-68 -10 -116 -62.5t-48 -123.5z" />
<glyph unicode="D" horiz-adv-x="2142" d="M0 1989q0 39 14.5 72.5t40 59t60.5 40t73 14.5h1954q-152 -2 -248 -94t-131 -234l-4 -1700q0 -61 -43 -104t-104 -43l-1444 2q-70 -10 -118 -62.5t-48 -123.5zM502 1688l2 -1555q0 68 22.5 128.5t61.5 109.5t92 83.5t117 49.5h340q47 6 77.5 34.5t40.5 69.5v940 q-4 49 -32.5 81t-73.5 42h-338q-66 14 -122 48t-97 84t-64.5 111.5t-23.5 131.5v-358h-2z" />
<glyph unicode="E" horiz-adv-x="1882" d="M0 -186v2179q0 39 14.5 72.5t39 59t58 40t72.5 14.5l1698 4q-72 0 -135.5 -24.5t-113.5 -68.5t-83.5 -102.5t-46.5 -125.5v-37q0 -61 -43 -104.5t-102 -43.5h-735q-47 -4 -80 -32.5t-43 -69.5v-289q12 61 63 101t117 40h467v-327q0 -74 -53.5 -125t-130.5 -51h-463v-297 q6 -47 34.5 -80t71.5 -43l758 -2q59 0 103 -43t44 -103l-2 -356h-1323q-78 -4 -132 -56.5t-54 -129.5z" />
<glyph unicode="F" horiz-adv-x="1884" d="M0 -186v2222q0 59 43 102t104 43h1735q-70 0 -132 -23.5t-111.5 -65.5t-84 -98.5t-47.5 -121.5v-45q0 -61 -43 -104.5t-104 -43.5h-735v-2q-47 -4 -80 -33.5t-43 -72.5h-2v-287q12 61 63 102t119 41h467v-327q0 -37 -14.5 -70t-40 -56.5t-59.5 -37.5t-72 -14l-463 2v-738 q0 -39 -14.5 -72.5t-40 -59t-60.5 -40t-74 -14.5h-125q-76 -2 -131 -55.5t-55 -130.5z" />
<glyph unicode="G" horiz-adv-x="1878" d="M-2 1993q0 39 14.5 72.5t40 59t60 40t73.5 14.5l1694 4q-72 0 -135.5 -24.5t-113.5 -68.5t-84 -102.5t-44 -125.5v-37q0 -61 -43 -104.5t-104 -43.5h-735q-92 -10 -119 -92v-964q16 -94 104 -115h547q-53 16 -88 61t-35 105v4q-12 68 -46 126t-84 102t-113.5 68.5 t-135.5 24.5l668 2q74 0 127 -47t59 -114l4 -688q0 -61 -43 -104.5t-104 -43.5l-1196 -2q-70 -10 -117 -61.5t-47 -122.5z" />
<glyph unicode="H" horiz-adv-x="1810" d="M-2 1993q0 78 54 132t132 54l695 2q-72 0 -135.5 -24.5t-113.5 -68.5t-84 -103.5t-44 -126.5q-2 -2 -2 -5v-575q10 66 61 109t121 43h319v604q0 61 43 104t105 43h668q-66 0 -122.5 -24.5t-97.5 -66.5t-65.5 -99.5t-24.5 -120.5l-4 -1723q0 -61 -43 -104t-102 -43l-357 2 v1059q-14 -59 -64 -98t-116 -39h-321v-738q0 -39 -14.5 -73.5t-40 -60t-59.5 -40t-73 -14.5l-127 2q-76 -4 -131 -57.5t-55 -130.5z" />
<glyph unicode="I" horiz-adv-x="1376" d="M0 -186v540q0 57 37 99.5t92 46.5v2q47 4 80 32.5t43 71.5v953q-6 47 -34 78.5t-68 41.5h-150v357q0 59 42 102t101 43l1233 2q-72 0 -134 -24.5t-112.5 -66.5t-84 -100.5t-46.5 -125.5v-39q0 -59 -39.5 -101.5t-99.5 -46.5q-84 -20 -104 -102v-950q4 -47 32.5 -80 t71.5 -43h144l-3 -359q0 -59 -43 -102t-104 -43h-682q-35 -4 -66.5 -20.5t-55 -41t-37 -56.5t-13.5 -68z" />
<glyph unicode="J" horiz-adv-x="1828" d="M0 150v688q6 68 59.5 114.5t124.5 46.5h668q-68 0 -130.5 -23.5t-111.5 -66.5t-85 -102t-50 -131v-4q0 -59 -36 -104.5t-89 -63.5h533v2q47 4 79.5 32.5t43.5 71.5v1424q0 59 43 102t104 43h670q-66 0 -122 -24.5t-98 -65.5t-67 -98.5t-25 -120.5l-2 -1725 q0 -59 -43 -102t-104 -43l-1215 2q-61 0 -104 43t-43 105z" />
<glyph unicode="K" horiz-adv-x="1878" d="M0 -186v2181q0 78 54.5 132t131.5 54h314v-751q66 0 151.5 6t163.5 35.5t132 92t54 175.5l3 297q0 61 43 104t104 43h729q-70 0 -131 -23.5t-111.5 -64.5t-84 -97t-48.5 -120v-301q0 -55 -43 -85t-101 -44t-116.5 -16t-89.5 -2h-655v-3h655q31 0 89.5 -2t116.5 -15 t102 -43t44 -85l-2 -1135q0 -59 -43 -103t-102 -44h-356l-3 1118q0 113 -54 176.5t-132 92t-164 34.5t-151 6v-1239q0 -39 -14.5 -73.5t-40 -60t-60.5 -40t-74 -14.5h-125q-76 -4 -131 -56.5t-55 -129.5z" />
<glyph unicode="L" horiz-adv-x="1884" d="M0 -184v2181q0 39 14.5 72.5t40 59t60.5 40t73 14.5l314 -2v-1556q6 -47 34.5 -79t71.5 -42l899 2v-359q0 -59 -43 -103t-104 -44h-1194q-70 -10 -119 -62q-47 -49 -47 -116v-6z" />
<glyph unicode="M" horiz-adv-x="2934" d="M0 -188l733 2232q23 59 77 99t114 40h669q-66 0 -130 -24.5t-119.5 -66.5t-98.5 -99.5t-63 -120.5l-617 -1870l-317 -4q-37 -2 -76 -17.5t-72.5 -40t-60.5 -58.5t-39 -70zM1047 924l360 1112q20 61 76.5 104t118.5 43h663h4h666q-66 0 -122 -24.5t-98 -66.5t-67 -99.5 t-25 -120.5l-2 -1722q0 -61 -43 -104.5t-104 -43.5l-356 2v2032q0 59 42 101t101 46q-63 -2 -125.5 -27.5t-117 -67.5t-96.5 -97.5t-62 -118.5l-263 -803q-10 -31 -30.5 -57.5t-47 -46t-56 -31.5t-60.5 -12z" />
<glyph unicode="N" horiz-adv-x="1878" d="M-2 2034q0 61 43 104t104 43h1731q-68 0 -130.5 -23.5t-111.5 -63.5t-82.5 -96t-48.5 -120l-2 -1731q0 -61 -43 -104t-104 -43l-355 2v1554q-6 47 -34.5 79t-69.5 42h-82q-66 12 -123 47t-99 84.5t-65.5 111.5t-23.5 132v-2054l-316 2q-37 0 -70.5 -15.5t-59 -41 t-41 -59.5t-15.5 -70z" />
<glyph unicode="O" horiz-adv-x="1884" d="M-2 -186v2181q0 78 54 132t132 54l1700 2q-72 0 -136.5 -25.5t-114.5 -69.5t-83.5 -104.5t-44.5 -128.5l-2 -1708q0 -61 -44 -104t-103 -43h-1170q-76 -2 -132 -55.5t-56 -130.5zM498 133q0 68 23.5 129.5t63.5 110.5t95 84t119 49h80q47 4 78.5 33.5t41.5 72.5v1067 h-381q-47 -6 -77.5 -34.5t-40.5 -69.5h-2v-975v-467z" />
<glyph unicode="P" horiz-adv-x="2129" d="M0 -186v2181q0 70 25.5 108.5t59.5 56t63.5 20.5t39.5 3l1944 -2q-72 0 -135.5 -24.5t-113.5 -68.5t-84 -103.5t-46 -126.5v-576q0 -39 -14.5 -73.5t-40 -60.5t-60 -41t-73.5 -15l-1053 2q2 68 22.5 134t57.5 123.5t89 99.5t114 60h270q39 0 72.5 2.5t59.5 12.5t40 30.5 t14 59.5v145h-561h2q-78 0 -128 -53t-52 -131v-483v-1094h-324q-76 -4 -132 -56.5t-56 -129.5z" />
<glyph unicode="Q" horiz-adv-x="1884" d="M2 147v1889q0 61 43 104t105 43h1175q39 0 73 -14.5t59.5 -40t39.5 -60t14 -73.5v-2181q0 78 -56 131t-132 57l-1171 -2q-61 0 -105.5 43t-44.5 104zM506 506h221q61 -16 112.5 -51t88.5 -83t58.5 -107.5t21.5 -125.5v484v6l2 1052l-402 -2q-41 -10 -68.5 -40.5 t-33.5 -77.5v-1055zM563 -670q78 0 131.5 56.5t57.5 132.5l-2 125q0 39 14 73.5t39.5 60t60.5 40t74 14.5h571l-2 -315q0 -78 -54 -132.5t-132 -54.5h-758z" />
<glyph unicode="R" horiz-adv-x="2117" d="M0 -188v2181q0 39 14.5 72.5t39 59t59 40t73.5 14.5l1934 2q-70 0 -132.5 -23.5t-112.5 -65.5t-84 -99.5t-46 -124.5v-588q0 -72 -45 -123t-111 -63h25q61 0 104 -43t43 -105v-799q0 -59 -43 -103t-104 -44h-354l-5 784q0 59 -20.5 111.5t-57 94.5t-87 68.5t-107.5 33.5 h-481q2 68 22.5 134t57 123.5t89 99.5t113.5 60h273q39 0 72.5 2t58 12.5t39 31t14.5 59.5v145h-559q-78 0 -128 -53t-52 -131l2 -1575h-316q-78 -4 -133 -57.5t-55 -130.5z" />
<glyph unicode="S" horiz-adv-x="1880" d="M0 -184v538q0 59 43 102.5t104 43.5l730 2q47 6 79.5 34.5t42.5 71.5v686q0 -70 -23.5 -131t-64.5 -111.5t-97 -84t-122 -47.5h-692v1069q0 39 15.5 73.5t41 60t59.5 40t72 14.5h1510q-37 0 -71 -15.5t-58.5 -41t-40 -60.5t-17.5 -71v-127q0 -39 -14 -74t-39.5 -59.5 t-59.5 -39t-73 -14.5l-694 -2q-47 -4 -80 -32.5t-43 -71.5v-146h999v-1276q0 -61 -43 -104t-104 -43h-1192q-70 -10 -119 -61.5t-49 -122.5z" />
<glyph unicode="T" horiz-adv-x="1884" d="M2 1675v359q0 61 44 104t104 43h1736q-70 0 -132 -23.5t-111.5 -65.5t-84 -98.5t-47.5 -121.5v-47q0 -59 -43 -102.5t-104 -43.5l-358 -2v-1491q0 -39 -14.5 -73.5t-40 -60t-59.5 -40t-73 -14.5l-127 2q-76 -4 -131 -57.5t-55 -130.5l-2 1742q-6 47 -34 80t-69 43z" />
<glyph unicode="U" horiz-adv-x="1826" d="M0 -184v2181q0 78 54.5 132t131.5 54l314 2l2 -1556q4 -49 33.5 -82t72.5 -43h99q63 -14 119.5 -48t96.5 -84t63.5 -111.5t23.5 -131.5v1905q0 61 43 104t102 43h670q-66 0 -122 -24.5t-98 -66.5t-67 -98.5t-25 -119.5l-2 -1725q0 -59 -43 -103t-104 -44h-1206 q-66 -12 -112 -63.5t-46 -120.5z" />
<glyph unicode="V" horiz-adv-x="1916" d="M-2 1993q0 39 14.5 72.5t40 59t60 40t73.5 14.5l314 2v-1841l549 1690q10 31 30.5 57.5t47 46.5t56 31.5t60.5 11.5h670q-66 0 -129.5 -24.5t-119.5 -66.5t-99 -98.5t-64 -119.5l-561 -1725q-10 -31 -30.5 -56.5t-47 -44.5t-56.5 -30.5t-61 -11.5h-561q-76 -4 -130 -57.5 t-54 -130.5z" />
<glyph unicode="W" horiz-adv-x="2871" d="M0 1993q0 39 14.5 72.5t40 59t60.5 40t73 14.5l314 2l2 -2146q88 39 157.5 111.5t98.5 162.5l262 803q20 61 77.5 104.5t119.5 43.5l354 -3l-361 -1112q-16 -51 -59 -90t-94 -51q61 4 120.5 29.5t111.5 67.5t92 96.5t61 115.5l276 838l287 883q10 31 30.5 57.5t47 47 t56.5 31.5t61 11h669q-66 0 -130 -24.5t-119.5 -66.5t-98.5 -99.5t-63 -120.5l-564 -1723q-20 -61 -76.5 -104t-117.5 -43h-284h-215h-189h-206h-261.5h-358.5q-76 -4 -131 -57.5t-55 -130.5z" />
<glyph unicode="X" horiz-adv-x="2019" d="M0 -186l598 1177l-530 1043q-18 35 -18 64q0 20 8 38q22 43 81 43l357 -2l473 -928h2q-23 61 -28 136q-1 17 -1 36q0 61 12 133q16 94 58.5 213t117.5 267q33 59 97.5 102t126.5 43h667q-63 0 -131.5 -24.5t-132 -65.5t-117 -98.5t-86.5 -120.5l-450 -883l426 -840 q20 -36 20 -66q0 -19 -8 -36q-22 -43 -84 -43l-356 -2l-252 494l-254 -496l-315 2q-39 0 -80 -15.5t-80 -41t-71 -59.5t-50 -70z" />
<glyph unicode="Y" horiz-adv-x="1820" d="M0 1194v836q0 61 44 104t112 45h348v-651q0 -39 14 -58.5t39 -28.5t58.5 -11.5t72.5 -2.5h313v605q0 61 44.5 104t103.5 43h670q-66 0 -122.5 -24.5t-98.5 -66.5t-66.5 -99.5t-24.5 -120.5l-2 -1723q0 -61 -43 -103t-104 -42h-357v1384q0 -72 -24.5 -134t-66.5 -112.5 t-100 -84t-126 -45.5l-496 -4q-39 0 -73.5 15t-60 40.5t-40 60.5t-14.5 74z" />
<glyph unicode="Z" horiz-adv-x="2070" d="M0 -182l1098 2062q-47 -88 -128 -138t-175 -61h-697v359q0 59 43 102t105 43l1827 -2q-66 0 -135.5 -24.5t-134 -66.5t-119 -98.5t-87.5 -119.5l-833 -1561q41 78 111.5 127t152.5 66h660l-2 -356q0 -61 -43.5 -104.5t-102.5 -43.5h-1259q-39 -2 -80 -17.5t-79 -40 t-70 -57t-52 -69.5z" />
<glyph unicode="[" horiz-adv-x="1312" d="M375 147v1887q0 59 43 102t104 43h793q-78 0 -131.5 -55.5t-55.5 -130.5v-127q0 -72 -44 -117t-109 -68q-37 -12 -61.5 -41.5t-34.5 -66.5v-946q4 -47 33.5 -81t72.5 -44q63 -14 105.5 -65.5t42.5 -119.5l-3 -129q2 -37 17.5 -71.5t40 -61t58.5 -42t71 -15.5l-795 4 q-61 0 -104 43t-43 102z" />
<glyph unicode="\" horiz-adv-x="1636" d="M6.5 2136q18.5 43 77.5 43h670q-66 0 -108 -24.5t-60.5 -65.5t-9 -98.5t46.5 -120.5l991 -1725q35 -59 17.5 -102t-79.5 -43l-356 2l-1173 2032q-35 59 -16.5 102z" />
<glyph unicode="]" horiz-adv-x="1314" d="M0 0q39 0 72.5 15.5t58.5 42t40 61.5t15 74v129q0 72 45 124t113 64q39 12 64.5 43t29.5 76l-2 946q-4 33 -15 51.5t-27.5 29.5t-37 18t-43.5 18q-55 18 -90 66t-35 110v127q0 37 -15 70.5t-41 59t-59.5 41t-70.5 15.5h793q59 0 103 -43t44 -102v-1889q0 -59 -44 -102 t-103 -43z" />
<glyph unicode="^" horiz-adv-x="1206" d="M2 811v670q0 31 12.5 61.5t32 57t46 48t57.5 33.5l354 129l354 -129q31 -12 56.5 -33.5t46 -48t32 -57.5t11.5 -61v-670q0 63 -25 129t-66 123t-98 102t-121 70l-47 20q-53 18 -93 64.5t-50 99.5q-12 -53 -51 -99t-93 -65l-47 -20q-66 -25 -122 -70t-98 -102t-66.5 -123 t-24.5 -129z" />
<glyph unicode="_" horiz-adv-x="1705" d="M0 502h1319q39 0 73.5 -14.5t60.5 -40t40 -59.5t14 -73l-2 -127q2 -37 17.5 -70.5t40 -59t58.5 -41t71 -15.5q-377 0 -635 -1t-427 -1h-260h-134h-51.5h-10.5q-35 -4 -66.5 -19.5t-55 -40t-37 -56t-13.5 -68.5z" />
<glyph unicode="a" horiz-adv-x="1882" d="M-2 2v752q0 68 48 114.5t116 46.5h915q-2 -59 -21.5 -116.5t-52 -106.5t-78.5 -86t-100 -51h-233q-66 -2 -113 -52t-47 -141h481q68 0 115 47.5t49 112.5v393l162 -2q66 12 120 47t91 89l-680 2q-53 -1 -90 35q-35 34 -35 101v7q-12 49 -41 92t-72 75t-97 50.5t-113 18.5 h1062q53 0 89 -33t36 -78v-1155q0 -68 -48 -116t-113 -48z" />
<glyph unicode="b" horiz-adv-x="1886" d="M2 -186v2216q0 61 43 104t102 43h672q-66 0 -122 -24.5t-97 -66.5t-65.5 -99.5t-24.5 -120.5l-2 -436h819q39 0 74 -14.5t60.5 -40t40 -60.5t14.5 -74v-1241l-1362 -2q-66 -14 -109 -65.5t-43 -118.5zM508 594q4 -74 58.5 -125t127.5 -51l320 2v397h-2q0 78 -53.5 132.5 t-131.5 56.5h-67q-57 14 -102.5 53t-76 92t-49 115.5t-24.5 126.5v-799z" />
<glyph unicode="c" horiz-adv-x="1888" d="M0 -186v1427q0 39 14.5 74t40 60.5t59 40t72.5 14.5h1700q-72 0 -135 -26t-113.5 -70t-84 -103.5t-44.5 -126.5v-182l-891 2q-47 -6 -77.5 -35t-40.5 -70v-192q4 -47 33.5 -80t74.5 -43h899v-357q0 -61 -43 -104t-104 -43h-1186q-72 -8 -123 -61.5t-51 -124.5z" />
<glyph unicode="d" horiz-adv-x="1820" d="M0 -186v1427q0 39 14.5 74t40 60.5t60.5 40t73 14.5h816v600q0 61 43 104t104 43h668q-66 0 -122.5 -24.5t-99.5 -66.5t-67.5 -99.5t-24.5 -120.5v-1721q0 -59 -43 -102t-102 -43h-1194q-68 -10 -117 -62.5t-49 -123.5zM502 420l319 -2h-2q68 0 118 41t67 104v791 q-8 -59 -28 -115.5t-50.5 -104t-73.5 -82t-96 -48.5l-68 2q-39 0 -72.5 -15.5t-59.5 -41t-40 -60.5t-14 -74v2v-180v-217z" />
<glyph unicode="e" horiz-adv-x="1882" d="M2 111v1155q0 68 48 116t116 48h1716q-68 0 -129 -24t-110.5 -63.5t-84 -94t-49.5 -118.5v-440q0 -68 -47 -116t-114 -48l-914 2q2 57 21.5 114.5t52.5 107t78 86t98 51.5h234q33 0 62.5 15.5t51 40t33.5 57t12 67.5h-481q-66 0 -113 -47t-49 -113v-379h-358 q45 -59 108.5 -98t139.5 -51q2 0 2 -2h807q53 0 88.5 -32t35.5 -79l3 -266h-1133q-53 0 -89 31.5t-36 79.5z" />
<glyph unicode="f" horiz-adv-x="1386" d="M2 -188v2222q0 61 43 104t105 43h1236q-72 0 -135 -24.5t-113.5 -68.5t-84 -103.5t-43.5 -126.5l-2 -3v-28q0 -61 -43 -104.5t-105 -43.5l-237 -2q-47 -4 -78 -31.5t-41 -68.5v-285q14 59 64 98.5t116 39.5h336v-328q0 -37 -14.5 -70t-39 -56.5t-58.5 -37.5t-72 -14 l-332 2v-738q0 -39 -14.5 -73.5t-40 -60t-60.5 -40t-74 -14.5h-125q-76 -4 -132 -57.5t-56 -130.5z" />
<glyph unicode="g" horiz-adv-x="2123" d="M-2 188v1242h1565q39 0 73.5 -14.5t60 -40t40 -60.5t14.5 -74v-1239v-338v-358q0 -59 -43 -102.5t-104 -43.5h-1549q37 0 71 15.5t58.5 41t40 59.5t17.5 71l-2 127q0 39 14 72.5t39.5 59t60.5 41t74 15.5l1321 2q-6 63 -33.5 120.5t-70.5 101.5t-98.5 74t-119.5 40 q0 2 -4 2h-174v823q-2 78 -56 131.5t-132 53.5h-561v-402q0 -39 14 -73.5t40 -60t59.5 -41t72.5 -15.5l272 2q61 -18 113.5 -60.5t91.5 -99.5t61.5 -123.5t24.5 -134.5l-1063 -2q-39 0 -73.5 14.5t-60 40t-40 60.5t-14.5 73z" />
<glyph unicode="h" horiz-adv-x="1880" d="M-2 2032q0 59 43 102t104 43h668q-63 0 -119.5 -24.5t-98.5 -65.5t-66.5 -98.5t-24.5 -120.5l-4 -1682q0 -78 -54.5 -132t-132.5 -54h-127q-37 0 -70.5 -15.5t-59 -41t-41 -59.5t-15.5 -70zM508 1430h811q39 0 73.5 -15.5t60.5 -41t40 -60.5t14 -74v-1239l-356 -2 q-61 0 -104 43t-43 102l-3 713q-10 66 -61 110t-121 46h-20q-61 18 -113.5 60t-91.5 98.5t-61.5 124t-24.5 135.5z" />
<glyph unicode="i" horiz-adv-x="870" d="M0 -188v1472q0 59 43 102.5t104 43.5h359l-2 -1246q0 -39 -14.5 -72.5t-40 -59t-60.5 -40t-74 -14.5h-129q-39 0 -72.5 -15.5t-59 -41t-40 -59.5t-14.5 -70z" />
<glyph unicode="j" horiz-adv-x="1638" d="M0 -25q0 -66 24.5 -122t65.5 -97t97.5 -65.5t121.5 -24.5h322q47 4 79.5 34t43.5 73h2v1509q0 61 43 104.5t102 43.5h670q-66 0 -122 -25t-98 -67t-66.5 -99t-24.5 -121l-3 -1810q0 -61 -43 -104.5t-104 -43.5h-965q-59 0 -102 43t-43 105v667zM764 2015q6 68 58 115 t126 47h690q-68 0 -129 -22.5t-110 -62.5t-84 -94t-49 -118v-31q0 -37 -14.5 -69.5t-40 -56t-59.5 -38t-73 -14.5l-313 2z" />
<glyph unicode="k" horiz-adv-x="1638" d="M-4 2030q0 61 43 105t104 44h357l-2 -1255q55 10 101 37.5t81 67.5t54.5 91t19.5 109l2 299q0 61 43 104t104 43h735q-74 0 -137 -25.5t-113.5 -70.5t-84 -105.5t-46.5 -127.5v-281q0 -55 -36.5 -96t-92.5 -49q55 -6 92 -47.5t37 -98.5v-774l-354 -2q-61 0 -104 43 t-43 102l-2 467q0 57 -19.5 108.5t-54.5 92.5t-81 67.5t-101 36.5v-731q0 -78 -54.5 -132t-132.5 -54h-127q-76 -2 -131 -55.5t-55 -130.5z" />
<glyph unicode="l" horiz-adv-x="880" d="M0 -188v2222q0 59 43 102t104 43h359l-2 -1995q0 -39 -14.5 -72.5t-40 -59t-60.5 -40t-74 -14.5h-129q-39 0 -72.5 -15.5t-59 -41t-40 -59.5t-14.5 -70z" />
<glyph unicode="m" horiz-adv-x="2328" d="M2 -186v1427q0 39 14.5 74t39 60.5t59.5 40t73 14.5l928 -3q61 0 104.5 -43t43.5 -102v-1282h-357q-59 0 -102 43t-43 104l-4 973q0 57 -19.5 108.5t-53.5 93.5t-80 69.5t-101 38.5v-1244q0 -39 -14.5 -72.5t-40 -59t-60.5 -40t-74 -14.5h-125q-39 0 -72.5 -15.5t-59 -41 t-41 -59.5t-15.5 -70zM1137 1430h1194q-68 0 -130.5 -24t-111.5 -67t-85 -102t-50 -131v-1106h-357q-61 0 -104 43t-43 104l-2 971q0 63 -24.5 120.5t-66.5 99.5t-99.5 67t-120.5 25z" />
<glyph unicode="n" horiz-adv-x="1640" d="M0 -188v1429q0 39 14.5 74t40 60.5t59 40t72.5 14.5h1454q-72 0 -135 -25t-113.5 -68t-84 -102t-45.5 -127q0 -4 -2 -6v-1100l-355 -2q-61 0 -104 43t-43 102l-2 975q0 57 -19.5 108.5t-54.5 93.5t-81 69.5t-101 38.5v-1246q0 -39 -14.5 -72.5t-40 -59t-60.5 -40 t-74 -14.5h-125q-37 0 -70.5 -15.5t-59 -41t-41 -59.5t-15.5 -70z" />
<glyph unicode="o" horiz-adv-x="1880" d="M-2 -184v1425q0 39 15.5 74t41 60.5t60.5 40t73 14.5h1690q-72 0 -134.5 -25t-112.5 -67t-84 -99t-46 -125v-926q0 -39 -14 -73.5t-40 -60t-60.5 -40t-73.5 -14.5l-1139 2q-35 -4 -66.5 -20.5t-56 -41t-39 -56t-14.5 -68.5zM502 20q4 66 27.5 130.5t62.5 118t90 93 t111 56.5h20q78 2 131 56t53 132h2v410h-309q-39 0 -72.5 -14.5t-59.5 -40t-41 -59.5t-15 -73v-213v-596z" />
<glyph unicode="p" horiz-adv-x="1882" d="M0 -1026v2267q0 39 15.5 74t41 60.5t60.5 40t73 14.5h1690q-72 0 -134.5 -25t-112.5 -67t-83.5 -99t-46.5 -125v-926q0 -39 -14 -73.5t-40 -60t-60.5 -41t-73.5 -15.5l-811 2q2 68 24.5 134.5t60.5 123.5t91 99t115 61h20q78 2 131 56t53 132v406l-307 2v-2 q-78 0 -132 -53.5t-56 -131.5v-827h-2v-651q0 -39 -14.5 -74t-40 -60.5t-59.5 -40t-73 -14.5l-127 2q-76 -4 -132 -57t-56 -131z" />
<glyph unicode="q" horiz-adv-x="1875" d="M-2 188v1242h1880q-72 0 -135.5 -25t-113.5 -68t-83 -101t-45 -126v-1640q0 -66 24.5 -122.5t66.5 -97.5t98.5 -65.5t121.5 -24.5h-669q-59 0 -103.5 43t-44.5 103v694h-809q-39 0 -73.5 14.5t-60 40t-40 60.5t-14.5 73zM500 598v2q0 -39 14 -73.5t40 -60.5t59.5 -41 t72.5 -15h21q59 -16 109 -56.5t88 -93.5t61.5 -115.5t29.5 -126.5v826q-8 72 -61 119t-125 47h-309v-412z" />
<glyph unicode="r" horiz-adv-x="1505" d="M2 -186v1427q0 39 14.5 74t40 60.5t59.5 40t72 14.5h316v-125q16 53 65 89t111 36h467v-332q0 -37 -14.5 -70t-40 -56.5t-59.5 -37.5t-72 -14l-457 2v-736q0 -39 -14.5 -72.5t-40 -59t-60.5 -40t-74 -14.5h-125q-37 0 -71.5 -15.5t-60 -41t-41 -59.5t-15.5 -70z" />
<glyph unicode="s" horiz-adv-x="1880" d="M-4 614v666q0 61 48 104t142 46h1508q-78 0 -131.5 -55.5t-57.5 -131.5v-12q0 -163 -53 -233q-55 -72 -133 -72l-1014 -2q-63 0 -119.5 -25t-98.5 -66.5t-66.5 -98t-24.5 -120.5zM-2 2v502l1198 2q63 0 120.5 24.5t98.5 65.5t65.5 97.5t24.5 121.5v-670q0 -59 -43 -102 t-102 -43l-1200 -2q-68 -10 -115 -61.5t-47 -122.5v188z" />
<glyph unicode="t" horiz-adv-x="1908" d="M0 1772q4 68 57.5 114.5t126.5 46.5h336v99q0 61 43 104t103 43h356v-383q14 59 64.5 98t115.5 39l707 2q-68 0 -128.5 -22.5t-109.5 -62.5t-84 -93t-49 -117v-34q0 -37 -14.5 -69t-40 -56.5t-59 -37.5t-72.5 -13h-330v-1242q0 -39 -14.5 -73.5t-40 -60t-60.5 -40 t-73 -14.5l-125 2q-78 -4 -134.5 -57.5t-56.5 -130.5l2 1790q-2 -72 -55 -123t-131 -51h-332z" />
<glyph unicode="u" horiz-adv-x="1638" d="M-2 -184v1425q0 39 14.5 74t40 60.5t59 40t72.5 14.5h314l2 -1426q55 10 101 38t80 68t53.5 91t19.5 108l4 973q0 61 43 104.5t104 43.5h735q-74 0 -137 -26t-114.5 -71t-84 -105.5t-44.5 -129.5v-951q0 -61 -43 -104t-103 -43h-614h-316q-76 -2 -131 -55.5t-55 -128.5z " />
<glyph unicode="v" horiz-adv-x="1894" d="M0 -186v1427q0 39 14.5 74t40 60.5t59 40t72.5 14.5h314l2 -1420l538 1272q16 61 71.5 104.5t115.5 43.5h669q-66 0 -128 -25t-115.5 -67t-93 -99t-56.5 -121l-465 -975q-16 -61 -70.5 -102t-115.5 -41h-666q-37 0 -70.5 -15.5t-59 -41t-41 -59.5t-15.5 -70z" />
<glyph unicode="w" horiz-adv-x="2076" d="M2 -186v1429q0 39 14.5 73t40 59.5t60.5 40t73 14.5h314v-1242q0 -39 -14.5 -73.5t-40 -60t-59.5 -40t-73 -14.5l-127 2q-37 -2 -71.5 -17.5t-61 -40t-41 -58t-14.5 -72.5zM332 0q63 0 120.5 24.5t99.5 66.5t66.5 98.5t24.5 121.5l2 971q0 61 43 104.5t103 43.5h356 v-1119q0 -70 30.5 -129t77.5 -102v1202q0 61 43 104.5t105 43.5h670q-66 0 -122.5 -25t-98.5 -67t-66.5 -99t-24.5 -121v-971q0 -61 -44 -104t-105 -43h-1280z" />
<glyph unicode="x" horiz-adv-x="1939" d="M0 -184l133 188l395 569l-495 709q-33 47 -33 83q0 11 3 21q13 44 73 44h358l420 -603q-2 29 0 63t19.5 85t52.5 125t98 182q20 31 51 57.5t65 47t68.5 32t65.5 11.5h668q-63 0 -137 -25t-146 -67t-135.5 -98t-108.5 -120l-383 -547l295 -423q33 -45 33 -81q0 -11 -4 -23 q-14 -44 -74 -44l-356 4l-146 207l-149 -213l-314 2q-39 0 -83 -15.5t-87 -41t-81.5 -59t-65.5 -70.5z" />
<glyph unicode="y" horiz-adv-x="1837" d="M2 -184v1423q0 39 14.5 74t40 60.5t60.5 41t73 15.5h316l2 -908q0 -37 15.5 -57.5t40 -30.5t58 -12t72.5 -2h322v860q0 61 43 105.5t104 44.5h674q-66 0 -122 -25t-99 -68t-67.5 -100t-24.5 -121l-2 -1808q0 -61 -43 -104.5t-105 -43.5l-358 2v842h-6l2 377 q0 -72 -24.5 -134.5t-69 -113.5t-102.5 -85t-126 -46q-190 -2 -294.5 -2h-156h-62.5h-13q-68 -10 -115 -62.5t-47 -121.5z" />
<glyph unicode="z" horiz-adv-x="2103" d="M-2 14q0 39 12 74q2 6 8.5 15.5t30 40t71.5 91t137 167t224 269.5t332 398q-51 -59 -116.5 -93t-137.5 -42l-559 2v305q0 78 53 133.5t131 55.5h1545q-78 0 -123 -35t-86 -86q-2 -2 -7.5 -8.5t-28 -34t-70.5 -84t-134 -159.5t-218 -262t-325 -388q47 53 106.5 87 t125.5 44h762v-314q0 -39 -14.5 -73.5t-40 -60t-59.5 -41t-73 -15.5h-1360q-76 -4 -130 -55t-54 -129z" />
<glyph unicode="{" horiz-adv-x="1370" d="M0 1020l129 354q23 59 81 102.5t120 43.5h47q45 6 74.5 32.5t40.5 67.5v412q0 59 43 103t102 44h735q-72 0 -135 -24.5t-113.5 -67.5t-83 -102.5t-45.5 -126.5v-338h2q-63 0 -128.5 -25t-123 -65.5t-102.5 -98t-68 -121.5l-20 -47q-18 -53 -64.5 -92t-99.5 -51 q53 -12 99.5 -51t64.5 -92l20 -48q23 -66 68 -122t102.5 -98t123 -66.5t128.5 -24.5h-2v-199q12 -68 46 -126t84.5 -101t112.5 -67.5t134 -24.5h-731q-61 0 -104 43t-43 102v254h-2q-4 47 -33 78t-70 41h-59q-31 0 -61.5 12.5t-58.5 32t-49.5 46t-31.5 57.5z" />
<glyph unicode="|" horiz-adv-x="819" d="M0 0v2032q0 61 43 104t104 43h670q-66 0 -122 -24.5t-98 -66.5t-66.5 -98.5t-24.5 -119.5l-2 -1725q0 -61 -43 -104t-105 -43z" />
<glyph unicode="}" horiz-adv-x="1574" d="M0 0q70 0 133.5 24.5t113.5 67.5t83 101t45 126v199h-2q63 0 128.5 24.5t123 66.5t102.5 98.5t70 121.5l20 48q18 53 64.5 92t99.5 51q-53 12 -99 51t-65 92l-20 47q-25 63 -70 121t-102.5 98.5t-123 65.5t-128.5 25h2l2 338q-12 68 -46 127t-84 102t-113.5 67.5 t-133.5 24.5h733q61 0 104.5 -44t43.5 -103v-412q10 -41 39.5 -67.5t72.5 -32.5h49q31 0 62 -11.5t57.5 -32t48 -46t33.5 -56.5l129 -354l-129 -354q-12 -31 -33.5 -57.5t-48 -46t-57.5 -32t-62 -12.5h-59q-43 -10 -70.5 -41t-33.5 -78v-254q0 -59 -43 -102t-105 -43h-731z " />
<glyph unicode="&#xad;" d="M2 928v315q0 39 14.5 73t40 59.5t60.5 40t73 14.5h1252q-37 0 -71 -15.5t-58.5 -41t-40 -60.5t-17.5 -72l2 -127q0 -39 -14 -72.5t-39.5 -59.5t-60.5 -40t-74 -14h-1067z" />
<glyph unicode="&#x2000;" horiz-adv-x="1331" />
<glyph unicode="&#x2001;" horiz-adv-x="2662" />
<glyph unicode="&#x2002;" horiz-adv-x="1331" />
<glyph unicode="&#x2003;" horiz-adv-x="2662" />
<glyph unicode="&#x2004;" horiz-adv-x="887" />
<glyph unicode="&#x2005;" horiz-adv-x="665" />
<glyph unicode="&#x2006;" horiz-adv-x="443" />
<glyph unicode="&#x2007;" horiz-adv-x="443" />
<glyph unicode="&#x2008;" horiz-adv-x="332" />
<glyph unicode="&#x2009;" horiz-adv-x="532" />
<glyph unicode="&#x200a;" horiz-adv-x="147" />
<glyph unicode="&#x2010;" d="M2 928v315q0 39 14.5 73t40 59.5t60.5 40t73 14.5h1252q-37 0 -71 -15.5t-58.5 -41t-40 -60.5t-17.5 -72l2 -127q0 -39 -14 -72.5t-39.5 -59.5t-60.5 -40t-74 -14h-1067z" />
<glyph unicode="&#x2011;" d="M2 928v315q0 39 14.5 73t40 59.5t60.5 40t73 14.5h1252q-37 0 -71 -15.5t-58.5 -41t-40 -60.5t-17.5 -72l2 -127q0 -39 -14 -72.5t-39.5 -59.5t-60.5 -40t-74 -14h-1067z" />
<glyph unicode="&#x2012;" d="M2 928v315q0 39 14.5 73t40 59.5t60.5 40t73 14.5h1252q-37 0 -71 -15.5t-58.5 -41t-40 -60.5t-17.5 -72l2 -127q0 -39 -14 -72.5t-39.5 -59.5t-60.5 -40t-74 -14h-1067z" />
<glyph unicode="&#x2013;" horiz-adv-x="1025" d="M2 928v315q0 39 10.5 73t28.5 59.5t43 40t52 14.5h890q-26 0 -50.5 -15.5t-42 -41t-28.5 -60.5t-12 -72l1 -127q0 -39 -9.5 -72.5t-28 -59.5t-43.5 -40t-52 -14h-759z" />
<glyph unicode="&#x2014;" horiz-adv-x="2049" d="M2 928v315q0 39 20.5 73t57 59.5t86 40t103.5 14.5h1781q-53 0 -101 -15.5t-83 -41t-57 -60.5t-25 -72l3 -127q0 -39 -20 -72.5t-56 -59.5t-86 -40t-105 -14h-1518z" />
<glyph unicode="&#x2018;" horiz-adv-x="911" d="M205 1292v885q0 -74 25.5 -138.5t69.5 -114.5t104.5 -83t130.5 -43h172v-344q-6 -68 -59.5 -115t-125.5 -47h-317z" />
<glyph unicode="&#x2019;" horiz-adv-x="911" d="M205 2019q6 70 58 116t126 46h318v-885q0 72 -26 136.5t-71 115.5t-104.5 85t-128.5 44h-170z" />
<glyph unicode="&#x201c;" horiz-adv-x="1554" d="M207 1296v885q0 -72 25.5 -136.5t69.5 -115.5t104.5 -85t130.5 -44h170l2 -342q-6 -70 -58.5 -117t-126.5 -45h-317zM858 1296v885q0 -72 25.5 -136.5t69.5 -115.5t104.5 -85t130.5 -44h162l2 -342q-6 -70 -54.5 -117t-121.5 -45h-318z" />
<glyph unicode="&#x201d;" horiz-adv-x="1560" d="M203 2023q6 68 58 115t126 47h318v-885q0 72 -26 136.5t-71 115t-104.5 84t-128.5 43.5h-170zM854 2023q6 68 59.5 115t124.5 47h318v-885q0 72 -25.5 136.5t-71 115t-104.5 84t-129 43.5h-170z" />
<glyph unicode="&#x202f;" horiz-adv-x="532" />
<glyph unicode="&#x205f;" horiz-adv-x="665" />
<glyph unicode="&#x25fc;" horiz-adv-x="1433" d="M0 0v1434h1434v-1434h-1434z" />
</font>
</defs>
</svg>
