<?xml version="1.0" standalone="no"?>
<!DOCTYPE svg PUBLIC "-//W3C//DTD SVG 1.1//EN" "http://www.w3.org/Graphics/SVG/1.1/DTD/svg11.dtd" >
<svg xmlns="http://www.w3.org/2000/svg" xmlns:xlink="http://www.w3.org/1999/xlink" version="1.1">
<metadata></metadata>
<defs>
<font id="firgooblique" horiz-adv-x="1572" >
<font-face units-per-em="2048" ascent="1638" descent="-410" />
<missing-glyph horiz-adv-x="1228" />
<glyph horiz-adv-x="0" />
<glyph horiz-adv-x="682" />
<glyph unicode=" "  horiz-adv-x="1228" />
<glyph unicode="&#x09;" horiz-adv-x="1228" />
<glyph unicode="&#xa0;" horiz-adv-x="1228" />
<glyph unicode="!" horiz-adv-x="1468" d="M0 0l90 342q12 33 36 62.5t54.5 52t65.5 35t71 12.5h318l-88 -328q-10 -37 -32.5 -68.5t-54.5 -56t-69 -38t-76 -13.5h-315zM162 561l383 1430q10 39 33.5 73.5t55.5 60t70.5 40t77.5 14.5h684q-68 0 -133 -21.5t-124.5 -60.5t-107.5 -91t-81 -114l-258 -958 q-10 -39 -33.5 -73t-56.5 -59.5t-71 -39.5t-77 -14h-125q-78 -4 -146.5 -57.5t-90.5 -129.5z" />
<glyph unicode="&#x22;" horiz-adv-x="1429" d="M377 1673l90 344q12 33 34.5 62.5t53.5 52t66.5 35t72.5 12.5h318l-238 -885q20 72 12 136.5t-39.5 115.5t-83 84t-116.5 43h-170zM1028 1673l90 344q12 33 36 62.5t54.5 52t65.5 35t72 12.5h317l-238 -885q20 72 12.5 136.5t-39.5 115.5t-83 84t-117 43h-170z" />
<glyph unicode="#" horiz-adv-x="2189" d="M0 -186l168 606h-168l96 358q16 61 72.5 104.5t134.5 43.5l133 499h-168l97 359q16 61 73.5 104t132.5 43l17 62q10 39 34.5 73.5t56.5 60t69.5 40t76.5 14.5h316l-68 -250h168l27 103q16 61 71.5 104t114.5 43h735q-61 0 -122.5 -18.5t-117 -52t-103.5 -78.5t-83 -101 h148l-92 -356q-16 -59 -74.5 -103.5t-134.5 -44.5l-135 -501h167l-94 -357q-16 -59 -73.5 -102t-135.5 -45l-73 -272q-16 -61 -70.5 -105.5t-116.5 -44.5h-354l111 422h-166l-64 -236q-10 -39 -34.5 -72.5t-56.5 -59t-69.5 -40t-76.5 -14.5h-127q-37 0 -76 -15.5t-73 -41 t-58.5 -59.5t-34.5 -70zM803 926q84 4 129 32.5t67 71.5l107 397q-86 -8 -129 -35.5t-66 -68.5h-2z" />
<glyph unicode="$" horiz-adv-x="2277" d="M0 0l94 354q16 61 70.5 104.5t116.5 43.5h729q49 4 89 34.5t62 73.5l185 686q-18 -70 -58.5 -132t-94.5 -111t-119.5 -84t-135.5 -47h-692l286 1069q10 39 35 72.5t56.5 59t69.5 40t77 14.5h416q-43 20 -61.5 66.5t-2.5 105.5l84 317h328q74 0 111.5 -53t17.5 -131 l-84 -305h700q-39 0 -75.5 -15.5t-69.5 -41t-56.5 -60.5t-35.5 -71l-33 -125q-10 -39 -33.5 -74t-56.5 -60.5t-71 -40t-76 -14.5h-695q-49 -4 -88 -32.5t-61 -71.5l-41 -146h999l-342 -1278q-16 -61 -70.5 -104t-115.5 -43h-363l-84 -317q-10 -37 -33.5 -69t-55 -56.5 t-68.5 -38t-76 -13.5h-316l91 342q18 53 62 93.5t99 58.5h-614z" />
<glyph unicode="&#x26;" horiz-adv-x="2381" d="M-5 117q-5 35 5 73l481 1797q10 39 34 73.5t56.5 60t71.5 40t78 14.5h1075q61 0 106.5 -43t49.5 -102l100 -1725q4 -66 31.5 -121t72 -96t102.5 -64.5t122 -23.5h-668q-61 0 -106 43t-50 102l-10 177l-86 -320l-1323 -2q-39 0 -69.5 15.5t-49 41t-23.5 60.5zM614 606 q-20 -78 21 -131t119 -53h-2h319l62 229q20 78 -20 132.5t-116 56.5h-30q-55 16 -96.5 57t-65 96.5t-29.5 121t8 130.5zM711 1593l143 -2q39 0 76 14.5t68.5 38t55 56.5t33.5 69l19 74h-145q-74 0 -139.5 -46t-90.5 -116zM1180 1257l313 3l-35 608l-117 -436 q-16 -59 -60 -105.5t-101 -69.5z" />
<glyph unicode="'" horiz-adv-x="772" d="M373 1675l90 342q25 70 90 116t139 46h318l-238 -885q20 72 11 136.5t-39.5 114.5t-82 84t-116.5 46h-172z" />
<glyph unicode="(" horiz-adv-x="1425" d="M0 145l504 1889q16 59 70.5 102t115.5 43h733q-72 0 -141.5 -24.5t-130.5 -67.5t-110.5 -102.5t-79.5 -126.5l-412 -1541q-6 -68 12.5 -125t56 -100t94 -67.5t128.5 -24.5h-731q-61 0 -93 43t-16 102z" />
<glyph unicode=")" horiz-adv-x="1705" d="M0 0q72 0 142.5 24.5t132 68.5t110.5 102.5t78 126.5l411 1538q6 68 -12 126t-56 101t-95.5 67.5t-126.5 24.5h733q59 0 91 -43t15 -104l-501 -1885q-16 -61 -71.5 -104t-115.5 -43h-735z" />
<glyph unicode="*" horiz-adv-x="960" d="M0 1448l66 49l61 47l102 78h-108q-29 0 -43.5 19.5t-3.5 48.5l16 47q8 29 -5 48t-42 19h70h67h109l-51 78q-14 20 -5 48t35 48l43 33q27 20 36 48t-5 48l33 -49l33 -47l53 -76l35 109q10 29 35.5 48t54.5 19h47q29 2 54.5 20.5t35.5 47.5l-23 -68l-30 -92l-27 -86l102 78 q27 20 54.5 20.5t42.5 -20.5l22 -33q14 -18 42 -18t55 18l-66 -47l-84 -65l-80 -62h109q29 2 43 -18.5t4 -48.5l-17 -45q-8 -29 5.5 -49.5t42.5 -18.5l-70 -2h-90h-86l51 -76q14 -20 5 -49t-36 -49l-43 -31q-27 -23 -36 -50.5t5 -45.5l-32 47l-45 66l-41 59l-35 -109 q-10 -29 -36 -49t-54 -20l-47 2q-29 -2 -54.5 -21.5t-35.5 -48.5l22 70l23 67h-2l36 109l-102 -78q-27 -20 -54.5 -20t-41.5 20l-23 33q-14 20 -41.5 20t-54.5 -20z" />
<glyph unicode="+" horiz-adv-x="1568" d="M0 1075l96 355h498l98 358q16 61 70.5 104t116.5 43h667q-63 0 -125.5 -24.5t-117 -66.5t-93.5 -99t-57 -121l-51 -194h354q61 0 93 -43.5t16 -102.5l-97 -358h-503l-140 -504l-313 2q-78 -4 -146.5 -57.5t-91.5 -130.5l185 692h-353q-59 0 -90.5 43t-15.5 104z" />
<glyph unicode="," horiz-adv-x="638" d="M0 0l90 342q25 70 90.5 116t138.5 46h318l-238 -885q20 72 11 136.5t-39.5 114.5t-81.5 84t-117 46h-172z" />
<glyph unicode="-" d="M0 928l86 315q10 39 34.5 73t56.5 59.5t70 40t77 14.5h1251q-37 0 -75 -15.5t-69.5 -41t-56 -60.5t-35.5 -72l-32 -127q-10 -39 -35 -72.5t-56.5 -59.5t-69.5 -40t-77 -14h-1069z" />
<glyph unicode="." horiz-adv-x="630" d="M0 0l90 342q12 33 36 62.5t54.5 52t65.5 35t71 12.5h318l-88 -328q-10 -37 -32.5 -68.5t-54.5 -56t-69 -38t-76 -13.5h-315z" />
<glyph unicode="/" horiz-adv-x="2658" d="M0 0l1716 2032q27 31 60.5 56.5t70.5 45.5t74 31.5t68 11.5h667q-66 0 -142.5 -24.5t-154.5 -66.5t-149.5 -98.5t-124.5 -119.5l-1460 -1723q-25 -31 -60 -56.5t-71.5 -45.5t-72.5 -31.5t-67 -11.5h-354z" />
<glyph unicode="0" horiz-adv-x="2058" d="M0 -186l584 2181q10 39 34.5 72.5t56.5 59t69.5 40t76.5 14.5h1702q-72 0 -142.5 -24.5t-132 -67.5t-110.5 -102.5t-80 -126.5q0 -4 -2 -5l-461 -1708q-16 -61 -70.5 -104t-115.5 -43h-1169q-39 0 -77 -15.5t-71 -40t-57.5 -58t-34.5 -72.5zM588 133q18 68 58 129.5 t93.5 110.5t118 84t131.5 49h78q49 4 89 33.5t63 72.5l286 1067h-2l103 377q-18 -72 -60.5 -135t-99.5 -113.5t-125 -84t-139 -44.5h-64q-45 -6 -82 -30.5t-59 -63.5l-262 -985z" />
<glyph unicode="1" horiz-adv-x="1048" d="M0 -188l582 2181q10 39 33.5 73.5t55 60t70.5 40t78 14.5h690q-72 0 -140.5 -24.5t-129.5 -66.5t-110.5 -100.5t-79.5 -125.5l-449 -1678q-10 -39 -34.5 -72.5t-56.5 -59t-70 -40t-77 -14.5h-126q-76 -4 -146 -57.5t-90 -130.5z" />
<glyph unicode="2" horiz-adv-x="2060" d="M0 -186l332 1247q10 39 34.5 73.5t56.5 60.5t70.5 40t77.5 14h822l80 299q8 47 -12.5 79t-61.5 42v2l-903 -2l96 359q8 31 27.5 56t44 45.5t54.5 32t60 11.5h1678q-66 0 -128.5 -24.5t-115.5 -65.5t-93 -98.5t-57 -120.5l-239 -885q-16 -61 -70.5 -104.5t-116.5 -43.5 h-678q-78 -2 -145.5 -56t-89.5 -132l-59 -221l862 -4q61 0 93 -43t15 -105l-73 -270h-1340q-74 -10 -137.5 -62.5t-83.5 -123.5z" />
<glyph unicode="3" horiz-adv-x="2060" d="M0 -182l123 461q16 61 71.5 104t114.5 43h865l59 219h-2q23 78 -16 132t-117 57h-367q-57 16 -98 58t-63.5 99.5t-27.5 124t11 133.5h840l80 301q8 47 -12.5 79t-61.5 42h-903l98 359q8 31 26.5 57.5t43 46.5t54.5 31.5t60 11.5h1678q-63 0 -126 -24.5t-117 -66.5 t-93 -99.5t-58 -120.5l-460 -1716q-16 -61 -70.5 -105.5t-116.5 -44.5h-1216q-66 -14 -123.5 -64.5t-75.5 -117.5z" />
<glyph unicode="4" horiz-adv-x="1632" d="M-11 1284.5q-5 65.5 11 132.5l164 617q16 61 71.5 104t114.5 43h359l-174 -635q-8 -47 11 -79.5t60 -43.5h400l163 611q8 31 28 57.5t44.5 46t54 31.5t60.5 12h669q-66 0 -128 -24.5t-115 -66.5t-93 -99.5t-57 -120.5l-465 -1723q-16 -61 -70.5 -104t-115.5 -43l-170 -2 q-78 -2 -146.5 -55.5t-89.5 -130.5l279 1046q4 63 -36 104.5t-105 43.5l-533 -2q-57 18 -98 59t-64.5 98.5t-28.5 123z" />
<glyph unicode="5" horiz-adv-x="2050" d="M0 -184l121 456q16 61 70.5 104.5t115.5 43.5h858l115 424q8 68 -31 112.5t-108 47.5h-533q-57 16 -98 58t-64.5 98.5t-29.5 123t10 133.5l166 615q16 59 70.5 103t115.5 44l1743 -2q-76 0 -150.5 -27.5t-139 -74.5t-112.5 -112t-71 -138q-16 -61 -71.5 -104.5 t-114.5 -43.5l-756 -2q-43 -8 -79 -34.5t-56 -67.5l-4 -12q0 -4 -4 -17q-8 -47 11 -79.5t60 -43.5h717q78 0 118 -53t19 -131l-291 -1087q-16 -61 -70 -105.5t-116 -44.5h-1206q-68 -14 -127.5 -64.5t-77.5 -119.5z" />
<glyph unicode="6" horiz-adv-x="1890" d="M0 -186l594 2220q16 61 70.5 104t115.5 43h668q-66 0 -128.5 -24.5t-115.5 -66.5t-93 -98.5t-56 -119.5l-119 -440l809 2q78 0 119 -55.5t20 -133.5l-334 -1245h-1327q-37 -4 -71.5 -19.5t-65.5 -40t-53.5 -57.5t-32.5 -69zM711 596q-16 -74 24.5 -125t116.5 -51h-2h309 l109 407q23 78 -20.5 132.5t-135.5 56.5q-53 16 -93 54t-63.5 90t-30.5 114.5t3 126.5z" />
<glyph unicode="7" horiz-adv-x="1939" d="M0 -188l1184 1876h-635q-39 0 -69.5 14t-49 39.5t-24 60.5t5.5 74l34 125q16 78 -22.5 132t-114.5 54h1549q59 0 75.5 -43t-22.5 -104l-1293 -2040h-313q-39 -2 -82 -17.5t-85 -40t-77.5 -58.5t-60.5 -72z" />
<glyph unicode="8" horiz-adv-x="2045" d="M0 -186l305 1132q12 49 61.5 87t112.5 52h-141l254 953q8 31 30.5 56.5t53.5 46t67.5 31.5t75.5 11h1692q-72 0 -141.5 -24.5t-131 -67.5t-110.5 -100.5t-80 -124.5l-170 -637q-12 -49 -60.5 -87t-109.5 -52h137l-254 -945q-8 -31 -29.5 -56.5t-52 -45.5t-68.5 -31.5 t-77 -11.5h-1141q-37 -4 -71.5 -19.5t-65.5 -40t-53.5 -57.5t-32.5 -69zM616 268l326 -2q39 0 76 14.5t68.5 38t54 56.5t33.5 69l88 328h-328q-37 0 -72 -12t-65.5 -35t-54 -52.5t-35.5 -62.5zM909 1356h324q39 0 76 14t68.5 38t55 56.5t33.5 69.5l86 328h-325 q-37 0 -73 -12.5t-66.5 -35t-53 -52t-35.5 -62.5z" />
<glyph unicode="9" horiz-adv-x="1759" d="M0 936l334 1245h1820q-66 0 -128 -24.5t-115 -65.5t-93 -98.5t-57 -120.5l-424 -1571l-80 -301h-321q-37 0 -75 -15.5t-70.5 -41t-56 -59.5t-34.5 -70l250 936l-811 -2q-78 0 -118.5 55t-20.5 133zM616 1354q-23 -78 20.5 -132.5t135.5 -56.5q55 -16 95 -55t63.5 -93 t31 -117.5t-5.5 -127.5l222 827q8 68 -33 115t-113 47h2h-309z" />
<glyph unicode=":" horiz-adv-x="880" d="M0 6l90 342q25 68 90.5 115t138.5 47h318l-88 -328q-10 -37 -33.5 -68.5t-55.5 -56t-69 -38t-76 -13.5h-315zM248 926l90 342q12 35 34.5 64.5t53.5 51t66.5 34t72.5 12.5h318l-88 -328q-10 -37 -33 -69t-54.5 -55.5t-69.5 -37.5t-77 -14h-313z" />
<glyph unicode=";" horiz-adv-x="880" d="M0 2l90 344q12 33 34.5 62.5t53.5 52t67 35t72 12.5h318l-238 -887q20 72 12 136.5t-39.5 115.5t-82.5 85t-117 44h-170zM246 924l90 344q25 68 90.5 115t138.5 47h318l-88 -328q-10 -37 -34 -70t-55.5 -56.5t-68.5 -37.5t-76 -14h-315z" />
<glyph unicode="&#x3c;" horiz-adv-x="1132" d="M0 1423l223 355q18 31 47 57.5t62 47t66.5 31.5t64.5 11h670q-66 0 -137.5 -24.5t-140.5 -66.5t-128 -98.5t-100 -119.5l-33 -49q-35 -51 -91.5 -92t-111.5 -52q49 -12 86 -56t47 -132q6 -66 36 -122t76 -98t104.5 -66.5t123.5 -24.5h-669q-59 0 -106.5 43t-53.5 104z " />
<glyph unicode="=" horiz-adv-x="1757" d="M0 248q39 0 76 14t69.5 40t56 59.5t36.5 70.5l32 127q10 39 34 73t55.5 59.5t70.5 39.5t78 14h1067l-86 -313q-10 -39 -33.5 -73.5t-56.5 -60.5t-71 -40t-77 -14zM182 928l86 313q10 39 34 74t55.5 60.5t70.5 40t78 14.5h1251q-39 0 -75.5 -15.5t-69.5 -41t-56.5 -60.5 t-35.5 -72l-33 -127q-10 -39 -33.5 -72.5t-56.5 -59.5t-71 -40t-77 -14h-1067z" />
<glyph unicode="&#x3e;" horiz-adv-x="1128" d="M0 924q63 0 135 24.5t140.5 66.5t129 98t101.5 122l33 47q33 53 89 92t113 51q-51 10 -87 50.5t-40 91.5l-6 49q-6 63 -36.5 119.5t-76.5 98.5t-104.5 66.5t-122.5 24.5h668q61 0 108.5 -43t53.5 -104l32 -351l-223 -356q-18 -31 -47 -57.5t-61.5 -47t-66.5 -31.5 t-64 -11h-668z" />
<glyph unicode="?" horiz-adv-x="2054" d="M0 0l90 344q25 68 90.5 115t138.5 47h318l-88 -328q-10 -37 -33.5 -69.5t-55.5 -56t-69 -38t-76 -14.5h-315zM188 676l201 749h1000l38 146q2 43 -22.5 71.5t-71.5 32.5h-694q-39 0 -69.5 14.5t-49 40t-23.5 60.5t5 74l35 125q18 76 -21 131t-117 55l1510 2 q78 0 118.5 -54.5t18.5 -131.5l-285 -1069h-690q-61 12 -108.5 47t-75 84t-34.5 110.5t11 130.5l-168 -618h-508z" />
<glyph unicode="@" horiz-adv-x="2056" d="M0 -190l584 2179q10 39 34.5 73.5t56.5 60t69.5 40t76.5 14.5h1702q-76 0 -146.5 -25.5t-131 -69.5t-108.5 -103.5t-81 -129.5l-459 -1706q-8 -31 -26.5 -56.5t-44 -44.5t-55 -30.5t-60.5 -11.5h-1171q-39 -2 -77 -17.5t-71 -42t-57.5 -60.5t-34.5 -70zM590 127 q18 68 57 130t92.5 111.5t118 83t131.5 48.5h33l195 725q6 27 -7.5 44t-40.5 17h-104l-35 -135q-8 -27 5.5 -45.5t39.5 -18.5q23 -2 38 -16t23.5 -33.5t10.5 -44t-4 -47.5h-275q-47 0 -47 45zM936 1427h450q35 0 46 -28l170 651q-18 -70 -59.5 -132.5t-96.5 -112.5 t-122 -83.5t-136 -46.5h-66q-47 -8 -86 -36.5t-59 -69.5z" />
<glyph unicode="A" horiz-adv-x="2312" d="M0 -188l1290 2179q23 39 57.5 73.5t75.5 60t84 40t82 14.5h1118q-66 0 -128 -24.5t-115.5 -65.5t-93 -98.5t-56.5 -120.5l-465 -1725q-8 -31 -26.5 -56.5t-44 -45.5t-55 -31.5t-60.5 -11.5h-354l288 1079q-27 -66 -90 -110.5t-135 -44.5h-213l-438 -740 q-23 -39 -57.5 -72.5t-75.5 -59t-84 -40t-82 -14.5h-125q-39 0 -82 -15.5t-83 -41t-74.5 -59.5t-57.5 -70zM1458 1430h232l157 585h-41z" />
<glyph unicode="B" horiz-adv-x="2304" d="M-2 -186q109 410 192.5 722t146 544.5t105.5 392t72 265t45 164t25.5 88t12.5 37t5 11.5q33 59 93.5 100t125.5 41l1942 -2q-72 0 -141.5 -24.5t-131 -66.5t-110.5 -100.5t-78 -125.5l-180 -668q-10 -37 -32 -68.5t-50.5 -56.5t-64.5 -41t-72 -20q71 -8 105 -62 q21 -34 22 -76q0 -24 -7 -51h-2l-168 -629q-10 -39 -34.5 -73.5t-56 -60t-70.5 -41t-78 -15.5h-1063q20 68 60 135.5t94.5 124.5t118 99t130.5 59h273q78 2 145.5 56t89.5 132l107 400h-449q-59 14 -105 48.5t-73 84t-34 111.5q-2 17 -2 33q0 46 14 95l-369 -1378l-336 2 q-72 -10 -134.5 -62.5t-82.5 -123.5zM934 1430h561q39 0 76 13t68.5 37.5t55 56.5t34.5 69l40 151h-575q-72 -4 -133.5 -50t-83.5 -112z" />
<glyph unicode="C" horiz-adv-x="2058" d="M0 -182l594 2218q8 31 26.5 56.5t44 46t55.5 31.5t60 11h1549q-37 0 -75 -15.5t-71 -41t-56.5 -59t-35.5 -70.5l-33 -127q-10 -39 -33.5 -73t-56.5 -59.5t-70.5 -40t-76.5 -14.5h-695q-49 -6 -89 -34.5t-62 -71.5l-254 -946q-2 -14 -2 -26q-1 -30 13 -54q20 -33 61 -43 h753q61 0 92 -43q20 -28 20 -65q0 -19 -5 -40l-94 -356l-1346 2q-72 -10 -133.5 -62.5t-79.5 -123.5z" />
<glyph unicode="D" horiz-adv-x="2301" d="M-2 -184l580 2173q10 39 33.5 72.5t55 59t70.5 40t78 14.5h1954q-76 0 -147.5 -25.5t-133 -69.5t-109.5 -103.5t-77 -129.5l-461 -1700q-16 -61 -70.5 -104t-115.5 -43l-1442 2q-37 -6 -70.5 -22.5t-63.5 -41t-51.5 -56.5t-29.5 -66zM582 133q18 68 57 128.5t91 109.5 t114.5 83.5t130.5 49.5h340q49 6 87 34.5t60 69.5l252 940q2 14 2 26q0 32 -14 55q-20 32 -62 42h-337q-61 14 -109.5 48t-75.5 84q-28 49 -34 111q-2 16 -2 32q0 47 14 100z" />
<glyph unicode="E" horiz-adv-x="2045" d="M0 -186l582 2179q10 39 33.5 72.5t55 59t70.5 40t78 14.5l1698 2q-72 0 -142.5 -24.5t-132 -67.5t-110.5 -101.5t-78 -125.5l-10 -37q-16 -61 -71.5 -104.5t-114.5 -43.5h-736q-49 -4 -89 -32.5t-62 -69.5l-76 -289q29 61 90.5 101t128.5 40h467l-88 -327 q-10 -37 -33.5 -69t-55.5 -56.5t-69 -37.5t-75 -13h-461l-80 -297q-2 -14 -2 -26q-1 -30 13 -54q20 -33 61 -43l757 -2q61 0 93 -43q21 -29 21 -65q0 -18 -5 -38l-98 -356l-1323 2q-76 -4 -146 -57.5t-90 -130.5z" />
<glyph unicode="F" horiz-adv-x="1579" d="M-2 -184l594 2216q8 31 27.5 57.5t44 45.5t54.5 31.5t60 12.5h1737q-70 0 -138.5 -23.5t-130 -65.5t-110.5 -99.5t-80 -122.5l-10 -45q-16 -61 -71.5 -104.5t-114.5 -43.5h-738q-49 -4 -89 -34.5t-62 -73.5h-2l-76 -281q29 61 90 102.5t129 41.5h467l-88 -328 q-10 -37 -32.5 -70t-54.5 -56.5t-69 -37.5t-75 -14h-465l-197 -734q-10 -39 -33.5 -73.5t-56.5 -60t-71 -40t-77 -14.5h-124q-78 -2 -147 -55t-91 -131z" />
<glyph unicode="G" horiz-adv-x="2041" d="M-2 -186l582 2177q10 39 33.5 73.5t56 60t70.5 40t77 14.5l1696 2q-72 0 -142.5 -24.5t-132 -67.5t-110.5 -102.5t-80 -126.5l-8 -37q-8 -31 -27.5 -57.5t-44 -46t-54.5 -32t-61 -12.5h-735q-47 -4 -85 -28.5t-60 -63.5l-258 -965q-1 -8 -1 -15q0 -35 16 -59 q20 -30 61 -40h544q-33 12 -49 28.5t-22.5 38t-6.5 47v56.5q2 18 2 35q0 48 -13 92q-17 59 -56 102t-95.5 67.5t-127.5 24.5l667 2q74 0 114 -46q31 -35 31 -84q0 -15 -3 -31l-179 -689q-8 -31 -27.5 -57.5t-44 -45.5t-54 -31.5t-60.5 -12.5l-1198 -2q-72 -10 -133.5 -61.5 t-81.5 -122.5z" />
<glyph unicode="H" horiz-adv-x="2058" d="M2 -190l582 2181q10 39 34.5 72.5t56.5 59t69.5 40t76.5 14.5l695 2q-76 0 -147 -25.5t-131 -69.5t-108.5 -103.5t-80.5 -129.5l-154 -575q29 66 91.5 108.5t131.5 42.5h320l161 605q16 61 70.5 104t116.5 43h668q-63 0 -126 -24.5t-117 -66.5t-93 -99.5t-58 -120.5 l-465 -1723q-8 -31 -26.5 -57.5t-43 -47t-54 -31.5t-60.5 -11l-356 2l284 1059q-31 -59 -92 -98t-127 -39h-319l-199 -736q-10 -39 -33.5 -73.5t-56.5 -60t-71 -40t-76 -14.5h-125q-78 -4 -146.5 -57.5t-91.5 -130.5z" />
<glyph unicode="I" horiz-adv-x="1536" d="M-2 -184l141 540q16 57 64.5 99.5t105.5 48.5q51 4 90 32.5t62 71.5h2l254 953q2 13 2 24q0 77 -72 96h-151l94 357q8 31 26.5 56.5t44 46t55 31.5t60.5 11l1233 2q-72 0 -141.5 -24.5t-131 -66.5t-110.5 -100.5t-78 -125.5l-12 -39q-16 -59 -67.5 -101t-110.5 -47 q-43 -10 -78 -36.5t-53 -65.5h-2l-254 -950q-2 -14 -2 -27q0 -30 13 -53q19 -33 60 -43h142l-97 -359q-16 -59 -70 -102t-116 -43h-684q-37 -4 -71.5 -20.5t-64.5 -41t-52.5 -56t-30.5 -68.5z" />
<glyph unicode="J" horiz-adv-x="1980" d="M6 147l184 689q25 68 90.5 114.5t139.5 46.5h667q-74 0 -142 -24.5t-129.5 -66.5t-111 -101.5t-81.5 -128.5l-2 -6q-16 -59 -62.5 -104.5t-105.5 -61.5h532q49 4 89 32.5t63 71.5l381 1424q16 61 71.5 104t114.5 43h670q-66 0 -128.5 -24.5t-115.5 -66.5t-93 -99.5 t-57 -120.5l-464 -1723q-16 -61 -70.5 -104t-116.5 -43l-1214 2q-61 0 -93 43q-21 29 -21 65q0 19 5 39z" />
<glyph unicode="K" horiz-adv-x="2056" d="M-2 -188l582 2177q10 39 33.5 73.5t55 60t70.5 40t78 14.5h313l-200 -754q66 0 153.5 6.5t173.5 36t156 92t100 177.5l82 295q16 61 71.5 104t115.5 43h731q-70 0 -138.5 -23.5t-129 -64.5t-109.5 -96.5t-80 -120.5l-80 -301q-16 -55 -67 -85t-113.5 -44.5t-121 -16.5 t-89.5 -2h-655h655q31 0 88.5 -2t112.5 -16t90 -44q24 -21 24 -54q0 -14 -4 -31l-303 -1133q-8 -31 -26.5 -56.5t-44 -46t-55 -31.5t-60.5 -11l-354 2l295 1112q13 49 13 88q0 21 -4 40q-11 52 -43 87t-79 53.5t-100.5 28.5t-107.5 12t-97 2l-334 -1237q-10 -39 -33.5 -73.5 t-56.5 -60t-71 -40t-77 -14.5l-125 2q-78 -4 -146.5 -57.5t-88.5 -130.5z" />
<glyph unicode="L" horiz-adv-x="1689" d="M-2 -188l582 2181q10 39 34.5 72.5t56 59t69.5 40t77 14.5l316 2l-418 -1560q-1 -11 -1 -21q0 -33 14 -58q20 -32 60 -42l902 2l-97 -359q-8 -31 -26.5 -56.5t-44 -46t-55 -31.5t-60.5 -11h-1196q-72 -10 -133.5 -62.5t-79.5 -123.5z" />
<glyph unicode="M" horiz-adv-x="3172" d="M-4 -188q244 412 430 726t324.5 547.5t234.5 394t158.5 266t98.5 164t53.5 87t22.5 36t9 11.5q37 59 102.5 99t124.5 40h670q-66 0 -136.5 -24.5t-137 -66.5t-125 -98.5t-94.5 -119.5l-1119 -1872l-317 -4q-39 0 -82 -15.5t-84 -41t-76 -59.5t-57 -70zM1341 926l658 1110 q18 31 45 57.5t59.5 47t65.5 31.5t63 11h664h6h664q-66 0 -128.5 -24.5t-115.5 -66.5t-93 -98.5t-57 -119.5l-465 -1724q-16 -61 -70 -104.5t-116 -43.5h-354l543 2034q8 31 26.5 56.5t43 46t53 32.5t59.5 12q-63 -2 -133 -26.5t-135.5 -66.5t-123 -97.5t-94.5 -118.5 l-477 -805q-18 -31 -44.5 -56.5t-58.5 -46t-66 -31.5t-64 -11z" />
<glyph unicode="N" horiz-adv-x="2058" d="M2 -188l592 2220q16 61 71.5 104t114.5 43h1733q-68 0 -136.5 -23.5t-128 -63.5t-109.5 -96.5t-81 -119.5l-465 -1731q-8 -31 -27.5 -56.5t-44 -45.5t-54 -31.5t-60.5 -11.5l-356 2l417 1552q1 11 1 22q0 33 -14 57q-19 32 -58 42h-84q-61 12 -109.5 47t-77.5 84 q-28 50 -34 112q-2 16 -2 32q0 48 14 100l-551 -2052h-315q-37 0 -75 -15.5t-71 -40t-56.5 -58.5t-33.5 -72z" />
<glyph unicode="O" horiz-adv-x="2052" d="M-4 -190l584 2181q10 39 34.5 72.5t56 59t69.5 40t77 14.5l1702 2q-72 0 -142.5 -24.5t-132 -68.5t-111.5 -103.5t-79 -127.5q0 -4 -2 -4l-461 -1706q-16 -61 -70.5 -104t-115.5 -43h-1169q-39 -2 -77 -17.5t-71 -40t-57.5 -58.5t-34.5 -72zM584 129q18 68 58 130.5 t93 111.5t118 82.5t132 48.5h78q49 6 89 34.5t62 71.5l287 1067h-383q-47 -6 -86 -34.5t-61 -69.5z" />
<glyph unicode="P" horiz-adv-x="2297" d="M-2 -188l582 2179q12 70 47 108.5t74.5 57t73.5 21.5t44 1h1942q-72 0 -141.5 -24.5t-131 -68.5t-111.5 -102.5t-79 -125.5l-156 -578q-10 -39 -33.5 -74t-56.5 -60.5t-71.5 -40.5t-77.5 -15h-1053q20 68 59 135t91.5 124.5t115 100.5t129.5 59h271q39 0 73.5 2t62 12.5 t48 31t31.5 59.5l38 145l-561 2l2 -2q-39 0 -75.5 -14t-67.5 -39t-53.5 -58.5t-32.5 -72.5l-131 -483l-10 -2l-291 -1092l-316 2q-76 -4 -145.5 -57.5t-89.5 -130.5z" />
<glyph unicode="Q" horiz-adv-x="2015" d="M8 145l504 1891q8 31 27.5 56.5t44 46t54.5 31.5t60 11h1176q78 0 118 -55q26 -36 26 -82q0 -24 -7 -51l-584 -2179q6 23 6 45q0 13 -2 25q-6 34 -25.5 59.5t-50 41t-67.5 15.5l-1171 -2q-61 0 -93 43q-21 29 -21 65q0 19 5 39zM350 -670q39 0 76 15.5t69.5 41t56 59.5 t36.5 71l33 127q10 39 33.5 72.5t55 59t70.5 40t78 14.5h569l-84 -315q-10 -39 -34.5 -73t-56 -59.5t-69.5 -40t-77 -14.5zM608 506h219q55 -18 97.5 -53t67 -83t30.5 -108q2 -14 2 -30q0 -46 -14 -95l129 484q2 4 2 8l282 1050l-401 -2q-43 -10 -79 -40.5t-52 -77.5z" />
<glyph unicode="R" horiz-adv-x="2295" d="M2 -184l582 2179q10 39 34.5 73.5t56.5 60t69.5 40t76.5 14.5h1934q-70 0 -139.5 -23.5t-130 -65.5t-109.5 -99.5t-80 -124.5l-158 -588q-18 -70 -76.5 -122t-128.5 -64q80 0 115 -43q24 -29 24 -66q0 -18 -6 -39l-215 -801q-16 -59 -70.5 -102t-115.5 -43h-354l207 784 q10 41 10 79q0 17 -2 33q-6 52 -33 94t-70 68.5t-98 33.5h-479q20 68 59 135t91.5 124.5t115 99.5t127.5 58h272q39 0 73 2.5t61.5 12.5t48 30.5t30.5 59.5l39 145l-559 2q-78 0 -142.5 -54t-86.5 -132l-119 -447l-303 -1130l-313 2q-39 -2 -77 -17.5t-71 -40t-56.5 -58 t-33.5 -70.5z" />
<glyph unicode="S" horiz-adv-x="2052" d="M-2 -182l143 540q16 59 70.5 103.5t116.5 44.5h729q49 6 89 34.5t62 71.5l185 686q-18 -70 -59.5 -131t-95.5 -111t-118.5 -84t-134.5 -48h-692l287 1067q10 39 34.5 73.5t56 60t69.5 40t77 14.5h1510q-37 0 -75 -15.5t-71 -41t-56.5 -59t-35.5 -70.5l-33 -127 q-10 -39 -33.5 -73t-56.5 -59.5t-70.5 -40t-76.5 -14.5h-695q-49 -6 -88 -34.5t-61 -71.5l-41 -146h999l-342 -1277q-16 -61 -70.5 -104.5t-115.5 -43.5h-1192q-72 -10 -134.5 -61.5t-80.5 -122.5z" />
<glyph unicode="T" horiz-adv-x="1746" d="M199 1677l96 357q16 61 70.5 104t115.5 43h1737q-70 0 -138.5 -23.5t-130 -65.5t-110.5 -98.5t-80 -121.5l-12 -45q-16 -61 -70.5 -104.5t-115.5 -43.5h-359l-399 -1493q-10 -39 -35 -72.5t-56.5 -59t-69.5 -40t-77 -14.5h-127q-37 -2 -74.5 -17.5t-70.5 -40t-56 -58.5 t-34 -70l49 188l67 248l347 1304q2 14 2 27q0 30 -12 53q-18 33 -60 43h-397z" />
<glyph unicode="U" horiz-adv-x="2068" d="M2 -184l582 2177q10 39 33.5 73.5t55.5 60t70.5 40t77.5 14.5h314l-414 -1554q-2 -14 -2 -26q-1 -30 13 -54q20 -33 61 -43v-2h100q61 -14 107.5 -48t74 -83t33.5 -111q2 -16 2 -32q0 -48 -14 -99l508 1905q8 31 27.5 56.5t44 46t54 31.5t60.5 11h670q-66 0 -128.5 -24.5 t-115.5 -65.5t-93 -98.5t-57 -120.5l-464 -1725q-8 -31 -27 -56.5t-44.5 -45.5t-55 -31.5t-60.5 -11.5l-1208 -2q-70 -12 -128.5 -63.5t-76.5 -118.5z" />
<glyph unicode="V" horiz-adv-x="2054" d="M-2 -186l582 2177q10 39 34.5 73.5t56 60t69.5 40t77 14.5h316l-492 -1839l1001 1692q18 31 46 56.5t60 45.5t65.5 31.5t64.5 11.5h668q-66 0 -136.5 -24.5t-137 -65.5t-125 -98.5t-95.5 -120.5l-1024 -1723q-18 -31 -46 -56.5t-59.5 -45.5t-65.5 -31.5t-64 -11.5h-557 q-39 -2 -77 -17.5t-71 -40t-56.5 -58.5t-33.5 -70z" />
<glyph unicode="W" horiz-adv-x="3010" d="M0 -188l51 190l66 248l465 1743q10 39 34.5 72.5t56.5 59t69.5 40t76.5 14.5l316 2l-574 -2146q98 39 187.5 111.5t142.5 162.5l477 803q37 61 105.5 104.5t130.5 43.5l354 -3l-658 -1114q-31 -51 -85 -90t-107 -51q61 4 129 30.5t130.5 68.5t116.5 96.5t91 115.5 l502 838l524 883q18 31 45 57.5t58.5 47t65.5 31.5t64 11h668q-63 0 -134 -24.5t-138.5 -66.5t-125 -98.5t-95.5 -119.5l-1024 -1727q-18 -31 -45 -57.5t-60 -47t-65.5 -31.5t-63.5 -11l-649 4q-4 0 -10.5 -1t-33 -2t-78.5 -1h-147.5t-241 1t-353.5 1q-78 -4 -146.5 -57.5 t-91.5 -130.5z" />
<glyph unicode="X" horiz-adv-x="2105" d="M2 -186l913 1177l-249 1041q-5 20 -5 38q1 37 23 66q34 43 92 43l357 -2q43 -174 74.5 -307t55 -231.5t40 -165t26.5 -109.5q25 -102 29 -115q-2 22 -2 44q0 42 7 88q11 71 34.5 141.5t56.5 135t74 116.5q98 127 172 206.5t128 123.5t93 59.5t70 15.5h667 q-63 0 -139 -24.5t-150.5 -66.5t-143 -99.5t-118.5 -120.5l-688 -881l203 -837q5 -20 5 -38q1 -36 -21 -66q-32 -44 -95 -44l-358 -2l-119 494l-387 -494h-313q-39 0 -84 -15.5t-90 -40t-86 -58t-72 -72.5z" />
<glyph unicode="Y" horiz-adv-x="1945" d="M217 1194l272 838q20 59 77 102t118 43h6l2 2h346l2 2v-2h2l-213 -651q-12 -39 -5 -59.5t28.5 -31t54.5 -12.5t72 -2l315 4l197 605q10 31 30.5 57.5t47 47t56.5 31.5t61 11h669q-66 0 -130 -24.5t-119.5 -66.5t-98.5 -99.5t-63 -120.5l-562 -1723q-10 -31 -30.5 -57.5 t-47 -47t-56 -31.5t-60.5 -11l-357 2l451 1384q-23 -72 -68 -134t-104 -112.5t-129 -84t-139 -45.5l-498 -2q-78 0 -116 55q-22 32 -22 72q0 29 11 61z" />
<glyph unicode="Z" horiz-adv-x="2146" d="M-4 -184l1399 1751l252 311q-72 -88 -166.5 -138t-188.5 -61h-698l96 359q8 31 26.5 56.5t44 46t55.5 31.5t61 11l1826 -2q-66 0 -141.5 -24.5t-151 -66.5t-145.5 -98.5t-121 -119.5l-1251 -1561q63 78 146 127t169 66h662l-98 -357q-16 -61 -70.5 -104t-116.5 -43 l-1257 2q-39 -2 -85 -17.5t-90 -40t-85 -58t-72 -70.5z" />
<glyph unicode="[" horiz-adv-x="1224" d="M8 147l506 1889q8 31 26.5 56.5t44 46t55.5 31.5t60 11h793q-39 0 -76 -15.5t-69.5 -41t-56 -59t-36.5 -70.5l-32 -127q-20 -72 -75.5 -119t-127.5 -66q-41 -12 -74 -41.5t-51 -66.5l-254 -946q-8 -47 12.5 -80t61.5 -43l-2 -2q59 -14 87.5 -65.5t10.5 -119.5l-35 -129 q-18 -76 20 -133t115 -57l-794 2q-61 0 -93 43t-16 102z" />
<glyph unicode="\" horiz-adv-x="985" d="M2 2032q-16 59 16.5 102t94.5 43h667q-63 0 -113.5 -24.5t-82 -65.5t-42 -98.5t6.5 -120.5l432 -1723q16 -59 -16.5 -102t-92.5 -43h-356z" />
<glyph unicode="]" horiz-adv-x="1492" d="M2 0q37 0 75 15.5t69.5 42t56 61.5t37.5 74l32 129q20 72 79 124t130 64q41 12 76 43t51 76l252 946q2 86 -92 115v2q-49 18 -71.5 66t-6.5 110l35 127q16 76 -22.5 131t-114.5 55h792q59 0 91 -43t16 -102l-504 -1891q-8 -31 -27.5 -56.5t-44 -45.5t-54.5 -31.5 t-60 -11.5h-795z" />
<glyph unicode="^" horiz-adv-x="1230" d="M0 825l217 670q10 31 31.5 61.5t50.5 57t61.5 48t67.5 34.5l395 129l314 -129q53 -23 77.5 -82.5t4.5 -118.5l-218 -670q20 63 17.5 129t-26 123.5t-65.5 102.5t-100 69l-41 21q-47 18 -70.5 64t-17.5 100q-29 -53 -83 -99.5t-113 -64.5l-56 -21q-72 -25 -142.5 -69.5 t-130.5 -102t-106.5 -123t-66.5 -129.5z" />
<glyph unicode="_" horiz-adv-x="1738" d="M-2 -186l182 686h1319q78 0 118 -54.5t19 -132.5l-34 -127q-18 -76 20.5 -131t116.5 -55l-1520 -2q-37 -4 -71.5 -19.5t-64.5 -40t-52.5 -56.5t-32.5 -68z" />
<glyph unicode="a" horiz-adv-x="1867" d="M2 2l201 752q18 68 78.5 114.5t128.5 46.5h913q-16 -59 -51 -116.5t-82 -106.5t-101.5 -86t-111.5 -51h-234q-68 -2 -128 -52t-85 -141h484q33 0 65.5 12.5t60 34t48 51t31.5 62.5l106 393l162 -2q68 12 131 47t115 89l-678 2q-53 -1 -82 31q-21 22 -21 53q0 12 4 26 q2 18 2 35q0 100 -60 162q-70 72 -191 72h1062q53 0 81 -33q20 -23 20 -52q0 -12 -4 -26l-312 -1155q-8 -35 -28.5 -64.5t-48 -51t-61.5 -35t-66 -13.5z" />
<glyph unicode="b" horiz-adv-x="1908" d="M0 -184l596 2216q16 61 71.5 104t114.5 43h670q-66 0 -128 -24.5t-115.5 -66.5t-93.5 -99.5t-56 -120.5l-121 -438h819q78 0 119 -56q27 -37 27 -83q0 -24 -7 -50l-331 -1239l-1362 -2q-68 -14 -126.5 -65.5t-76.5 -118.5zM715 596q-4 -19 -4 -37q1 -51 31 -88 q40 -51 114 -51l318 2l106 397q8 28 8 54q0 45 -25 79q-40 54 -116 56h-68q-53 14 -88 53t-52 91t-19 114v18q0 54 10 109z" />
<glyph unicode="c" horiz-adv-x="1804" d="M0 -190l379 1431q10 39 34.5 74t56.5 60.5t70 40t76 14.5h1702q-74 0 -145.5 -29t-138 -90.5t-125 -157.5t-105.5 -231l-889 2q-47 -6 -85.5 -35t-59.5 -70l-51 -196q-2 -13 -2 -25q1 -31 15 -55q20 -33 61 -43h897l-93 -355q-16 -61 -71.5 -104t-114.5 -43l-1188 4 q-37 -4 -72.5 -21.5t-65.5 -43t-52.5 -58.5t-32.5 -69z" />
<glyph unicode="d" horiz-adv-x="2056" d="M-4 -184l379 1425q10 39 34.5 74t56.5 60.5t70.5 40t77.5 14.5h816l161 602q16 61 70.5 104t116.5 43h669q-66 0 -128 -24.5t-115.5 -66.5t-93 -99.5t-56.5 -120.5l-465 -1725q-8 -31 -27.5 -56.5t-44 -46t-54 -31.5t-60.5 -11l-1194 4q-72 -10 -132.5 -62.5 t-80.5 -123.5zM659 422h318h6q63 0 121 39q61 41 94 104l213 791q-25 -59 -59.5 -115.5t-78.5 -103.5t-95.5 -82t-108.5 -49h-68q-39 0 -76.5 -15.5t-69.5 -41t-55.5 -59.5t-33.5 -73v2l-49 -180z" />
<glyph unicode="e" horiz-adv-x="1781" d="M4 111l307 1157q8 33 28.5 62.5t48.5 52t60.5 35t67.5 12.5h1718q-68 0 -134 -23t-126.5 -62.5t-109.5 -93t-80 -116.5l-115 -445q-18 -68 -78.5 -116t-128.5 -48l-913 2q16 57 51 114.5t82 107t101.5 86t111.5 51.5h233q33 0 66 16.5t60.5 42t48 58t30.5 67.5h-481 q-33 0 -65.5 -12t-60.5 -33.5t-49.5 -51.5t-29.5 -63l-98 -383h-356q31 -61 85 -99t123 -52h805q53 0 81 -32q20 -22 20 -52q0 -13 -4 -27l-70 -266h-1133q-52 0 -80 32q-19 22 -20 51q0 13 4 28z" />
<glyph unicode="f" horiz-adv-x="1546" d="M-2 -188l51 190l66 248l381 1427h-2l98 357q16 61 70.5 104t115.5 43h1237q-72 0 -142.5 -24.5t-132 -68.5t-111.5 -103.5t-79 -126.5l-2 -3l-6 -28q-16 -61 -71.5 -104.5t-114.5 -43.5l-240 -2q-47 -4 -85 -31.5t-60 -68.5l-78 -285q31 59 91 98.5t126 39.5h336 l-86 -328q-10 -37 -33.5 -70t-55.5 -56.5t-69 -37.5t-76 -14l-331 2l-197 -740q-10 -39 -34.5 -73.5t-56.5 -60t-70 -40t-77 -14.5l-127 2q-76 -4 -145.5 -57.5t-89.5 -130.5z" />
<glyph unicode="g" horiz-adv-x="2021" d="M-201 -760q39 0 76 15.5t69.5 41t56.5 60.5t36 72l33 127q10 39 33.5 72.5t55 59t70.5 40t78 14.5l1323 2q4 29 4 56q0 36 -7 70q-13 60 -44 108.5t-79 81t-109 42.5h-174l174 723q6 24 6 46q0 49 -28 85q-40 54 -118 54h-561l-61 -301q-7 -26 -7 -50q0 -12 2 -24 q5 -35 23.5 -60.5t48 -41t68.5 -15.5l272 2q57 -18 98.5 -60t65 -99.5t28.5 -124.5q1 -15 1 -31q0 -51 -12 -103l-1063 -2q-39 0 -70 14.5t-50.5 40t-24.5 60.5q-2 12 -2 24q0 24 7 50l287 1141h1565q78 0 119 -56q27 -36 27 -83q0 -24 -7 -50l-377 -1495l-98 -358 q-16 -59 -70.5 -103.5t-115.5 -44.5h-1549z" />
<glyph unicode="h" horiz-adv-x="1894" d="M-2 -184l592 2218q16 59 70.5 102t115.5 43h668q-66 0 -128.5 -24.5t-115.5 -65.5t-93 -98.5t-56 -120.5l-455 -1682q-10 -39 -33.5 -72.5t-56.5 -59t-71 -41t-77 -15.5h-125q-39 0 -76.5 -15.5t-69.5 -40t-55.5 -58t-33.5 -70.5zM925 1294q-1 16 -1 33q0 52 12 103h811 q39 0 69.5 -15.5t49 -41t24.5 -60.5q2 -13 2 -27q0 -23 -6 -47l-194 -725h-2l-138 -514h-356q-59 0 -91 43q-21 28 -21 63q0 19 6 39l186 707q1 8 1 17q0 55 -36 94q-41 45 -125 47q-57 18 -99 60t-64.5 99t-27.5 125z" />
<glyph unicode="i" horiz-adv-x="931" d="M-2 -188l391 1472q8 31 26.5 56.5t44 46t55.5 32t60 11.5h359l-336 -1246q-10 -39 -34.5 -72.5t-56.5 -59t-70 -40t-77 -14.5h-127q-37 0 -74.5 -15.5t-70.5 -41t-56.5 -59.5t-33.5 -70z" />
<glyph unicode="j" horiz-adv-x="1748" d="M-176 -608l180 667q-12 -44 -12 -84q0 -19 3 -38q9 -56 40 -97t81 -65.5t115 -24.5l320 -2v2q49 4 89 34t62 73l381 1425q16 61 71.5 104.5t115.5 43.5h669q-66 0 -128 -25t-115.5 -67t-93 -99t-56.5 -121l-465 -1726q-16 -61 -70.5 -104.5t-115.5 -43.5h-963 q-61 0 -93 43q-21 28 -21 64q0 19 6 41zM1200 1675l90 342q12 33 36 62.5t54.5 52t65.5 35t72 12.5h690q-68 0 -135.5 -22.5t-128 -65.5t-110.5 -103.5t-85 -136.5q-10 -37 -33.5 -68.5t-55.5 -56t-69 -38t-75 -13.5h-316z" />
<glyph unicode="k" horiz-adv-x="1671" d="M0 -186l594 2220q16 61 70.5 104t115.5 43h357l-338 -1253q57 10 110.5 37.5t98.5 67.5t77.5 91.5t49.5 108.5l84 299q16 61 70 104t116 43h735q-72 0 -142.5 -24.5t-132 -68.5t-110.5 -103.5t-80 -126.5q0 -2 -4 -6l-74 -281q-16 -55 -64 -96t-103 -49q52 -6 78 -47 q16 -26 17 -60q0 -18 -5 -39l-209 -778h-357q-59 0 -91 43q-21 28 -21 63q0 19 6 39l121 469q12 45 12 85q-1 64 -31 117q-50 85 -153 104l-197 -734q-10 -39 -33.5 -72.5t-56.5 -59t-71 -40t-77 -14.5h-124q-78 -2 -148 -55.5t-90 -130.5z" />
<glyph unicode="l" horiz-adv-x="972" d="M-2 -188l598 2226q8 31 26.5 56.5t44 46t55.5 31.5t60 11h359l-543 -1999q-10 -39 -34.5 -72.5t-56.5 -59t-70 -40t-77 -14.5h-127q-37 0 -74.5 -15.5t-70.5 -41t-56.5 -59.5t-33.5 -70z" />
<glyph unicode="m" horiz-adv-x="2295" d="M-2 -188l49 188l68 248l262 993q10 39 33.5 74t56.5 60.5t70.5 40t76.5 14.5h930q59 0 91 -44q21 -29 21 -64q0 -18 -5 -38l-342 -1284h-357q-61 0 -93 43q-21 28 -21 64q0 19 6 40l258 973q10 42 10 81q0 13 -1 27q-5 52 -28.5 94t-63.5 69.5t-91 38.5l-332 -1246 q-10 -39 -33.5 -72.5t-56.5 -58t-71 -39t-77 -14.5h-125q-39 0 -76.5 -15.5t-69.5 -42t-55.5 -60.5t-33.5 -70zM1534 147l256 973q12 42 12 82q0 20 -3 38q-9 58 -39.5 99t-81 66t-113.5 25h1192q-74 0 -142.5 -25t-129 -68t-109.5 -102t-82 -129l-297 -1106h-357 q-58 0 -90 43q-21 29 -21 65q0 18 5 39z" />
<glyph unicode="n" horiz-adv-x="1603" d="M0 -186l49 188l68 248l262 991q10 39 34.5 74t56.5 60.5t70 40t76 14.5h1457q-76 0 -148 -26t-133 -70t-109.5 -103.5t-76.5 -128.5l-295 -1102h-357q-59 0 -91 43q-21 28 -21 63q0 19 6 39l256 975q10 42 10 81q0 13 -1 27q-5 52 -28.5 94t-63.5 69.5t-91 38.5 l-330 -1244q-10 -39 -34.5 -72.5t-56.5 -59t-70 -40t-77 -14.5h-126q-37 0 -75 -15.5t-71 -41t-56.5 -59.5t-33.5 -70z" />
<glyph unicode="o" horiz-adv-x="1851" d="M-2 -188l283 1050l102 379q10 39 33.5 74t56.5 60.5t72 40t78 14.5h1687q-70 0 -139.5 -25t-130 -68t-109.5 -100t-80 -125l-249 -924q-10 -39 -35 -73.5t-56.5 -60t-70.5 -40t-78 -14.5h-1137q-37 -4 -73.5 -20.5t-67.5 -42t-53.5 -57.5t-32.5 -68zM557 18 q23 66 64 129.5t94 117.5t114.5 93t124.5 56h21q78 2 146.5 56t88.5 132l109 408h-307q-39 0 -77 -14.5t-69.5 -40t-56.5 -59.5t-35 -73l-57 -211z" />
<glyph unicode="p" horiz-adv-x="1798" d="M-250 -936l582 2177q10 39 34.5 74t56.5 60.5t70.5 40t77.5 14.5h1690q-70 0 -139.5 -25t-130 -67t-109.5 -99t-80 -125l-250 -926q-10 -39 -34.5 -73.5t-56 -60t-70.5 -41t-78 -15.5l-811 2q20 68 61 134.5t96.5 123.5t124 99t142.5 61q78 2 146.5 56t88.5 132l109 404 l-307 -2q-39 0 -77 -14.5t-70 -39t-56.5 -58.5t-36.5 -73l-221 -823l-152 -561q-10 -39 -33.5 -74t-56.5 -60.5t-70.5 -40t-76.5 -14.5l-125 2q-78 -4 -146.5 -57t-91.5 -131z" />
<glyph unicode="q" horiz-adv-x="1759" d="M5 112q-2 12 -2 24q0 24 7 50l334 1244h1880q-72 0 -141.5 -25t-131 -68t-110.5 -101t-80 -126l-413 -1552q-10 -42 -10 -81q0 -21 3 -41q9 -57 39.5 -97.5t79.5 -65.5t115 -25h-668q-61 0 -93 43q-21 28 -21 63q0 19 6 40l159 606l-808 -2q-39 0 -70 14.5t-50.5 40 t-24.5 59.5zM625 604v2q-7 -25 -7 -48q0 -48 28 -85q42 -55 134 -55q55 -16 95 -56t64 -93.5t31 -116.5q3 -24 3 -47q0 -40 -8 -80l221 819q2 14 2 27q0 54 -33 92q-41 47 -113 47h-309z" />
<glyph unicode="r" horiz-adv-x="1482" d="M0 -186l379 1427q10 39 33.5 74t55.5 60.5t71 40t77 14.5h316l-35 -125q33 53 90 89t121 36h465l-86 -330q-10 -37 -33.5 -70t-55.5 -56.5t-69 -37.5t-76 -14h-458l-197 -736q-10 -39 -33.5 -72.5t-56.5 -59t-71 -40t-77 -14.5h-124q-39 0 -77 -15.5t-70 -41t-55.5 -59.5 t-33.5 -70z" />
<glyph unicode="s" horiz-adv-x="1890" d="M0 -184l184 690h1198q63 0 127 24.5t117 66.5t93 98.5t57 121.5l-179 -672q-8 -31 -26.5 -56.5t-44 -45.5t-55 -31.5t-60.5 -11.5h-1200q-70 -10 -131.5 -61.5t-79.5 -122.5zM213 616l178 666q16 61 70.5 104.5t116.5 43.5h1550q-39 0 -76 -15.5t-69.5 -41t-56 -59.5 t-36.5 -71l-32 -125q-10 -39 -34 -73.5t-56.5 -61.5t-70.5 -42t-77 -15h-1014q-66 0 -128 -24.5t-115.5 -66.5t-93.5 -98.5t-56 -120.5z" />
<glyph unicode="t" horiz-adv-x="1732" d="M383 1427l90 342q12 33 35.5 63t54.5 52.5t66 34.5t71 12h336l29 103q16 61 70.5 104t115.5 43h355l-105 -387q31 59 91.5 98t125.5 39h336l-86 -327q-10 -37 -33.5 -69t-55.5 -56.5t-68.5 -38t-75.5 -13.5h-332l-332 -1241q-10 -39 -33.5 -73.5t-56.5 -60t-71 -40 t-76 -14.5l-127 2q-76 -4 -145.5 -57.5t-90.5 -130.5l51 188l66 250l360 1352q-10 -37 -32.5 -69t-54.5 -55.5t-68.5 -37t-75.5 -13.5h-334z" />
<glyph unicode="u" horiz-adv-x="1607" d="M0 -186l379 1427q10 39 34.5 74t56.5 60.5t70 40t76 14.5h316l-379 -1426q57 10 111.5 38t99.5 68t77.5 91t49.5 108l258 975q16 61 71.5 103.5t114.5 42.5h738q-72 0 -142.5 -25t-132 -68t-111 -102t-77.5 -127l-2 -6t-9.5 -34t-23.5 -85t-44 -163.5t-72 -270.5 t-107 -402q-16 -61 -70.5 -104t-116.5 -43h-929q-37 0 -75 -15.5t-71 -41t-56.5 -59.5t-33.5 -70z" />
<glyph unicode="v" horiz-adv-x="1849" d="M-2 -186l379 1427q10 39 34.5 74t56.5 60.5t69.5 40t76.5 14.5h316l-379 -1420l881 1272q16 31 41.5 57.5t56.5 47t63.5 32t63.5 11.5h667q-63 0 -127.5 -25t-126 -67t-118 -99t-103.5 -121l-725 -971q-16 -31 -41.5 -57.5t-56.5 -46.5t-63.5 -31.5t-63.5 -11.5h-666 q-37 0 -74.5 -15.5t-70.5 -41t-56.5 -59.5t-33.5 -70z" />
<glyph unicode="w" horiz-adv-x="2109" d="M2 -186l381 1429q10 39 33.5 73t55.5 59.5t71 40t78 14.5h313l-332 -1242q-10 -39 -33.5 -73.5t-56.5 -60t-71 -40t-76 -14.5h-125q-78 -4 -147.5 -56.5t-90.5 -129.5zM379 0q63 0 126.5 24.5t117 66.5t93.5 98.5t56 121.5l262 973q16 61 70.5 103.5t116.5 42.5h356 l-293 -1119q-11 -42 -11 -80q0 -25 5 -49q12 -59 47 -102l322 1202q16 61 70.5 104.5t115.5 43.5h668q-63 0 -126 -25t-117 -67t-93 -99t-58 -121l-262 -971q-16 -61 -70.5 -104t-115.5 -43h-1280z" />
<glyph unicode="x" horiz-adv-x="1759" d="M-4 -186l731 757l-305 711q-14 32 -14 59q0 25 12 45q24 44 84 44h358l258 -605q6 29 18.5 64t42 85t85 125t147.5 183q29 31 67 57.5t76.5 47t76.5 32t69 11.5h668q-63 0 -143.5 -25t-163.5 -67t-162.5 -98t-141.5 -120l-528 -549l182 -424q14 -31 14 -58q1 -24 -11 -45 q-24 -44 -87 -44h-356l-90 211l-205 -211h-316q-39 0 -87 -15.5t-98 -41t-97 -59.5t-84 -70z" />
<glyph unicode="y" horiz-adv-x="1941" d="M0 -184l457 1423q12 39 38.5 74t60.5 60.5t74 41t79 15.5h317l-293 -902q-10 -37 -2 -57t30.5 -29.5t55.5 -11.5t70 -2l321 2l279 850q20 61 77.5 105.5t118.5 44.5h674q-66 0 -130 -25t-120.5 -68t-99.5 -100t-63 -121l-568 -1728q-20 -61 -77.5 -103.5t-118.5 -42.5 h-357l367 1145q-23 -72 -68 -136.5t-104.5 -115.5t-129 -87t-140.5 -48h-527q-37 -6 -71.5 -22.5t-64.5 -41t-52.5 -55.5t-32.5 -65z" />
<glyph unicode="z" horiz-adv-x="2164" d="M0 -186l51 198q8 37 35 74q4 4 12 14.5t40 41t97.5 91t183.5 167t297 269t439 398.5q-66 -59 -141.5 -93t-149.5 -42l-559 2l82 307q10 39 33.5 74t55.5 60.5t71 40t78 14.5h1544q-29 0 -59.5 -10.5t-83 -45.5t-134.5 -103.5t-214 -186t-323.5 -292t-461.5 -421.5 q59 53 128 87t138 44l653 -2l-81 -312q-10 -39 -34 -73.5t-56.5 -60t-70.5 -40t-77 -14.5h-1255q-78 -4 -146.5 -56.5t-91.5 -129.5z" />
<glyph unicode="{" horiz-adv-x="1751" d="M0 1018v2v2h2l242 352q20 31 51 56.5t64.5 46t68.5 32t66 11.5h47q47 6 85 32.5t60 67.5l133 412q10 31 30.5 57.5t47.5 45.5t56.5 31.5t60.5 12.5h735q-72 0 -142.5 -24.5t-135 -67.5t-118 -102.5t-85.5 -126.5l-109 -338h2q-66 0 -138.5 -25t-143 -65.5t-134 -98 t-108.5 -121.5l-35 -47q-35 -53 -94 -92t-117 -51q49 -12 82 -51t37 -92l4 -48q2 -66 28.5 -122t69.5 -98t100.5 -66.5t123.5 -24.5h-2l-66 -199q-10 -68 5 -126t51 -101t91.5 -67.5t126.5 -24.5h-733q-61 0 -90 43t-8 102l82 254h-2q10 47 -7.5 78t-56.5 41h-59 q-61 0 -105.5 44t-48.5 104z" />
<glyph unicode="|" horiz-adv-x="1398" d="M0 0l545 2032q16 61 71.5 104t114.5 43h670q-66 0 -128.5 -24.5t-115.5 -66.5t-93 -98.5t-56 -119.5l-465 -1723q-16 -61 -70.5 -104t-116.5 -43h-356z" />
<glyph unicode="}" horiz-adv-x="1705" d="M0 0q70 0 141.5 24.5t136 67.5t116.5 101t87 126l64 199h-2q63 0 137 24.5t144.5 66.5t134 98.5t108.5 121.5l35 48q37 53 96 92t115 51q-49 12 -82 51t-35 92l-6 47q-2 63 -28.5 121t-69.5 98.5t-101.5 65.5t-122.5 25h2l111 338q10 68 -4 127t-50 102t-91.5 67.5 t-126.5 24.5h733q61 0 91 -44t9 -103l-133 -412q-4 -41 17.5 -67.5t62.5 -32.5h49q59 0 104.5 -43t47.5 -103l14 -352h2l-2 -2v-2h-2l-242 -352q-20 -31 -51 -57.5t-64.5 -46t-67.5 -32t-65 -12.5h-61q-45 -10 -83 -41t-58 -78l-84 -254q-10 -31 -29.5 -56.5t-46.5 -45.5 t-57.5 -31.5t-61.5 -11.5h-731z" />
<glyph unicode="&#xad;" d="M0 928l86 315q10 39 34.5 73t56.5 59.5t70 40t77 14.5h1251q-37 0 -75 -15.5t-69.5 -41t-56 -60.5t-35.5 -72l-32 -127q-10 -39 -35 -72.5t-56.5 -59.5t-69.5 -40t-77 -14h-1069z" />
<glyph unicode="&#x2000;" horiz-adv-x="1333" />
<glyph unicode="&#x2001;" horiz-adv-x="2666" />
<glyph unicode="&#x2002;" horiz-adv-x="1333" />
<glyph unicode="&#x2003;" horiz-adv-x="2666" />
<glyph unicode="&#x2004;" horiz-adv-x="888" />
<glyph unicode="&#x2005;" horiz-adv-x="666" />
<glyph unicode="&#x2006;" horiz-adv-x="444" />
<glyph unicode="&#x2007;" horiz-adv-x="444" />
<glyph unicode="&#x2008;" horiz-adv-x="333" />
<glyph unicode="&#x2009;" horiz-adv-x="533" />
<glyph unicode="&#x200a;" horiz-adv-x="148" />
<glyph unicode="&#x2010;" d="M0 928l86 315q10 39 34.5 73t56.5 59.5t70 40t77 14.5h1251q-37 0 -75 -15.5t-69.5 -41t-56 -60.5t-35.5 -72l-32 -127q-10 -39 -35 -72.5t-56.5 -59.5t-69.5 -40t-77 -14h-1069z" />
<glyph unicode="&#x2011;" d="M0 928l86 315q10 39 34.5 73t56.5 59.5t70 40t77 14.5h1251q-37 0 -75 -15.5t-69.5 -41t-56 -60.5t-35.5 -72l-32 -127q-10 -39 -35 -72.5t-56.5 -59.5t-69.5 -40t-77 -14h-1069z" />
<glyph unicode="&#x2012;" d="M0 928l86 315q10 39 34.5 73t56.5 59.5t70 40t77 14.5h1251q-37 0 -75 -15.5t-69.5 -41t-56 -60.5t-35.5 -72l-32 -127q-10 -39 -35 -72.5t-56.5 -59.5t-69.5 -40t-77 -14h-1069z" />
<glyph unicode="&#x2013;" horiz-adv-x="1021" d="M0 928l56 315q6 39 22 73t37 59.5t45.5 40t50.5 14.5h813q-24 0 -48.5 -15.5t-45 -41t-36.5 -60.5t-23 -72l-21 -127q-7 -39 -23 -72.5t-36.5 -59.5t-45.5 -40t-50 -14h-695z" />
<glyph unicode="&#x2014;" horiz-adv-x="2045" d="M0 928l112 315q13 39 45 73t73.5 59.5t91 40t99.5 14.5h1627q-48 0 -97.5 -15.5t-90.5 -41t-73 -60.5t-46 -72l-41 -127q-13 -39 -46 -72.5t-73.5 -59.5t-90 -40t-100.5 -14h-1390z" />
<glyph unicode="&#x2018;" horiz-adv-x="663" d="M0 1669l289 885q-25 -74 -21 -137.5t33 -112.5t78 -82t115 -43h170l-109 -348q-14 -35 -38.5 -63.5t-56.5 -51t-69 -35t-74 -12.5h-317z" />
<glyph unicode="&#x2019;" horiz-adv-x="1007" d="M373 1675l90 342q25 70 90 116t139 46h318l-238 -885q20 72 11 136.5t-39.5 114.5t-82 84t-116.5 46h-172z" />
<glyph unicode="&#x201c;" horiz-adv-x="1316" d="M0 1673l289 885q-25 -74 -21 -138.5t33 -114.5t78 -83t115 -43h170l-109 -344q-14 -35 -38.5 -63.5t-56.5 -51t-69 -35t-74 -12.5h-317zM651 1673l289 885q-25 -72 -19.5 -136.5t33 -114.5t76.5 -84t115 -44h170l-109 -344q-14 -35 -38.5 -63.5t-56.5 -51t-68.5 -35 t-73.5 -12.5h-318z" />
<glyph unicode="&#x201d;" horiz-adv-x="1662" d="M371 1673l90 344q12 33 34.5 62.5t53.5 52t66.5 35t72.5 12.5h318l-238 -885q20 72 12 136.5t-39.5 115.5t-83 84t-116.5 43h-170zM1022 1673l90 344q12 33 35.5 62.5t54.5 52t66 35t71 12.5h318l-238 -885q20 72 12 136.5t-39.5 115.5t-83 84t-116.5 43h-170z" />
<glyph unicode="&#x202f;" horiz-adv-x="533" />
<glyph unicode="&#x205f;" horiz-adv-x="666" />
<glyph unicode="&#x25fc;" horiz-adv-x="1433" d="M0 0v1434h1434v-1434h-1434z" />
</font>
</defs>
</svg>
