<?xml version="1.0" standalone="no"?>
<!DOCTYPE svg PUBLIC "-//W3C//DTD SVG 1.1//EN" "http://www.w3.org/Graphics/SVG/1.1/DTD/svg11.dtd" >
<svg xmlns="http://www.w3.org/2000/svg" xmlns:xlink="http://www.w3.org/1999/xlink" version="1.1">
<metadata></metadata>
<defs>
<font id="veron_extraregular" horiz-adv-x="1593" >
<font-face units-per-em="2048" ascent="1638" descent="-410" />
<missing-glyph horiz-adv-x="1024" />
<glyph horiz-adv-x="0" />
<glyph horiz-adv-x="682" />
<glyph unicode=" "  horiz-adv-x="1024" />
<glyph unicode="&#x09;" horiz-adv-x="1024" />
<glyph unicode="&#xa0;" horiz-adv-x="1024" />
<glyph unicode="A" horiz-adv-x="2119" d="M35 0l977 1536h96l977 -1536h-96l-105 164h-1464l-105 -164h-96l105 164h-88l-105 -164h-96zM297 260h88l719 1129l-45 69zM481 260h1342l-672 1053z" />
<glyph unicode="B" horiz-adv-x="1380" d="M102 850q0 435 2 668h596q162 0 300.5 -64.5t219 -174.5t80.5 -239q0 -158 -116 -280q116 -125 116 -281q0 -129 -80.5 -239.5t-219 -175t-300.5 -64.5h-596q-2 279 -2 850zM221 102h23v1321h-23v-1321zM268 102l432 2q131 0 242 50.5t175.5 137.5t64.5 191 q0 111 -78 205q-87 -66 -233.5 -95.5t-464.5 -29.5v395q317 -1 462 -30.5t232 -93.5q82 102 82 210q0 154 -139.5 266.5t-335.5 112.5h-439v-1321zM524 666q212 0 319.5 24t178.5 74q-73 49 -180 72.5t-318 23.5v-194z" />
<glyph unicode="C" horiz-adv-x="1654" d="M68 768q0 209 109 385.5t296.5 279.5t409.5 103q210 0 390.5 -94t291.5 -252h-142q-97 118 -240 186t-304 68q-152 0 -286.5 -60t-232.5 -165v-900q97 -104 232 -162.5t287 -58.5q183 0 338 84t249 228h138q-104 -186 -297.5 -298t-423.5 -112q-222 0 -409.5 103 t-296.5 279.5t-109 385.5zM182 770q0 -155 70 -295v590q-70 -140 -70 -295z" />
<glyph unicode="D" horiz-adv-x="1673" d="M102 0v1536h750q204 0 377 -103t274 -280t101 -385t-101 -385t-274 -280t-377 -103h-750zM203 104h51v1336h-51v-1336zM291 104h563q178 0 329.5 89.5t239.5 243.5t88 335t-88 335t-239.5 243.5t-329.5 89.5h-563v-1336z" />
<glyph unicode="E" horiz-adv-x="1171" d="M102 0v1509h1063v-96h-895v-633h707v-51h-707v-633h895v-96h-1063zM203 96h35v633h-35v-633zM203 780h35v633h-35v-633z" />
<glyph unicode="F" horiz-adv-x="1470" d="M102 0v1536h1368v-100h-1202v-510h791v-111h-791v-815h-166zM203 47h33v768h-33v-768zM203 926h33v510h-33v-510z" />
<glyph unicode="G" horiz-adv-x="1755" d="M70 768q0 130 43.5 249t120.5 211t177 160t218.5 104t240.5 36q142 0 279 -52.5t252 -158.5v-105q-120 107 -269 167.5t-298 60.5q-139 0 -263 -54.5t-213 -164.5v-893q100 -106 238.5 -167t292.5 -61q246 0 438.5 155.5t251.5 416.5l-387 2v100h491v-774h-104v362 q-111 -166 -295 -264t-399 -98q-222 0 -409.5 103t-296.5 279.5t-109 385.5zM176 774q0 -180 92 -330v660q-92 -153 -92 -330z" />
<glyph unicode="H" horiz-adv-x="1720" d="M82 291v96l100 49v1100h178v-1010l1162 582v428h96v-1536h-96v1012l-1162 -582v-430h-178v340zM227 41h37v340l-37 -19v-321zM227 459l37 18v1014h-37v-1032z" />
<glyph unicode="I" horiz-adv-x="942" d="M27 0v100h379v1336h-197v100h543v-100h-164v-1336h319v-100h-880zM506 100h49v1336h-49v-1336z" />
<glyph unicode="J" horiz-adv-x="1212" d="M14 -219h111q62 -89 162 -142t211 -53q186 0 313 146v1704h-465v100h807v-100h-137v-1413q0 -150 -71 -272.5t-191.5 -191.5t-264.5 -69q-156 0 -283.5 80t-191.5 211zM866 -184q46 87 49 204v1416h-49v-1620z" />
<glyph unicode="K" horiz-adv-x="1282" d="M102 0v1536h101v-1024l608 1024h100l-303 -518l49 -84l361 602h100l-409 -688l505 -848h-100l-455 764l-454 -764h-103zM203 164l405 684l-53 90l-352 -594v-180z" />
<glyph unicode="L" horiz-adv-x="1222" d="M102 0v1536h205v-1436h916v-100h-1121zM152 100h55v1358h-55v-1358z" />
<glyph unicode="M" horiz-adv-x="1902" d="M29 0l977 1536h98l4 -932l590 932h102v-1538h-102v1384l-588 -927v-455h-98v303l-193 -303h-96l285 455v825l-820 -1280h-159zM141 27h33l834 1300v62z" />
<glyph unicode="N" horiz-adv-x="1595" d="M102 0v1536h125l-2 -2l1057 -1296v1298h207v-1536l2 -2h-123l-1141 1386v-1384h-125zM1335 186l29 -34v1355h-29v-1321z" />
<glyph unicode="O" horiz-adv-x="1742" d="M70 768q0 156 63.5 298.5t170.5 245t255 163.5t311 61q217 0 402 -103t293 -280t108 -385t-108 -385t-293 -280t-402 -103q-163 0 -311 61t-255 163.5t-170.5 245t-63.5 298.5zM180 778q0 -200 101 -360v694q-101 -157 -101 -334zM358 319q98 -101 234 -155.5t287 -54.5 q182 0 339 90t250 244t93 333q0 134 -55 256.5t-147 210t-218 139.5t-262 52q-148 0 -284.5 -59.5t-236.5 -164.5v-891z" />
<glyph unicode="P" horiz-adv-x="1083" d="M102 0v1536h484q131 0 242 -62t176 -168t65 -231t-65 -231t-176 -168t-242 -62h-279v91h279q158 0 272.5 111.5t114.5 266.5q0 152 -114 260.5t-273 108.5h-338v-1452h-146zM203 35h22v1417h-22v-1417z" />
<glyph unicode="Q" horiz-adv-x="1716" d="M49 768q0 209 107.5 385.5t292 279.5t401.5 103t402 -103t293 -280t108 -385q0 -240 -141 -434.5t-367 -280.5l190 -299h-96l-174 273q-102 -27 -215 -27q-217 0 -401.5 103t-292 279.5t-107.5 385.5zM160 778q0 -201 100 -360v694q-100 -156 -100 -334zM338 319 q98 -101 233.5 -155.5t286.5 -54.5q71 0 146 16l-107 166h96l92 -144q199 72 327 245t128 384q0 134 -55 256.5t-147 210t-218 139.5t-262 52q-148 0 -284 -59.5t-236 -164.5v-891z" />
<glyph unicode="R" horiz-adv-x="1134" d="M102 0v1536h484q131 0 242 -62t176 -168t65 -231t-65 -231t-176 -168t-242 -62h-129l559 -614h-158l-551 614v91h279q158 0 272.5 111.5t114.5 266.5q0 152 -114 260.5t-273 108.5h-334v-1452h-150zM203 39h22v1413h-22v-1413z" />
<glyph unicode="S" horiz-adv-x="1140" d="M68 1139q0 109 67 200.5t183 145t253 53.5q198 0 341.5 -107t158.5 -264h-98q-9 81 -68 150.5t-151 109t-193 39.5q-163 0 -278 -94v-448q59 -32 139.5 -62t151.5 -51.5t147.5 -46.5t136.5 -56t109.5 -71.5t76.5 -100.5t27 -137q0 -109 -67 -201t-182 -146t-251 -54 q-187 0 -327.5 98t-167.5 242h100q22 -114 132 -190t253 -76q43 0 84 6l289 446q-37 50 -91.5 89t-113 64t-124.5 45.5t-129.5 38.5t-124 38.5t-111.5 49t-89.5 66t-60.5 94.5t-22 130zM172 1153q0 -95 64 -178v348q-64 -76 -64 -170zM723 100q108 38 179 117.5t71 173.5 q0 26 -12 76z" />
<glyph unicode="T" horiz-adv-x="1804" d="M14 1434v102h1776v-102h-815v-1434h-164v1434h-797zM911 51h31v1383h-31v-1383z" />
<glyph unicode="U" d="M86 768v768h162v-1038q70 -173 215.5 -278t324.5 -105h17q179 0 325 105t216 278v1038h161v-768q0 -156 -55.5 -298t-150 -244.5t-225 -163.5t-273.5 -62h-10q-192 0 -355 103t-257.5 279.5t-94.5 385.5zM195 774q0 -100 24 -188v919h-24v-731zM1374 586q25 92 25 188 v731h-25v-919z" />
<glyph unicode="V" horiz-adv-x="2121" d="M37 1536h96l852 -1341l852 1339h96l-901 -1415l29 -43l930 1460h96l-977 -1536h-96l-29 43l-29 -45h-96l78 121z" />
<glyph unicode="W" horiz-adv-x="2816" d="M33 1319h110l781 -1231l350 549l-432 682h110l377 -594l379 594h111l-308 -485l353 -543l794 1247h111l-979 -1538h-111l-350 549l-348 -549h-111zM1386 637l349 -549l75 117l-354 543z" />
<glyph unicode="X" horiz-adv-x="1390" d="M80 0l493 776l-479 760h258l353 -555l352 555h96l-401 -631l577 -905h-258l-448 702l-447 -702h-96zM227 1477l396 -621l32 49l-362 572h-66zM672 778l471 -741h65l-503 792z" />
<glyph unicode="Y" horiz-adv-x="1163" d="M78 1536h176l403 -639l406 639h96l-977 -1536h-96l485 762zM193 1507l425 -671l15 22l-410 649h-30z" />
<glyph unicode="Z" horiz-adv-x="1300" d="M35 0l1001 1436h-1001v100h1220l-22 -33l-952 -1368h921v-18h-991l-12 -19h970l33 15v-113h-1167zM223 135h39l807 1159l143 209h-41zM1202 113l10 4h-10v-4z" />
<glyph unicode="a" horiz-adv-x="2119" d="M35 0l977 1536h96l977 -1536h-96l-105 164h-1464l-105 -164h-96l105 164h-88l-105 -164h-96zM297 260h88l719 1129l-45 69zM481 260h1342l-672 1053z" />
<glyph unicode="b" horiz-adv-x="1380" d="M102 850q0 435 2 668h596q162 0 300.5 -64.5t219 -174.5t80.5 -239q0 -158 -116 -280q116 -125 116 -281q0 -129 -80.5 -239.5t-219 -175t-300.5 -64.5h-596q-2 279 -2 850zM221 102h23v1321h-23v-1321zM268 102l432 2q131 0 242 50.5t175.5 137.5t64.5 191 q0 111 -78 205q-87 -66 -233.5 -95.5t-464.5 -29.5v395q317 -1 462 -30.5t232 -93.5q82 102 82 210q0 154 -139.5 266.5t-335.5 112.5h-439v-1321zM524 666q212 0 319.5 24t178.5 74q-73 49 -180 72.5t-318 23.5v-194z" />
<glyph unicode="c" horiz-adv-x="1656" d="M68 768q0 209 109 385.5t296.5 279.5t409.5 103q210 0 390.5 -94t291.5 -252h-142q-97 118 -240 186t-304 68q-152 0 -286.5 -60t-232.5 -165v-900q97 -104 232 -162.5t287 -58.5q183 0 338 84t249 228h138q-104 -186 -297.5 -298t-423.5 -112q-222 0 -409.5 103 t-296.5 279.5t-109 385.5zM182 770q0 -155 70 -295v590q-70 -140 -70 -295z" />
<glyph unicode="d" horiz-adv-x="1673" d="M102 0v1536h750q204 0 377 -103t274 -280t101 -385t-101 -385t-274 -280t-377 -103h-750zM203 104h51v1336h-51v-1336zM291 104h563q178 0 329.5 89.5t239.5 243.5t88 335t-88 335t-239.5 243.5t-329.5 89.5h-563v-1336z" />
<glyph unicode="e" horiz-adv-x="1171" d="M102 0v1509h1063v-96h-895v-633h707v-51h-707v-633h895v-96h-1063zM203 96h35v633h-35v-633zM203 780h35v633h-35v-633z" />
<glyph unicode="f" horiz-adv-x="1470" d="M102 0v1536h1368v-100h-1202v-510h791v-111h-791v-815h-166zM203 47h33v768h-33v-768zM203 926h33v510h-33v-510z" />
<glyph unicode="g" horiz-adv-x="1755" d="M70 768q0 130 43.5 249t120.5 211t177 160t218.5 104t240.5 36q142 0 279 -52.5t252 -158.5v-105q-120 107 -269 167.5t-298 60.5q-139 0 -263 -54.5t-213 -164.5v-893q100 -106 238.5 -167t292.5 -61q246 0 438.5 155.5t251.5 416.5l-387 2v100h491v-774h-104v362 q-111 -166 -295 -264t-399 -98q-222 0 -409.5 103t-296.5 279.5t-109 385.5zM176 774q0 -180 92 -330v660q-92 -153 -92 -330z" />
<glyph unicode="h" horiz-adv-x="1720" d="M82 291v96l100 49v1100h178v-1010l1162 582v428h96v-1536h-96v1012l-1162 -582v-430h-178v340zM227 41h37v340l-37 -19v-321zM227 459l37 18v1014h-37v-1032z" />
<glyph unicode="i" horiz-adv-x="942" d="M27 0v100h379v1336h-197v100h543v-100h-164v-1336h319v-100h-880zM506 100h49v1336h-49v-1336z" />
<glyph unicode="j" horiz-adv-x="1210" d="M12 -219h111q62 -89 162 -142t211 -53q186 0 313 146v1704h-465v100h807v-100h-137v-1413q0 -150 -71 -272.5t-191.5 -191.5t-264.5 -69q-156 0 -283.5 80t-191.5 211zM864 -184q46 87 49 204v1416h-49v-1620z" />
<glyph unicode="k" horiz-adv-x="1282" d="M102 0v1536h101v-1024l608 1024h100l-303 -518l49 -84l361 602h100l-409 -688l505 -848h-100l-455 764l-454 -764h-103zM203 164l405 684l-53 90l-352 -594v-180z" />
<glyph unicode="l" horiz-adv-x="1222" d="M102 0v1536h205v-1436h916v-100h-1121zM152 100h55v1358h-55v-1358z" />
<glyph unicode="m" horiz-adv-x="1902" d="M29 0l977 1536h98v-172l4 -760l590 932h102v-1538h-102v1384l-588 -927v-455h-98v303l-193 -303h-96l285 455v825l-820 -1280h-159zM141 27h33l834 1300v62z" />
<glyph unicode="n" d="M102 0v1536h125l-2 -2l1057 -1296v1298h207v-1536l2 -2h-123l-1141 1386v-1384h-125zM1335 186l29 -34v1355h-29v-1321z" />
<glyph unicode="o" horiz-adv-x="1742" d="M70 768q0 156 63.5 298.5t170.5 245t255 163.5t311 61q217 0 402 -103t293 -280t108 -385t-108 -385t-293 -280t-402 -103q-163 0 -311 61t-255 163.5t-170.5 245t-63.5 298.5zM180 778q0 -200 101 -360v694q-101 -157 -101 -334zM358 319q98 -101 234 -155.5t287 -54.5 q182 0 339 90t250 244t93 333q0 134 -55 256.5t-147 210t-218 139.5t-262 52q-148 0 -284.5 -59.5t-236.5 -164.5v-891z" />
<glyph unicode="p" horiz-adv-x="1083" d="M102 0v1536h484q131 0 242 -62t176 -168t65 -231t-65 -231t-176 -168t-242 -62h-279v91h279q158 0 272.5 111.5t114.5 266.5q0 152 -114 260.5t-273 108.5h-338v-1452h-146zM203 35h22v1417h-22v-1417z" />
<glyph unicode="q" horiz-adv-x="1716" d="M49 768q0 209 107.5 385.5t292 279.5t401.5 103t402 -103t293 -280t108 -385q0 -240 -141 -434.5t-367 -280.5l190 -299h-96l-174 273q-102 -27 -215 -27q-217 0 -401.5 103t-292 279.5t-107.5 385.5zM160 778q0 -201 100 -360v694q-100 -156 -100 -334zM338 319 q98 -101 233.5 -155.5t286.5 -54.5q71 0 146 16l-107 166h96l92 -144q199 72 327 245t128 384q0 134 -55 256.5t-147 210t-218 139.5t-262 52q-148 0 -284 -59.5t-236 -164.5v-891z" />
<glyph unicode="r" horiz-adv-x="1134" d="M102 0v1536h484q131 0 242 -62t176 -168t65 -231t-65 -231t-176 -168t-242 -62h-129l559 -614h-158l-551 614v91h279q158 0 272.5 111.5t114.5 266.5q0 152 -114 260.5t-273 108.5h-334v-1452h-150zM203 39h22v1413h-22v-1413z" />
<glyph unicode="s" horiz-adv-x="1140" d="M68 1139q0 109 67 200.5t183 145t253 53.5q198 0 341.5 -107t158.5 -264h-98q-9 81 -68 150.5t-151 109t-193 39.5q-163 0 -278 -94v-448q59 -32 139.5 -62t151.5 -51.5t147.5 -46.5t136.5 -56t109.5 -71.5t76.5 -100.5t27 -137q0 -109 -67 -201t-182 -146t-251 -54 q-187 0 -327.5 98t-167.5 242h100q22 -114 132 -190t253 -76q43 0 84 6l289 446q-37 50 -91.5 89t-113 64t-124.5 45.5t-129.5 38.5t-124 38.5t-111.5 49t-89.5 66t-60.5 94.5t-22 130zM172 1153q0 -95 64 -178v348q-64 -76 -64 -170zM723 100q108 38 179 117.5t71 173.5 q0 26 -12 76z" />
<glyph unicode="t" horiz-adv-x="1804" d="M14 1434v102h1776v-102h-815v-1434h-164v1434h-797zM911 51h31v1383h-31v-1383z" />
<glyph unicode="u" d="M86 768v768h162v-1038q70 -173 215.5 -278t324.5 -105h17q179 0 325 105t216 278v1038h161v-768q0 -156 -55.5 -298t-150 -244.5t-225 -163.5t-273.5 -62h-10q-192 0 -355 103t-257.5 279.5t-94.5 385.5zM195 774q0 -100 24 -188v919h-24v-731zM1374 586q25 92 25 188 v731h-25v-919z" />
<glyph unicode="v" horiz-adv-x="2121" d="M37 1536h96l852 -1341l852 1339h96l-901 -1415l29 -43l930 1460h96l-977 -1536h-96l-29 43l-29 -45h-96l78 121z" />
<glyph unicode="w" horiz-adv-x="2816" d="M33 1319h110l781 -1231l350 549l-432 682h110l377 -594l379 594h111l-308 -485l353 -543l794 1247h111l-979 -1538h-111l-350 549l-348 -549h-111zM1386 637l349 -549l75 117l-354 543z" />
<glyph unicode="x" horiz-adv-x="1390" d="M80 0l493 776l-479 760h258l353 -555l352 555h96l-401 -631l577 -905h-258l-448 702l-447 -702h-96zM227 1477l396 -621l32 49l-362 572h-66zM672 778l471 -741h65l-503 792z" />
<glyph unicode="y" horiz-adv-x="1163" d="M78 1536h176l403 -639l406 639h96l-977 -1536h-96l485 762zM193 1507l425 -671l15 22l-410 649h-30z" />
<glyph unicode="z" horiz-adv-x="1300" d="M35 0l1001 1436h-1001v100h1220l-22 -33l-952 -1368h921v-18h-991l-12 -19h970l33 15v-113h-1167zM223 135h39l807 1159l143 209h-41zM1202 113l10 4h-10v-4z" />
<glyph unicode="&#xff;" horiz-adv-x="1705" />
<glyph unicode="&#x2000;" horiz-adv-x="769" />
<glyph unicode="&#x2001;" horiz-adv-x="1538" />
<glyph unicode="&#x2002;" horiz-adv-x="769" />
<glyph unicode="&#x2003;" horiz-adv-x="1538" />
<glyph unicode="&#x2004;" horiz-adv-x="512" />
<glyph unicode="&#x2005;" horiz-adv-x="384" />
<glyph unicode="&#x2006;" horiz-adv-x="256" />
<glyph unicode="&#x2007;" horiz-adv-x="256" />
<glyph unicode="&#x2008;" horiz-adv-x="192" />
<glyph unicode="&#x2009;" horiz-adv-x="307" />
<glyph unicode="&#x200a;" horiz-adv-x="85" />
<glyph unicode="&#x202f;" horiz-adv-x="307" />
<glyph unicode="&#x205f;" horiz-adv-x="384" />
<glyph unicode="&#x25fc;" horiz-adv-x="1536" d="M0 0v1536h1536v-1536h-1536z" />
</font>
</defs>
</svg>
